<svg width="663" height="284" viewBox="0 0 663 284" fill="none" xmlns="http://www.w3.org/2000/svg">
<path d="M156.6 282H148.6V204.8H0.200001V196.8L150.6 1.99998H156.6V198H194.2V204.8H156.6V282ZM9.4 197.6V198H148.6V17.2H148.2L9.4 197.6ZM381.891 271.2C367.491 279.2 350.824 283.2 331.891 283.2C312.957 283.2 296.157 279.067 281.491 270.8C266.824 262.533 255.224 251.6 246.691 238C238.424 224.133 232.157 209.2 227.891 193.2C223.624 176.933 221.491 159.867 221.491 142C221.491 127.6 222.824 113.733 225.491 100.4C228.157 87.0667 232.291 74.4 237.891 62.4C243.757 50.1333 250.824 39.4667 259.091 30.4C267.624 21.3333 278.024 14.1333 290.291 8.79999C302.824 3.46666 316.691 0.799996 331.891 0.799996C351.091 0.799996 368.024 4.93332 382.691 13.2C397.357 21.2 408.824 32.1333 417.091 46C425.624 59.8666 431.891 74.9333 435.891 91.2C439.891 107.2 441.891 124.133 441.891 142C441.891 160.4 439.757 177.733 435.491 194C431.224 210.267 424.824 225.2 416.291 238.8C408.024 252.4 396.557 263.2 381.891 271.2ZM331.891 276.4C346.824 276.4 360.157 273.867 371.891 268.8C383.624 263.467 393.224 256.533 400.691 248C408.424 239.2 414.824 228.933 419.891 217.2C424.957 205.2 428.557 193.067 430.691 180.8C432.824 168.533 433.891 155.6 433.891 142C433.891 124.667 432.024 108.4 428.291 93.2C424.557 77.7333 418.824 63.4667 411.091 50.4C403.357 37.3333 392.691 26.9333 379.091 19.2C365.491 11.4667 349.757 7.59998 331.891 7.59998C317.224 7.59998 304.024 10.2667 292.291 15.6C280.557 20.6667 270.824 27.6 263.091 36.4C255.357 45.2 248.957 55.4667 243.891 67.2C238.824 78.9333 235.091 91.0667 232.691 103.6C230.557 115.867 229.491 128.667 229.491 142C229.491 159.6 231.357 176.133 235.091 191.6C238.824 206.8 244.557 220.933 252.291 234C260.291 247.067 271.091 257.467 284.691 265.2C298.291 272.667 314.024 276.4 331.891 276.4ZM624.959 282H616.959V204.8H468.559V196.8L618.959 1.99998H624.959V198H662.559V204.8H624.959V282ZM477.759 197.6V198H616.959V17.2H616.559L477.759 197.6Z" fill="#E3E3E3"/>
</svg>
