<svg width="540" height="201" viewBox="0 0 540 201" fill="none" xmlns="http://www.w3.org/2000/svg">
<path d="M259.422 75.0586C258.589 75.0586 257.877 74.8617 257.288 74.4678V73.5889H257.669C258.095 74.0153 258.668 74.2285 259.388 74.2285C259.59 74.2285 259.772 74.2106 259.935 74.1748C260.101 74.1357 260.252 74.0755 260.389 73.9941C260.529 73.9095 260.636 73.7923 260.711 73.6426C260.789 73.4896 260.828 73.3089 260.828 73.1006C260.828 72.8011 260.743 72.5716 260.574 72.4121C260.408 72.2493 260.171 72.124 259.861 72.0361C259.699 71.9906 259.492 71.932 259.241 71.8604C259.004 71.7887 258.797 71.7171 258.621 71.6455C258.449 71.5706 258.281 71.4795 258.118 71.3721C257.955 71.2614 257.824 71.1393 257.723 71.0059C257.622 70.8691 257.54 70.7064 257.479 70.5176C257.42 70.3255 257.391 70.109 257.391 69.8682C257.391 69.5394 257.449 69.2497 257.566 68.999C257.687 68.7484 257.851 68.5482 258.06 68.3984C258.268 68.2454 258.502 68.1315 258.763 68.0566C259.026 67.9785 259.313 67.9395 259.622 67.9395C260.364 67.9395 260.984 68.0957 261.482 68.4082V69.2578H261.111C260.701 68.9323 260.218 68.7695 259.661 68.7695C258.779 68.7695 258.338 69.1097 258.338 69.79C258.338 70.0472 258.408 70.2523 258.548 70.4053C258.688 70.5583 258.888 70.6755 259.148 70.7568C259.337 70.8219 259.528 70.8789 259.72 70.9277C259.863 70.9668 259.974 70.9993 260.052 71.0254C260.133 71.0482 260.242 71.084 260.379 71.1328C260.519 71.1784 260.631 71.2223 260.716 71.2646C260.804 71.3037 260.905 71.3574 261.019 71.4258C261.132 71.4909 261.227 71.5592 261.302 71.6309C261.377 71.6992 261.45 71.7822 261.521 71.8799C261.596 71.9743 261.657 72.0768 261.702 72.1875C261.787 72.4121 261.829 72.679 261.829 72.9883C261.829 73.3561 261.767 73.6768 261.644 73.9502C261.52 74.2204 261.346 74.4352 261.121 74.5947C260.896 74.7542 260.643 74.8714 260.359 74.9463C260.079 75.0212 259.767 75.0586 259.422 75.0586ZM267.146 72.5781H263.626C263.655 73.151 263.792 73.5807 264.036 73.8672C264.284 74.1504 264.676 74.292 265.213 74.292C265.786 74.292 266.269 74.1309 266.663 73.8086H266.995V74.5215C266.474 74.8796 265.831 75.0586 265.066 75.0586C264.256 75.0586 263.637 74.8161 263.211 74.3311C262.788 73.846 262.576 73.2031 262.576 72.4023C262.576 72.0345 262.63 71.6878 262.737 71.3623C262.845 71.0335 262.998 70.7454 263.196 70.498C263.395 70.2507 263.646 70.0553 263.948 69.9121C264.254 69.7656 264.593 69.6924 264.964 69.6924C265.283 69.6924 265.566 69.7347 265.813 69.8193C266.064 69.904 266.272 70.0212 266.438 70.1709C266.604 70.3206 266.741 70.5029 266.849 70.7178C266.959 70.9326 267.037 71.1637 267.083 71.4111C267.132 71.6585 267.156 71.9287 267.156 72.2217C267.156 72.3161 267.155 72.3877 267.151 72.4365C267.148 72.4854 267.146 72.5326 267.146 72.5781ZM264.964 70.3906C264.746 70.3906 264.552 70.4329 264.383 70.5176C264.217 70.599 264.083 70.7129 263.982 70.8594C263.885 71.0059 263.808 71.1654 263.753 71.3379C263.701 71.5104 263.665 71.7008 263.646 71.9092H266.146C266.142 71.6846 266.121 71.486 266.082 71.3135C266.046 71.141 265.984 70.9831 265.896 70.8398C265.812 70.6934 265.691 70.5827 265.535 70.5078C265.379 70.4297 265.188 70.3906 264.964 70.3906ZM267.698 70.4883V69.7705H268.328V68.3496H269.349V69.7705H270.506V70.4883H269.349V73.5889C269.349 73.859 269.407 74.0462 269.524 74.1504C269.642 74.2513 269.832 74.3018 270.096 74.3018H270.569V74.9609C270.332 75.026 270.055 75.0586 269.739 75.0586C269.264 75.0586 268.909 74.9479 268.675 74.7266C268.444 74.5052 268.328 74.1667 268.328 73.7109V70.4883H267.698ZM271.019 70.4883V69.7705H271.648V68.3496H272.669V69.7705H273.826V70.4883H272.669V73.5889C272.669 73.859 272.728 74.0462 272.845 74.1504C272.962 74.2513 273.152 74.3018 273.416 74.3018H273.89V74.9609C273.652 75.026 273.375 75.0586 273.06 75.0586C272.584 75.0586 272.229 74.9479 271.995 74.7266C271.764 74.5052 271.648 74.1667 271.648 73.7109V70.4883H271.019ZM275.848 75H274.817V67.998H275.389C275.538 67.998 275.646 68.0192 275.711 68.0615C275.779 68.1038 275.82 68.1917 275.833 68.3252C275.843 68.4196 275.848 68.5384 275.848 68.6816V75ZM281.443 72.5781H277.923C277.952 73.151 278.089 73.5807 278.333 73.8672C278.58 74.1504 278.973 74.292 279.51 74.292C280.083 74.292 280.566 74.1309 280.96 73.8086H281.292V74.5215C280.771 74.8796 280.128 75.0586 279.363 75.0586C278.553 75.0586 277.934 74.8161 277.508 74.3311C277.085 73.846 276.873 73.2031 276.873 72.4023C276.873 72.0345 276.927 71.6878 277.034 71.3623C277.142 71.0335 277.295 70.7454 277.493 70.498C277.692 70.2507 277.942 70.0553 278.245 69.9121C278.551 69.7656 278.89 69.6924 279.261 69.6924C279.58 69.6924 279.863 69.7347 280.11 69.8193C280.361 69.904 280.569 70.0212 280.735 70.1709C280.901 70.3206 281.038 70.5029 281.146 70.7178C281.256 70.9326 281.334 71.1637 281.38 71.4111C281.429 71.6585 281.453 71.9287 281.453 72.2217C281.453 72.3161 281.451 72.3877 281.448 72.4365C281.445 72.4854 281.443 72.5326 281.443 72.5781ZM279.261 70.3906C279.043 70.3906 278.849 70.4329 278.68 70.5176C278.514 70.599 278.38 70.7129 278.279 70.8594C278.182 71.0059 278.105 71.1654 278.05 71.3379C277.998 71.5104 277.962 71.7008 277.942 71.9092H280.442C280.439 71.6846 280.418 71.486 280.379 71.3135C280.343 71.141 280.281 70.9831 280.193 70.8398C280.109 70.6934 279.988 70.5827 279.832 70.5078C279.676 70.4297 279.485 70.3906 279.261 70.3906ZM284.153 70.4883V69.7705H284.783V69.3213C284.783 68.859 284.907 68.5124 285.154 68.2812C285.402 68.0469 285.752 67.9297 286.204 67.9297C286.53 67.9297 286.782 67.9671 286.961 68.042V68.6816H286.521C286.268 68.6816 286.084 68.7337 285.97 68.8379C285.859 68.9421 285.804 69.1162 285.804 69.3604V69.7705H286.873V70.4883H285.804V75H284.783V70.4883H284.153ZM289.627 74.2676C290.076 74.2676 290.569 74.1016 291.106 73.7695V69.7705H292.127V75H291.487C291.383 75 291.307 74.9788 291.258 74.9365C291.209 74.8942 291.175 74.821 291.155 74.7168C291.132 74.6322 291.119 74.5296 291.116 74.4092C290.494 74.8486 289.865 75.0684 289.227 75.0684C288.273 75.0684 287.796 74.6029 287.796 73.6719V69.7705H288.816V73.4424C288.816 73.7386 288.88 73.9502 289.007 74.0771C289.137 74.2041 289.344 74.2676 289.627 74.2676ZM293.519 69.7705H294.158C294.288 69.7705 294.381 69.8112 294.437 69.8926C294.495 69.9935 294.529 70.1725 294.539 70.4297C294.822 70.2018 295.14 70.0228 295.491 69.8926C295.843 69.7591 296.193 69.6924 296.541 69.6924C297.01 69.6924 297.35 69.8161 297.562 70.0635C297.773 70.3076 297.879 70.6624 297.879 71.1279V75H296.858V71.3721C296.858 71.0726 296.797 70.8594 296.673 70.7324C296.552 70.6055 296.351 70.542 296.067 70.542C295.634 70.542 295.125 70.7145 294.539 71.0596V75H293.519V69.7705ZM303.553 75H302.884C302.763 75 302.682 74.9544 302.64 74.8633C302.584 74.7689 302.552 74.5785 302.542 74.292C302.34 74.5361 302.096 74.7249 301.81 74.8584C301.523 74.9919 301.22 75.0586 300.901 75.0586C300.436 75.0586 300.047 74.9333 299.734 74.6826C299.422 74.4287 299.192 74.0788 299.046 73.6328C298.938 73.3073 298.885 72.9167 298.885 72.4609C298.885 71.5169 299.114 70.7992 299.573 70.3076C299.944 69.8975 300.434 69.6924 301.043 69.6924C301.678 69.6924 302.174 69.8714 302.532 70.2295V67.998H303.094C303.243 67.998 303.351 68.0192 303.416 68.0615C303.484 68.1038 303.525 68.1917 303.538 68.3252C303.548 68.4196 303.553 68.5384 303.553 68.6816V75ZM301.155 74.3115C301.429 74.3115 301.674 74.2513 301.893 74.1309C302.111 74.0104 302.324 73.8363 302.532 73.6084V70.9521C302.36 70.7894 302.179 70.6755 301.99 70.6104C301.801 70.542 301.583 70.5078 301.336 70.5078C301.115 70.5078 300.919 70.5452 300.75 70.6201C300.584 70.6917 300.449 70.7878 300.345 70.9082C300.241 71.0254 300.154 71.1686 300.086 71.3379C300.021 71.5072 299.975 71.6781 299.949 71.8506C299.926 72.0231 299.915 72.2103 299.915 72.4121C299.915 73.6784 300.328 74.3115 301.155 74.3115ZM306.326 75.0488C305.643 75.0488 305.073 74.8958 304.617 74.5898V73.7988H304.944C305.28 74.1113 305.724 74.2676 306.277 74.2676C307.003 74.2676 307.366 74.0153 307.366 73.5107C307.366 73.3252 307.319 73.1852 307.225 73.0908C307.133 72.9964 306.992 72.9199 306.8 72.8613C306.683 72.8255 306.505 72.7881 306.268 72.749C306.014 72.71 305.792 72.6595 305.604 72.5977C305.418 72.5326 305.247 72.4447 305.091 72.334C304.935 72.2201 304.816 72.0719 304.734 71.8896C304.656 71.7074 304.617 71.4909 304.617 71.2402C304.617 70.9701 304.668 70.734 304.769 70.5322C304.873 70.3271 305.014 70.1676 305.193 70.0537C305.376 69.9365 305.574 69.8503 305.789 69.7949C306.007 69.7396 306.243 69.7119 306.497 69.7119C307.116 69.7119 307.628 69.834 308.035 70.0781V70.8594H307.708C307.399 70.612 306.998 70.4883 306.507 70.4883C306.373 70.4883 306.255 70.498 306.15 70.5176C306.046 70.5339 305.944 70.5648 305.843 70.6104C305.742 70.6527 305.664 70.721 305.608 70.8154C305.553 70.9098 305.525 71.0254 305.525 71.1621C305.525 71.3379 305.577 71.4697 305.682 71.5576C305.786 71.6455 305.932 71.7155 306.121 71.7676C306.264 71.8066 306.437 71.8408 306.639 71.8701C306.857 71.9027 307.046 71.9417 307.205 71.9873C307.365 72.0296 307.518 72.0898 307.664 72.168C307.814 72.2428 307.934 72.334 308.025 72.4414C308.12 72.5488 308.193 72.6855 308.245 72.8516C308.3 73.0143 308.328 73.2031 308.328 73.418C308.328 73.7174 308.274 73.9762 308.167 74.1943C308.06 74.4092 307.91 74.5785 307.718 74.7021C307.529 74.8226 307.319 74.9105 307.088 74.9658C306.86 75.0212 306.606 75.0488 306.326 75.0488Z" fill="#313131"/>
<path d="M240.691 77.7656L240.883 77.5742C241.02 77.4375 241.02 77.2461 240.883 77.1094L236.016 72.2148H246.297C246.461 72.2148 246.625 72.0781 246.625 71.8867V71.6133C246.625 71.4492 246.461 71.2852 246.297 71.2852H236.016L240.883 66.418C241.02 66.2812 241.02 66.0898 240.883 65.9531L240.691 65.7617C240.555 65.625 240.363 65.625 240.227 65.7617L234.457 71.5312C234.32 71.668 234.32 71.8594 234.457 71.9961L240.227 77.7656C240.363 77.9023 240.555 77.9023 240.691 77.7656Z" fill="#313131"/>
<path d="M304.281 123.762L304.09 123.953C303.953 124.09 303.953 124.281 304.09 124.418L308.957 129.285H298.703C298.512 129.285 298.375 129.449 298.375 129.613V129.887C298.375 130.078 298.512 130.215 298.703 130.215H308.957L304.09 135.109C303.953 135.246 303.953 135.438 304.09 135.574L304.281 135.766C304.418 135.902 304.609 135.902 304.746 135.766L310.516 129.996C310.652 129.859 310.652 129.668 310.516 129.531L304.746 123.762C304.609 123.625 304.418 123.625 304.281 123.762Z" fill="#313131"/>
<path d="M229.871 133V132.668L232.186 125.998H233.343L235.643 132.668V133H234.612L233.963 131.042H231.395L230.765 133H229.871ZM232.664 127.15L231.653 130.241H233.694L232.684 127.15H232.664ZM238.411 132.268C238.86 132.268 239.354 132.102 239.891 131.77V127.771H240.911V133H240.271C240.167 133 240.091 132.979 240.042 132.937C239.993 132.894 239.959 132.821 239.939 132.717C239.917 132.632 239.904 132.53 239.9 132.409C239.279 132.849 238.649 133.068 238.011 133.068C237.057 133.068 236.58 132.603 236.58 131.672V127.771H237.601V131.442C237.601 131.739 237.664 131.95 237.791 132.077C237.921 132.204 238.128 132.268 238.411 132.268ZM241.834 128.488V127.771H242.464V126.35H243.484V127.771H244.642V128.488H243.484V131.589C243.484 131.859 243.543 132.046 243.66 132.15C243.777 132.251 243.968 132.302 244.231 132.302H244.705V132.961C244.467 133.026 244.191 133.059 243.875 133.059C243.4 133.059 243.045 132.948 242.811 132.727C242.579 132.505 242.464 132.167 242.464 131.711V128.488H241.834ZM246.644 126.682V128.43C246.927 128.202 247.244 128.023 247.596 127.893C247.947 127.759 248.297 127.692 248.646 127.692C249.114 127.692 249.454 127.816 249.666 128.063C249.878 128.308 249.983 128.662 249.983 129.128V133H248.963V129.372C248.963 129.073 248.901 128.859 248.777 128.732C248.657 128.605 248.455 128.542 248.172 128.542C247.739 128.542 247.229 128.715 246.644 129.06V133H245.623V125.998H246.185C246.334 125.998 246.44 126.019 246.502 126.062C246.564 126.101 246.606 126.188 246.629 126.325C246.639 126.42 246.644 126.538 246.644 126.682ZM253.46 133.059C253.076 133.059 252.724 132.99 252.405 132.854C252.09 132.714 251.826 132.525 251.614 132.287C251.406 132.046 251.245 131.765 251.131 131.442C251.017 131.12 250.96 130.773 250.96 130.402C250.96 129.891 251.059 129.432 251.258 129.025C251.456 128.615 251.746 128.291 252.127 128.054C252.511 127.813 252.955 127.692 253.46 127.692C253.847 127.692 254.201 127.764 254.52 127.907C254.839 128.05 255.102 128.246 255.311 128.493C255.519 128.741 255.678 129.029 255.789 129.357C255.903 129.683 255.96 130.031 255.96 130.402C255.96 131.177 255.732 131.813 255.276 132.312C254.821 132.81 254.215 133.059 253.46 133.059ZM253.46 132.292C253.678 132.292 253.872 132.256 254.041 132.185C254.214 132.113 254.354 132.019 254.461 131.901C254.568 131.781 254.656 131.638 254.725 131.472C254.796 131.306 254.847 131.136 254.876 130.964C254.905 130.788 254.92 130.601 254.92 130.402C254.92 130.201 254.904 130.01 254.871 129.831C254.842 129.649 254.791 129.473 254.72 129.304C254.648 129.134 254.557 128.988 254.446 128.864C254.339 128.741 254.201 128.643 254.031 128.571C253.862 128.496 253.672 128.459 253.46 128.459C253.196 128.459 252.965 128.516 252.767 128.63C252.571 128.741 252.42 128.894 252.312 129.089C252.205 129.281 252.125 129.486 252.073 129.704C252.024 129.922 252 130.155 252 130.402C252 130.604 252.015 130.795 252.044 130.974C252.076 131.153 252.129 131.325 252.2 131.491C252.275 131.654 252.366 131.794 252.474 131.911C252.584 132.028 252.723 132.121 252.889 132.189C253.058 132.258 253.248 132.292 253.46 132.292ZM257.991 129.182V133H256.971V127.771H257.61C257.669 127.771 257.723 127.779 257.771 127.795C257.814 127.814 257.853 127.849 257.889 127.897C257.947 128.002 257.981 128.199 257.991 128.488C258.19 128.257 258.418 128.072 258.675 127.932C258.935 127.792 259.207 127.722 259.49 127.722C259.536 127.722 259.591 127.725 259.656 127.731C259.699 127.741 259.738 127.751 259.773 127.761V128.601C259.728 128.601 259.694 128.599 259.671 128.596C259.638 128.596 259.614 128.594 259.598 128.591C258.973 128.591 258.437 128.788 257.991 129.182ZM261.751 133H260.73V127.771H261.302C261.364 127.771 261.412 127.772 261.448 127.775C261.484 127.779 261.525 127.792 261.57 127.814C261.616 127.837 261.652 127.87 261.678 127.912C261.707 127.964 261.727 128.042 261.736 128.146C261.746 128.251 261.751 128.386 261.751 128.552V133ZM261.482 127.141C261.414 127.173 261.338 127.189 261.253 127.189C261.168 127.189 261.092 127.173 261.023 127.141C260.913 127.095 260.823 127.023 260.755 126.926C260.687 126.828 260.652 126.722 260.652 126.608C260.652 126.446 260.711 126.306 260.828 126.188C260.949 126.068 261.09 126.008 261.253 126.008C261.416 126.008 261.556 126.068 261.673 126.188C261.793 126.306 261.854 126.446 261.854 126.608C261.854 126.722 261.819 126.828 261.751 126.926C261.683 127.023 261.593 127.095 261.482 127.141ZM262.825 133V132.248L265.745 128.518H263.006V127.771H266.883V128.518L263.953 132.238H266.814V133H262.825ZM271.731 133H271.331C271.188 133 271.072 132.98 270.984 132.941C270.896 132.902 270.833 132.824 270.794 132.707C270.768 132.642 270.747 132.546 270.73 132.419C270.519 132.647 270.288 132.811 270.037 132.912C269.786 133.01 269.497 133.059 269.168 133.059C268.667 133.059 268.268 132.92 267.972 132.644C267.679 132.367 267.532 131.986 267.532 131.501C267.532 131.27 267.57 131.063 267.645 130.881C267.723 130.695 267.825 130.544 267.952 130.427C268.079 130.306 268.23 130.207 268.406 130.129C268.585 130.048 268.769 129.991 268.958 129.958C269.147 129.925 269.347 129.909 269.559 129.909C269.933 129.909 270.314 129.956 270.701 130.051V129.362C270.701 129.04 270.61 128.811 270.428 128.674C270.245 128.537 269.987 128.469 269.651 128.469C269.085 128.469 268.608 128.612 268.221 128.898H267.898V128.142C268.494 127.842 269.121 127.692 269.778 127.692C270.078 127.692 270.341 127.72 270.569 127.775C270.797 127.827 271.001 127.914 271.18 128.034C271.359 128.151 271.495 128.316 271.59 128.527C271.684 128.739 271.731 128.993 271.731 129.289V133ZM269.5 132.36C269.949 132.36 270.35 132.16 270.701 131.76V130.651C270.405 130.583 270.081 130.549 269.729 130.549C269.567 130.549 269.417 130.563 269.28 130.593C269.147 130.622 269.021 130.669 268.904 130.734C268.787 130.799 268.694 130.892 268.626 131.013C268.561 131.133 268.528 131.276 268.528 131.442C268.528 131.748 268.615 131.978 268.787 132.131C268.963 132.284 269.201 132.36 269.5 132.36ZM272.566 128.488V127.771H273.196V126.35H274.217V127.771H275.374V128.488H274.217V131.589C274.217 131.859 274.275 132.046 274.393 132.15C274.51 132.251 274.7 132.302 274.964 132.302H275.438V132.961C275.2 133.026 274.923 133.059 274.607 133.059C274.132 133.059 273.777 132.948 273.543 132.727C273.312 132.505 273.196 132.167 273.196 131.711V128.488H272.566ZM277.386 133H276.365V127.771H276.937C276.998 127.771 277.047 127.772 277.083 127.775C277.119 127.779 277.16 127.792 277.205 127.814C277.251 127.837 277.286 127.87 277.312 127.912C277.342 127.964 277.361 128.042 277.371 128.146C277.381 128.251 277.386 128.386 277.386 128.552V133ZM277.117 127.141C277.049 127.173 276.972 127.189 276.888 127.189C276.803 127.189 276.727 127.173 276.658 127.141C276.548 127.095 276.458 127.023 276.39 126.926C276.321 126.828 276.287 126.722 276.287 126.608C276.287 126.446 276.346 126.306 276.463 126.188C276.583 126.068 276.725 126.008 276.888 126.008C277.05 126.008 277.19 126.068 277.308 126.188C277.428 126.306 277.488 126.446 277.488 126.608C277.488 126.722 277.454 126.828 277.386 126.926C277.317 127.023 277.228 127.095 277.117 127.141ZM280.931 133.059C280.547 133.059 280.195 132.99 279.876 132.854C279.56 132.714 279.297 132.525 279.085 132.287C278.877 132.046 278.715 131.765 278.602 131.442C278.488 131.12 278.431 130.773 278.431 130.402C278.431 129.891 278.53 129.432 278.729 129.025C278.927 128.615 279.217 128.291 279.598 128.054C279.982 127.813 280.426 127.692 280.931 127.692C281.318 127.692 281.671 127.764 281.99 127.907C282.309 128.05 282.573 128.246 282.781 128.493C282.99 128.741 283.149 129.029 283.26 129.357C283.374 129.683 283.431 130.031 283.431 130.402C283.431 131.177 283.203 131.813 282.747 132.312C282.291 132.81 281.686 133.059 280.931 133.059ZM280.931 132.292C281.149 132.292 281.342 132.256 281.512 132.185C281.684 132.113 281.824 132.019 281.932 131.901C282.039 131.781 282.127 131.638 282.195 131.472C282.267 131.306 282.317 131.136 282.347 130.964C282.376 130.788 282.391 130.601 282.391 130.402C282.391 130.201 282.374 130.01 282.342 129.831C282.312 129.649 282.262 129.473 282.19 129.304C282.119 129.134 282.028 128.988 281.917 128.864C281.81 128.741 281.671 128.643 281.502 128.571C281.333 128.496 281.142 128.459 280.931 128.459C280.667 128.459 280.436 128.516 280.237 128.63C280.042 128.741 279.891 128.894 279.783 129.089C279.676 129.281 279.596 129.486 279.544 129.704C279.495 129.922 279.471 130.155 279.471 130.402C279.471 130.604 279.485 130.795 279.515 130.974C279.547 131.153 279.599 131.325 279.671 131.491C279.746 131.654 279.837 131.794 279.944 131.911C280.055 132.028 280.193 132.121 280.359 132.189C280.529 132.258 280.719 132.292 280.931 132.292ZM284.441 127.771H285.081C285.211 127.771 285.304 127.811 285.359 127.893C285.418 127.993 285.452 128.173 285.462 128.43C285.745 128.202 286.062 128.023 286.414 127.893C286.766 127.759 287.116 127.692 287.464 127.692C287.933 127.692 288.273 127.816 288.484 128.063C288.696 128.308 288.802 128.662 288.802 129.128V133H287.781V129.372C287.781 129.073 287.719 128.859 287.596 128.732C287.475 128.605 287.273 128.542 286.99 128.542C286.557 128.542 286.048 128.715 285.462 129.06V133H284.441V127.771Z" fill="#313131"/>
<path d="M382.266 150V135.996H386.104V141.699L390.84 135.996H394.141V136.855L390.078 141.543L394.561 149.141V150H390.82L387.383 144.18L386.104 145.576V150H382.266ZM400.674 150.156C399.014 150.156 397.663 149.665 396.621 148.682C395.579 147.692 395.059 146.39 395.059 144.775C395.059 143.128 395.586 141.803 396.641 140.801C397.702 139.798 399.046 139.297 400.674 139.297C402.327 139.297 403.675 139.805 404.717 140.82C405.758 141.836 406.279 143.154 406.279 144.775C406.279 145.869 406.032 146.829 405.537 147.656C405.042 148.477 404.372 149.098 403.525 149.521C402.686 149.945 401.735 150.156 400.674 150.156ZM400.674 147.803C401.064 147.803 401.396 147.712 401.67 147.529C401.943 147.347 402.145 147.1 402.275 146.787C402.406 146.475 402.497 146.162 402.549 145.85C402.607 145.531 402.637 145.189 402.637 144.824C402.637 144.538 402.62 144.264 402.588 144.004C402.555 143.737 402.493 143.464 402.402 143.184C402.318 142.897 402.204 142.653 402.061 142.451C401.924 142.249 401.735 142.083 401.494 141.953C401.26 141.823 400.986 141.758 400.674 141.758C400.361 141.758 400.085 141.826 399.844 141.963C399.603 142.093 399.411 142.262 399.268 142.471C399.131 142.673 399.017 142.913 398.926 143.193C398.841 143.473 398.783 143.743 398.75 144.004C398.717 144.264 398.701 144.538 398.701 144.824C398.701 145.195 398.73 145.544 398.789 145.869C398.848 146.188 398.945 146.501 399.082 146.807C399.219 147.113 399.421 147.357 399.688 147.539C399.961 147.715 400.29 147.803 400.674 147.803ZM407.646 139.463H410.146C410.439 139.463 410.664 139.541 410.82 139.697C410.99 139.893 411.107 140.247 411.172 140.762C411.673 140.299 412.236 139.941 412.861 139.688C413.493 139.427 414.141 139.297 414.805 139.297C416.146 139.297 417.008 139.798 417.393 140.801C418.512 139.798 419.772 139.297 421.172 139.297C423.034 139.297 423.965 140.29 423.965 142.275V150H420.371V143.223C420.371 142.793 420.28 142.493 420.098 142.324C419.922 142.148 419.619 142.061 419.189 142.061C418.682 142.061 418.154 142.168 417.607 142.383V150H414.014V143.223C414.014 142.793 413.923 142.493 413.74 142.324C413.564 142.148 413.262 142.061 412.832 142.061C412.448 142.061 411.921 142.161 411.25 142.363V150H407.646V139.463ZM435.576 145.518H428.916C429.007 146.344 429.242 146.927 429.619 147.266C430.003 147.598 430.596 147.764 431.396 147.764C432.451 147.764 433.343 147.503 434.072 146.982H435.195V149.121C433.978 149.811 432.523 150.156 430.83 150.156C429.066 150.156 427.699 149.691 426.729 148.76C425.758 147.829 425.273 146.51 425.273 144.805C425.273 143.138 425.762 141.803 426.738 140.801C427.721 139.798 429.027 139.297 430.654 139.297C433.962 139.297 435.615 141.064 435.615 144.6C435.615 144.756 435.609 144.945 435.596 145.166L435.576 145.518ZM431.426 141.67C431.217 141.559 430.96 141.504 430.654 141.504C430.348 141.504 430.085 141.566 429.863 141.689C429.648 141.807 429.479 141.976 429.355 142.197C429.232 142.412 429.137 142.633 429.072 142.861C429.014 143.089 428.968 143.35 428.936 143.643H432.217C432.197 143.324 432.165 143.053 432.119 142.832C432.08 142.604 432.005 142.383 431.895 142.168C431.79 141.947 431.634 141.781 431.426 141.67ZM444.043 142.344H443.564C442.347 142.344 441.354 142.51 440.586 142.842V150H436.982V139.463H439.482C439.619 139.463 439.746 139.479 439.863 139.512C440.221 139.642 440.436 140.104 440.508 140.898C441.302 139.889 442.269 139.385 443.408 139.385C443.486 139.385 443.597 139.391 443.74 139.404C443.812 139.417 443.913 139.437 444.043 139.463V142.344ZM448.721 150.137C447.985 150.137 447.321 150.075 446.729 149.951C446.136 149.821 445.534 149.603 444.922 149.297V146.943H446.143C446.429 147.197 446.797 147.393 447.246 147.529C447.695 147.66 448.141 147.725 448.584 147.725C449.626 147.725 450.146 147.471 450.146 146.963C450.146 146.826 450.12 146.712 450.068 146.621C450.023 146.523 449.951 146.445 449.854 146.387C449.756 146.328 449.661 146.286 449.57 146.26C449.486 146.234 449.372 146.204 449.229 146.172C448.883 146.1 448.581 146.048 448.32 146.016C447.754 145.944 447.269 145.843 446.865 145.713C446.462 145.576 446.1 145.387 445.781 145.146C445.462 144.899 445.221 144.58 445.059 144.189C444.902 143.792 444.824 143.317 444.824 142.764C444.824 142.262 444.909 141.813 445.078 141.416C445.247 141.012 445.472 140.684 445.752 140.43C446.032 140.169 446.367 139.954 446.758 139.785C447.148 139.616 447.549 139.495 447.959 139.424C448.369 139.352 448.805 139.316 449.268 139.316C450.661 139.316 451.846 139.551 452.822 140.02V142.344H451.68C451.042 141.914 450.27 141.699 449.365 141.699C448.447 141.699 447.988 141.953 447.988 142.461C447.988 142.572 448.021 142.669 448.086 142.754C448.145 142.839 448.245 142.91 448.389 142.969C448.617 143.086 449.082 143.19 449.785 143.281C450.397 143.359 450.905 143.46 451.309 143.584C451.719 143.701 452.093 143.88 452.432 144.121C452.77 144.355 453.021 144.674 453.184 145.078C453.346 145.482 453.428 145.977 453.428 146.562C453.428 147.109 453.337 147.598 453.154 148.027C452.979 148.451 452.744 148.792 452.451 149.053C452.158 149.313 451.803 149.528 451.387 149.697C450.97 149.86 450.547 149.974 450.117 150.039C449.688 150.104 449.222 150.137 448.721 150.137ZM464.033 150H462.08C461.683 150 461.37 149.928 461.143 149.785C460.915 149.635 460.745 149.375 460.635 149.004C459.945 149.759 458.939 150.137 457.617 150.137C456.615 150.137 455.807 149.857 455.195 149.297C454.583 148.737 454.277 147.972 454.277 147.002C454.277 146.403 454.391 145.885 454.619 145.449C454.854 145.007 455.169 144.665 455.566 144.424C455.97 144.183 456.406 144.007 456.875 143.896C457.35 143.779 457.865 143.721 458.418 143.721C459.076 143.721 459.749 143.786 460.439 143.916V143.203C460.439 142.676 460.283 142.321 459.971 142.139C459.658 141.95 459.219 141.855 458.652 141.855C457.682 141.855 456.849 142.09 456.152 142.559H455.078V140.137C456.354 139.577 457.78 139.297 459.355 139.297C459.922 139.297 460.43 139.329 460.879 139.395C461.328 139.46 461.755 139.577 462.158 139.746C462.562 139.909 462.897 140.127 463.164 140.4C463.431 140.667 463.643 141.016 463.799 141.445C463.955 141.868 464.033 142.367 464.033 142.939V150ZM459.033 148.037C459.541 148.037 460.01 147.845 460.439 147.461V145.596C459.997 145.531 459.603 145.498 459.258 145.498C458.216 145.498 457.695 145.918 457.695 146.758C457.695 147.174 457.812 147.493 458.047 147.715C458.281 147.93 458.61 148.037 459.033 148.037ZM465.908 139.463H468.408C468.701 139.463 468.926 139.541 469.082 139.697C469.245 139.899 469.362 140.247 469.434 140.742C470.586 139.779 471.852 139.297 473.232 139.297C475.14 139.297 476.094 140.29 476.094 142.275V150H472.49V143.223C472.49 142.91 472.441 142.663 472.344 142.48C472.253 142.298 472.074 142.174 471.807 142.109C471.631 142.077 471.445 142.061 471.25 142.061C470.742 142.061 470.163 142.174 469.512 142.402V150H465.908V139.463ZM477.246 141.777V139.463H478.379V136.777H481.982V139.463H483.945V141.777H481.982V146.582C481.982 147.044 482.08 147.367 482.275 147.549C482.477 147.731 482.812 147.822 483.281 147.822H483.984V149.902C483.346 150.085 482.66 150.176 481.924 150.176C480.765 150.176 479.883 149.938 479.277 149.463C478.678 148.988 478.379 148.206 478.379 147.119V141.777H477.246ZM488.76 150.137C488.024 150.137 487.36 150.075 486.768 149.951C486.175 149.821 485.573 149.603 484.961 149.297V146.943H486.182C486.468 147.197 486.836 147.393 487.285 147.529C487.734 147.66 488.18 147.725 488.623 147.725C489.665 147.725 490.186 147.471 490.186 146.963C490.186 146.826 490.16 146.712 490.107 146.621C490.062 146.523 489.99 146.445 489.893 146.387C489.795 146.328 489.701 146.286 489.609 146.26C489.525 146.234 489.411 146.204 489.268 146.172C488.923 146.1 488.62 146.048 488.359 146.016C487.793 145.944 487.308 145.843 486.904 145.713C486.501 145.576 486.139 145.387 485.82 145.146C485.501 144.899 485.26 144.58 485.098 144.189C484.941 143.792 484.863 143.317 484.863 142.764C484.863 142.262 484.948 141.813 485.117 141.416C485.286 141.012 485.511 140.684 485.791 140.43C486.071 140.169 486.406 139.954 486.797 139.785C487.188 139.616 487.588 139.495 487.998 139.424C488.408 139.352 488.844 139.316 489.307 139.316C490.7 139.316 491.885 139.551 492.861 140.02V142.344H491.719C491.081 141.914 490.309 141.699 489.404 141.699C488.486 141.699 488.027 141.953 488.027 142.461C488.027 142.572 488.06 142.669 488.125 142.754C488.184 142.839 488.285 142.91 488.428 142.969C488.656 143.086 489.121 143.19 489.824 143.281C490.436 143.359 490.944 143.46 491.348 143.584C491.758 143.701 492.132 143.88 492.471 144.121C492.809 144.355 493.06 144.674 493.223 145.078C493.385 145.482 493.467 145.977 493.467 146.562C493.467 147.109 493.376 147.598 493.193 148.027C493.018 148.451 492.783 148.792 492.49 149.053C492.197 149.313 491.842 149.528 491.426 149.697C491.009 149.86 490.586 149.974 490.156 150.039C489.727 150.104 489.261 150.137 488.76 150.137Z" fill="#313131"/>
<path d="M73.4727 150V135.996H78.707C79.2669 135.996 79.778 136.025 80.2402 136.084C80.7025 136.136 81.168 136.243 81.6367 136.406C82.112 136.562 82.5091 136.771 82.8281 137.031C83.1471 137.292 83.4076 137.646 83.6094 138.096C83.8112 138.545 83.9121 139.066 83.9121 139.658C83.9121 141.234 83.0723 142.214 81.3926 142.598V142.676C83.4173 143.066 84.4297 144.154 84.4297 145.938C84.4297 146.562 84.3158 147.116 84.0879 147.598C83.8665 148.079 83.5768 148.47 83.2188 148.77C82.8607 149.062 82.431 149.307 81.9297 149.502C81.4284 149.691 80.9238 149.821 80.416 149.893C79.9147 149.964 79.3809 150 78.8145 150H73.4727ZM77.2324 147.52H78.6484C79.931 147.52 80.5723 146.921 80.5723 145.723C80.5723 144.531 79.931 143.936 78.6484 143.936H77.2324V147.52ZM77.2324 141.602H78.5312C79.1042 141.602 79.5339 141.481 79.8203 141.24C80.1068 140.999 80.25 140.599 80.25 140.039C80.25 139.01 79.6836 138.496 78.5508 138.496H77.2324V141.602ZM95.1035 150H93.1504C92.7533 150 92.4408 149.928 92.2129 149.785C91.985 149.635 91.8158 149.375 91.7051 149.004C91.015 149.759 90.0091 150.137 88.6875 150.137C87.6849 150.137 86.8776 149.857 86.2656 149.297C85.6536 148.737 85.3477 147.972 85.3477 147.002C85.3477 146.403 85.4616 145.885 85.6895 145.449C85.9238 145.007 86.2396 144.665 86.6367 144.424C87.0404 144.183 87.4766 144.007 87.9453 143.896C88.4206 143.779 88.9349 143.721 89.4883 143.721C90.1458 143.721 90.8197 143.786 91.5098 143.916V143.203C91.5098 142.676 91.3535 142.321 91.041 142.139C90.7285 141.95 90.2891 141.855 89.7227 141.855C88.7526 141.855 87.9193 142.09 87.2227 142.559H86.1484V140.137C87.4245 139.577 88.8503 139.297 90.4258 139.297C90.9922 139.297 91.5 139.329 91.9492 139.395C92.3984 139.46 92.8249 139.577 93.2285 139.746C93.6322 139.909 93.9674 140.127 94.2344 140.4C94.5013 140.667 94.7129 141.016 94.8691 141.445C95.0254 141.868 95.1035 142.367 95.1035 142.939V150ZM90.1035 148.037C90.6113 148.037 91.0801 147.845 91.5098 147.461V145.596C91.0671 145.531 90.6732 145.498 90.3281 145.498C89.2865 145.498 88.7656 145.918 88.7656 146.758C88.7656 147.174 88.8828 147.493 89.1172 147.715C89.3516 147.93 89.6803 148.037 90.1035 148.037ZM96.9785 139.463H99.4785C99.7715 139.463 99.9961 139.541 100.152 139.697C100.315 139.899 100.432 140.247 100.504 140.742C101.656 139.779 102.923 139.297 104.303 139.297C106.21 139.297 107.164 140.29 107.164 142.275V150H103.561V143.223C103.561 142.91 103.512 142.663 103.414 142.48C103.323 142.298 103.144 142.174 102.877 142.109C102.701 142.077 102.516 142.061 102.32 142.061C101.812 142.061 101.233 142.174 100.582 142.402V150H96.9785V139.463ZM112.633 137.881V143.379L115.914 139.463H118.912V140.322L116.012 143.623L119.312 149.141V150H115.934L113.492 145.898L112.633 146.836V150H109.029V135.996H111.314C111.738 135.996 112.04 136.055 112.223 136.172C112.405 136.289 112.525 136.536 112.584 136.914C112.617 137.188 112.633 137.51 112.633 137.881ZM129.732 150H127.779C127.382 150 127.07 149.928 126.842 149.785C126.614 149.635 126.445 149.375 126.334 149.004C125.644 149.759 124.638 150.137 123.316 150.137C122.314 150.137 121.507 149.857 120.895 149.297C120.283 148.737 119.977 147.972 119.977 147.002C119.977 146.403 120.09 145.885 120.318 145.449C120.553 145.007 120.868 144.665 121.266 144.424C121.669 144.183 122.105 144.007 122.574 143.896C123.049 143.779 123.564 143.721 124.117 143.721C124.775 143.721 125.449 143.786 126.139 143.916V143.203C126.139 142.676 125.982 142.321 125.67 142.139C125.357 141.95 124.918 141.855 124.352 141.855C123.382 141.855 122.548 142.09 121.852 142.559H120.777V140.137C122.053 139.577 123.479 139.297 125.055 139.297C125.621 139.297 126.129 139.329 126.578 139.395C127.027 139.46 127.454 139.577 127.857 139.746C128.261 139.909 128.596 140.127 128.863 140.4C129.13 140.667 129.342 141.016 129.498 141.445C129.654 141.868 129.732 142.367 129.732 142.939V150ZM124.732 148.037C125.24 148.037 125.709 147.845 126.139 147.461V145.596C125.696 145.531 125.302 145.498 124.957 145.498C123.915 145.498 123.395 145.918 123.395 146.758C123.395 147.174 123.512 147.493 123.746 147.715C123.98 147.93 124.309 148.037 124.732 148.037Z" fill="#313131"/>
<path d="M445.805 57.7202V57.1772C445.805 51.0229 440.716 46 434.5 46C428.284 46 423.195 51.0229 423.195 57.1772V57.7202H395V80.2103L395.991 80.3461C396.757 80.4366 397.567 80.5271 398.333 80.6628V117H431.167H470.667V80.6628C471.478 80.5723 472.243 80.4818 473.009 80.3461L474 80.2103V57.7202H445.805ZM431.167 114.737H413.647V82.3372C420.628 82.9707 427.879 83.4685 434.5 83.4685C441.076 83.4685 448.147 83.0159 455.083 82.3824V114.737H431.167ZM434.5 81.2059C427.879 81.2059 420.628 80.7533 413.647 80.0746V59.9828H455.083V80.0746C448.147 80.7533 441.031 81.2059 434.5 81.2059ZM425.447 57.1772C425.447 52.2447 429.501 48.2626 434.5 48.2626C439.499 48.2626 443.553 52.29 443.553 57.1772V57.7202H425.447V57.1772ZM397.252 59.9828H411.395V79.8483C406.44 79.3505 401.621 78.7623 397.252 78.2192V59.9828ZM400.585 80.9344C404.008 81.3416 407.656 81.7489 411.395 82.1109V114.692H400.585V80.9344ZM468.415 114.737H457.335V82.1562C461.164 81.7941 464.902 81.3416 468.415 80.9344V114.737ZM471.748 78.2645C467.289 78.8075 462.38 79.3958 457.335 79.8936V59.9828H471.748V78.2645Z" fill="url(#paint0_linear)"/>
<path d="M97.5823 7H21C9.9543 7 1 15.9543 1 27V180C1 191.046 9.95431 200 21 200H181.339C192.385 200 201.339 191.046 201.339 180V129.215H219" stroke="#313131"/>
<path d="M442.617 194L519 194C530.046 194 539 185.046 539 174L539 21C539 9.9543 530.046 0.999994 519 0.999995L359.074 1.00001C348.028 1.00001 339.074 9.95432 339.074 21L339.074 71.7851L322 71.7851" stroke="#313131"/>
<circle cx="103" cy="7" r="5.5" stroke="#313131"/>
<path d="M432.5 194C432.5 190.962 434.962 188.5 438 188.5C441.038 188.5 443.5 190.962 443.5 194C443.5 197.038 441.038 199.5 438 199.5C434.962 199.5 432.5 197.038 432.5 194Z" stroke="#313131"/>
<path d="M69.1368 72.6966H133.863C134.323 72.6966 134.699 72.4038 134.866 71.9855C134.991 71.5673 134.866 71.1071 134.49 70.8144L102.148 46.2196C101.772 45.9268 101.27 45.9268 100.894 46.2196L68.51 70.8144C68.1339 71.0653 68.0086 71.5673 68.1339 71.9855C68.2593 72.4038 68.6772 72.6966 69.1368 72.6966ZM101.479 48.3528L130.729 70.5634H72.229L101.479 48.3528ZM136.955 110.718H134.908V105.573C134.908 104.988 134.448 104.528 133.863 104.528H128.724V78.8453H133.863V76.7539H69.1368V78.8453H74.2765V104.528H69.1368C68.5518 104.528 68.0922 104.988 68.0922 105.573V110.718H66.0446C65.4596 110.718 65 111.178 65 111.764V117.954C65 118.54 65.4596 119 66.0446 119H136.955C137.54 119 138 118.54 138 117.954V111.764C138 111.178 137.54 110.718 136.955 110.718ZM126.676 104.528H122.581V78.8453H126.676V104.528ZM82.5083 104.528V78.8453H89.6537V104.528H82.5083ZM91.743 78.8453H95.838V104.528H91.743V78.8453ZM97.9273 78.8453H105.073V104.528H97.9273V78.8453ZM107.162 78.8453H111.257V104.528H107.162V78.8453ZM113.346 78.8453H120.492V104.528H113.346V78.8453ZM76.324 78.8453H80.419V104.528H76.324V78.8453ZM135.911 116.867H67.0893V112.768H110.756V110.676H70.1815V106.577H132.819V110.676H119.99V112.768H135.911V116.867Z" fill="url(#paint1_linear)"/>
<defs>
<linearGradient id="paint0_linear" x1="388.68" y1="117" x2="482.917" y2="109.288" gradientUnits="userSpaceOnUse">
<stop stop-color="#4E89E2"/>
<stop offset="1" stop-color="#FCD60D"/>
</linearGradient>
<linearGradient id="paint1_linear" x1="59.16" y1="119" x2="146.351" y2="112.587" gradientUnits="userSpaceOnUse">
<stop stop-color="#4E89E2"/>
<stop offset="1" stop-color="#FCD60D"/>
</linearGradient>
</defs>
</svg>
