<svg width="15" height="14" viewBox="0 0 15 14" fill="none" xmlns="http://www.w3.org/2000/svg">
<path d="M8.21875 13.875L8.4375 13.6562C8.59375 13.5 8.59375 13.2812 8.4375 13.125L2.875 7.53125H14.625C14.8125 7.53125 15 7.375 15 7.15625V6.84375C15 6.65625 14.8125 6.46875 14.625 6.46875H2.875L8.4375 0.90625C8.59375 0.75 8.59375 0.53125 8.4375 0.375L8.21875 0.15625C8.0625 0 7.84375 0 7.6875 0.15625L1.09375 6.75C0.9375 6.90625 0.9375 7.125 1.09375 7.28125L7.6875 13.875C7.84375 14.0312 8.0625 14.0312 8.21875 13.875Z" fill="#313131"/>
</svg>
