<svg width="581" height="559" viewBox="0 0 581 559" fill="none" xmlns="http://www.w3.org/2000/svg">
<path d="M139.361 6H21C9.95431 6 1 14.9543 1 26V262C1 273.046 9.95431 282 21 282H268C279.046 282 288 273.046 288 262V180.774" stroke="#313131"/>
<path d="M436.497 282H554.725C565.77 282 574.725 273.046 574.725 262V26C574.725 14.9543 565.77 6 554.725 6H308.001C296.955 6 288.001 14.9543 288.001 26V194.5" stroke="#313131"/>
<path d="M447 282H308C296.954 282 288 290.954 288 302V538C288 549.046 296.954 558 308 558H554.724C565.77 558 574.724 549.046 574.724 538V369.5" stroke="#313131"/>
<circle cx="145" cy="6" r="5.5" stroke="#313131"/>
<circle cx="575" cy="365" r="5.5" stroke="#313131"/>
</svg>
