<svg width="366" height="441" viewBox="0 0 366 441" fill="none" xmlns="http://www.w3.org/2000/svg">
<path d="M174.629 6H21C9.9543 6 1 14.9543 1 26V127C1 138.046 9.9543 147 21 147H225" stroke="#313131"/>
<path d="M186.675 288H340C351.046 288 360 279.046 360 268V167C360 155.954 351.046 147 340 147H50" stroke="#313131"/>
<path d="M200.08 288H21C9.95429 288 1 296.954 1 308V420C1 431.046 9.95431 440 21 440H340C351.046 440 360 431.046 360 420V353.356" stroke="#313131"/>
<circle cx="180" cy="6" r="5.5" stroke="#313131"/>
<circle cx="360" cy="348" r="5.5" stroke="#313131"/>
</svg>
