<?xml version="1.0" encoding="UTF-8"?>
<svg width="581px" height="559px" viewBox="0 0 581 559" version="1.1" xmlns="http://www.w3.org/2000/svg" xmlns:xlink="http://www.w3.org/1999/xlink">
    <title>art__img</title>
    <g id="Page-1" stroke="none" stroke-width="1" fill="none" fill-rule="evenodd">
        <g id="art__img" transform="translate(1.000000, 0.000000)" stroke="#313131">
            <circle id="Oval" cx="144" cy="6" r="5.5"></circle>
            <path d="M138.361,6 L20,6 C8.95431,6 0,14.9543 0,26 L0,262 C0,273.046 8.95431,282 20,282 L267,282 C278.046,282 287,273.046 287,262 L287,180.774" id="Path"></path>
            <path d="M574,262 L574,26 C574,14.9543 565.045,6 554,6 L307.276,6 C296.23,6 287.276,14.9543 287.276,26 L287.276,194.5 L287.089277,253.912 C287.040676,269.375897 299.537242,281.951261 315.001139,281.999862 C315.030472,281.999954 315.059805,282 315.089138,282 L415.001,282 L415.001,282" id="Path" transform="translate(430.500500, 144.000000) scale(-1, 1) translate(-430.500500, -144.000000) "></path>
            <path d="M446,282 L307,282 C295.954,282 287,290.954 287,302 L287,538 C287,549.046 295.954,558 307,558 L553.724,558 C564.77,558 573.724,549.046 573.724,538 L573.724,369.5" id="Path"></path>
            <circle id="Oval" cx="574" cy="365" r="5.5"></circle>
        </g>
    </g>
</svg>