<svg width="104" height="104" viewBox="0 0 104 104" fill="none" xmlns="http://www.w3.org/2000/svg">
<path d="M5.89353 38.0335H98.1065C98.7613 38.0335 99.2971 37.6164 99.5352 37.0205C99.7138 36.4246 99.5352 35.7691 98.9994 35.352L52.9227 0.312849C52.387 -0.104283 51.6726 -0.104283 51.1368 0.312849L5.00057 35.352C4.4648 35.7095 4.28621 36.4246 4.4648 37.0205C4.64339 37.6164 5.2387 38.0335 5.89353 38.0335ZM51.9702 3.35196L93.6417 34.9944H10.2988L51.9702 3.35196ZM102.512 92.2011H99.5947V84.8715C99.5947 84.0372 98.9399 83.3817 98.1065 83.3817H90.7842V46.7933H98.1065V43.8138H5.89353V46.7933H13.2158V83.3817H5.89353C5.0601 83.3817 4.40527 84.0372 4.40527 84.8715V92.2011H1.48827C0.654837 92.2011 0 92.8566 0 93.6909V102.51C0 103.345 0.654837 104 1.48827 104H102.512C103.345 104 104 103.345 104 102.51V93.6909C104 92.8566 103.345 92.2011 102.512 92.2011ZM87.8672 83.3817H82.0332V46.7933H87.8672V83.3817ZM24.9433 83.3817V46.7933H35.1231V83.3817H24.9433ZM38.0996 46.7933H43.9336V83.3817H38.0996V46.7933ZM46.9101 46.7933H57.0899V83.3817H46.9101V46.7933ZM60.0664 46.7933H65.9004V83.3817H60.0664V46.7933ZM68.8769 46.7933H79.0567V83.3817H68.8769V46.7933ZM16.1328 46.7933H21.9668V83.3817H16.1328V46.7933ZM101.023 100.961H2.97653V95.121H65.186V92.1415H7.3818V86.3017H96.6182V92.1415H78.3423V95.121H101.023V100.961Z" fill="white"/>
</svg>
