<svg width="58" height="67" viewBox="0 0 58 67" fill="none" xmlns="http://www.w3.org/2000/svg">
<path d="M1.4 66C1.2 66 1 66 0.9 65.9C0.3 65.7 0 65.2 0 64.6V1.4C0 0.6 0.6 0 1.4 0H56.1C56.9 0 57.5 0.6 57.5 1.4V64.6C57.5 65.2 57.2 65.7 56.6 65.9C56.5 66 56.3 66 56.2 66C55.8 66 55.5 65.9 55.2 65.6L48.5 58.9C48.4 58.8 48.2 58.7 48 58.7C47.8 58.7 47.6 58.8 47.5 59L42.6 65.5C42.3 65.9 41.9 66.1 41.5 66.1C41.1 66.1 40.6 65.9 40.4 65.5L35.8 59.3C35.7 59.1 35.5 59 35.2 59C35 59 34.8 59.1 34.6 59.3L30 65.5C29.7 65.9 29.3 66.1 28.9 66.1C28.5 66.1 28 65.9 27.8 65.5L23 59.3C22.9 59.1 22.7 59 22.4 59C22.2 59 22 59.1 21.8 59.3L17.2 65.5C17 65.8 16.6 66 16.1 66C15.7 66 15.2 65.8 15 65.4L10.2 59C10.1 58.8 9.9 58.7 9.7 58.7C9.5 58.7 9.3 58.8 9.2 58.9L2.5 65.6C2.1 65.9 1.8 66 1.4 66ZM22.5 54.7C22.9 54.7 23.4 54.9 23.6 55.3L28.2 61.5C28.3 61.7 28.5 61.8 28.8 61.8C29 61.8 29.2 61.7 29.4 61.5L34 55.3C34.2 55 34.7 54.8 35.1 54.8C35.6 54.8 36 55 36.2 55.3L40.8 61.5C40.9 61.7 41.1 61.8 41.4 61.8C41.6 61.8 41.8 61.7 42 61.5L46.6 55.3C46.8 55 47.2 54.8 47.6 54.7H47.7C48.1 54.7 48.4 54.9 48.7 55.1L53.5 59.9C53.6 60 53.8 60.1 54 60.1C54.1 60.1 54.2 60.1 54.3 60C54.6 59.9 54.7 59.6 54.7 59.4V3.4C54.7 3 54.4 2.7 54 2.7H3.5C3.1 2.7 2.8 3 2.8 3.4V59.4C2.8 59.7 3 59.9 3.2 60C3.3 60 3.4 60.1 3.5 60.1C3.7 60.1 3.9 60 4 59.9L8.8 55.1C9.1 54.8 9.4 54.7 9.8 54.7H9.9C10.3 54.7 10.7 54.9 10.9 55.3L15.5 61.5C15.6 61.7 15.8 61.8 16.1 61.8C16.3 61.8 16.5 61.7 16.7 61.5L21.3 55.3C21.6 55 22 54.7 22.5 54.7ZM14 13.4C14.8 13.4 15.4 12.8 15.4 12C15.4 11.2 14.8 10.6 14 10.6H9.8C9 10.6 8.4 11.2 8.4 12C8.4 12.8 9 13.4 9.8 13.4H14ZM30.9 13.4C31.7 13.4 32.3 12.8 32.3 12C32.3 11.2 31.7 10.6 30.9 10.6H22.5C21.7 10.6 21.1 11.2 21.1 12C21.1 12.8 21.7 13.4 22.5 13.4H30.9ZM14 21.8C14.8 21.8 15.4 21.2 15.4 20.4C15.4 19.6 14.8 19 14 19H9.8C9 19 8.4 19.6 8.4 20.4C8.4 21.2 9 21.8 9.8 21.8H14ZM30.9 21.8C31.7 21.8 32.3 21.2 32.3 20.4C32.3 19.6 31.7 19 30.9 19H22.5C21.7 19 21.1 19.6 21.1 20.4C21.1 21.2 21.7 21.8 22.5 21.8H30.9ZM14 30.2C14.8 30.2 15.4 29.6 15.4 28.8C15.4 28 14.8 27.4 14 27.4H9.8C9 27.4 8.4 28 8.4 28.8C8.4 29.6 9 30.2 9.8 30.2H14ZM30.9 30.2C31.7 30.2 32.3 29.6 32.3 28.8C32.3 28 31.7 27.4 30.9 27.4H22.5C21.7 27.4 21.1 28 21.1 28.8C21.1 29.6 21.7 30.2 22.5 30.2H30.9ZM33 49.2C33.8 49.2 34.4 48.6 34.4 47.8C34.4 47 33.8 46.4 33 46.4H20.4C19.6 46.4 19 47 19 47.8C19 48.6 19.6 49.2 20.4 49.2H33ZM47.7 49.2C48.5 49.2 49.1 48.6 49.1 47.8C49.1 47 48.5 46.4 47.7 46.4H41.4C40.6 46.4 40 47 40 47.8C40 48.6 40.6 49.2 41.4 49.2H47.7ZM47.7 40.7C48.5 40.7 49.1 40.1 49.1 39.3C49.1 38.5 48.5 37.9 47.7 37.9H9.8C9 37.9 8.4 38.5 8.4 39.3C8.4 40.1 9 40.7 9.8 40.7H47.7ZM49.5 16V15.2C49.5 12.5 47.4 10.4 44.7 10.4H43.5C40.8 10.4 38.7 12.4 38.7 15.2V17.1H36.2V19.6H38.7V21.1H36.2V23.6H38.7V25.5C38.7 28.2 40.8 30.3 43.5 30.3H44.7C47.4 30.3 49.5 28.3 49.5 25.5V24.7L46.5 24.4V25.5C46.5 26.6 45.7 27.4 44.6 27.4H43.5C42.4 27.4 41.6 26.6 41.6 25.5V23.6H45.5V21.1H41.6V19.6H45.5V17.1H41.6V15.2C41.6 14.1 42.4 13.3 43.5 13.3H44.6C45.7 13.3 46.5 14.1 46.5 15.2V16.3L49.5 16Z" fill="url(#paint0_linear)"/>
<defs>
<linearGradient id="paint0_linear" x1="-4.6" y1="66.1" x2="64.1677" y2="61.7002" gradientUnits="userSpaceOnUse">
<stop stop-color="#4E89E2"/>
<stop offset="1" stop-color="#FCD60D"/>
</linearGradient>
</defs>
</svg>
