<svg width="84" height="83" viewBox="0 0 84 83" fill="none" xmlns="http://www.w3.org/2000/svg">
<path d="M47.693 48.659H67.5281C68.2992 48.659 68.9062 48.0379 68.9062 47.286C68.9062 46.5342 68.2828 45.9131 67.5281 45.9131H47.693C46.9219 45.9131 46.3148 46.5342 46.3148 47.286C46.3148 48.0379 46.9219 48.659 47.693 48.659ZM65.9695 52.0424H49.2516C47.857 52.0424 46.725 53.1702 46.725 54.5596V67.0471C46.725 68.4365 47.857 69.5643 49.2516 69.5643H65.9531C67.3477 69.5643 68.4797 68.4365 68.4797 67.0471V54.5596C68.4797 53.1702 67.3477 52.0424 65.9695 52.0424ZM66.0187 67.0471C66.0187 67.0798 65.9859 67.1125 65.9531 67.1125H49.2516C49.2188 67.1125 49.1859 67.0798 49.1859 67.0471V54.5596C49.1859 54.5269 49.2188 54.4942 49.2516 54.4942H65.9531C65.9859 54.4942 66.0187 54.5269 66.0187 54.5596V67.0471ZM64.5914 6.11302C65.2641 6.11302 65.8219 5.55729 65.8219 4.88715V1.22587C65.8219 0.55573 65.2641 0 64.5914 0C63.9188 0 63.3609 0.55573 63.3609 1.22587V4.88715C63.3609 5.57364 63.9188 6.11302 64.5914 6.11302ZM55.0922 8.20518C55.568 8.67919 56.3555 8.67919 56.8312 8.20518C57.307 7.73118 57.307 6.94662 56.8312 6.47261L54.2227 3.87376C53.7469 3.39976 52.9594 3.39976 52.4836 3.87376C52.0078 4.34777 52.0078 5.13233 52.4836 5.60633L55.0922 8.20518ZM74.107 8.20518L76.7156 5.60633C77.1914 5.13233 77.1914 4.34777 76.7156 3.87376C76.2398 3.39976 75.4523 3.39976 74.9766 3.87376L72.368 6.47261C71.8922 6.94662 71.8922 7.73118 72.368 8.20518C72.8438 8.67919 73.6312 8.67919 74.107 8.20518ZM82.7695 13.3539H79.0945C78.4219 13.3539 77.8641 13.9096 77.8641 14.5797C77.8641 15.2499 78.4219 15.8056 79.0945 15.8056H82.7695C83.4422 15.8056 84 15.2499 84 14.5797C84 13.9096 83.4422 13.3539 82.7695 13.3539ZM46.4297 15.8056H50.1047C50.7773 15.8056 51.3352 15.2499 51.3352 14.5797C51.3352 13.9096 50.7773 13.3539 50.1047 13.3539H46.4297C45.757 13.3539 45.1992 13.9096 45.1992 14.5797C45.1992 15.2499 45.7406 15.8056 46.4297 15.8056ZM13.5844 29.9277H33.4195C34.1906 29.9277 34.7977 29.3066 34.7977 28.5547C34.7977 27.8028 34.1742 27.1817 33.4195 27.1817H13.5844C12.8133 27.1817 12.2063 27.8028 12.2063 28.5547C12.2063 29.3066 12.8297 29.9277 13.5844 29.9277ZM13.5844 36.1715H33.4195C34.1906 36.1715 34.7977 35.5503 34.7977 34.7985C34.7977 34.0466 34.1742 33.4255 33.4195 33.4255H13.5844C12.8133 33.4255 12.2063 34.0466 12.2063 34.7985C12.2063 35.5503 12.8297 36.1715 13.5844 36.1715ZM34.7977 41.0423C34.7977 40.274 34.1742 39.6693 33.4195 39.6693H13.5844C12.8133 39.6693 12.2063 40.2904 12.2063 41.0423C12.2063 41.7941 12.8297 42.4152 13.5844 42.4152H33.4195C34.1906 42.4152 34.7977 41.8105 34.7977 41.0423ZM13.5844 65.8376H33.4195C34.1906 65.8376 34.7977 65.2165 34.7977 64.4646C34.7977 63.7128 34.1742 63.0916 33.4195 63.0916H13.5844C12.8133 63.0916 12.2063 63.7128 12.2063 64.4646C12.2063 65.2165 12.8297 65.8376 13.5844 65.8376ZM77.8969 22.9811H76.3383C76.5844 20.4639 76.0102 17.9958 74.7633 15.9037C74.4188 15.3153 73.6641 15.1191 73.0734 15.4624C72.4828 15.8056 72.2859 16.5575 72.6305 17.1459C74.5172 20.3332 74.3367 24.4194 71.9906 27.4596C71.9742 27.4759 71.9578 27.4923 71.9578 27.5086C71.2031 28.4893 69.5953 29.7479 68.3648 32.7227H60.7852C60.1289 31.1209 59.1281 29.5844 57.8812 28.3095C52.0242 22.3109 56.5523 12.226 64.9359 12.5366C66.3797 12.5856 67.7414 12.9779 69.0211 13.6644C69.6117 13.9913 70.3664 13.7788 70.6945 13.1741C71.0227 12.5856 70.8094 11.8338 70.2023 11.5069C63.1312 7.64945 54.3047 11.9318 52.9594 19.8428H42.9188C42.0164 19.8428 41.1797 20.1861 40.5398 20.7418C39.9 20.1861 39.0797 19.8428 38.1609 19.8428H7.56328C6.26719 19.8428 5.21719 20.8889 5.21719 22.1801V22.9811H3.23203C1.44375 22.9811 0 24.4194 0 26.1847V49.5743V55.8181V58.6948C0 59.365 0.557813 59.9207 1.23047 59.9207C1.90312 59.9207 2.46094 59.365 2.46094 58.6948V58.4987C2.625 58.515 2.49375 58.515 5.21719 58.515V72.1468C5.21719 73.438 6.26719 74.4841 7.56328 74.4841H38.1938C38.9156 74.4841 39.1125 75.0235 39.3422 75.2196V79.028C38.4891 78.4886 37.5047 78.1781 36.4711 78.1781H3.23203C2.80547 78.1781 2.46094 77.8348 2.46094 77.4099V64.3992C2.46094 63.7291 1.90312 63.1734 1.23047 63.1734C0.557813 63.1734 0 63.7454 0 64.4156V77.4262C0 79.1915 1.44375 80.6462 3.23203 80.6462H36.4547C37.4719 80.6462 38.4234 81.1855 38.932 82.0682C39.6867 83.3431 41.4586 83.2777 42.1805 82.0682C42.6891 81.1855 43.6406 80.6462 44.6578 80.6462H77.8805C79.6523 80.6462 81.1125 79.2078 81.1125 77.4262V26.1847C81.1125 24.4194 79.6687 22.9811 77.8969 22.9811ZM61.1953 37.7406V35.1744H68.0203V37.7406C68.0203 39.6202 66.4945 41.1403 64.6078 41.1403C62.7211 41.1403 61.1953 39.6039 61.1953 37.7406ZM42.9352 22.2946H52.8117C52.8773 24.0271 53.3531 25.727 54.0914 27.1817H47.693C46.9219 27.1817 46.3148 27.8028 46.3148 28.5547C46.3148 29.3229 46.9383 29.9277 47.693 29.9277H56.0602C57.0773 30.9901 57.8156 32.0362 58.4227 33.4255H47.693C46.9219 33.4255 46.3148 34.0466 46.3148 34.7985C46.3148 35.5667 46.9383 36.1715 47.693 36.1715H58.7344V37.7406C58.7344 38.4107 58.8492 39.0645 59.0625 39.6693H47.693C46.9219 39.6693 46.3148 40.2904 46.3148 41.0423C46.3148 41.7941 46.9383 42.4152 47.693 42.4152L61.0312 42.3662C62.0156 43.1181 63.2625 43.5757 64.6078 43.5757C67.8398 43.5757 70.4813 40.9442 70.4813 37.7242V34.161C71.4 31.5949 72.8602 30.2546 73.4508 29.6008V72.016H42.9352C42.5742 72.016 42.1805 72.065 41.8195 72.1958H41.8031V23.4387C41.7867 22.8176 42.2953 22.2946 42.9352 22.2946ZM2.46094 26.1847C2.46094 25.7597 2.80547 25.4165 3.23203 25.4165H5.23359V46.8611H2.70703C2.625 46.8611 2.54297 46.8611 2.46094 46.8774V26.1847ZM2.70703 56.0633C2.57578 56.0633 2.46094 55.9489 2.46094 55.8181V49.5743C2.46094 49.4436 2.57578 49.3292 2.70703 49.3292H7.35V56.0633C6.16875 56.0633 8.51484 56.0633 2.70703 56.0633ZM25.8891 58.515C26.1187 58.515 26.3813 58.4333 26.5945 58.3026L32.0578 54.4615C32.632 54.0529 32.9766 53.3991 32.9766 52.7126C32.9766 52.0261 32.632 51.3559 32.0578 50.9637L26.5945 47.1226C26.4141 46.9918 26.2008 46.9101 25.9547 46.9101C25.9383 46.9101 25.9219 46.9101 25.9055 46.9101C23.7562 46.9101 9.61406 46.9101 7.69453 46.9101V24.2069V22.3109H38.1938C38.8172 22.3109 39.3422 22.8176 39.3422 23.4551V72.2285C38.9977 72.1141 38.6039 72.0487 38.1938 72.0487H7.67812V58.515C9.59766 58.515 23.7398 58.515 25.8891 58.515ZM24.6586 56.0633H9.81094V49.3455H24.675V56.0633H24.6586ZM30.3023 52.6962L27.1195 54.9192V50.4733L30.3023 52.6962ZM78.6516 77.4262C78.6516 77.8512 78.307 78.1944 77.8805 78.1944H44.6578C43.6242 78.1944 42.6234 78.4886 41.7867 79.0443V75.236C42.0164 75.0235 42.2133 74.5004 42.9352 74.5004H73.5656C74.8617 74.5004 75.9117 73.4544 75.9117 72.1631V25.4328H77.9133C78.3398 25.4328 78.6844 25.776 78.6844 26.201L78.6516 77.4262Z" fill="url(#paint0_linear)"/>
<defs>
<linearGradient id="paint0_linear" x1="-6.72" y1="83" x2="93.5961" y2="75.5329" gradientUnits="userSpaceOnUse">
<stop stop-color="#4E89E2"/>
<stop offset="1" stop-color="#FCD60D"/>
</linearGradient>
</defs>
</svg>
