<svg width="73" height="73" viewBox="0 0 73 73" fill="none" xmlns="http://www.w3.org/2000/svg">
<path d="M4.13681 26.6966H68.8632C69.3228 26.6966 69.6989 26.4038 69.8661 25.9855C69.9914 25.5673 69.8661 25.1071 69.49 24.8144L37.1477 0.219596C36.7716 -0.0731987 36.2702 -0.0731987 35.8941 0.219596L3.51002 24.8144C3.13394 25.0653 3.00859 25.5673 3.13394 25.9855C3.2593 26.4038 3.67716 26.6966 4.13681 26.6966ZM36.4791 2.35281L65.7293 24.5634H7.22896L36.4791 2.35281ZM71.9554 64.7181H69.9078V59.5733C69.9078 58.9877 69.4482 58.5276 68.8632 58.5276H63.7235V32.8453H68.8632V30.7539H4.13681V32.8453H9.27647V58.5276H4.13681C3.5518 58.5276 3.09216 58.9877 3.09216 59.5733V64.7181H1.04465C0.459645 64.7181 0 65.1782 0 65.7638V71.9543C0 72.5399 0.459645 73 1.04465 73H71.9554C72.5404 73 73 72.5399 73 71.9543V65.7638C73 65.1782 72.5404 64.7181 71.9554 64.7181ZM61.676 58.5276H57.581V32.8453H61.676V58.5276ZM17.5083 58.5276V32.8453H24.6537V58.5276H17.5083ZM26.743 32.8453H30.838V58.5276H26.743V32.8453ZM32.9273 32.8453H40.0727V58.5276H32.9273V32.8453ZM42.162 32.8453H46.257V58.5276H42.162V32.8453ZM48.3463 32.8453H55.4917V58.5276H48.3463V32.8453ZM11.324 32.8453H15.419V58.5276H11.324V32.8453ZM70.9107 70.8668H2.0893V66.7677H45.7556V64.6763H5.18145V60.5771H67.8186V64.6763H54.9903V66.7677H70.9107V70.8668Z" fill="url(#paint0_linear)"/>
<defs>
<linearGradient id="paint0_linear" x1="-5.84" y1="73" x2="81.3508" y2="66.5871" gradientUnits="userSpaceOnUse">
<stop stop-color="#4E89E2"/>
<stop offset="1" stop-color="#FCD60D"/>
</linearGradient>
</defs>
</svg>
