<svg width="14" height="16" viewBox="0 0 14 16" fill="none" xmlns="http://www.w3.org/2000/svg">
<path d="M12.5 2H11V0.375C11 0.1875 10.8125 0 10.625 0H10.375C10.1562 0 10 0.1875 10 0.375V2H4V0.375C4 0.1875 3.8125 0 3.625 0H3.375C3.15625 0 3 0.1875 3 0.375V2H1.5C0.65625 2 0 2.6875 0 3.5V14.5C0 15.3438 0.65625 16 1.5 16H12.5C13.3125 16 14 15.3438 14 14.5V3.5C14 2.6875 13.3125 2 12.5 2ZM1.5 3H12.5C12.75 3 13 3.25 13 3.5V5H1V3.5C1 3.25 1.21875 3 1.5 3ZM12.5 15H1.5C1.21875 15 1 14.7812 1 14.5V6H13V14.5C13 14.7812 12.75 15 12.5 15Z" fill="#313131"/>
</svg>
