<svg width="75" height="75" viewBox="0 0 75 75" fill="none" xmlns="http://www.w3.org/2000/svg">
<path d="M62.4688 8.5C62.4531 8.45312 62.4375 8.42188 62.4219 8.375C62.4063 8.3125 62.375 8.23438 62.3438 8.17188C62.3125 8.09375 62.25 8.03125 62.2031 7.96875C62.1563 7.92188 62.1094 7.85938 62.0625 7.8125C62 7.76562 61.9375 7.71875 61.8594 7.67188C61.7969 7.64062 61.7344 7.60938 61.6719 7.57812C61.5938 7.54688 61.5 7.53125 61.4219 7.53125C61.375 7.51562 61.3125 7.5 61.2656 7.5H54.9688C54.6406 3.15625 52.625 0 50.0156 0C47.4063 0 45.3906 3.15625 45.0625 7.5H42.4531C42.125 3.15625 40.1094 0 37.5 0C34.8906 0 32.875 3.15625 32.5469 7.5H29.9375C29.6094 3.15625 27.5938 0 24.9844 0C22.375 0 20.3594 3.15625 20.0313 7.5H17.4219C17.125 3.15625 15.1094 0 12.5 0C9.89063 0 7.875 3.15625 7.54688 7.5H1.25C0.5625 7.5 0 8.0625 0 8.75V73.75C0 74.4375 0.5625 75 1.25 75H61.25C61.9375 75 62.5 74.4375 62.5 73.75V70H73.75C74.125 70 74.4844 69.8281 74.7188 69.5469C74.9531 69.25 75.0469 68.875 74.9688 68.5L62.4688 8.5ZM50 2.5C50.9063 2.5 52.1563 4.42188 52.4375 7.5H47.5625C47.8438 4.42188 49.0938 2.5 50 2.5ZM37.5 2.5C38.4063 2.5 39.6563 4.42188 39.9375 7.5H35.0625C35.3438 4.42188 36.5938 2.5 37.5 2.5ZM25 2.5C25.9063 2.5 27.1563 4.42188 27.4375 7.5H22.5625C22.8438 4.42188 24.0938 2.5 25 2.5ZM12.5 2.5C13.4063 2.5 14.6563 4.42188 14.9375 7.5H10.0625C10.3438 4.42188 11.5938 2.5 12.5 2.5ZM2.5 10H7.54688C7.875 14.3438 9.89063 17.5 12.5 17.5C13.1875 17.5 13.75 16.9375 13.75 16.25C13.75 15.5625 13.1875 15 12.5 15C11.5938 15 10.3438 13.0781 10.0625 10H20.0625C20.3906 14.3438 22.4063 17.5 25.0156 17.5C25.7031 17.5 26.2656 16.9375 26.2656 16.25C26.2656 15.5625 25.7031 15 25.0156 15C24.1094 15 22.8594 13.0781 22.5781 10H32.5781C32.9063 14.3438 34.9219 17.5 37.5313 17.5C38.2188 17.5 38.7813 16.9375 38.7813 16.25C38.7813 15.5625 38.2188 15 37.5313 15C36.625 15 35.375 13.0781 35.0938 10H45.0938C45.4219 14.3438 47.4375 17.5 50.0469 17.5C50.7344 17.5 51.2969 16.9375 51.2969 16.25C51.2969 15.5625 50.7344 15 50.0469 15C49.1406 15 47.8906 13.0781 47.6094 10H60V22.5H2.5V10ZM60 72.5H2.5V25H60V72.5ZM62.5 67.5V20.875L72.2188 67.5H62.5ZM27.5 45H22.5C21.8125 45 21.25 45.5625 21.25 46.25V51.25C21.25 51.9375 21.8125 52.5 22.5 52.5H27.5C28.1875 52.5 28.75 51.9375 28.75 51.25V46.25C28.75 45.5625 28.1875 45 27.5 45ZM26.25 50H23.75V47.5H26.25V50ZM40 45H35C34.3125 45 33.75 45.5625 33.75 46.25V51.25C33.75 51.9375 34.3125 52.5 35 52.5H40C40.6875 52.5 41.25 51.9375 41.25 51.25V46.25C41.25 45.5625 40.6875 45 40 45ZM38.75 50H36.25V47.5H38.75V50ZM15 45H10C9.3125 45 8.75 45.5625 8.75 46.25V51.25C8.75 51.9375 9.3125 52.5 10 52.5H15C15.6875 52.5 16.25 51.9375 16.25 51.25V46.25C16.25 45.5625 15.6875 45 15 45ZM13.75 50H11.25V47.5H13.75V50ZM27.5 57.5H22.5C21.8125 57.5 21.25 58.0625 21.25 58.75V63.75C21.25 64.4375 21.8125 65 22.5 65H27.5C28.1875 65 28.75 64.4375 28.75 63.75V58.75C28.75 58.0625 28.1875 57.5 27.5 57.5ZM26.25 62.5H23.75V60H26.25V62.5ZM40 57.5H35C34.3125 57.5 33.75 58.0625 33.75 58.75V63.75C33.75 64.4375 34.3125 65 35 65H40C40.6875 65 41.25 64.4375 41.25 63.75V58.75C41.25 58.0625 40.6875 57.5 40 57.5ZM38.75 62.5H36.25V60H38.75V62.5ZM15 57.5H10C9.3125 57.5 8.75 58.0625 8.75 58.75V63.75C8.75 64.4375 9.3125 65 10 65H15C15.6875 65 16.25 64.4375 16.25 63.75V58.75C16.25 58.0625 15.6875 57.5 15 57.5ZM13.75 62.5H11.25V60H13.75V62.5ZM27.5 32.5H22.5C21.8125 32.5 21.25 33.0625 21.25 33.75V38.75C21.25 39.4375 21.8125 40 22.5 40H27.5C28.1875 40 28.75 39.4375 28.75 38.75V33.75C28.75 33.0625 28.1875 32.5 27.5 32.5ZM26.25 37.5H23.75V35H26.25V37.5ZM40 32.5H35C34.3125 32.5 33.75 33.0625 33.75 33.75V38.75C33.75 39.4375 34.3125 40 35 40H40C40.6875 40 41.25 39.4375 41.25 38.75V33.75C41.25 33.0625 40.6875 32.5 40 32.5ZM38.75 37.5H36.25V35H38.75V37.5ZM52.5 45H47.5C46.8125 45 46.25 45.5625 46.25 46.25V51.25C46.25 51.9375 46.8125 52.5 47.5 52.5H52.5C53.1875 52.5 53.75 51.9375 53.75 51.25V46.25C53.75 45.5625 53.1875 45 52.5 45ZM51.25 50H48.75V47.5H51.25V50ZM52.5 57.5H47.5C46.8125 57.5 46.25 58.0625 46.25 58.75V63.75C46.25 64.4375 46.8125 65 47.5 65H52.5C53.1875 65 53.75 64.4375 53.75 63.75V58.75C53.75 58.0625 53.1875 57.5 52.5 57.5ZM51.25 62.5H48.75V60H51.25V62.5ZM52.5 32.5H47.5C46.8125 32.5 46.25 33.0625 46.25 33.75V38.75C46.25 39.4375 46.8125 40 47.5 40H52.5C53.1875 40 53.75 39.4375 53.75 38.75V33.75C53.75 33.0625 53.1875 32.5 52.5 32.5ZM51.25 37.5H48.75V35H51.25V37.5ZM15 32.5H10C9.3125 32.5 8.75 33.0625 8.75 33.75V38.75C8.75 39.4375 9.3125 40 10 40H15C15.6875 40 16.25 39.4375 16.25 38.75V33.75C16.25 33.0625 15.6875 32.5 15 32.5ZM13.75 37.5H11.25V35H13.75V37.5Z" fill="url(#paint0_linear)"/>
<defs>
<linearGradient id="paint0_linear" x1="-5.99966" y1="75" x2="83.575" y2="68.4122" gradientUnits="userSpaceOnUse">
<stop stop-color="#4E89E2"/>
<stop offset="1" stop-color="#FCD60D"/>
</linearGradient>
</defs>
</svg>
