<svg width="67" height="60" viewBox="0 0 67 60" fill="none" xmlns="http://www.w3.org/2000/svg">
<path d="M63.0742 2.6087H60.9805V1.30435C60.9805 0.586957 60.3916 0 59.6719 0C58.9521 0 58.3633 0.586957 58.3633 1.30435V2.6087H54.4375V1.30435C54.4375 0.586957 53.8486 0 53.1289 0C52.4092 0 51.8203 0.586957 51.8203 1.30435V2.6087H47.8945V1.30435C47.8945 0.586957 47.3057 0 46.5859 0C45.8662 0 45.2773 0.586957 45.2773 1.30435V2.6087H41.3516V1.30435C41.3516 0.586957 40.7627 0 40.043 0C39.3232 0 38.7344 0.586957 38.7344 1.30435V2.6087H34.8086V1.30435C34.8086 0.586957 34.2197 0 33.5 0C32.7803 0 32.1914 0.586957 32.1914 1.30435V2.6087H28.2656V1.30435C28.2656 0.586957 27.6768 0 26.957 0C26.2373 0 25.6484 0.586957 25.6484 1.30435V2.6087H21.7227V1.30435C21.7227 0.586957 21.1338 0 20.4141 0C19.6943 0 19.1055 0.586957 19.1055 1.30435V2.6087H15.1797V1.30435C15.1797 0.586957 14.5908 0 13.8711 0C13.1514 0 12.5625 0.586957 12.5625 1.30435V2.6087H8.63672V1.30435C8.63672 0.586957 8.04785 0 7.32812 0C6.6084 0 6.01953 0.586957 6.01953 1.30435V2.6087H3.92578C1.7666 2.6087 0 4.36957 0 6.52174V56.087C0 58.2391 1.7666 60 3.92578 60H63.0742C65.2334 60 67 58.2391 67 56.087V6.52174C67 4.36957 65.2334 2.6087 63.0742 2.6087ZM63.0742 57.3913H3.92578C3.20605 57.3913 2.61719 56.8043 2.61719 56.087V15.6522H27.6113C28.3311 15.6522 28.9199 15.0652 28.9199 14.3478C28.9199 13.6304 28.3311 13.0435 27.6113 13.0435H2.61719V6.52174C2.61719 5.80435 3.20605 5.21739 3.92578 5.21739H6.01953V8.80435C6.01953 9.52174 6.6084 10.1087 7.32812 10.1087C8.04785 10.1087 8.63672 9.52174 8.63672 8.80435V5.21739H12.5625V8.80435C12.5625 9.52174 13.1514 10.1087 13.8711 10.1087C14.5908 10.1087 15.1797 9.52174 15.1797 8.80435V5.21739H19.1055V8.80435C19.1055 9.52174 19.6943 10.1087 20.4141 10.1087C21.1338 10.1087 21.7227 9.52174 21.7227 8.80435V5.21739H25.6484V8.80435C25.6484 9.52174 26.2373 10.1087 26.957 10.1087C27.6768 10.1087 28.2656 9.52174 28.2656 8.80435V5.21739H32.1914V8.80435C32.1914 9.52174 32.7803 10.1087 33.5 10.1087C34.2197 10.1087 34.8086 9.52174 34.8086 8.80435V5.21739H38.7344V8.80435C38.7344 9.52174 39.3232 10.1087 40.043 10.1087C40.7627 10.1087 41.3516 9.52174 41.3516 8.80435V5.21739H45.2773V8.80435C45.2773 9.52174 45.8662 10.1087 46.5859 10.1087C47.3057 10.1087 47.8945 9.52174 47.8945 8.80435V5.21739H51.8203V8.80435C51.8203 9.52174 52.4092 10.1087 53.1289 10.1087C53.8486 10.1087 54.4375 9.52174 54.4375 8.80435V5.21739H58.3633V8.80435C58.3633 9.52174 58.9521 10.1087 59.6719 10.1087C60.3916 10.1087 60.9805 9.52174 60.9805 8.80435V5.21739H63.0742C63.7939 5.21739 64.3828 5.80435 64.3828 6.52174V13.0435H39.3887C38.6689 13.0435 38.0801 13.6304 38.0801 14.3478C38.0801 15.0652 38.6689 15.6522 39.3887 15.6522H64.3828V56.087C64.3828 56.8043 63.7939 57.3913 63.0742 57.3913ZM39.9645 22.6435L37.0855 22.0043L35.6854 19.5522C35.4629 19.1739 35.1488 18.8478 34.7693 18.6261C34.1936 18.287 33.5131 18.1957 32.8719 18.3652C32.2176 18.5348 31.6811 18.9391 31.3408 19.513L29.8359 22.0565L27.0486 22.6304C26.6299 22.7217 26.2242 22.9174 25.8971 23.2043C24.8633 24.1174 24.7586 25.6957 25.6877 26.7261L27.6506 28.9304L27.3365 31.7478C27.2842 32.1783 27.3627 32.6087 27.5328 33.013C27.9385 33.9522 28.8676 34.513 29.8359 34.513C30.1762 34.513 30.5033 34.4478 30.8305 34.3043L33.5393 33.1304L36.1303 34.2913C36.5229 34.4739 36.9678 34.5391 37.3996 34.5C38.067 34.4348 38.6689 34.1217 39.1008 33.6C39.5326 33.0913 39.7289 32.4391 39.6635 31.7739L39.3756 28.8391L41.2861 26.7391C41.574 26.413 41.7834 26.0217 41.875 25.5913C42.176 24.2739 41.3254 22.9435 39.9645 22.6435ZM37.0463 27.5348C36.7977 27.8087 36.6799 28.1739 36.7061 28.5391L37.0332 31.8522L34.0889 30.5217C33.7486 30.3652 33.3691 30.3652 33.0289 30.5087L29.9668 31.8652L30.3201 28.6565C30.3594 28.2913 30.2416 27.9261 29.993 27.6522L27.7814 25.1609L30.9482 24.5087C31.3146 24.4304 31.6287 24.2087 31.8119 23.8957L33.5131 21.0261L35.1227 23.8174C35.3059 24.1304 35.6199 24.3652 35.9732 24.4435L39.2447 25.1609L37.0463 27.5348ZM17.666 18.2609H10.4688C8.30957 18.2609 6.54297 20.0217 6.54297 22.1739V30.6522C6.54297 32.8043 8.30957 34.5652 10.4688 34.5652H17.666C19.8252 34.5652 21.5918 32.8043 21.5918 30.6522V22.1739C21.5918 20.0217 19.8252 18.2609 17.666 18.2609ZM18.9746 30.6522C18.9746 31.3696 18.3857 31.9565 17.666 31.9565H10.4688C9.74902 31.9565 9.16016 31.3696 9.16016 30.6522V22.1739C9.16016 21.4565 9.74902 20.8696 10.4688 20.8696H17.666C18.3857 20.8696 18.9746 21.4565 18.9746 22.1739V30.6522ZM56.5312 18.2609H49.334C47.1748 18.2609 45.4082 20.0217 45.4082 22.1739V30.6522C45.4082 32.8043 47.1748 34.5652 49.334 34.5652H56.5312C58.6904 34.5652 60.457 32.8043 60.457 30.6522V22.1739C60.457 20.0217 58.6904 18.2609 56.5312 18.2609ZM57.8398 30.6522C57.8398 31.3696 57.251 31.9565 56.5312 31.9565H49.334C48.6143 31.9565 48.0254 31.3696 48.0254 30.6522V22.1739C48.0254 21.4565 48.6143 20.8696 49.334 20.8696H56.5312C57.251 20.8696 57.8398 21.4565 57.8398 22.1739V30.6522ZM17.666 38.4783H10.4688C8.30957 38.4783 6.54297 40.2391 6.54297 42.3913V50.8696C6.54297 53.0217 8.30957 54.7826 10.4688 54.7826H17.666C19.8252 54.7826 21.5918 53.0217 21.5918 50.8696V42.3913C21.5918 40.2391 19.8252 38.4783 17.666 38.4783ZM18.9746 50.8696C18.9746 51.587 18.3857 52.1739 17.666 52.1739H10.4688C9.74902 52.1739 9.16016 51.587 9.16016 50.8696V42.3913C9.16016 41.6739 9.74902 41.087 10.4688 41.087H17.666C18.3857 41.087 18.9746 41.6739 18.9746 42.3913V50.8696ZM56.5312 38.4783H49.334C47.1748 38.4783 45.4082 40.2391 45.4082 42.3913V50.8696C45.4082 53.0217 47.1748 54.7826 49.334 54.7826H56.5312C58.6904 54.7826 60.457 53.0217 60.457 50.8696V42.3913C60.457 40.2391 58.6904 38.4783 56.5312 38.4783ZM57.8398 50.8696C57.8398 51.587 57.251 52.1739 56.5312 52.1739H49.334C48.6143 52.1739 48.0254 51.587 48.0254 50.8696V42.3913C48.0254 41.6739 48.6143 41.087 49.334 41.087H56.5312C57.251 41.087 57.8398 41.6739 57.8398 42.3913V50.8696ZM37.0986 38.4783H29.9014C27.7422 38.4783 25.9756 40.2391 25.9756 42.3913V50.8696C25.9756 53.0217 27.7422 54.7826 29.9014 54.7826H37.0986C39.2578 54.7826 41.0244 53.0217 41.0244 50.8696V42.3913C41.0244 40.2391 39.2578 38.4783 37.0986 38.4783ZM38.4072 50.8696C38.4072 51.587 37.8184 52.1739 37.0986 52.1739H29.9014C29.1816 52.1739 28.5928 51.587 28.5928 50.8696V42.3913C28.5928 41.6739 29.1816 41.087 29.9014 41.087H37.0986C37.8184 41.087 38.4072 41.6739 38.4072 42.3913V50.8696ZM33.5 15.6522C34.2197 15.6522 34.8086 15.0652 34.8086 14.3478C34.8086 13.6304 34.2197 13.0435 33.5 13.0435C32.7803 13.0435 32.1914 13.6304 32.1914 14.3478C32.1914 15.0652 32.7803 15.6522 33.5 15.6522Z" fill="url(#paint0_linear)"/>
<defs>
<linearGradient id="paint0_linear" x1="-5.36" y1="60" x2="74.5583" y2="53.4363" gradientUnits="userSpaceOnUse">
<stop stop-color="#4E89E2"/>
<stop offset="1" stop-color="#FCD60D"/>
</linearGradient>
</defs>
</svg>
