<svg width="66" height="66" viewBox="0 0 66 66" fill="none" xmlns="http://www.w3.org/2000/svg">
<path d="M65.544 23.6678L58.2613 4.55005C56.8958 0.908571 52.7993 -0.912169 49.158 0.453386C49.158 0.453386 49.158 0.453386 48.9304 0.453386L12.0619 15.7021C8.64817 17.2952 6.8275 21.1643 8.193 24.8058L9.10333 27.5369H6.8275C2.95858 27.5369 0 30.7232 0 34.3647V59.1722C0 63.0413 3.18617 66 6.8275 66H53.4821C57.351 66 60.3096 62.8137 60.3096 59.1722V34.3647C60.3096 33.9095 60.3096 33.6819 60.3096 33.2267L61.6751 32.7715C65.0888 31.1784 66.9095 27.3093 65.544 23.6678ZM6.8275 29.5852H53.4821C55.9855 29.5852 58.0338 31.4059 58.0338 33.9095H2.27583C2.27583 31.6335 4.32408 29.5852 6.8275 29.5852ZM17.9791 22.985L25.2618 19.3436L26.8548 23.2126L19.5722 26.8541L17.9791 22.985ZM58.2613 59.1722C58.2613 61.6757 56.2131 63.9517 53.4821 63.9517H6.8275C4.32408 63.7241 2.27583 61.6757 2.27583 59.1722V45.0615H58.2613V59.1722ZM58.2613 42.7856H2.27583V36.1854H58.2613V42.7856ZM60.7648 30.7232L59.6268 31.1784C58.4889 28.9024 56.2131 27.5369 53.4821 27.5369H22.9859L28.6755 24.8058C29.1307 24.5782 29.3582 23.8954 29.1307 23.4402L26.8548 17.5228C26.6273 17.0676 25.9445 16.6124 25.4893 16.84L15.9308 21.6195C15.4757 21.8471 15.2481 22.5298 15.4757 22.985L17.2963 27.5369H11.6067L10.2413 24.123C9.33092 21.6195 10.4688 18.8884 12.9722 17.7504L49.8408 2.50172C52.3442 1.59135 55.0752 2.72931 56.2131 5.00523C56.2131 5.00523 56.2131 5.00523 56.2131 5.23283L63.4958 24.3506C64.4061 26.8541 63.2682 29.5852 60.7648 30.7232ZM39.5995 60.7654C41.6477 61.9033 44.1512 61.9033 46.1994 60.7654C49.3856 62.5861 53.4821 61.4482 55.3027 58.4895C57.1234 55.3032 55.9855 51.2065 53.0269 49.3858C52.1166 48.703 50.9787 48.4754 49.6132 48.4754C48.4753 48.4754 47.3373 48.703 46.427 49.3858C43.2408 47.565 39.1443 48.703 37.3237 51.6617C35.2754 54.848 36.4133 58.717 39.5995 60.7654ZM48.0201 50.7513C48.4753 50.5237 48.9304 50.5237 49.3856 50.5237C51.889 50.5237 53.7097 52.572 53.7097 54.848C53.7097 57.1239 51.6614 59.1722 49.3856 59.1722C48.9304 59.1722 48.4753 59.1722 48.0201 58.9446C49.8408 56.6687 49.8408 53.2548 48.0201 50.7513ZM46.1994 52.1169C47.5649 53.71 47.5649 56.2135 46.1994 57.8067C44.6063 56.2135 44.6063 53.71 46.1994 52.1169ZM42.7857 50.5237C43.2408 50.5237 43.696 50.5237 44.1512 50.7513C42.1029 53.2548 42.1029 56.6687 44.1512 58.9446C43.696 59.1722 43.2408 59.1722 42.7857 59.1722C40.2822 59.1722 38.4616 57.1239 38.4616 54.848C38.4616 52.572 40.5098 50.5237 42.7857 50.5237ZM47.3373 24.5782L46.427 22.7574L56.8958 18.2056L57.8062 20.2539L47.3373 24.5782ZM39.3719 20.2539L54.62 13.4262L55.5303 15.4745L40.2823 22.5298L39.3719 20.2539Z" fill="url(#paint0_linear)"/>
<defs>
<linearGradient id="paint0_linear" x1="-5.28" y1="66" x2="73.5501" y2="60.2021" gradientUnits="userSpaceOnUse">
<stop stop-color="#4E89E2"/>
<stop offset="1" stop-color="#FCD60D"/>
</linearGradient>
</defs>
</svg>
