<svg width="96" height="92" viewBox="0 0 96 92" fill="none" xmlns="http://www.w3.org/2000/svg">
<path d="M64.5384 24.2712H75.0431V26.7875H64.5384V24.2712ZM79.6126 26.7875H90.1174V24.2712H79.6126V26.7875ZM91.2203 0C93.8465 0 96 2.14929 96 4.77037V39.788C96 42.4091 93.8465 44.5584 91.2203 44.5584H85.8629V51.7926C85.8629 52.9983 85.2327 54.0991 84.1822 54.7282C83.657 55.0427 83.0792 55.2 82.4489 55.2C81.8711 55.2 81.2934 55.0427 80.7682 54.7282L79.35 53.8895C73.9401 50.9014 73.4674 47.5989 73.4674 44.506H69.318C70.5786 45.8689 71.3139 47.6513 71.3139 49.6433V55.6718C71.3139 57.7687 70.2634 59.6034 68.6352 60.7043V64.3214C68.6352 66.4182 67.5847 68.253 65.9565 69.3539V72.604C65.9565 75.959 63.2253 78.6325 59.9163 78.6325H51.0923L49.6742 80.5197C48.046 82.669 45.4723 83.9271 42.7936 83.9271H32.0788L23.9901 91.633C23.7275 91.8427 23.4124 92 23.0972 92C22.7821 92 22.4144 91.8952 22.2043 91.633C21.7316 91.1088 21.7316 90.3225 22.2569 89.8507L30.6606 81.8302C30.8707 81.6205 31.1859 81.4632 31.5535 81.4632H42.7411C44.6319 81.4632 46.4702 80.5721 47.6258 79.0519L47.8884 78.7373H44.3168C43.1613 78.7373 42.1633 78.1607 41.5855 77.1647C41.0078 76.1687 41.0078 75.0154 41.5855 74.0194L42.3209 72.7613C43.1087 71.3459 43.8966 70.2974 44.737 69.5635C44.5794 69.4063 44.4218 69.1966 44.2643 68.9345C43.6865 67.9385 43.6865 66.7852 44.2643 65.7892L44.9996 64.5311C45.84 63.0108 46.7329 61.9624 47.6258 61.1761C47.3631 60.9664 47.153 60.7043 46.9955 60.3897C46.4177 59.3937 46.4177 58.2405 46.9955 57.2444L47.7308 55.9863C50.462 51.0587 53.5084 50.6393 56.3447 50.6393H57.7628C58.4456 50.6393 59.0234 51.216 59.0234 51.8974C59.0234 52.5789 58.4456 53.1556 57.7628 53.1556H56.3447C54.2963 53.1556 52.1953 53.1556 49.9368 57.192L49.2015 58.5026C49.0439 58.8171 49.1489 59.0792 49.2015 59.1316C49.254 59.2365 49.4116 59.4462 49.7792 59.4462H65.3262C67.2696 59.4462 68.8453 57.8735 68.8453 55.9339V49.6957C68.8453 46.865 66.5343 44.5584 63.698 44.5584H58.5507H41.7431C43.2138 48.5949 42.3734 53.3128 39.1169 56.563C38.6442 57.0348 37.8039 57.0348 37.3311 56.563C36.8584 56.0912 36.8584 55.2524 37.3311 54.7806C40.7977 51.3208 40.7977 45.6593 37.3311 42.1994C36.8584 41.7276 36.8584 40.9413 37.3311 40.4171L42.2684 35.437C42.531 35.1749 42.8461 35.0701 43.1613 35.0701H45.6299C51.6176 35.0701 56.0295 33.7595 58.4456 31.2957C60.3365 29.3037 60.3365 27.2068 60.3365 27.2068V25.2672H37.6463L17.2671 46.0786C16.1116 47.2319 15.2712 48.6997 14.851 50.2724L12.54 59.0268C12.4875 59.2365 12.3824 59.4462 12.2249 59.6034L2.14034 69.6684C1.87772 69.9305 1.56258 70.0353 1.24744 70.0353C0.932294 70.0353 0.617152 69.9305 0.354534 69.6684C-0.118178 69.1966 -0.118178 68.3578 0.354534 67.886L10.229 58.0308L12.435 49.5909C12.9602 47.5989 14.0107 45.7641 15.4813 44.2963L28.192 31.2433V4.77037C28.192 2.14929 30.3455 0 32.9717 0H91.2203ZM63.4354 70.2974C63.1727 70.3499 62.8576 70.3499 62.595 70.3499H47.6783C46.6803 70.8741 45.6299 71.8701 44.5269 73.8097L43.7915 75.1202C43.634 75.4348 43.739 75.6969 43.7915 75.7493C43.8441 75.8541 44.0016 76.0638 44.3693 76.0638H59.9163C61.8597 76.0638 63.4354 74.4912 63.4354 72.5516V70.2974ZM66.1141 61.7003C65.8514 61.7527 65.5363 61.7527 65.2737 61.7527H51.1974C49.9368 62.1197 48.5712 63.1157 47.2056 65.5795L46.4702 66.89C46.3127 67.2046 46.4177 67.4667 46.4702 67.5191C46.5228 67.6239 46.6803 67.8336 47.048 67.8336H62.595C64.5384 67.8336 66.1141 66.261 66.1141 64.3214V61.7003ZM32.9717 2.51624C31.7111 2.51624 30.7132 3.51225 30.7132 4.77037V10.1698H93.4789V4.77037C93.4789 3.51225 92.4809 2.51624 91.2203 2.51624H32.9717ZM93.4789 12.686H30.7132V16.8274H93.4789V12.686ZM83.3418 44.5584H75.9885C75.9885 46.7601 76.041 49.2239 80.6106 51.7402L82.0287 52.5789C82.4489 52.7886 82.764 52.6313 82.9216 52.5789C83.0792 52.5265 83.3418 52.2644 83.3418 51.845V44.5584ZM91.2203 42.0422C92.4809 42.0422 93.4789 41.0462 93.4789 39.788V19.3436H30.7132V28.7271L36.1756 23.0655C36.4382 22.8034 36.7534 22.6986 37.0685 22.6986H61.5445C62.2273 22.6986 62.8051 23.2752 62.8051 23.9567V27.102C62.8051 27.1544 62.9101 30.1949 60.2314 32.9732C57.3426 36.0137 52.4054 37.5339 45.6299 37.5339H43.6865L39.9573 41.3083C40.1149 41.518 40.2725 41.7801 40.43 41.9897H58.4981H63.6455H91.2203" fill="url(#paint0_linear)"/>
<defs>
<linearGradient id="paint0_linear" x1="-7.68" y1="92" x2="106.927" y2="83.2042" gradientUnits="userSpaceOnUse">
<stop stop-color="#4E89E2"/>
<stop offset="1" stop-color="#FCD60D"/>
</linearGradient>
</defs>
</svg>
