<svg width="66" height="64" viewBox="0 0 66 64" fill="none" xmlns="http://www.w3.org/2000/svg">
<path d="M64.3663 13.4564H47.5396C46.8861 5.90769 40.5149 0 32.8366 0C25.1584 0 18.9505 5.90769 18.1337 13.4564H1.63366C0.816832 13.4564 0 14.1128 0 15.0974V24.6154V62.359C0 63.1795 0.653465 64 1.63366 64H64.3663C65.1832 64 66 63.3436 66 62.359V24.6154V14.9333C65.8366 14.1128 65.1832 13.4564 64.3663 13.4564ZM33 3.11795C38.8812 3.11795 43.7822 7.54872 44.4356 13.2923H21.5644C22.2178 7.71282 27.1188 3.11795 33 3.11795ZM62.7327 24.6154C62.7327 29.8667 58.4851 34.1333 53.2574 34.1333H44.4356C43.6188 34.1333 42.802 34.7897 42.802 35.7744C42.802 36.759 43.4554 37.4154 44.4356 37.4154H53.2574C57.0148 37.4154 60.4455 35.7744 62.7327 33.1487V60.7179H3.10396V33.1487C5.39109 35.7744 8.82178 37.4154 12.5792 37.4154H21.401C22.2178 37.4154 23.0347 36.759 23.0347 35.7744C23.0347 34.7897 22.3812 34.1333 21.401 34.1333H12.7426C7.51485 34.1333 3.26733 29.8667 3.26733 24.6154V16.5744H19.9307H46.2327H62.896V24.6154H62.7327ZM37.7376 29.3744H28.099C27.2822 29.3744 26.4653 30.0308 26.4653 31.0154V40.6974C26.4653 41.5179 27.1188 42.3385 28.099 42.3385H37.7376C38.5545 42.3385 39.3713 41.682 39.3713 40.6974V31.0154C39.3713 30.0308 38.7178 29.3744 37.7376 29.3744ZM36.2673 39.0564H29.7327V32.4923H36.2673V39.0564Z" fill="url(#paint0_linear)"/>
<defs>
<linearGradient id="paint0_linear" x1="-5.28" y1="64" x2="73.5232" y2="58.0229" gradientUnits="userSpaceOnUse">
<stop stop-color="#4E89E2"/>
<stop offset="1" stop-color="#FCD60D"/>
</linearGradient>
</defs>
</svg>
