<svg width="46" height="50" viewBox="0 0 46 50" fill="none" xmlns="http://www.w3.org/2000/svg">
<path d="M9.406 9.87125C16.6853 3.00429 27.8183 3.00429 35.3117 9.01288L29.317 9.22747C28.4606 9.22747 28.0324 9.87125 28.0324 10.7296C28.0324 11.588 28.6747 12.0172 29.317 12.0172L38.5231 11.588C39.3795 11.588 39.8077 10.9442 39.8077 10.3004L39.3795 1.28755C39.3795 0.429184 38.7372 0 37.8808 0C37.0244 0 36.5962 0.643777 36.5962 1.50215L36.8103 7.29614C33.1707 4.29185 28.4606 2.57511 23.5364 2.14592C17.7558 1.50215 11.9752 3.64807 7.47913 7.72532C1.27033 13.3047 -1.29882 21.8884 0.628046 30.0429C0.842142 30.6867 1.27033 31.1159 1.91262 31.1159C2.12672 31.1159 2.12672 31.1159 2.34082 31.1159C2.98311 30.9013 3.62539 30.2575 3.4113 29.3991C1.69853 22.3176 3.83949 14.8069 9.406 9.87125ZM45.3742 19.9571C45.1601 19.3133 44.5178 18.6695 43.6614 18.8841C43.0191 19.0987 42.3768 19.7425 42.5909 20.6009C44.3037 27.6824 41.9486 35.1931 36.5962 40.1288C32.7425 43.5622 28.0324 45.279 23.1082 45.279C18.6121 45.279 13.902 43.7768 10.2624 40.5579L16.2571 39.9142C17.1135 39.9142 17.5417 39.2704 17.5417 38.412C17.5417 37.5536 16.8994 37.1245 16.043 37.1245L6.83684 37.9828C5.98045 37.9828 5.55226 38.6266 5.55226 39.485L6.40865 48.7124C6.40865 49.3562 7.05094 50 7.69322 50C7.69322 50 7.69322 50 7.90732 50C8.76371 50 9.1919 49.3562 9.1919 48.4979L8.76371 42.9185C12.4033 45.9227 17.1135 47.6395 22.0377 47.8541C22.4659 47.8541 22.8941 47.8541 23.1082 47.8541C28.6747 47.8541 34.2412 45.7082 38.309 41.8455C44.7319 36.6953 47.301 28.1116 45.3742 19.9571ZM23.1082 16.7382C26.1055 16.7382 27.8183 17.5966 28.6747 19.3133C29.1029 19.9571 28.8888 20.3863 28.4606 20.6009L27.6042 21.03C26.9619 21.4592 26.7478 21.2446 26.3196 20.8155C26.1055 20.6009 25.4632 19.5279 23.1082 19.5279C20.9672 19.5279 19.6826 20.3863 19.6826 22.3176V22.7468H25.2491C25.8914 22.7468 25.8914 22.9614 25.8914 23.3906L25.6773 24.0343C25.4632 24.4635 25.2491 24.6781 24.8209 24.6781H19.4685V25.9657H24.1786C24.6068 25.9657 24.8209 26.1803 24.6068 26.6094L24.3927 27.2532C24.1786 27.6824 23.9645 27.897 23.5364 27.897H19.6826V28.1116C19.8967 29.8283 21.1813 30.6867 23.1082 30.6867C25.2491 30.6867 26.1055 29.6137 26.3196 29.3991C26.7478 28.7554 26.9619 28.7554 27.6042 29.1845L28.4606 29.6137C29.1029 29.8283 29.1029 30.2575 28.6747 30.9013C27.8183 32.4034 26.1055 33.4764 23.1082 33.4764C19.2544 33.4764 16.8994 31.7597 16.6853 28.3262V28.1116H14.5443C14.1161 28.1116 13.902 27.897 14.1161 27.4678L14.3302 26.824C14.5443 26.3949 14.7584 26.1803 15.1866 26.1803H16.6853V24.8927H15.6148C15.1866 24.8927 14.9725 24.6781 15.1866 24.2489L15.4007 23.6052C15.6148 23.176 15.8289 22.9614 16.2571 22.9614H16.6853V22.7468C16.6853 18.8841 19.2544 16.7382 23.1082 16.7382Z" fill="url(#paint0_linear)"/>
<defs>
<linearGradient id="paint0_linear" x1="-3.68" y1="50" x2="51.3076" y2="46.2792" gradientUnits="userSpaceOnUse">
<stop stop-color="#4E89E2"/>
<stop offset="1" stop-color="#FCD60D"/>
</linearGradient>
</defs>
</svg>
