<svg width="79" height="79" viewBox="0 0 79 79" fill="none" xmlns="http://www.w3.org/2000/svg">
<path d="M40.9168 36.8658C41.2878 36.8658 39.1702 37.6065 73.5154 24.8601C73.84 24.7367 74.1182 24.4897 74.2573 24.1657C74.3964 23.8416 74.4119 23.4867 74.2882 23.1472C69.0792 9.25888 55.7863 0.0462944 40.9168 0C40.1904 0 39.603 0.586396 39.603 1.31168V35.5541C39.5875 36.2794 40.1904 36.8658 40.9168 36.8658ZM42.2307 2.63878C55.029 3.19432 66.3743 11.0644 71.3359 22.8694L42.2307 33.6715V2.63878ZM71.2432 43.455C71.2587 39.2114 70.5013 34.9986 69.0329 31.0173C68.9092 30.6932 68.6464 30.4154 68.3219 30.2766C67.9973 30.1377 67.6263 30.1377 67.3017 30.2766L36.9599 41.5415V9.21259C36.9599 8.48731 36.3725 7.90091 35.646 7.90091C21.2248 7.88548 8.22557 16.5734 2.70747 29.8753C-2.81063 43.1773 0.265286 58.4853 10.4823 68.6392C20.6993 78.7931 36.0479 81.8022 49.3563 76.2469C58.3831 81.4319 69.8985 78.7314 75.6793 70.0743C81.4602 61.4173 79.5126 49.7819 71.2432 43.455ZM34.3168 10.5397V41.8039L3.88219 34.6437C7.66912 20.8325 19.9882 11.0644 34.3168 10.5397ZM3.26392 37.2207L33.9149 44.4118L23.7597 74.1174C8.90567 68.3769 0.265286 52.8374 3.26392 37.2207ZM26.2019 74.9661L36.6817 44.4735L67.0235 33.224C67.9354 35.9862 68.4764 38.8565 68.6155 41.773C59.6506 37.0355 48.5525 39.8441 42.9108 48.2696C37.269 56.6952 38.9384 68.0065 46.7595 74.4569C40.144 76.8179 32.9411 77.0031 26.2019 74.9661ZM59.3723 76.3704C49.8973 76.3704 42.2307 68.7009 42.2307 59.2569C42.2307 49.8128 49.9127 42.1434 59.3723 42.1434C68.8319 42.1434 76.5294 49.7974 76.5294 59.2569C76.5294 63.7937 74.721 68.1454 71.506 71.3551C68.2909 74.5649 63.9321 76.3704 59.3723 76.3704ZM68.2291 50.4146C67.9818 50.1677 67.6417 50.0288 67.2862 50.0288C66.9307 50.0288 66.5907 50.1677 66.3434 50.4146L50.531 66.2165C50.1446 66.5868 50.0364 67.1578 50.2373 67.6516C50.4383 68.1454 50.9329 68.4695 51.4584 68.4695C51.8139 68.4695 52.1385 68.3306 52.4013 68.0837L68.2291 52.2818C68.4764 52.0349 68.6155 51.6954 68.6155 51.3405C68.6155 50.9856 68.4764 50.6615 68.2291 50.4146ZM56.7447 52.6676C56.7447 50.4918 54.9671 48.7172 52.7877 48.7172C50.6083 48.7172 48.8307 50.4918 48.8307 52.6676C48.8307 54.8435 50.6083 56.6181 52.7877 56.6181C54.9671 56.6181 56.7447 54.8589 56.7447 52.6676ZM51.4584 52.6676C51.4584 51.9423 52.0458 51.3559 52.7722 51.3559C53.4987 51.3559 54.0861 51.9423 54.0861 52.6676C54.0861 53.3929 53.4987 53.9793 52.7722 53.9793C52.0612 53.9947 51.4584 53.3929 51.4584 52.6676ZM65.9724 61.8956C63.793 61.8956 62.0155 63.6703 62.0155 65.8461C62.0155 68.0219 63.793 69.7966 65.9724 69.7966C68.1518 69.7966 69.9294 68.0219 69.9294 65.8461C69.9294 63.6703 68.1518 61.8956 65.9724 61.8956ZM65.9724 67.1578C65.2459 67.1578 64.6586 66.5714 64.6586 65.8461C64.6586 65.1208 65.2459 64.5344 65.9724 64.5344C66.6989 64.5344 67.2862 65.1208 67.2862 65.8461C67.2862 66.5714 66.6989 67.1578 65.9724 67.1578Z" fill="url(#paint0_linear)"/>
<defs>
<linearGradient id="paint0_linear" x1="-6.32" y1="79" x2="88.0372" y2="72.06" gradientUnits="userSpaceOnUse">
<stop stop-color="#4E89E2"/>
<stop offset="1" stop-color="#FCD60D"/>
</linearGradient>
</defs>
</svg>
