<svg width="53" height="53" viewBox="0 0 53 53" fill="none" xmlns="http://www.w3.org/2000/svg">
<path d="M3.00343 19.3825H49.9966C50.3303 19.3825 50.6033 19.1699 50.7247 18.8662C50.8157 18.5625 50.7247 18.2285 50.4516 18.0159L26.9702 0.159433C26.6972 -0.0531443 26.3331 -0.0531443 26.0601 0.159433L2.54837 18.0159C2.27533 18.1981 2.18432 18.5625 2.27533 18.8662C2.36634 19.1699 2.66972 19.3825 3.00343 19.3825ZM26.4848 1.70821L47.7212 17.8337H5.24843L26.4848 1.70821ZM52.2416 46.9871H50.755V43.2518C50.755 42.8267 50.4213 42.4926 49.9966 42.4926H46.265V23.8466H49.9966V22.3282H3.00343V23.8466H6.73497V42.4926H3.00343C2.57871 42.4926 2.24499 42.8267 2.24499 43.2518V46.9871H0.758443C0.333715 46.9871 0 47.3212 0 47.7463V52.2408C0 52.666 0.333715 53 0.758443 53H52.2416C52.6663 53 53 52.666 53 52.2408V47.7463C53 47.3212 52.6663 46.9871 52.2416 46.9871ZM44.7785 42.4926H41.8054V23.8466H44.7785V42.4926ZM12.7115 42.4926V23.8466H17.8993V42.4926H12.7115ZM19.4161 23.8466H22.3892V42.4926H19.4161V23.8466ZM23.9061 23.8466H29.0939V42.4926H23.9061V23.8466ZM30.6108 23.8466H33.5839V42.4926H30.6108V23.8466ZM35.1007 23.8466H40.2885V42.4926H35.1007V23.8466ZM8.22152 23.8466H11.1946V42.4926H8.22152V23.8466ZM51.4831 51.4512H1.51689V48.4751H33.2198V46.9567H3.76188V43.9807H49.2381V46.9567H39.9244V48.4751H51.4831V51.4512Z" fill="url(#paint0_linear)"/>
<defs>
<linearGradient id="paint0_linear" x1="-4.24" y1="53" x2="59.0629" y2="48.3441" gradientUnits="userSpaceOnUse">
<stop stop-color="#4E89E2"/>
<stop offset="1" stop-color="#FCD60D"/>
</linearGradient>
</defs>
</svg>
