<svg width="12" height="12" viewBox="0 0 12 12" fill="none" xmlns="http://www.w3.org/2000/svg">
<path d="M7.16016 6.25L10.7812 2.66406L11.5195 1.92578C11.625 1.82031 11.625 1.64453 11.5195 1.50391L10.7461 0.730469C10.6055 0.625 10.4297 0.625 10.3242 0.730469L6 5.08984L1.64062 0.730469C1.53516 0.625 1.35938 0.625 1.21875 0.730469L0.445312 1.50391C0.339844 1.64453 0.339844 1.82031 0.445312 1.92578L4.80469 6.25L0.445312 10.6094C0.339844 10.7148 0.339844 10.8906 0.445312 11.0312L1.21875 11.8047C1.35938 11.9102 1.53516 11.9102 1.64062 11.8047L6 7.44531L9.58594 11.0664L10.3242 11.8047C10.4297 11.9102 10.6055 11.9102 10.7461 11.8047L11.5195 11.0312C11.625 10.8906 11.625 10.7148 11.5195 10.6094L7.16016 6.25Z" fill="#313131"/>
</svg>
