<svg width="61" height="92" viewBox="0 0 61 92" fill="none" xmlns="http://www.w3.org/2000/svg">
<path d="M59.663 74.9691H58.2146V21.0938C58.2146 20.3702 57.6018 19.758 56.8776 19.758C54.5936 19.758 52.4767 20.5372 50.7498 21.873C50.7498 21.4277 50.8055 21.0381 50.8055 20.5929C50.8612 9.23896 41.6137 0 30.2493 0C21.0018 0 13.147 6.1222 10.5845 14.582C8.74612 11.3539 5.29224 9.1833 1.33699 9.1833C0.612786 9.1833 0 9.79552 0 10.5191V42.6884C0 43.0224 0.167123 43.3563 0.389954 43.6346L27.7982 71.0175V75.0248H25.0685C24.3443 75.0248 23.7315 75.637 23.7315 76.3605V90.6642C23.7315 91.3878 24.3443 92 25.0685 92H59.663C60.3872 92 61 91.3878 61 90.6642V76.3605C61 75.5814 60.3872 74.9691 59.663 74.9691ZM30.2493 2.67151C40.1096 2.67151 48.1315 10.686 48.1315 20.5372C48.1315 30.3884 40.1096 38.4029 30.2493 38.4029C20.389 38.4029 12.3671 30.3884 12.3671 20.5372C12.3671 10.686 20.389 2.67151 30.2493 2.67151ZM46.8502 32.6703V34.173L43.5078 43.1337L39.7196 38.7368C42.5607 37.2898 45.0119 35.1748 46.8502 32.6703ZM2.67397 42.0762V11.9661C6.4621 12.5783 9.3032 15.9177 9.3032 19.8693V36.288C9.3032 36.6219 9.47032 36.9558 9.69315 37.2341L20.6119 48.0871C21.1132 48.588 22.0046 48.588 22.5059 48.0871C23.0073 47.5862 23.0073 46.6957 22.5059 46.1948L12.0329 35.7314V29.9431C15.4311 36.5662 22.3388 41.0744 30.305 41.0744C32.7562 41.0744 35.0402 40.6292 37.2128 39.85L42.1151 45.5269C40.611 47.3079 38.3269 48.4211 35.9315 48.4211H30.6393C29.9151 48.4211 29.3023 49.0333 29.3023 49.7568C29.3023 50.4803 29.9151 51.0926 30.6393 51.0926H35.9315C40.3881 51.0926 44.4548 48.2541 46.0146 44.0798L49.4685 34.8409C49.5242 34.6739 49.5799 34.5626 49.5799 34.3956V29.7762C49.5799 26.1585 52.1982 23.1531 55.5964 22.5408V74.9691H30.4721V70.4053C30.4721 70.0714 30.305 69.7374 30.0822 69.4592L2.67397 42.0762ZM58.326 89.3285H26.4055V77.6963H29.1352H56.9333H58.3817V89.3285H58.326ZM20.389 21.8173H17.2137V19.3128H20.389V14.7489C20.389 10.9643 23.453 7.90321 27.2411 7.90321H34.2046C37.9927 7.90321 41.0566 10.9643 41.0566 14.7489H38.5498C38.5498 12.3557 36.6 10.4077 34.2046 10.4077H27.2411C24.8457 10.4077 22.8959 12.3557 22.8959 14.7489V19.3128H33.0904V21.8173H22.8959V26.3811C22.8959 28.7743 24.8457 30.7223 27.2411 30.7223H34.2046C36.6 30.7223 38.5498 28.7743 38.5498 26.3811V25.8246H41.0566V26.3811C41.0566 30.1658 37.9927 33.2269 34.2046 33.2269H27.2411C23.453 33.2269 20.389 30.1658 20.389 26.3811V21.8173Z" fill="url(#paint0_linear)"/>
<defs>
<linearGradient id="paint0_linear" x1="-4.88" y1="92" x2="68.1984" y2="88.4362" gradientUnits="userSpaceOnUse">
<stop stop-color="#4E89E2"/>
<stop offset="1" stop-color="#FCD60D"/>
</linearGradient>
</defs>
</svg>
