<svg width="51" height="54" viewBox="0 0 51 54" fill="none" xmlns="http://www.w3.org/2000/svg">
<path d="M51 2.52576V27.048H49.2936V2.52576C49.2936 2.04618 48.9072 1.69449 48.4564 1.69449H2.54356C2.06061 1.69449 1.70644 2.07815 1.70644 2.52576V26.984H0V2.52576C0 1.15098 1.15909 0 2.54356 0H48.4242C49.8409 0 51 1.15098 51 2.52576ZM0 28.6785H51V32.8988C51 34.3055 49.8409 35.4245 48.4564 35.4245H31.5852L32.2936 40.476H35.7064V42.1705H15.2936V40.476H18.7064V40.3481L19.4148 35.3925H2.54356C1.12689 35.3925 0 34.2416 0 32.8668V28.6785ZM29.8466 35.4245H21.1212L20.3807 40.476H30.5871L29.8466 35.4245ZM1.70644 32.8988C1.70644 33.3783 2.0928 33.73 2.54356 33.73H19.5436H21.25H29.75H31.4564H48.4564C48.9394 33.73 49.2936 33.3464 49.2936 32.8988V30.373H1.70644V32.8988ZM21.25 15.1865V16.881H22.9564V15.1865H21.25ZM24.6307 15.1865V16.881H26.3371V15.1865H24.6307ZM28.0436 15.1865V16.881H29.75V15.1865H28.0436ZM34 51.4742C34 51.9538 33.6136 52.3055 33.1629 52.3055H4.25C3.76705 52.3055 3.41288 51.9219 3.41288 51.4742V43.0338C3.41288 42.5542 3.79924 42.2025 4.25 42.2025H13.5871V40.508H4.25C2.83333 40.508 1.70644 41.659 1.70644 43.0338V51.4742C1.70644 52.881 2.86553 54 4.25 54H33.1307C34.5474 54 35.6742 52.849 35.6742 51.4742V43.865H33.9678V51.4742H34ZM5.95644 50.643H7.66288V48.9485H5.95644V50.643ZM11.0436 48.9485H9.33712V50.643H11.0436V48.9485ZM12.75 50.643H24.6307V48.9485H12.75V50.643ZM26.3371 50.643H28.0436V48.9485H26.3371V50.643ZM31.4564 50.643V48.9485H29.75V50.643H31.4564ZM5.95644 43.865V45.5595H7.66288V43.865H5.95644ZM11.0436 43.865H9.33712V45.5595H11.0436V43.865ZM12.75 45.5595H14.4564V43.865H12.75V45.5595ZM16.1307 45.5595H17.8371V43.865H16.1307V45.5595ZM19.5436 45.5595H21.25V43.865H19.5436V45.5595ZM22.9564 45.5595H24.6629V43.865H22.9564V45.5595ZM26.3371 45.5595H28.0436V43.865H26.3371V45.5595ZM31.4564 43.865H29.75V45.5595H31.4564V43.865ZM45.8807 43.6732V52.5293C45.8807 53.3606 45.2045 54 44.3996 54H38.8939C38.0568 54 37.4129 53.3286 37.4129 52.5293V43.6732C37.4129 42.8419 38.089 42.2025 38.8939 42.2025H44.3996C45.2045 42.2025 45.8807 42.8419 45.8807 43.6732ZM44.1742 43.865H39.0871V52.3055H44.1742V43.865ZM9.33712 46.4227H5.95644V48.1172H9.33712V46.4227ZM12.75 46.4227H11.0436V48.1172H12.75V46.4227ZM14.4564 48.0853H16.1629V46.3908H14.4564V48.0853ZM17.8371 48.0853H19.5436V46.3908H17.8371V48.0853ZM21.25 48.0853H22.9564V46.3908H21.25V48.0853ZM24.6307 48.0853H26.3371V46.3908H24.6307V48.0853ZM28.0436 48.0853H31.4564V46.3908H28.0436V48.0853Z" fill="url(#paint0_linear)"/>
<defs>
<linearGradient id="paint0_linear" x1="-4.08" y1="54" x2="56.8696" y2="49.7662" gradientUnits="userSpaceOnUse">
<stop stop-color="#4E89E2"/>
<stop offset="1" stop-color="#FCD60D"/>
</linearGradient>
</defs>
</svg>
