<svg width="42" height="28" viewBox="0 0 42 28" fill="none" xmlns="http://www.w3.org/2000/svg">
<path d="M42 7.22822C42 6.58091 41.8113 5.92531 41.393 5.38589L38.0707 1.07884C37.5129 0.365145 36.668 0 35.8148 0C35.3145 0 34.7977 0.13278 34.3465 0.414938L31.098 2.45643C30.7535 2.6805 30.1711 2.82988 29.6051 2.82158C29.1621 2.82158 28.7437 2.73859 28.4648 2.59751L25.2902 1.03734C24.7734 0.796681 24.1992 0.688797 23.625 0.688797C22.7965 0.688797 21.968 0.896266 21.2953 1.36929L20.9262 1.63485C20.6309 1.48548 20.1797 1.25311 19.6629 0.995851C19.0477 0.688797 18.3258 0.564315 17.5957 0.564315C16.9395 0.564315 16.275 0.672199 15.6926 0.912863L13.527 1.85062C13.1742 2.0083 12.6164 2.10788 12.0586 2.09959C11.5008 2.09959 10.943 2 10.5902 1.85062L8.42461 0.912863C8.03086 0.738589 7.6043 0.672199 7.18594 0.672199C6.70195 0.672199 6.22617 0.771784 5.7832 0.954357C5.34023 1.13693 4.92188 1.41079 4.59375 1.78423L0.65625 6.24896C0.221484 6.74689 0 7.361 0 7.9751C0 8.70539 0.311719 9.43569 0.902344 9.95021L4.57734 13.1286L2.83008 14.971C2.34609 15.4772 2.1082 16.1411 2.1082 16.7884C2.1082 17.4772 2.37891 18.1826 2.92031 18.6971L3.27305 19.0373C3.60938 19.361 4.01133 19.5602 4.42969 19.6681C4.21641 20.0581 4.10156 20.4896 4.10156 20.9212C4.10156 21.6183 4.37227 22.3154 4.91367 22.8299L5.26641 23.1701C5.775 23.6515 6.43125 23.9004 7.07109 23.8921C7.41562 23.8921 7.76836 23.8257 8.08828 23.6846C8.20312 24.1577 8.44102 24.6058 8.81016 24.9627L9.16289 25.3029C9.67148 25.7842 10.3195 26.0332 10.9676 26.0249C11.4762 26.0249 11.9848 25.8755 12.4195 25.5851C12.5508 26 12.7641 26.3983 13.1004 26.7137L13.4531 27.0539C13.9535 27.5353 14.6098 27.7842 15.2578 27.7759C15.9469 27.7759 16.6359 27.5021 17.1527 26.9627L18.6949 25.3361L20.7867 27.2946C21.2871 27.7676 21.9352 28 22.5668 28C23.2641 28 23.9695 27.7178 24.4863 27.1618L24.8227 26.7967C25.1098 26.4813 25.2984 26.1079 25.4133 25.7261L26.2254 26.4813C26.7258 26.9461 27.3738 27.1867 28.0055 27.1867C28.7027 27.1867 29.4082 26.9046 29.925 26.3485L30.2613 25.9834C30.6469 25.5685 30.8602 25.0539 30.9258 24.5311C31.1391 24.5892 31.3605 24.6224 31.5738 24.6224C32.2711 24.6224 32.9766 24.3403 33.4934 23.7842L33.8297 23.4191C34.2973 22.9129 34.527 22.2656 34.527 21.6266C34.527 21.4274 34.5023 21.2282 34.4531 21.0373C35.0355 20.9627 35.5934 20.6971 36.0199 20.2324L36.3563 19.8672C36.8238 19.361 37.0535 18.7137 37.0535 18.0747C37.0535 17.3693 36.7746 16.6639 36.2168 16.1411L35.5934 15.5602L41.2371 9.24481C41.7621 8.6805 42 7.95021 42 7.22822ZM5.08594 18.3237C4.79063 18.3237 4.49531 18.2158 4.26562 17.9917L3.91289 17.6515C3.6668 17.4191 3.54375 17.1037 3.54375 16.7801C3.54375 16.4813 3.65039 16.1826 3.87188 15.9585L7.44844 12.1826C7.67813 11.9336 7.98984 11.8174 8.30977 11.8091C8.60508 11.8091 8.90039 11.917 9.13008 12.1411L9.48281 12.4813C9.48281 12.4813 9.85195 13.029 9.85195 13.3527C9.85195 13.5934 9.77812 13.8257 9.63867 14.0332C9.63047 14.0415 5.7832 18.0996 5.7832 18.0996C5.57812 18.249 5.33203 18.3237 5.08594 18.3237ZM7.94063 22.0913C7.71094 22.3403 7.39922 22.4564 7.0793 22.4564C6.78398 22.4564 6.48867 22.3485 6.25898 22.1245L5.90625 21.7842C5.66016 21.5519 5.53711 21.2365 5.53711 20.9129C5.53711 20.6141 5.64375 20.3154 5.86523 20.0913C5.86523 20.0913 10.6313 15.0705 10.6723 15.029C10.902 14.805 11.1973 14.6971 11.4926 14.6888C11.7879 14.6888 12.0832 14.7967 12.3129 15.0207L12.6656 15.361C12.9117 15.5934 13.0348 15.9087 13.0348 16.2324C13.0348 16.5311 12.9281 16.8299 12.7066 17.0622L7.94063 22.0913ZM11.8453 24.2241C11.6156 24.473 11.3039 24.5892 10.984 24.5892C10.6887 24.5892 10.3934 24.4813 10.1637 24.2573L9.81094 23.917C9.56484 23.6846 9.4418 23.3693 9.4418 23.0456C9.4418 22.7801 9.53203 22.5145 9.7043 22.2988L13.0266 18.7967C13.248 18.5892 13.527 18.4813 13.8223 18.4813C14.1176 18.4813 14.4129 18.5892 14.6426 18.8133L14.9953 19.1535C15.2414 19.3859 15.3645 19.7012 15.3645 20.0166C15.3645 20.3154 15.2578 20.6141 15.0363 20.8465L11.8453 24.2241ZM18.1535 23.8506L16.1355 25.9751C15.9059 26.2241 15.5941 26.3403 15.2742 26.3403C14.9789 26.3403 14.6836 26.2324 14.4539 26.0083L14.1012 25.668C13.8551 25.4357 13.732 25.1203 13.732 24.7967C13.732 24.4979 13.8387 24.1992 14.0602 23.9751L16.0699 21.8506C16.2996 21.6017 16.6113 21.4855 16.9312 21.4855C17.2266 21.4855 17.5219 21.5934 17.7516 21.8174L18.1043 22.1577C18.3504 22.39 18.4652 22.7054 18.4734 23.0207C18.4816 23.3278 18.3668 23.6183 18.1535 23.8506ZM35.6426 18.083C35.6426 18.3817 35.5359 18.6639 35.3227 18.8963L34.9863 19.2614C34.7566 19.5104 34.4367 19.6432 34.1168 19.6432C33.8215 19.6432 33.5344 19.5353 33.3047 19.3278L27.6855 14.0664L26.7094 15.1203L32.7305 20.7635C32.9848 20.9959 33.1078 21.3195 33.1078 21.6432C33.1078 21.9419 33.0012 22.2324 32.7879 22.4564L32.4516 22.8216C32.2219 23.0705 31.902 23.2033 31.582 23.2033C31.2867 23.2033 30.9996 23.0954 30.7699 22.888L25.1426 17.6266L24.1746 18.6805L29.1621 23.3527C29.4 23.5851 29.523 23.9004 29.523 24.2158C29.523 24.5145 29.4164 24.7967 29.2113 25.029L28.875 25.3942C28.6453 25.6432 28.3254 25.7759 28.0055 25.7759C27.7102 25.7759 27.423 25.668 27.1934 25.4606L22.2305 20.7884L21.2625 21.8423L21.2789 21.8589L23.7727 24.1909C23.9941 24.4232 24.109 24.7137 24.109 25.0207C24.109 25.3112 24.0023 25.6017 23.7973 25.834L23.4609 26.1992C23.2313 26.4481 22.9113 26.5809 22.5914 26.5809C22.2961 26.5809 22.009 26.473 21.7793 26.2656L19.6055 24.2324C19.7941 23.8589 19.9008 23.4523 19.9008 23.0456C19.9008 22.3568 19.6301 21.6515 19.0887 21.1369L18.7359 20.7967C18.2355 20.3154 17.5793 20.0664 16.9312 20.0747C16.882 20.0747 16.8328 20.083 16.7836 20.0913C16.7836 20.083 16.7836 20.0664 16.7836 20.0581C16.7836 19.3693 15.9715 18.1494 15.9715 18.1494L15.6187 17.8091C15.2414 17.444 14.782 17.2199 14.298 17.1286C14.3965 16.8465 14.4539 16.5477 14.4539 16.2573C14.4539 15.5685 14.1832 14.8631 13.6418 14.3485L13.2891 14.0083C12.7805 13.527 12.1324 13.278 11.4844 13.278C11.4105 13.278 11.3367 13.2946 11.2629 13.3029C11.2465 12.639 10.9758 11.9751 10.459 11.4772L10.1062 11.1369C9.59766 10.6556 8.94961 10.4066 8.30156 10.4066C7.6125 10.4066 6.92344 10.6805 6.40664 11.2199L5.56172 12.1079L1.82109 8.87967C1.55039 8.6473 1.41914 8.32365 1.41914 7.9917C1.41914 7.71784 1.50937 7.44398 1.71445 7.21992L5.66836 2.73859C5.82422 2.56432 6.05391 2.39834 6.32461 2.29046C6.59531 2.18257 6.90703 2.11618 7.19414 2.11618C7.44844 2.11618 7.67812 2.16598 7.8668 2.24066L10.0324 3.17842C10.6395 3.43568 11.3531 3.54357 12.0668 3.55187C12.7805 3.55187 13.4859 3.44398 14.1012 3.18672L16.2586 2.24066C16.5949 2.09129 17.0953 2 17.5957 2C18.1453 2 18.7031 2.11618 19.023 2.28216C19.2281 2.38174 19.425 2.48133 19.5973 2.57261L17.3988 4.14938C16.6934 4.6556 16.3078 5.45228 16.3078 6.26556C16.3078 6.80498 16.4719 7.3444 16.8164 7.80913L17.1117 8.20747C17.6613 8.95436 18.5309 9.3361 19.3922 9.3361C19.8762 9.3361 20.3766 9.21162 20.8195 8.94606L22.1402 8.14108C22.4109 7.9751 22.8129 7.86722 23.2395 7.86722C23.7316 7.86722 24.232 8.0083 24.5273 8.23237L28.1777 10.8797C28.9898 11.4689 30.3105 12.5643 31.0488 13.2448L35.2734 17.195C35.5195 17.444 35.6426 17.7593 35.6426 18.083ZM40.1953 8.29046L34.568 14.5892L32.0086 12.1992C31.2047 11.4523 29.884 10.3568 28.998 9.71784L25.3477 7.07054C24.7324 6.63071 23.9695 6.43154 23.223 6.43154C22.5832 6.43154 21.9434 6.57261 21.3855 6.90456L20.0648 7.70954C19.8598 7.83403 19.6219 7.89212 19.3758 7.89212C18.9328 7.89212 18.4898 7.68465 18.2437 7.3444L17.9566 6.94606C17.8008 6.73859 17.727 6.49793 17.727 6.25726C17.727 5.89212 17.891 5.54357 18.2109 5.3112L22.1156 2.53942C22.452 2.29046 23.0508 2.11618 23.625 2.12448C24.0187 2.12448 24.3961 2.19917 24.6586 2.33195L27.8332 3.89212C28.3746 4.15768 28.9898 4.26556 29.6051 4.26556C30.3926 4.26556 31.1965 4.09129 31.8527 3.67635L35.1012 1.63485C35.3062 1.50207 35.5605 1.43568 35.8148 1.43568C36.2496 1.43568 36.6926 1.63485 36.9387 1.96681L40.2691 6.27386C40.4578 6.52282 40.5727 6.87137 40.5727 7.22822C40.5727 7.63485 40.4332 8.0332 40.1953 8.29046Z" fill="url(#paint0_linear)"/>
<defs>
<linearGradient id="paint0_linear" x1="-3.36" y1="28" x2="46.4695" y2="22.5026" gradientUnits="userSpaceOnUse">
<stop stop-color="#4E89E2"/>
<stop offset="1" stop-color="#FCD60D"/>
</linearGradient>
</defs>
</svg>
