<svg width="104" height="97" viewBox="0 0 104 97" fill="none" xmlns="http://www.w3.org/2000/svg">
<path d="M81.9394 97C80.6788 97 79.7333 96.0583 79.7333 94.8026C79.7333 93.5469 80.6788 92.6052 81.9394 92.6052H98.4848C99.1152 92.6052 99.5879 92.1343 99.5879 91.5065V45.2039C99.5879 44.5761 99.1152 44.1052 98.4848 44.1052H68.703C68.2303 44.1052 67.9152 44.4191 67.7576 44.733C67.6 45.2039 67.7576 45.6748 68.0727 45.9887C74.0606 51.4822 77.6849 59.644 77.6849 68.2767C77.6849 84.1295 66.3394 97 52.1576 97C38.1333 97 26.6303 84.1295 26.6303 68.2767C26.6303 59.644 30.097 51.4822 36.2424 45.9887C36.5576 45.6748 36.7152 45.2039 36.5576 44.733C36.4 44.2621 35.9273 44.1052 35.6121 44.1052H5.51515C4.88485 44.1052 4.41212 44.5761 4.41212 45.2039V91.5065C4.41212 92.1343 4.88485 92.6052 5.51515 92.6052H22.0606C23.3212 92.6052 24.2667 93.5469 24.2667 94.8026C24.2667 96.0583 23.3212 97 22.0606 97H2.20606C0.945455 97 0 96.0583 0 94.8026V41.9078C0 40.6521 0.945455 39.7104 2.20606 39.7104H101.794C103.055 39.7104 104 40.6521 104 41.9078V94.8026C104 96.0583 103.055 97 101.794 97H81.9394ZM52 44.1052C40.497 44.1052 31.0424 54.9353 31.0424 68.2767C31.0424 81.6181 40.497 92.6052 52 92.6052C63.503 92.6052 72.9576 81.7751 72.9576 68.4337C72.9576 54.9353 63.503 44.1052 52 44.1052ZM90.7636 70.4741V66.0793H86.3515V70.4741H90.7636ZM17.8061 70.4741V66.0793H13.2364V70.4741H17.8061ZM71.3818 33.746C72.3273 33.1181 72.6424 31.7055 71.8545 30.6068C70.7515 28.8803 69.3333 27.4676 67.9152 26.055C67.6 25.7411 67.4424 25.2702 67.6 24.7994C67.7576 24.3285 68.2303 24.1715 68.5455 24.1715H98.3273C98.9576 24.1715 99.4303 24.6424 99.4303 25.2702V31.8625C99.4303 33.1181 100.376 34.0599 101.636 34.0599C102.897 34.0599 103.842 33.1181 103.842 31.8625V21.9741C103.842 20.7184 102.897 19.7767 101.636 19.7767H2.20606C0.945455 19.7767 0 20.8754 0 21.9741V31.8625C0 33.1181 0.945455 34.0599 2.20606 34.0599C3.46667 34.0599 4.41212 33.1181 4.41212 31.8625V25.2702C4.41212 24.6424 4.88485 24.1715 5.51515 24.1715H35.297C35.7697 24.1715 36.0849 24.4854 36.2424 24.7994C36.4 25.2702 36.2424 25.7411 35.9273 26.055C34.5091 27.4676 33.0909 28.8803 31.9879 30.6068C31.3576 31.5485 31.5152 32.9612 32.4606 33.746C32.7758 34.0599 33.2485 34.2168 33.7212 34.2168C34.5091 34.2168 35.1394 33.9029 35.6121 33.2751C39.5515 27.6246 45.5394 24.3285 51.8424 24.3285C58.1455 24.3285 64.1333 27.6246 68.0727 33.2751C68.5455 33.9029 69.1758 34.2168 69.9636 34.2168C70.5939 34.2168 71.0667 34.0599 71.3818 33.746ZM104 12.0858V2.19741C104 0.941748 103.055 0 101.794 0H2.20606C0.945455 0 0 0.941748 0 2.19741V12.0858C0 13.3414 0.945455 14.2832 2.20606 14.2832C3.46667 14.2832 4.41212 13.3414 4.41212 12.0858V5.49353C4.41212 4.8657 4.88485 4.39482 5.51515 4.39482H35.297C35.7697 4.39482 36.0849 4.70874 36.2424 5.02265C36.4 5.49353 36.2424 5.9644 35.9273 6.27832C34.5091 7.69094 33.0909 9.10356 31.9879 10.8301C31.3576 11.7718 31.5152 13.1845 32.4606 13.9693C32.7758 14.2832 33.2485 14.4401 33.7212 14.4401C34.5091 14.4401 35.1394 14.1262 35.6121 13.4984C39.7091 7.69094 45.697 4.39482 52 4.39482C58.303 4.39482 64.2909 7.69094 68.2303 13.3414C68.703 13.9693 69.3333 14.2832 70.1212 14.2832C70.5939 14.2832 71.0667 14.1262 71.3818 13.8123C72.3273 13.1845 72.6424 11.7718 71.8545 10.6731C70.7515 8.9466 69.3333 7.53398 67.9152 6.12136C67.6 5.80744 67.4424 5.33657 67.6 4.8657C67.7576 4.70874 68.2303 4.39482 68.703 4.39482H98.4848C99.1152 4.39482 99.5879 4.8657 99.5879 5.49353V12.0858C99.5879 13.3414 100.533 14.2832 101.794 14.2832C103.055 14.2832 104 13.3414 104 12.0858ZM62.4 61.2136V59.9579C62.4 55.7201 59.0909 52.424 54.8364 52.424H52.9455C48.6909 52.424 45.3818 55.5631 45.3818 59.9579V62.9401H41.4424V66.8641H45.3818V69.2184H41.4424V73.1424H45.3818V76.1246C45.3818 80.3625 48.6909 83.6586 52.9455 83.6586H54.8364C59.0909 83.6586 62.4 80.5194 62.4 76.1246V74.8689L57.6727 74.3981V76.1246C57.6727 77.8511 56.4121 79.1068 54.6788 79.1068H52.9455C51.2121 79.1068 49.9515 77.8511 49.9515 76.1246V73.1424H56.097V69.2184H49.9515V66.8641H56.097V62.9401H49.9515V59.9579C49.9515 58.2314 51.2121 56.9757 52.9455 56.9757H54.6788C56.4121 56.9757 57.6727 58.2314 57.6727 59.9579V61.6845L62.4 61.2136Z" fill="white"/>
</svg>
