<svg width="42" height="39" viewBox="0 0 42 39" fill="none" xmlns="http://www.w3.org/2000/svg">
<path d="M22.3548 26.8966H19.6452C18.9 26.8966 18.2903 26.2914 18.2903 25.5517C18.2903 24.8121 18.9 24.2069 19.6452 24.2069H22.3548C23.1 24.2069 23.7097 24.8121 23.7097 25.5517H25.0645C25.0645 24.0724 23.8452 22.8621 22.3548 22.8621H21.6774V21.5172H20.3226V22.8621H19.6452C18.1548 22.8621 16.9355 24.0724 16.9355 25.5517C16.9355 27.031 18.1548 28.2414 19.6452 28.2414H22.3548C23.1 28.2414 23.7097 28.8465 23.7097 29.5862C23.7097 30.3259 23.1 30.931 22.3548 30.931H19.6452C18.9 30.931 18.2903 30.3259 18.2903 29.5862H16.9355C16.9355 31.0655 18.1548 32.2759 19.6452 32.2759H20.3226V33.6207H21.6774V32.2759H22.3548C23.8452 32.2759 25.0645 31.0655 25.0645 29.5862C25.0645 28.1069 23.8452 26.8966 22.3548 26.8966ZM30.4839 0C26.6903 0 23.1339 1.88276 21 4.95905C18.9169 1.96681 15.4452 0 11.5161 0C5.16532 0 0 5.12715 0 11.431C0 17.4071 4.64879 22.3157 10.5423 22.8116C9.87339 24.2657 9.48387 25.8711 9.48387 27.569C9.48387 33.8728 14.6492 39 21 39C23.4048 39 25.7165 38.2603 27.681 36.8651L26.8935 35.7724C25.1577 37.008 23.1254 37.6552 21 37.6552C15.3944 37.6552 10.8387 33.1332 10.8387 27.569C10.8387 22.0047 15.3944 17.4828 21 17.4828C26.6056 17.4828 31.1613 22.0047 31.1613 27.569C31.1613 29.9644 30.2976 32.2843 28.7226 34.1082L29.7556 34.9823C31.5339 32.9147 32.5161 30.2754 32.5161 27.569C32.5161 25.8711 32.1351 24.2657 31.4577 22.82C33.5069 22.6519 35.4629 21.9375 37.1649 20.7272L36.3774 19.6345C34.7177 20.8112 32.7702 21.4584 30.7464 21.5088C28.875 18.5502 25.6742 16.4994 21.9823 16.1884C22.6681 14.7006 23.0323 13.0784 23.0323 11.431C23.0323 9.56509 22.5665 7.8084 21.7706 6.25345C23.5996 3.21918 26.919 1.34483 30.4839 1.34483C36.0895 1.34483 40.6452 5.86681 40.6452 11.431C40.6452 13.8265 39.7815 16.1463 38.2065 17.9703L39.2395 18.8444C41.0177 16.7767 42 14.1375 42 11.431C42 5.12715 36.8347 0 30.4839 0ZM20.4835 16.1631C16.5968 16.3312 13.2097 18.4241 11.2536 21.5004C5.775 21.3659 1.35484 16.9028 1.35484 11.431C1.35484 5.86681 5.91048 1.34483 11.5161 1.34483C17.1218 1.34483 21.6774 5.86681 21.6774 11.431C21.6774 13.0869 21.2625 14.7091 20.4835 16.1631ZM30.4839 16.1379C29.3661 16.1379 28.4516 15.2302 28.4516 14.1207V13.4483H29.8065V12.1034H28.4516V10.7586H29.8065V9.41379H28.4516V8.74138C28.4516 7.6319 29.3661 6.72414 30.4839 6.72414C31.6016 6.72414 32.5161 7.6319 32.5161 8.74138H33.871C33.871 6.88384 32.3552 5.37931 30.4839 5.37931C28.6125 5.37931 27.0968 6.88384 27.0968 8.74138V9.41379H25.7419V10.7586H27.0968V12.1034H25.7419V13.4483H27.0968V14.1207C27.0968 15.9782 28.6125 17.4828 30.4839 17.4828C32.3552 17.4828 33.871 15.9782 33.871 14.1207H32.5161C32.5161 15.2302 31.6016 16.1379 30.4839 16.1379ZM12.1935 10.3384L16.0972 5.81638L15.0726 4.94224L11.5161 9.05237L7.96815 4.94224L6.93508 5.81638L10.8387 10.3384V12.1034H9.48387V13.4483H10.8387V14.7931H9.48387V16.1379H10.8387V16.8103H12.1935V16.1379H13.5484V14.7931H12.1935V13.4483H13.5484V12.1034H12.1935V10.3384Z" fill="url(#paint0_linear)"/>
<defs>
<linearGradient id="paint0_linear" x1="-3.36" y1="39" x2="46.7615" y2="35.03" gradientUnits="userSpaceOnUse">
<stop stop-color="#4E89E2"/>
<stop offset="1" stop-color="#FCD60D"/>
</linearGradient>
</defs>
</svg>
