<svg width="66" height="66" viewBox="0 0 66 66" fill="none" xmlns="http://www.w3.org/2000/svg">
<path d="M49.8 32.3C40.9 32.3 33.6 25.1 33.6 16.1C33.7 7.2 40.9 0 49.8 0C58.8 0 66 7.2 66 16.2C66 25.1 58.8 32.3 49.8 32.3ZM49.8 2.8C42.5 2.8 36.5 8.8 36.5 16.1C36.5 23.4 42.5 29.4 49.8 29.4C57.1 29.4 63.1 23.4 63.1 16.1C63.2 8.8 57.2 2.8 49.8 2.8ZM17.2 66C7.7 66 0 58.3 0 48.8C0 39.3 7.7 31.6 17.2 31.6C26.7 31.6 34.4 39.3 34.4 48.8C34.4 58.3 26.7 66 17.2 66ZM17.2 34.4C9.3 34.4 2.8 40.9 2.8 48.8C2.8 56.7 9.2 63.2 17.2 63.2C25.1 63.2 31.6 56.8 31.6 48.8C31.6 40.8 25.1 34.4 17.2 34.4ZM63.9 37.2C63.9 36.4 63.3 35.8 62.5 35.8C61.7 35.8 61.1 36.4 61.1 37.2C61 49.2 51.2 59 39.3 59C38.5 59 37.9 59.6 37.9 60.4C37.9 61.2 38.5 61.8 39.3 61.8C52.8 61.8 63.8 50.8 63.9 37.2ZM3.5 28.1C4.3 28.1 4.9 27.5 4.9 26.7C5 14.9 15 4.9 26.7 4.9C27.5 4.9 28.1 4.3 28.1 3.5C28.1 2.7 27.5 2.1 26.7 2.1C13.2 2.1 2.2 13.1 2.1 26.7C2.1 27.1 2.2 27.4 2.5 27.7C2.8 27.9 3.1 28.1 3.5 28.1ZM22.4 44.5V43.7C22.4 41 20.3 38.9 17.6 38.9H16.4C13.7 38.9 11.6 40.9 11.6 43.7V45.6H9.2V48.1H11.7V49.6H9.2V52.1H11.7V54C11.7 56.7 13.8 58.8 16.5 58.8H17.7C20.4 58.8 22.5 56.8 22.5 54V53.2L19.5 52.9V54C19.5 55.1 18.7 55.9 17.6 55.9H16.5C15.4 55.9 14.6 55.1 14.6 54V52.1H18.5V49.6H14.6V48.1H18.5V45.6H14.6V43.7C14.6 42.6 15.4 41.8 16.5 41.8H17.6C18.7 41.8 19.5 42.6 19.5 43.7V44.8L22.4 44.5ZM51.3 27.4V27C51.3 26.7 51.5 26.4 51.8 26.3C52.6 26 53.2 25.6 53.8 25.1C54.9 24.1 55.6 22.7 55.6 21.2C55.6 19.8 54.9 17.3 50.5 15.5C49.1 15.1 47 14 47 12.5C47 11.8 47.3 11.1 47.8 10.7C48.3 10.2 49 10 49.8 10C51.1 10 52.2 10.7 52.6 11.7C52.8 12.2 53.3 12.6 53.9 12.6C54.1 12.6 54.2 12.6 54.4 12.5C54.8 12.4 55 12.1 55.2 11.8C55.4 11.5 55.4 11.1 55.2 10.7C54.6 9.1 53.2 7.9 51.6 7.4C51.3 7.3 51.1 7 51.1 6.7V6.3C51.1 5.5 50.5 4.9 49.7 4.9C48.9 4.9 48.3 5.5 48.3 6.3V6.7C48.3 7 48.1 7.3 47.8 7.4C47 7.7 46.4 8.1 45.8 8.6C44.7 9.6 44 11 44 12.5C44 13.9 44.7 16.4 49.1 18.2C50.3 18.7 52.4 19.7 52.4 21.3C52.4 22.2 51.9 22.8 51.6 23.1C51.1 23.6 50.4 23.8 49.6 23.8C48.3 23.8 47.2 23.1 46.8 22.1C46.6 21.6 46.1 21.2 45.5 21.2C45.3 21.2 45.2 21.2 45 21.3C44.6 21.4 44.4 21.7 44.2 22C44 22.3 44 22.7 44.2 23.1C44.8 24.7 46.2 25.9 47.8 26.4C48.1 26.5 48.3 26.8 48.3 27.1V27.4C48.3 28.2 48.9 28.8 49.7 28.8C50.6 28.8 51.3 28.2 51.3 27.4Z" fill="url(#paint0_linear)"/>
<defs>
<linearGradient id="paint0_linear" x1="-5.28" y1="66" x2="73.5501" y2="60.2021" gradientUnits="userSpaceOnUse">
<stop stop-color="#4E89E2"/>
<stop offset="1" stop-color="#FCD60D"/>
</linearGradient>
</defs>
</svg>
