<svg width="18" height="14" viewBox="0 0 18 14" fill="none" xmlns="http://www.w3.org/2000/svg">
<path d="M16.3125 0.5H1.6875C0.738281 0.5 0 1.27344 0 2.1875V12.3125C0 13.2617 0.738281 14 1.6875 14H16.3125C17.2266 14 18 13.2617 18 12.3125V2.1875C18 1.27344 17.2266 0.5 16.3125 0.5ZM1.6875 1.625H16.3125C16.5938 1.625 16.875 1.90625 16.875 2.1875V3.66406C16.1016 4.29688 14.9766 5.21094 11.5664 7.91797C10.9688 8.41016 9.80859 9.53516 9 9.5C8.15625 9.53516 6.99609 8.41016 6.39844 7.91797C2.98828 5.21094 1.86328 4.29688 1.125 3.66406V2.1875C1.125 1.90625 1.37109 1.625 1.6875 1.625ZM16.3125 12.875H1.6875C1.37109 12.875 1.125 12.6289 1.125 12.3125V5.10547C1.89844 5.77344 3.16406 6.79297 5.69531 8.79688C6.43359 9.39453 7.69922 10.6602 9 10.625C10.2656 10.6602 11.5312 9.39453 12.2695 8.79688C14.8008 6.79297 16.0664 5.77344 16.875 5.10547V12.3125C16.875 12.6289 16.5938 12.875 16.3125 12.875Z" fill="url(#paint0_linear)"/>
<defs>
<linearGradient id="paint0_linear" x1="-1.44" y1="16" x2="20.0591" y2="14.4187" gradientUnits="userSpaceOnUse">
<stop stop-color="#4E89E2"/>
<stop offset="1" stop-color="#FCD60D"/>
</linearGradient>
</defs>
</svg>
