<svg width="84" height="54" viewBox="0 0 84 54" fill="none" xmlns="http://www.w3.org/2000/svg">
<path d="M56.5023 30.41L49.3452 27.2142C48.8363 26.9835 48.508 26.4893 48.508 25.9292V23.9524C50.9046 22.025 52.4477 19.0763 52.4477 15.7486V12.9811C53.2357 12.5363 53.7609 11.6962 53.7609 10.7407V10.4771C53.7774 4.69494 49.0989 0 43.3371 0H40.7106C34.9487 0 30.2703 4.69494 30.2703 10.4771V12.9152C30.2703 13.7553 30.6314 14.5131 31.2552 14.9908C31.3537 15.0732 31.4686 15.1391 31.5835 15.205V15.7486C31.5835 19.0598 33.1266 22.025 35.5233 23.9524V25.9292C35.5233 26.4893 35.195 26.9835 34.6861 27.2142L27.5289 30.41C25.1815 31.4478 23.6712 33.7871 23.6712 36.3734V52.748C23.6712 53.4234 24.2294 53.9835 24.9024 53.9835C25.5754 53.9835 26.1336 53.4234 26.1336 52.748V36.3734C26.1336 36.2251 26.15 36.0933 26.1664 35.9451L29.4659 39.2563C29.9748 39.7669 30.2539 40.4588 30.2539 41.1837V52.748C30.2539 53.4234 30.812 53.9835 31.485 53.9835C32.1581 53.9835 32.7162 53.4234 32.7162 52.748V41.1837C32.7162 39.7999 32.1745 38.4985 31.206 37.5101L27.2827 33.5729C27.6438 33.2105 28.0542 32.8975 28.5467 32.6833L35.5725 29.5534L40.7927 34.7919V52.7645C40.7927 53.4399 41.3508 54 42.0238 54C42.6969 54 43.255 53.4399 43.255 52.7645V34.759L48.4751 29.5204L55.501 32.6504C55.9771 32.8646 56.4039 33.1776 56.765 33.54L52.8417 37.4771C51.8567 38.4655 51.3315 39.7669 51.3315 41.1507V52.7151C51.3315 53.3905 51.8896 53.9506 52.5626 53.9506C53.2357 53.9506 53.7938 53.3905 53.7938 52.7151V41.1507C53.7938 40.4259 54.0728 39.734 54.5817 39.2233L57.8813 35.9121C57.8977 36.0604 57.9141 36.1922 57.9141 36.3405V52.7151C57.9141 53.3905 58.4722 53.9506 59.1453 53.9506C59.8183 53.9506 60.3764 53.3905 60.3764 52.7151V36.3405C60.36 33.7871 58.8498 31.4478 56.5023 30.41ZM42.0238 32.5021L37.4439 27.906C37.7886 27.313 37.9856 26.6376 37.9856 25.9292V25.4186C39.2332 25.9457 40.5957 26.2257 42.0238 26.2257C43.452 26.2257 44.8145 25.9292 46.0621 25.4186V25.9292C46.0621 26.6376 46.259 27.313 46.6038 27.906L42.0238 32.5021ZM42.0238 23.7712C37.6245 23.7712 34.0459 20.18 34.0459 15.7651V15.205C34.8174 14.892 35.5561 14.4143 36.2784 13.7553C36.7708 13.2941 36.8037 12.5034 36.344 12.0092C35.8844 11.5149 35.0965 11.482 34.604 11.9433C33.9802 12.5198 33.3728 12.8822 32.7819 13.0305C32.7655 13.0305 32.749 13.0305 32.749 13.0305C32.7326 13.014 32.7326 12.9811 32.7326 12.9152V10.4771C32.7326 6.06223 36.3112 2.47102 40.7106 2.47102H43.3371C47.7364 2.47102 51.315 6.06223 51.315 10.4771V10.7407C51.315 10.7736 51.2986 10.8231 51.2658 10.8231C43.8952 12.2892 40.2017 9.53813 38.9541 8.28615C38.4781 7.80842 37.6901 7.80842 37.2141 8.28615C36.738 8.76388 36.738 9.55461 37.2141 10.0323C41.0389 13.8707 46.6202 13.9365 50.0182 13.5247V15.7651C50.0018 20.18 46.4232 23.7712 42.0238 23.7712ZM22.1938 23.6888V21.0531C22.1938 17.8243 20.5194 14.9908 18.0079 13.36C18.1556 12.8658 18.2377 12.3386 18.2377 11.8115C18.2377 8.94509 15.9067 6.62233 13.0668 6.62233C10.2269 6.62233 7.89588 8.92862 7.89588 11.795C7.89588 12.3221 7.97796 12.8493 8.1257 13.3435C5.61412 14.9908 3.93973 17.8243 3.93973 21.0366V23.6724C3.93973 26.7858 5.49921 29.5534 7.87947 31.2007V33.9353C7.87947 34.479 7.58399 34.9567 7.10794 35.1873L2.85631 37.3289C1.09984 38.2184 0 39.9976 0 41.9744V52.7315C0 53.407 0.558129 53.9671 1.23117 53.9671C1.9042 53.9671 2.46233 53.407 2.46233 52.7315V42.5015L4.46503 44.5113C4.97391 45.022 5.25298 45.7139 5.25298 46.4387V52.7151C5.25298 53.3905 5.81111 53.9506 6.48415 53.9506C7.15718 53.9506 7.71531 53.3905 7.71531 52.7151V46.4552C7.71531 45.0714 7.1736 43.77 6.20508 42.7816L3.41444 39.9811C3.39802 39.9646 3.3816 39.9481 3.36519 39.9481C3.54576 39.7999 3.74275 39.6516 3.95615 39.5528L8.20778 37.4112C8.42118 37.2959 8.63458 37.1641 8.81515 37.0323L11.8192 40.047V52.748C11.8192 53.4234 12.3773 53.9835 13.0504 53.9835C13.7234 53.9835 14.2815 53.4234 14.2815 52.748V40.047L17.2856 37.0323C17.4826 37.1806 17.6796 37.3124 17.893 37.4112L19.0749 38.0043C19.2554 38.0866 19.436 38.1361 19.6166 38.1361C20.0762 38.1361 20.503 37.889 20.7164 37.4606C21.0283 36.8511 20.7821 36.1098 20.1583 35.7968L18.9764 35.2038C18.5003 34.9567 18.2049 34.479 18.2049 33.9518V31.2337C20.6344 29.5699 22.1938 26.8023 22.1938 23.6888ZM13.0668 9.07688C14.5606 9.07688 15.7754 10.2959 15.7754 11.795C15.7754 11.9597 15.7589 12.1245 15.7261 12.2892C14.8725 12.0256 13.9861 11.8938 13.0504 11.8938C12.1147 11.8938 11.2282 12.0421 10.3746 12.2892C10.3418 12.1245 10.3254 11.9762 10.3254 11.8115C10.3582 10.2959 11.573 9.07688 13.0668 9.07688ZM13.0668 14.3484C16.7439 14.3484 19.7315 17.3466 19.7315 21.0366V21.4814C14.6098 23.0628 11.5566 19.1586 11.4252 18.9774C11.2118 18.6974 10.8835 18.5162 10.5224 18.4832C10.1612 18.4503 9.8165 18.5821 9.57027 18.8456C8.38835 20.0317 7.23926 20.5918 6.41848 20.8719C6.50056 17.2642 9.45536 14.3484 13.0668 14.3484ZM13.0668 37.7901L10.2269 34.9237C10.309 34.6107 10.3582 34.2648 10.3582 33.9353V32.4198C11.2118 32.6833 12.1311 32.8316 13.0668 32.8316C14.0025 32.8316 14.9217 32.6833 15.7754 32.4198V33.9353C15.7754 34.2813 15.8246 34.6107 15.9067 34.9237L13.0668 37.7901ZM13.0668 30.3771C9.3897 30.3771 6.40207 27.3789 6.40207 23.6888V23.4253C7.387 23.1946 8.83157 22.6675 10.3582 21.4484C10.8999 21.9591 11.6715 22.5851 12.64 23.1123C13.7891 23.7383 15.3978 24.3313 17.3512 24.3313C18.0899 24.3313 18.8779 24.2489 19.7315 24.0513C19.5345 27.5766 16.629 30.3771 13.0668 30.3771ZM81.1913 34.6931L74.2968 31.2337C73.8208 30.9866 73.5253 30.5088 73.5253 29.9817V28.2355C75.134 26.8023 76.1518 24.7102 76.1518 22.371V20.9707C76.1846 20.9707 76.201 20.9707 76.2338 20.9707C76.9069 20.9707 77.465 20.4106 77.465 19.7352V17.0995C77.465 12.7834 73.9685 9.25808 69.6512 9.25808H67.0247C62.7238 9.25808 59.2109 12.7669 59.2109 17.0995V19.7352C59.2109 20.4106 59.769 20.9707 60.4421 20.9707C60.4585 20.9707 60.4749 20.9707 60.5242 20.9707V22.371C60.5242 24.6937 61.5419 26.8023 63.1507 28.2355V29.9817C63.1507 30.5253 62.8552 31.0031 62.3791 31.2337C61.7717 31.5467 61.5255 32.288 61.821 32.8975C62.0344 33.3258 62.4776 33.5729 62.9208 33.5729C63.1014 33.5729 63.2984 33.5235 63.4625 33.4411C63.6759 33.3258 63.8893 33.194 64.0699 33.0622L67.074 36.0769V52.7315C67.074 53.407 67.6321 53.9671 68.3051 53.9671C68.9782 53.9671 69.5363 53.407 69.5363 52.7315V36.0769L72.5403 33.0622C72.7373 33.2105 72.9343 33.3423 73.1477 33.4411L79.8124 36.7852L77.7933 38.8115C76.8084 39.7999 76.2831 41.1013 76.2831 42.4851V52.7315C76.2831 53.407 76.8412 53.9671 77.5143 53.9671C78.1873 53.9671 78.7454 53.407 78.7454 52.7315V42.4851C78.7454 41.7602 79.0245 41.0683 79.5334 40.5577L81.454 38.6303C81.5197 38.8609 81.5361 39.0915 81.5361 39.3221V52.7151C81.5361 53.3905 82.0942 53.9506 82.7672 53.9506C83.4403 53.9506 83.9984 53.3905 83.9984 52.7151V39.3221C84.0477 37.3618 82.9478 35.5827 81.1913 34.6931ZM61.6733 18.2361V17.083C61.6733 14.1178 64.0699 11.7126 67.0247 11.7126H69.6512C72.606 11.7126 75.0027 14.1178 75.0027 17.083V18.4503C69.6512 18.1538 66.4173 16.0781 66.3845 16.0452C66.1711 15.9134 65.9413 15.831 65.6951 15.831C65.3832 15.831 65.0549 15.9463 64.825 16.1934C63.6595 17.396 62.5104 17.9561 61.6733 18.2361ZM68.338 33.82L65.4981 30.9701C65.5802 30.6571 65.6294 30.3112 65.6294 29.9817V29.7181C66.483 30.0311 67.3859 30.2123 68.338 30.2123C69.2901 30.2123 70.2093 30.0311 71.0465 29.7181V29.9817C71.0465 30.3276 71.0958 30.6571 71.1779 30.9701L68.338 33.82ZM68.338 27.7248C65.3832 27.7248 62.9865 25.3197 62.9865 22.3545V20.3612C63.8565 20.0153 64.8579 19.4716 65.8756 18.5985C67.1725 19.2739 69.881 20.4436 73.6894 20.8225V22.3545C73.6894 25.3197 71.2928 27.7248 68.338 27.7248Z" fill="url(#paint0_linear)"/>
<defs>
<linearGradient id="paint0_linear" x1="-6.72" y1="54" x2="92.8486" y2="42.6083" gradientUnits="userSpaceOnUse">
<stop stop-color="#4E89E2"/>
<stop offset="1" stop-color="#FCD60D"/>
</linearGradient>
</defs>
</svg>
