<svg width="49" height="49" viewBox="0 0 49 49" fill="none" xmlns="http://www.w3.org/2000/svg">
<path d="M3.49667 3.5053C-1.16556 8.14762 -1.16556 15.5753 3.49667 20.2176C5.73454 22.446 8.71836 23.7458 11.8887 23.7458C13.3806 23.7458 14.8725 23.3744 16.3644 22.8173C16.9239 22.6316 17.1104 22.0746 16.9239 21.5175C16.7374 20.9604 16.1779 20.7747 15.6185 20.9604C11.8887 22.446 7.59943 21.7032 4.80209 18.7321C0.885823 14.8326 0.885823 8.519 4.80209 4.61946C8.71836 0.719915 15.059 0.719915 18.9753 4.61946C21.7726 7.40485 22.705 11.6758 21.2131 15.3896C21.0266 15.9467 21.2131 16.5038 21.7726 16.6895C22.3321 16.8752 22.8915 16.6895 23.078 16.1324C24.9429 11.6758 23.824 6.66208 20.4672 3.31961C15.6185 -1.13701 7.97241 -1.13701 3.49667 3.5053ZM37.0647 25.2313C30.5376 25.2313 25.1294 30.6164 25.1294 37.1157C25.1294 43.6149 30.5376 49 37.0647 49C43.5918 49 49 43.6149 49 37.1157C49 30.6164 43.5918 25.2313 37.0647 25.2313ZM37.0647 46.9574C31.6565 46.9574 27.1808 42.5008 27.1808 36.93C27.1808 31.3592 31.6565 26.9026 37.0647 26.9026C42.4729 26.9026 46.9486 31.3592 46.9486 36.93C46.9486 42.5008 42.6594 46.9574 37.0647 46.9574ZM11.7022 19.6606C12.2617 19.6606 12.6346 19.2892 12.6346 18.7321V17.9893C14.313 17.6179 15.2455 16.1324 15.6185 14.8326C15.9914 12.9756 15.059 11.4901 13.1941 10.933C12.2617 10.5616 11.1427 10.0045 10.3968 9.63316C10.2103 9.44747 10.2103 9.07608 10.2103 8.519C10.2103 8.14762 10.5833 7.59054 11.1427 7.40485C12.4481 7.03346 13.1941 7.77623 13.3806 7.77623C13.5671 7.96193 13.7536 7.96193 14.1265 7.96193C14.4995 8.14762 14.8725 7.59054 14.8725 7.03346C14.8725 6.84777 14.8725 6.47639 14.686 6.47639C14.4995 6.29069 13.7536 5.73362 12.6346 5.54792V4.99085C12.6346 4.43377 12.2617 4.06238 11.7022 4.06238C11.1427 4.06238 10.7697 4.43377 10.7697 4.99085V5.54792H10.5833C9.46432 5.91931 8.53187 7.03346 8.34539 8.14762C8.1589 9.26178 8.53187 10.3759 9.27783 11.1187C10.0238 11.6758 10.9562 12.0472 12.6346 12.7899C13.9401 13.1613 13.7536 14.2755 13.7536 14.6469C13.5671 15.3896 13.0076 16.1324 11.7022 16.1324C10.5833 16.1324 10.2103 16.1324 9.46432 15.5753C9.09134 15.2039 8.34539 15.3896 8.1589 15.9467C7.78592 16.3181 7.97241 16.8752 8.34539 17.2466C9.27783 17.8036 10.0238 17.9893 10.7697 17.9893V18.5464C10.7697 19.2892 11.1427 19.6606 11.7022 19.6606ZM41.1675 42.1294H35.5728C36.1323 41.0152 36.5052 39.5297 36.3187 38.2298H38.1836C38.7431 38.2298 39.1161 37.8584 39.1161 37.3014C39.1161 36.7443 38.7431 36.3729 38.1836 36.3729H35.7593C35.5728 36.0015 35.5728 35.8158 35.3863 35.4444C35.1998 35.0731 35.0133 34.7017 35.0133 34.3303C35.0133 33.0304 36.1323 31.9163 37.4377 31.9163C38.7431 31.9163 39.862 33.0304 39.862 34.3303C39.862 34.8874 40.235 35.2587 40.7945 35.2587C41.354 35.2587 41.7269 34.8874 41.7269 34.3303C41.7269 31.9163 39.862 30.0594 37.4377 30.0594C35.0133 30.0594 33.1484 31.9163 33.1484 34.3303C33.1484 35.0731 33.3349 35.8158 33.7079 36.3729H32.7755C32.216 36.3729 31.843 36.7443 31.843 37.3014C31.843 37.8584 32.216 38.2298 32.7755 38.2298H34.2674C34.4539 39.7154 33.8944 41.3866 32.7755 42.5008C32.589 42.6865 32.4025 43.2435 32.589 43.6149C32.7755 43.9863 33.1484 44.172 33.5214 44.172H40.981C41.5404 44.172 41.9134 43.8006 41.9134 43.2435C42.0999 42.5008 41.7269 42.1294 41.1675 42.1294ZM28.4862 6.29069C32.4025 7.96193 35.3863 11.1187 36.8782 15.0182L35.7593 15.3896C35.3863 15.5753 35.1998 15.761 35.0133 16.1324C35.0133 16.5038 35.1998 16.8752 35.5728 17.0609L41.9134 20.7747C42.0999 20.7747 42.2864 20.9604 42.4729 20.9604H42.6594C42.8459 20.9604 43.0324 20.7747 43.2188 20.589L46.9486 14.0898C47.1351 13.7184 47.1351 13.347 46.9486 12.9756C46.7621 12.6042 46.3892 12.6042 46.0162 12.6042L44.5243 12.9756C43.4053 10.0045 41.354 7.40485 38.7431 5.91931C35.7593 4.06238 32.216 3.691 28.6727 4.43377C28.2997 4.61946 27.9267 4.80515 27.9267 5.36223C27.9267 5.73362 28.1132 6.105 28.4862 6.29069ZM43.0324 14.4612C43.2188 15.0182 43.5918 15.2039 44.1513 15.2039L42.0999 18.7321L38.3701 16.6895C38.5566 16.6895 38.7431 16.5038 38.9296 16.3181C39.1161 16.1324 39.1161 15.761 39.1161 15.5753C37.9971 11.6758 35.5728 8.14762 32.216 5.91931C37.0647 6.105 41.5404 9.44747 43.0324 14.4612ZM20.4672 41.3866C16.5509 39.7154 13.5671 36.5586 12.2617 32.4734L13.3806 32.102C13.7536 31.9163 13.9401 31.7306 14.1265 31.3592C14.1265 30.9878 13.9401 30.6164 13.5671 30.4307L7.22645 26.7169C7.03996 26.5312 6.66698 26.5312 6.48049 26.5312C6.29401 26.5312 6.10752 26.7169 5.92103 26.9026L2.19125 33.4018C2.00476 33.7732 2.00476 34.1446 2.19125 34.516C2.37774 34.8874 2.75071 34.8874 3.12369 34.8874L4.42912 34.516C5.54805 37.4871 7.59943 40.0868 10.2103 41.5723C12.2617 42.8721 14.686 43.4292 16.9239 43.4292C18.0428 43.4292 19.1618 43.2435 20.0942 43.0578C20.4672 42.8721 20.8402 42.6865 20.8402 42.1294C21.0266 41.758 20.8402 41.3866 20.4672 41.3866ZM5.92103 33.0304C5.73454 32.659 5.36156 32.2877 4.98858 32.2877H4.80209L6.85347 28.7595L10.3968 30.8021C10.2103 30.8021 10.0238 30.9878 9.8373 31.1735C9.65081 31.3592 9.65081 31.7306 9.65081 31.9163C10.7697 35.8158 13.1941 39.344 16.5509 41.5723C11.8887 41.5723 7.22645 38.0441 5.92103 33.0304ZM20.2807 20.2176C20.4672 20.0319 20.6537 19.8463 20.6537 19.4749C20.6537 19.1035 20.4672 18.9178 20.2807 18.7321C20.0942 18.5464 19.7212 18.5464 19.5347 18.5464C19.3482 18.5464 18.9753 18.7321 18.7888 18.9178C18.6023 19.1035 18.6023 19.2892 18.6023 19.4749C18.6023 19.6606 18.7888 20.0319 18.9753 20.2176C19.1618 20.4033 19.3482 20.589 19.7212 20.589C19.7212 20.4033 20.0942 20.4033 20.2807 20.2176Z" fill="url(#paint0_linear)"/>
<defs>
<linearGradient id="paint0_linear" x1="-3.92" y1="49" x2="54.6054" y2="44.6955" gradientUnits="userSpaceOnUse">
<stop stop-color="#4E89E2"/>
<stop offset="1" stop-color="#FCD60D"/>
</linearGradient>
</defs>
</svg>
