<svg width="66" height="66" viewBox="0 0 66 66" fill="none" xmlns="http://www.w3.org/2000/svg">
<path d="M4.7098 4.72143C-1.56993 10.9743 -1.56993 20.979 4.7098 27.2319C7.72407 30.2333 11.7431 31.9841 16.0133 31.9841C18.0228 31.9841 20.0324 31.4839 22.0419 30.7336C22.7954 30.4834 23.0466 29.7331 22.7954 28.9827C22.5442 28.2324 21.7907 27.9823 21.0371 28.2324C16.0133 30.2333 10.236 29.2329 6.46813 25.231C1.19315 19.9785 1.19315 11.4746 6.46813 6.22213C11.7431 0.969681 20.2835 0.969681 25.5585 6.22213C29.3264 9.97388 30.5823 15.7266 28.5728 20.7289C28.3216 21.4792 28.5728 22.2296 29.3264 22.4797C30.0799 22.7298 30.8335 22.4797 31.0847 21.7294C33.5966 15.7266 32.0894 8.97341 27.568 4.47131C21.0371 -1.53149 10.7383 -1.53149 4.7098 4.72143ZM49.9239 33.9851C41.1323 33.9851 33.8478 41.2385 33.8478 49.9925C33.8478 58.7466 41.1323 66 49.9239 66C58.7155 66 66 58.7466 66 49.9925C66 41.2385 58.7155 33.9851 49.9239 33.9851ZM49.9239 63.2487C42.6394 63.2487 36.6109 57.2459 36.6109 49.7424C36.6109 42.2389 42.6394 36.2361 49.9239 36.2361C57.2084 36.2361 63.2369 42.2389 63.2369 49.7424C63.2369 57.2459 57.4596 63.2487 49.9239 63.2487ZM15.7621 26.4816C16.5157 26.4816 17.0181 25.9813 17.0181 25.231V24.2305C19.2788 23.7303 20.5347 21.7294 21.0371 19.9785C21.5395 17.4774 20.2835 15.4764 17.7716 14.7261C16.5157 14.2259 15.0086 13.4755 14.0038 12.9753C13.7526 12.7252 13.7526 12.2249 13.7526 11.4746C13.7526 10.9743 14.255 10.224 15.0086 9.97388C16.7669 9.47365 17.7716 10.4741 18.0228 10.4741C18.274 10.7242 18.5252 10.7242 19.0276 10.7242C19.53 10.9743 20.0324 10.224 20.0324 9.47365C20.0324 9.22353 20.0324 8.7233 19.7812 8.7233C19.53 8.47318 18.5252 7.72283 17.0181 7.47271V6.72236C17.0181 5.97201 16.5157 5.47178 15.7621 5.47178C15.0086 5.47178 14.5062 5.97201 14.5062 6.72236V7.47271H14.255C12.7479 7.97295 11.4919 9.47365 11.2407 10.9743C10.9895 12.475 11.4919 13.9757 12.4967 14.9762C13.5014 15.7266 14.7574 16.2268 17.0181 17.2273C18.7764 17.7275 18.5252 19.2282 18.5252 19.7284C18.274 20.7289 17.5205 21.7294 15.7621 21.7294C14.255 21.7294 13.7526 21.7294 12.7479 20.979C12.2455 20.4788 11.2407 20.7289 10.9895 21.4792C10.4872 21.9795 10.7383 22.7298 11.2407 23.2301C12.4967 23.9804 13.5014 24.2305 14.5062 24.2305V24.9809C14.5062 25.9813 15.0086 26.4816 15.7621 26.4816ZM55.4501 56.7457H47.9144C48.6679 55.245 49.1703 53.2441 48.9191 51.4932H51.431C52.1846 51.4932 52.687 50.993 52.687 50.2427C52.687 49.4923 52.1846 48.9921 51.431 48.9921H48.1656C47.9144 48.4918 47.9144 48.2417 47.6632 47.7415C47.412 47.2413 47.1608 46.741 47.1608 46.2408C47.1608 44.49 48.6679 42.9893 50.4263 42.9893C52.1846 42.9893 53.6917 44.49 53.6917 46.2408C53.6917 46.9911 54.1941 47.4914 54.9477 47.4914C55.7012 47.4914 56.2036 46.9911 56.2036 46.2408C56.2036 42.9893 53.6917 40.4881 50.4263 40.4881C47.1608 40.4881 44.6489 42.9893 44.6489 46.2408C44.6489 47.2413 44.9001 48.2417 45.4025 48.9921H44.1465C43.393 48.9921 42.8906 49.4923 42.8906 50.2427C42.8906 50.993 43.393 51.4932 44.1465 51.4932H46.156C46.4072 53.4942 45.6537 55.7452 44.1465 57.2459C43.8953 57.496 43.6441 58.2464 43.8953 58.7466C44.1465 59.2469 44.6489 59.497 45.1513 59.497H55.1989C55.9524 59.497 56.4548 58.9967 56.4548 58.2464C56.706 57.2459 56.2036 56.7457 55.4501 56.7457ZM38.3692 8.47318C43.6441 10.7242 47.6632 14.9762 49.6727 20.2287L48.1656 20.7289C47.6632 20.979 47.412 21.2291 47.1608 21.7294C47.1608 22.2296 47.412 22.7298 47.9144 22.9799L56.4548 27.9823C56.706 27.9823 56.9572 28.2324 57.2084 28.2324H57.4596C57.7108 28.2324 57.9619 27.9823 58.2131 27.7322L63.2369 18.9781C63.4881 18.4778 63.4881 17.9776 63.2369 17.4774C62.9857 16.9771 62.4834 16.9771 61.981 16.9771L59.9715 17.4774C58.4643 13.4755 55.7012 9.97388 52.1846 7.97295C48.1656 5.47178 43.393 4.97155 38.6204 5.97201C38.118 6.22213 37.6156 6.47225 37.6156 7.2226C37.6156 7.72283 37.8668 8.22306 38.3692 8.47318ZM57.9619 19.4783C58.2131 20.2287 58.7155 20.4788 59.4691 20.4788L56.706 25.231L51.6822 22.4797C51.9334 22.4797 52.1846 22.2296 52.4358 21.9795C52.687 21.7294 52.687 21.2291 52.687 20.979C51.1798 15.7266 47.9144 10.9743 43.393 7.97295C49.9239 8.22306 55.9524 12.7252 57.9619 19.4783ZM27.568 55.7452C22.2931 53.4942 18.274 49.2422 16.5157 43.7396L18.0228 43.2394C18.5252 42.9893 18.7764 42.7392 19.0276 42.2389C19.0276 41.7387 18.7764 41.2385 18.274 40.9883L9.73359 35.986C9.4824 35.7359 8.98002 35.7359 8.72883 35.7359C8.47764 35.7359 8.22645 35.986 7.97526 36.2361L2.95148 44.9902C2.70029 45.4904 2.70029 45.9907 2.95148 46.4909C3.20266 46.9911 3.70504 46.9911 4.20742 46.9911L5.96575 46.4909C7.47288 50.4928 10.236 53.9944 13.7526 55.9953C16.5157 57.7462 19.7812 58.4965 22.7954 58.4965C24.3026 58.4965 25.8097 58.2464 27.0657 57.9963C27.568 57.7462 28.0704 57.496 28.0704 56.7457C28.3216 56.2455 28.0704 55.7452 27.568 55.7452ZM7.97526 44.49C7.72407 43.9897 7.22169 43.4895 6.71932 43.4895H6.46813L9.23121 38.7373L14.0038 41.4886C13.7526 41.4886 13.5014 41.7387 13.2502 41.9888C12.999 42.2389 12.999 42.7392 12.999 42.9893C14.5062 48.2417 17.7716 52.9939 22.2931 55.9953C16.0133 55.9953 9.73359 51.2431 7.97526 44.49ZM27.3168 27.2319C27.568 26.9818 27.8192 26.7317 27.8192 26.2315C27.8192 25.7312 27.568 25.4811 27.3168 25.231C27.0657 24.9809 26.5633 24.9809 26.3121 24.9809C26.0609 24.9809 25.5585 25.231 25.3073 25.4811C25.0561 25.7312 25.0561 25.9813 25.0561 26.2315C25.0561 26.4816 25.3073 26.9818 25.5585 27.2319C25.8097 27.482 26.0609 27.7322 26.5633 27.7322C26.5633 27.482 27.0657 27.482 27.3168 27.2319Z" fill="url(#paint0_linear)"/>
<defs>
<linearGradient id="paint0_linear" x1="-5.28" y1="66" x2="73.5501" y2="60.2021" gradientUnits="userSpaceOnUse">
<stop stop-color="#4E89E2"/>
<stop offset="1" stop-color="#FCD60D"/>
</linearGradient>
</defs>
</svg>
