<svg width="14" height="14" viewBox="0 0 14 14" fill="none" xmlns="http://www.w3.org/2000/svg">
<path d="M13.9688 10.375C13.9688 10.1875 13.8125 10 13.5938 10H13.2812C13.0938 10 12.9062 10.1875 12.9062 10.375L12.9375 12.1875L12.9062 12.2188L7.6875 7L12.9062 1.8125H12.9375L12.9062 3.625C12.9062 3.84375 13.0938 4 13.2812 4H13.5938C13.8125 4 13.9688 3.84375 13.9688 3.625L14 0.375C14 0.1875 13.8125 0 13.625 0L10.375 0.03125C10.1562 0.03125 10 0.1875 10 0.40625V0.71875C10 0.90625 10.1562 1.09375 10.375 1.09375L12.1875 1.0625V1.09375L7 6.3125L1.78125 1.09375L1.8125 1.0625L3.625 1.09375C3.8125 1.09375 4 0.90625 4 0.71875V0.40625C4 0.1875 3.8125 0.03125 3.625 0.03125L0.375 0C0.15625 0 0 0.1875 0 0.375V3.625C0 3.84375 0.15625 4 0.375 4H0.6875C0.875 4 1.0625 3.84375 1.0625 3.625V1.8125L6.28125 7L1.0625 12.2188V12.1875V10.375C1.0625 10.1875 0.875 10 0.6875 10H0.375C0.15625 10 0 10.1875 0 10.375V13.625C0 13.8438 0.15625 14 0.375 14H3.625C3.8125 14 4 13.8438 4 13.625V13.3125C4 13.125 3.8125 12.9375 3.625 12.9375H1.8125H1.78125L7 7.71875L12.1875 12.9375H10.375C10.1562 12.9375 10 13.125 10 13.3125V13.625C10 13.8438 10.1562 14 10.375 14H13.625C13.8125 14 14 13.8438 14 13.625L13.9688 10.375Z" fill="#313131"/>
</svg>
