<svg width="78" height="78" viewBox="0 0 78 78" fill="none" xmlns="http://www.w3.org/2000/svg">
<path d="M75.4839 75.4839H78V78H75.4839V75.4839ZM0 75.4839H2.51613V78H0V75.4839ZM78 55.3548C78 45.1488 71.2065 36.4996 61.8968 33.6847C62.5101 32.9456 62.9032 32.002 62.9032 30.9641C62.9032 29.2185 61.8496 27.6617 60.2298 27.0012L37.7105 17.9903C37.1129 17.7544 36.4996 17.5815 35.8863 17.4871L30.1935 16.5435V15.6786C31.7347 14.2948 32.7097 12.2976 32.7097 10.0645V7.54839C32.7097 3.38105 29.3286 0 25.1613 0C20.994 0 17.6129 3.38105 17.6129 7.54839V10.0645C17.6129 12.2976 18.5879 14.2948 20.129 15.6786V16.7165L11.3855 19.6258C9.84435 20.129 8.80645 21.5758 8.80645 23.1956V43.4032C8.80645 44.0794 8.97943 44.7242 9.24677 45.2903H2.51613C1.13226 45.2903 0 46.4226 0 47.8064V57.871C0 59.2548 1.13226 60.3871 2.51613 60.3871H15.0968V75.4839H5.03226V78H72.9677V75.4839H65.6867C72.9835 71.7254 78 64.1141 78 55.3548ZM75.4839 55.3548C75.4839 66.4573 66.4573 75.4839 55.3548 75.4839C44.2524 75.4839 35.2258 66.4573 35.2258 55.3548C35.2258 44.2524 44.2524 35.2258 55.3548 35.2258C66.4573 35.2258 75.4839 44.2524 75.4839 55.3548ZM35.2258 45.023V27.6774H37.5218L51.7694 33.0242C44.5512 34.1722 38.4653 38.7484 35.2258 45.023ZM20.129 7.54839C20.129 4.78064 22.3935 2.51613 25.1613 2.51613C27.929 2.51613 30.1935 4.78064 30.1935 7.54839V10.0645C30.1935 12.8323 27.929 15.0968 25.1613 15.0968C22.3935 15.0968 20.129 12.8323 20.129 10.0645V7.54839ZM16.6065 47.8064L11.6685 51.0931C10.7093 51.7379 9.40403 51.7379 8.46048 51.0931L3.52258 47.8064H16.6065ZM2.51613 50.1496L7.06089 53.1847C7.95726 53.7823 8.99516 54.0968 10.0645 54.0968C11.1339 54.0968 12.1718 53.7823 13.0681 53.1847L17.6129 50.1496V57.871H2.51613V50.1496ZM17.6129 60.3871C18.9968 60.3871 20.129 59.2548 20.129 57.871V47.8064C20.129 46.4226 18.9968 45.2903 17.6129 45.2903V25.1613H15.0968V43.4032C15.0968 44.4411 14.2476 45.2903 13.2097 45.2903C12.1718 45.2903 11.3226 44.4411 11.3226 43.4032V23.1956C11.3226 22.6609 11.6685 22.1734 12.1875 22.0004L22.6452 18.5093V17.1569C23.4315 17.4399 24.2806 17.5972 25.1613 17.5972C26.0419 17.5972 26.8911 17.4399 27.6774 17.1569V18.6665L35.4774 19.9718C35.9177 20.0504 36.3581 20.1605 36.7827 20.3335L59.2863 29.3444C59.9468 29.6117 60.3871 30.2407 60.3871 30.9641C60.3871 31.9234 59.6008 32.7097 58.6415 32.7097H58.4056C58.2012 32.7097 57.9968 32.6782 57.7923 32.5996L37.9621 25.1613H32.7097V75.4839H26.4194V41.5161H23.9032V75.4839H17.6129V60.3871ZM35.2258 75.4839V65.6867C37.396 69.8855 40.8242 73.3294 45.023 75.4839H35.2258ZM54.0968 46.5484V56.6129H60.3871V54.0968H56.6129V46.5484H54.0968ZM43.9065 41.9879L45.5419 43.8907C47.9637 41.8306 50.9516 40.5726 54.0968 40.321V44.0323H56.6129V40.321C63.9411 40.9343 69.7754 46.7685 70.3887 54.0968H66.6774V56.6129H70.3887C70.1214 59.7581 68.879 62.746 66.8032 65.1677L68.7218 66.8032C71.4581 63.6109 72.9677 59.5379 72.9677 55.3548C72.9677 45.6363 65.0734 37.7419 55.3548 37.7419C51.156 37.7419 47.0988 39.2516 43.9065 41.9879ZM56.6129 70.3887V66.6774H54.0968V70.3887C46.7685 69.7754 40.9343 63.9411 40.321 56.6129H44.0323V54.0968H40.321C40.5883 50.9516 41.8306 47.9637 43.9065 45.5419L41.9879 43.9065C39.2516 47.0988 37.7419 51.1718 37.7419 55.3548C37.7419 65.0734 45.6363 72.9677 55.3548 72.9677C59.5536 72.9677 63.6109 71.4581 66.8032 68.7218L65.1677 66.8189C62.746 68.879 59.7581 70.1371 56.6129 70.3887Z" fill="url(#paint0_linear)"/>
<defs>
<linearGradient id="paint0_linear" x1="-6.24" y1="78" x2="86.9228" y2="71.1479" gradientUnits="userSpaceOnUse">
<stop stop-color="#4E89E2"/>
<stop offset="1" stop-color="#FCD60D"/>
</linearGradient>
</defs>
</svg>
