<svg width="16" height="17" viewBox="0 0 16 17" fill="none" xmlns="http://www.w3.org/2000/svg">
<path d="M15.75 1.25391C15.75 1.00781 15.6445 0.796875 15.4688 0.621094C15.293 0.480469 15.082 0.375 14.8711 0.375H0.878906C0.597656 0.375 0.386719 0.480469 0.246094 0.621094C0.0703125 0.796875 0 1.00781 0 1.25391V15.2461C0 15.4922 0.0703125 15.7031 0.246094 15.8789C0.386719 16.0547 0.597656 16.125 0.878906 16.125H8.40234V10.0078H6.36328V7.65234H8.40234V5.89453C8.40234 4.91016 8.68359 4.13672 9.24609 3.57422C9.80859 3.04688 10.5469 2.76562 11.4609 2.76562C12.1641 2.76562 12.7969 2.80078 13.2891 2.83594V4.98047H12.0234C11.5664 4.98047 11.25 5.08594 11.0742 5.29688C10.9336 5.47266 10.8633 5.75391 10.8633 6.14062V7.65234H13.2188L12.9023 10.0078H10.8633V16.125H14.8711C15.1172 16.125 15.3281 16.0547 15.5039 15.8789C15.6445 15.7031 15.75 15.4922 15.75 15.2461V1.25391Z" fill="#817F7F"/>
</svg>
