<svg width="118" height="118" viewBox="0 0 118 118" fill="none" xmlns="http://www.w3.org/2000/svg">
<path d="M81.632 102.582L73.5656 97.6957L73.5195 97.6727L69.0945 94.9992V92.0492C70.6848 89.9059 71.791 87.4398 72.3902 84.8355C72.4824 84.3516 72.7129 83.8906 73.0586 83.5449C73.0816 83.5219 73.1047 83.4988 73.1277 83.4758C74.2801 82.2773 74.9254 80.6871 74.9254 79.0277V74.8562C74.9254 73.8652 74.6949 72.8973 74.257 72.0215L74.0266 71.5375C73.8652 71.1918 73.773 70.8231 73.773 70.4313V64.4391C73.7961 58.1934 68.7488 53.123 62.5031 53.1H55.543C49.2973 53.123 44.273 58.2164 44.273 64.4391V70.4313C44.273 70.8 44.1809 71.1918 44.0195 71.5375L43.7891 72.0215C43.3512 72.8973 43.1207 73.8883 43.1207 74.8793V79.0508C43.1207 80.7102 43.766 82.3004 44.9184 83.4988C44.9414 83.5219 44.9645 83.5449 44.9875 83.568C45.3332 83.9137 45.5637 84.3746 45.6559 84.8586C46.232 87.4629 47.3613 89.9289 48.9516 92.0723V95.0223L44.4113 97.7648C44.3883 97.7879 44.3652 97.7879 44.3422 97.8109L36.4141 102.605C33.3719 104.471 31.5281 107.767 31.5281 111.316V116.041C31.5281 116.571 31.7355 117.055 32.1043 117.424C32.473 117.793 32.9801 118 33.4871 118H84.6281C85.1582 118 85.6422 117.793 86.0109 117.424C86.3797 117.055 86.5871 116.548 86.5871 116.041V111.316C86.518 107.744 84.6742 104.448 81.632 102.582ZM47.7992 80.8254C47.7762 80.8023 47.7531 80.7793 47.7531 80.7562C47.2922 80.2953 47.0387 79.673 47.0387 79.0277V74.8562C47.0387 74.4875 47.1309 74.0957 47.2922 73.75L47.5457 73.266C47.9836 72.3902 48.2141 71.3992 48.2141 70.4313V64.4391C48.191 60.3598 51.4867 57.0641 55.543 57.018H62.5031C66.5824 57.041 69.8551 60.3598 69.832 64.4391V70.4313C69.832 71.4223 70.0625 72.3902 70.5004 73.266L70.7309 73.75C70.8922 74.0957 70.9844 74.4644 70.9844 74.8562V79.0277C70.9844 79.673 70.7309 80.2953 70.2699 80.7562L70.2238 80.8254C69.3711 81.7242 68.7949 82.8305 68.5414 84.052C68.0344 86.1953 67.0894 88.2234 65.7527 89.975C65.384 90.5051 65.1766 91.1504 65.1766 91.7957V94.9762L58.9078 97.8109L52.8465 94.9992V91.7957C52.8465 91.1504 52.6391 90.5051 52.2473 89.975C50.9105 88.2234 49.9656 86.2184 49.4816 84.075C49.2281 82.8305 48.652 81.7242 47.7992 80.8254ZM60.8898 104.564L59.8066 106.2H57.9859L56.9027 104.564L58.9078 102.674L60.8898 104.564ZM51.7633 114.059H35.4V111.293C35.4 109.104 36.5293 107.076 38.3961 105.946L45.1258 101.867L48.9977 104.909C50.0578 105.739 51.3715 106.2 52.7313 106.2C52.8926 106.2 53.0539 106.177 53.1922 106.154L54.6211 108.297L51.7633 114.059ZM54.1602 101.729C53.9527 101.913 53.6992 102.052 53.4457 102.144C52.7773 102.397 52.0168 102.282 51.4406 101.821L48.7211 99.7008L50.8414 98.4102L55.4277 100.53L54.1602 101.729ZM56.1652 114.059L58.1242 110.118H59.6223L61.5813 114.059H56.1652ZM67.1355 98.4102L69.1406 99.6086L66.3289 101.821C65.7297 102.282 64.923 102.374 64.2316 102.098C64.0012 102.029 63.7938 101.89 63.6094 101.729L62.3648 100.554L67.1355 98.4102ZM82.6 114.059H66.0062L63.1254 108.297L64.5543 106.131C64.7156 106.154 64.877 106.177 65.0383 106.177C66.375 106.177 67.6887 105.739 68.7488 104.909L72.7359 101.775L79.6039 105.923C81.4707 107.076 82.6 109.104 82.6 111.27V114.059ZM59 43.259C70.9383 43.259 80.641 33.5793 80.641 21.618C80.618 9.67969 70.9383 0.0230469 59 0C47.0617 0 37.359 9.67969 37.359 21.641C37.359 33.6023 47.0617 43.259 59 43.259ZM59 3.94102C68.7719 3.94102 76.7 11.8691 76.7 21.641C76.7 31.4129 68.7719 39.341 59 39.341C49.2281 39.341 41.3 31.4129 41.3 21.641C41.3 11.8691 49.2281 3.94102 59 3.94102ZM43.259 51.141C43.259 39.2027 33.5793 29.5 21.618 29.5C9.67969 29.523 0.0230469 39.2027 0 51.141C0 63.0793 9.67969 72.782 21.641 72.782C33.5793 72.759 43.259 63.0793 43.259 51.141ZM21.641 68.841C11.8691 68.841 3.94102 60.9129 3.94102 51.141C3.94102 41.3691 11.8691 33.441 21.641 33.441C31.4129 33.441 39.341 41.3691 39.341 51.141C39.341 60.9129 31.4129 68.841 21.641 68.841ZM96.359 29.5C84.4207 29.5 74.718 39.1797 74.718 51.141C74.718 63.1023 84.3977 72.782 96.359 72.782C108.32 72.782 118 63.1023 118 51.141C117.977 39.2027 108.32 29.523 96.359 29.5ZM96.359 68.841C86.5871 68.841 78.659 60.9129 78.659 51.141C78.659 41.3691 86.5871 33.441 96.359 33.441C106.131 33.441 114.059 41.3691 114.059 51.141C114.059 60.9129 106.131 68.818 96.359 68.841ZM59 35.4C66.6055 35.4 72.759 29.2465 72.759 21.641C72.759 14.0355 66.5824 7.88203 59 7.88203C51.3945 7.88203 45.241 14.0355 45.241 21.641C45.241 29.2465 51.3945 35.4 59 35.4ZM59 11.8C64.4391 11.8 68.841 16.202 68.841 21.641C68.841 27.0801 64.4391 31.459 59 31.482C53.5609 31.482 49.159 27.0801 49.159 21.641C49.159 16.202 53.5609 11.8 59 11.8ZM59 27.541C62.2496 27.541 64.9 24.8906 64.9 21.641C64.9 18.3914 62.2496 15.741 59 15.741C55.7504 15.741 53.1 18.3914 53.1 21.641C53.1 24.8906 55.7504 27.541 59 27.541ZM59 19.659C60.0832 19.659 60.959 20.5348 60.959 21.618C60.959 22.7012 60.0832 23.577 59 23.577C57.9168 23.577 57.041 22.7012 57.041 21.618C57.041 20.5578 57.9168 19.659 59 19.659ZM21.641 49.159C20.5578 49.159 19.682 48.2832 19.682 47.2C19.682 46.1168 20.5578 45.241 21.641 45.241H25.582C26.6652 45.241 27.541 44.3652 27.541 43.282C27.541 42.1988 26.6652 41.323 25.582 41.323H23.623V39.3641C23.623 38.2809 22.7473 37.4051 21.6641 37.4051C20.5809 37.4051 19.7051 38.2809 19.7051 39.3641V41.6918C16.9855 42.6367 15.3723 45.4023 15.8563 48.2371C16.3402 51.0719 18.8062 53.123 21.6641 53.123C22.7473 53.123 23.623 53.9988 23.623 55.082C23.623 56.1652 22.7473 57.041 21.6641 57.041H17.7C16.6168 57.041 15.741 57.9168 15.741 59C15.741 60.0832 16.6168 60.959 17.7 60.959H19.659V62.918C19.659 64.0012 20.5348 64.877 21.618 64.877C22.7012 64.877 23.577 64.0012 23.577 62.918V60.6133C26.2965 59.6684 27.9098 56.9027 27.4258 54.068C26.9418 51.2332 24.4988 49.159 21.641 49.159ZM108.044 44.5727C108.021 44.5266 108.021 44.4805 107.998 44.4344C107.998 44.4113 107.998 44.4113 107.998 44.3883C107.905 44.2039 107.79 44.0195 107.629 43.8812C107.583 43.8352 107.537 43.8121 107.491 43.766C107.145 43.4434 106.684 43.282 106.2 43.259H102.259C101.222 43.259 100.369 44.0656 100.3 45.1027C100.231 46.1398 100.991 47.0387 102.005 47.177L96.4281 53.8605L92.0262 47.9836C91.6344 47.4766 91.0352 47.2 90.3898 47.2C89.7445 47.223 89.1684 47.5457 88.7996 48.0758L84.8586 53.9758C84.4668 54.552 84.3977 55.3125 84.7203 55.9578C85.043 56.6031 85.6652 57.018 86.3566 57.0641C87.0711 57.1102 87.7394 56.7645 88.1312 56.1883L90.5281 52.593L94.7688 58.2395C95.1375 58.7234 95.6906 59 96.2898 59.023H96.3359C96.9121 59.023 97.4652 58.7695 97.857 58.3086L104.564 50.2422C104.909 50.7953 105.509 51.141 106.177 51.141C106.707 51.141 107.191 50.9336 107.56 50.5648C107.929 50.1961 108.136 49.6891 108.136 49.182V45.241C108.136 45.1949 108.113 45.1719 108.113 45.1488C108.136 44.9414 108.09 44.757 108.044 44.5727Z" fill="white"/>
</svg>
