<svg width="73" height="69" viewBox="0 0 73 69" fill="none" xmlns="http://www.w3.org/2000/svg">
<path d="M44.1118 26.7475C43.9547 26.7475 43.7833 26.7189 43.6404 26.6617L36.4974 24.1157L29.3544 26.6617C28.9115 26.819 28.4258 26.7475 28.0401 26.4757C27.6543 26.204 27.4401 25.7463 27.4543 25.2743L27.6686 17.6791L23.04 11.6573C22.7542 11.2854 22.6685 10.7991 22.8114 10.3414C22.9542 9.88371 23.3114 9.54042 23.7685 9.41169L31.0401 7.26617L35.3259 1.00124C35.5974 0.61505 36.026 0.386194 36.4974 0.386194C36.9688 0.386194 37.4117 0.61505 37.6688 1.00124L41.9546 7.26617L49.2262 9.41169C49.6834 9.54042 50.0405 9.89801 50.1834 10.3414C50.3263 10.7848 50.2405 11.2854 49.9548 11.6573L45.3261 17.6791L45.5404 25.2743C45.5547 25.7463 45.3261 26.1897 44.9547 26.4757C44.6976 26.6617 44.4118 26.7475 44.1118 26.7475ZM26.54 11.5858L30.2115 16.3632C30.4115 16.6206 30.5115 16.9496 30.5115 17.2786L30.3401 23.3004L36.0117 21.2836C36.326 21.1692 36.6545 21.1692 36.9688 21.2836L42.6404 23.3004L42.4689 17.2786C42.4547 16.9496 42.5689 16.635 42.769 16.3632L46.4262 11.5858L40.6546 9.88371C40.3403 9.79789 40.0689 9.59764 39.8832 9.32587L36.4831 4.36256L33.083 9.32587C32.8973 9.59764 32.6259 9.79789 32.3116 9.88371L26.54 11.5858ZM57.2693 13.6026C56.9693 13.6026 56.6835 13.5025 56.4264 13.3308C56.0407 13.0591 55.8264 12.6014 55.8407 12.1437L55.9264 8.93968L53.9835 6.40796C53.6978 6.03607 53.612 5.54975 53.7549 5.09204C53.8978 4.64863 54.2549 4.29105 54.7121 4.16231L57.7836 3.26119L59.5979 0.61505C59.8693 0.228856 60.2979 0 60.7693 0C61.2408 0 61.6836 0.228856 61.9408 0.61505L63.7551 3.26119L66.8266 4.16231C67.2838 4.29105 67.6409 4.64863 67.7838 5.09204C67.9266 5.53545 67.8409 6.03607 67.5552 6.40796L65.6123 8.93968L65.698 12.1437C65.7123 12.6157 65.498 13.0591 65.1123 13.3308C64.7266 13.6026 64.2408 13.6741 63.798 13.5168L60.7836 12.444L57.7693 13.5168C57.5836 13.5883 57.4264 13.6026 57.2693 13.6026ZM60.7551 9.51182C60.9122 9.51182 61.0836 9.54042 61.2265 9.59764L62.7551 10.1412L62.7122 8.51057C62.698 8.18159 62.8122 7.86692 63.0122 7.59515L63.998 6.30784L62.4408 5.85012C62.1265 5.7643 61.8551 5.56405 61.6694 5.29229L60.7551 3.94776L59.8407 5.29229C59.655 5.56405 59.3836 5.7643 59.0693 5.85012L57.5121 6.30784L58.4979 7.59515C58.6979 7.85261 58.7979 8.18159 58.7979 8.51057L58.755 10.1412L60.2836 9.59764C60.4408 9.54042 60.5979 9.51182 60.7551 9.51182ZM15.6969 13.6026C15.5398 13.6026 15.3684 13.574 15.2255 13.5168L12.2112 12.444L9.1968 13.5168C8.75394 13.6741 8.26821 13.6026 7.88249 13.3308C7.49677 13.0591 7.28248 12.6014 7.29676 12.1437L7.38248 8.93968L5.43958 6.40796C5.15386 6.03607 5.06814 5.54975 5.211 5.09204C5.35386 4.64863 5.71101 4.29105 6.16817 4.16231L9.23966 3.26119L11.0397 0.61505C11.2968 0.228856 11.7397 0 12.2112 0C12.6826 0 13.1255 0.228856 13.3826 0.61505L15.1969 3.26119L18.2684 4.16231C18.7256 4.29105 19.0827 4.64863 19.2256 5.09204C19.3685 5.53545 19.2827 6.03607 18.997 6.40796L17.0541 8.93968L17.1398 12.1437C17.1541 12.6157 16.9398 13.0591 16.5541 13.3451C16.297 13.5168 15.997 13.6026 15.6969 13.6026ZM12.2112 9.51182C12.3683 9.51182 12.5397 9.54042 12.6826 9.59764L14.2112 10.1412L14.1683 8.51057C14.1541 8.18159 14.2683 7.86692 14.4683 7.59515L15.4541 6.30784L13.8969 5.85012C13.5826 5.7643 13.3112 5.56405 13.1255 5.29229L12.2112 3.94776L11.2968 5.29229C11.1111 5.56405 10.8397 5.7643 10.5254 5.85012L8.96823 6.30784L9.95396 7.59515C10.154 7.85261 10.254 8.18159 10.254 8.51057L10.2111 10.1412L11.7397 9.59764C11.8826 9.54042 12.054 9.51182 12.2112 9.51182ZM36.4831 59.0305C36.3974 59.0305 36.2974 59.0162 36.2117 59.0019C36.126 58.9876 36.026 58.959 35.9402 58.916C35.8545 58.8874 35.7688 58.8302 35.6974 58.7873C35.6259 58.7301 35.5402 58.6729 35.4831 58.6157C35.4117 58.5442 35.3545 58.4726 35.3116 58.4011C35.2545 58.3296 35.2116 58.2438 35.1831 58.158C35.1545 58.0721 35.1259 57.9863 35.0974 57.8862C35.0831 57.8004 35.0688 57.7002 35.0688 57.6144C35.0688 57.5286 35.0831 57.4285 35.0974 57.3427C35.1116 57.2568 35.1402 57.1567 35.1831 57.0709C35.2116 56.9851 35.2688 56.8993 35.3116 56.8277C35.3688 56.7562 35.4259 56.6704 35.4831 56.6132C35.5545 56.5417 35.6259 56.4845 35.6974 56.4415C35.7688 56.3843 35.8545 56.3414 35.9402 56.3128C36.026 56.2842 36.1117 56.2556 36.2117 56.227C36.3974 56.1841 36.5831 56.1841 36.7688 56.227C36.8545 56.2413 36.9545 56.2699 37.0403 56.3128C37.126 56.3414 37.2117 56.3986 37.2831 56.4415C37.3546 56.4988 37.4403 56.556 37.4974 56.6132C37.5688 56.6847 37.626 56.7562 37.6688 56.8277C37.726 56.8993 37.7688 56.9851 37.7974 57.0709C37.826 57.1567 37.8546 57.2425 37.8831 57.3427C37.8974 57.4285 37.9117 57.5286 37.9117 57.6144C37.9117 57.7002 37.8974 57.8004 37.8831 57.8862C37.8688 57.972 37.8403 58.0721 37.7974 58.158C37.7688 58.2438 37.7117 58.3296 37.6688 58.4011C37.6117 58.4726 37.5546 58.5585 37.4974 58.6157C37.426 58.6872 37.3546 58.7444 37.2831 58.7873C37.2117 58.8445 37.126 58.8874 37.0403 58.916C36.9545 58.9447 36.8688 58.9733 36.7688 59.0019C36.6688 59.0162 36.5688 59.0305 36.4831 59.0305ZM36.4831 54.3246C35.6974 54.3246 35.0545 53.681 35.0545 52.8943V29.3364C35.0545 28.5498 35.6974 27.9061 36.4831 27.9061C37.2688 27.9061 37.9117 28.5498 37.9117 29.3364V52.8943C37.9117 53.681 37.2688 54.3246 36.4831 54.3246ZM60.6836 45.2276C60.6122 45.2276 60.5408 45.2276 60.455 45.2133C59.9836 45.1418 59.5979 44.8414 59.3836 44.4123L56.8407 39.0056L51.4548 36.4453C51.0263 36.245 50.7263 35.8445 50.6548 35.3725C50.5834 34.9005 50.7406 34.4428 51.0834 34.1138L55.4121 30.0087L56.1835 24.0871C56.2407 23.615 56.5264 23.2146 56.955 23C57.3693 22.7854 57.8693 22.7998 58.2836 23.0143L63.5265 25.875L69.3981 24.7736C69.8552 24.6878 70.341 24.8308 70.6695 25.1741C70.9981 25.5031 71.1553 25.9894 71.0696 26.4471L69.9695 32.3259L72.8267 37.5753C73.0553 37.9901 73.0553 38.4907 72.841 38.9055C72.6267 39.3203 72.2267 39.6063 71.7553 39.6779L65.8409 40.4502L61.7265 44.7699C61.4551 45.0703 61.0693 45.2276 60.6836 45.2276ZM54.5406 34.7575L58.5121 36.6455C58.8122 36.7886 59.0407 37.0317 59.1836 37.3178L61.0693 41.2942L64.0837 38.1045C64.3123 37.8613 64.6123 37.7183 64.9409 37.6754L69.2981 37.1032L67.198 33.2413C67.0409 32.9552 66.9838 32.6262 67.0552 32.2973L67.8552 27.9776L63.5408 28.7786C63.2122 28.8358 62.8837 28.7929 62.5979 28.6356L58.7407 26.533L58.1693 30.8955C58.1264 31.2245 57.9693 31.5249 57.7407 31.7537L54.5406 34.7575ZM38.9974 69C38.9546 69 38.8974 69 38.8546 68.9857C38.0689 68.8999 37.4974 68.199 37.5831 67.4123C38.5117 58.3582 42.869 51.4782 46.3547 47.3159C50.1263 42.8103 53.6835 40.4073 53.8263 40.3072C54.4835 39.8638 55.3692 40.0498 55.7978 40.7077C56.2407 41.3657 56.055 42.2525 55.3978 42.6816C55.2692 42.7674 52.0263 44.9415 48.5262 49.1468C45.2976 53.023 41.2546 59.3738 40.3975 67.7127C40.3403 68.4565 39.726 69 38.9974 69ZM12.2826 45.2276C11.8969 45.2276 11.5254 45.0703 11.254 44.7842L7.1539 40.4502L1.23949 39.6779C0.768052 39.6206 0.368043 39.3346 0.153753 38.9055C-0.0605371 38.4907 -0.0462511 37.9901 0.168039 37.5753L3.02524 32.3259L1.92522 26.4471C1.8395 25.9894 1.98236 25.5031 2.32523 25.1741C2.65381 24.8451 3.13953 24.6878 3.59668 24.7736L9.46824 25.875L14.7112 23.0143C15.1255 22.7854 15.6255 22.7854 16.0398 23C16.4541 23.2146 16.7398 23.615 16.8113 24.0871L17.5827 30.0087L21.9114 34.1138C22.2542 34.4428 22.4114 34.9148 22.3399 35.3725C22.2685 35.8445 21.9685 36.2307 21.5399 36.4453L16.1255 39.0056L13.5683 44.398C13.3683 44.8271 12.9683 45.1275 12.4969 45.199C12.4254 45.2133 12.354 45.2276 12.2826 45.2276ZM3.65383 37.1032L8.01106 37.6754C8.33964 37.7183 8.63965 37.8756 8.86823 38.1045L11.8969 41.2942L13.7683 37.3321C13.9112 37.0317 14.1541 36.8029 14.4398 36.6598L18.4113 34.7575L15.2255 31.7251C14.9826 31.4963 14.8398 31.1959 14.7969 30.8669L14.2255 26.5044L10.3683 28.607C10.0825 28.7643 9.73967 28.8215 9.42538 28.75L5.111 27.949L5.91102 32.2687C5.96816 32.5976 5.92531 32.9266 5.76816 33.2127L3.65383 37.1032ZM33.9688 69C33.2402 69 32.6259 68.4565 32.5544 67.7127C31.6973 59.3738 27.6543 53.023 24.4257 49.1468C20.9256 44.9558 17.697 42.7817 17.5541 42.6816C16.897 42.2382 16.7255 41.3514 17.1541 40.7077C17.597 40.0498 18.4827 39.8781 19.1256 40.3072C19.2684 40.4073 22.84 42.8103 26.5972 47.3159C30.083 51.4925 34.4402 58.3725 35.3688 67.4123C35.4545 68.199 34.8831 68.8999 34.0973 68.9857C34.0688 69 34.0116 69 33.9688 69ZM47.6833 68.7425C47.4833 68.7425 47.2833 68.6996 47.0833 68.6138C46.369 68.2848 46.0547 67.4409 46.3833 66.7257C48.5548 61.977 52.1834 59.0448 54.8549 57.4142C57.6693 55.6978 59.9693 55.0541 60.2122 54.9826C60.9693 54.7823 61.7551 55.2257 61.9551 55.9981C62.1551 56.7562 61.7122 57.5429 60.9408 57.7432C60.9265 57.7432 58.8407 58.3153 56.3264 59.8458C54.0121 61.2618 50.8406 63.8078 48.9691 67.8986C48.7405 68.4279 48.2262 68.7425 47.6833 68.7425ZM26.64 68.7425C26.0972 68.7425 25.5829 68.4279 25.34 67.9129C23.4685 63.8221 20.297 61.2761 17.9827 59.8601C15.4684 58.3296 13.3969 57.7575 13.3683 57.7575C12.6112 57.5572 12.154 56.7705 12.354 56.0124C12.554 55.2544 13.3398 54.7966 14.0969 54.9969C14.3541 55.0684 16.6398 55.6978 19.4542 57.4285C22.1114 59.0448 25.74 61.977 27.9258 66.7401C28.2544 67.4552 27.9401 68.2991 27.2258 68.6281C27.04 68.6996 26.8258 68.7425 26.64 68.7425ZM66.398 50.6057C65.6123 50.6057 64.9694 49.9621 64.9694 49.1754V47.9882C64.9694 47.2015 65.6123 46.5578 66.398 46.5578C67.1838 46.5578 67.8266 47.2015 67.8266 47.9882V49.1754C67.8266 49.9621 67.1838 50.6057 66.398 50.6057ZM66.398 57.0566C65.6123 57.0566 64.9694 56.4129 64.9694 55.6262V54.4391C64.9694 53.6524 65.6123 53.0087 66.398 53.0087C67.1838 53.0087 67.8266 53.6524 67.8266 54.4391V55.6262C67.8266 56.4129 67.1838 57.0566 66.398 57.0566ZM70.2124 53.2376H69.0267C68.2409 53.2376 67.5981 52.5939 67.5981 51.8072C67.5981 51.0205 68.2409 50.3769 69.0267 50.3769H70.2124C70.9981 50.3769 71.641 51.0205 71.641 51.8072C71.641 52.5939 70.9981 53.2376 70.2124 53.2376ZM63.7837 53.2376H62.5979C61.8122 53.2376 61.1693 52.5939 61.1693 51.8072C61.1693 51.0205 61.8122 50.3769 62.5979 50.3769H63.7837C64.5694 50.3769 65.2123 51.0205 65.2123 51.8072C65.198 52.5939 64.5694 53.2376 63.7837 53.2376ZM6.56818 50.6057C5.78244 50.6057 5.13957 49.9621 5.13957 49.1754V47.9882C5.13957 47.2015 5.78244 46.5578 6.56818 46.5578C7.35391 46.5578 7.99678 47.2015 7.99678 47.9882V49.1754C7.98249 49.9621 7.35391 50.6057 6.56818 50.6057ZM6.56818 57.0566C5.78244 57.0566 5.13957 56.4129 5.13957 55.6262V54.4391C5.13957 53.6524 5.78244 53.0087 6.56818 53.0087C7.35391 53.0087 7.99678 53.6524 7.99678 54.4391V55.6262C7.98249 56.4129 7.35391 57.0566 6.56818 57.0566ZM10.3683 53.2376H9.18252C8.39679 53.2376 7.75392 52.5939 7.75392 51.8072C7.75392 51.0205 8.39679 50.3769 9.18252 50.3769H10.3683C11.154 50.3769 11.7969 51.0205 11.7969 51.8072C11.7969 52.5939 11.1683 53.2376 10.3683 53.2376ZM3.93955 53.2376H2.75381C1.96808 53.2376 1.32521 52.5939 1.32521 51.8072C1.32521 51.0205 1.96808 50.3769 2.75381 50.3769H3.93955C4.72528 50.3769 5.36815 51.0205 5.36815 51.8072C5.36815 52.5939 4.72528 53.2376 3.93955 53.2376Z" fill="url(#paint0_linear)"/>
<defs>
<linearGradient id="paint0_linear" x1="-5.84" y1="69" x2="81.2949" y2="62.2197" gradientUnits="userSpaceOnUse">
<stop stop-color="#4E89E2"/>
<stop offset="1" stop-color="#FCD60D"/>
</linearGradient>
</defs>
</svg>
