<svg width="70" height="68" viewBox="0 0 70 68" fill="none" xmlns="http://www.w3.org/2000/svg">
<path d="M1.22608 55.08L4.22941 59.0892L1.08441 66.4133C0.900248 66.8525 0.999414 67.3767 1.36775 67.7025C1.58025 67.9008 1.84941 68 2.13275 68C2.31691 68 2.50108 67.9575 2.68525 67.8583L25.3519 55.3917C25.7202 55.1933 25.9328 54.8108 25.9328 54.4C25.9328 53.9892 25.7061 53.6067 25.3519 53.4083L2.68525 40.9417C2.26025 40.715 1.73608 40.7717 1.38191 41.0975C1.02775 41.4233 0.914414 41.9333 1.09858 42.3867L4.24358 49.7108L1.22608 53.72C0.928581 54.1167 0.928581 54.6833 1.22608 55.08ZM6.35441 59.9108L16.9936 57.4033L4.47025 64.2883L6.35441 59.9108ZM16.9936 51.3967L6.35441 48.8892L4.47025 44.5117L16.9936 51.3967ZM6.00025 51.1417L19.8553 54.4L6.00025 57.6583L3.54941 54.4L6.00025 51.1417ZM50.8661 0C41.2469 0 33.3844 7.53667 32.7894 17H29.8003L26.7261 13.9258L25.1253 15.5267L26.5844 16.9858H21.9661C15.4069 16.9858 10.0661 22.3267 10.0661 28.8858C10.0661 35.445 15.4069 40.7858 21.9661 40.7858H34.5319L37.6061 43.86L39.2069 42.2592L37.7336 40.8H59.3661C62.8086 40.8 65.5994 43.5908 65.5994 47.0333C65.5994 50.4758 62.8086 53.2667 59.3661 53.2667H49.0669L45.9928 50.1925L44.3919 51.7933L45.8511 53.2525H28.1994V55.5192H45.8653L44.4061 56.9783L46.0069 58.5792L49.0811 55.505H59.3661C64.0553 55.505 67.8661 51.6942 67.8661 47.005C67.8661 42.3158 64.0553 38.505 59.3661 38.505H37.7336L39.1928 37.0458L37.5919 35.445L34.5319 38.5333H21.9661C16.6536 38.5333 12.3327 34.2125 12.3327 28.9C12.3327 23.5875 16.6536 19.2667 21.9661 19.2667H26.5986L25.1394 20.7258L26.7402 22.3267L29.8144 19.2525H32.8036C33.3986 28.7158 41.2611 36.2525 50.8803 36.2525C60.8819 36.2525 69.0136 28.1208 69.0136 18.1192C69.0136 8.1175 60.8678 0 50.8661 0ZM50.8661 34C42.4936 34 35.6369 27.4833 35.0561 19.2667H38.4561C39.0369 25.6133 44.3778 30.6 50.8661 30.6C57.7369 30.6 63.3328 25.0042 63.3328 18.1333C63.3328 11.2625 57.7369 5.66667 50.8661 5.66667C44.3778 5.66667 39.0369 10.6533 38.4561 17H35.0561C35.6369 8.78333 42.4936 2.26667 50.8661 2.26667C59.6211 2.26667 66.7328 9.37833 66.7328 18.1333C66.7328 26.8883 59.6211 34 50.8661 34ZM48.2736 22.3408L51.6736 18.9408C52.1128 18.5017 52.1128 17.7792 51.6736 17.34L48.2736 13.94L46.6728 15.5408L48.1319 17H40.7369C41.3036 11.9142 45.6244 7.93333 50.8661 7.93333C56.4903 7.93333 61.0661 12.5092 61.0661 18.1333C61.0661 23.7575 56.4903 28.3333 50.8661 28.3333C45.6244 28.3333 41.3036 24.3525 40.7369 19.2667H48.1319L46.6728 20.7258L48.2736 22.3408ZM57.6661 18.1333C57.6661 14.3792 54.6203 11.3333 50.8661 11.3333V13.6C53.3594 13.6 55.3994 15.64 55.3994 18.1333C55.3994 20.6267 53.3594 22.6667 50.8661 22.6667V24.9333C54.6203 24.9333 57.6661 21.8875 57.6661 18.1333Z" fill="url(#paint0_linear)"/>
<defs>
<linearGradient id="paint0_linear" x1="-4.44742" y1="68" x2="76.7944" y2="62.023" gradientUnits="userSpaceOnUse">
<stop stop-color="#4E89E2"/>
<stop offset="1" stop-color="#FCD60D"/>
</linearGradient>
</defs>
</svg>
