<svg width="64" height="64" viewBox="0 0 64 64" fill="none" xmlns="http://www.w3.org/2000/svg">
<path d="M22.4 21.3333C22.4 19.12 21.5333 17 19.9867 15.4133C22.3467 14.4533 25.0533 14.9867 26.8667 16.7733L28.36 15.2533C25.6267 12.5733 21.4267 12.04 18.12 13.9733C15.48 12.44 12.2267 12.44 9.58667 13.96C6.96 15.4667 5.33333 18.28 5.33333 21.3333V25.6H1.06667C0.48 25.6 0 26.08 0 26.6667V62.9333C0 63.52 0.48 64 1.06667 64H23.4667V61.8667H10.6667V27.7333H13.8667V32H16V27.7333H23.4667V25.6H22.4V21.3333ZM6.22667 55.9467C6.01333 55.6667 5.69333 55.5067 5.33333 55.5067C4.97333 55.5067 4.65333 55.6667 4.44 55.9467L2.13333 59.4133V30.1867L4.44 33.6533C4.64 33.9467 4.97333 34.1333 5.33333 34.1333C5.69333 34.1333 6.02667 33.96 6.22667 33.6533L8.53333 30.1867V59.4133L6.22667 55.9467ZM7.61333 61.8667H3.05333L5.33333 58.4533L7.61333 61.8667ZM5.33333 31.1467L3.05333 27.7333H7.6L5.33333 31.1467ZM7.46667 25.6V21.3333C7.46667 19.2 8.52 17.2133 10.2933 16.0267C12.0667 14.84 14.3067 14.6133 16.28 15.4133C14.7333 17 13.8667 19.12 13.8667 21.3333V25.6H7.46667ZM16 21.3333C16 19.52 16.7733 17.7867 18.1333 16.5733C19.4933 17.7867 20.2667 19.5067 20.2667 21.3333V25.6H16V21.3333ZM34.0267 14.3467C34.0933 14.2 34.1333 14.04 34.1333 13.8667V6.4H38.4V13.8667C38.4 14.0267 38.44 14.2 38.5067 14.3467L44.9067 27.1467L46.8133 26.2L40.5333 13.6133V1.06667C40.5333 0.48 40.0533 0 39.4667 0H33.0667C32.48 0 32 0.48 32 1.06667V13.6133L25.7067 26.1867C25.6267 26.3333 25.6 26.4933 25.6 26.6667V62.9333C25.6 63.52 26.08 64 26.6667 64H34.1333V61.8667H27.7333V26.92L34.0267 14.3467ZM38.4 2.13333V4.26667H34.1333V2.13333H38.4ZM63.8533 41.0533L59.7333 33.8533V29.8667C59.7333 29.28 59.2533 28.8 58.6667 28.8H41.6C41.0133 28.8 40.5333 29.28 40.5333 29.8667V33.8533L36.4133 41.0667C36.32 41.2267 36.2667 41.4133 36.2667 41.6V62.9333C36.2667 63.52 36.7467 64 37.3333 64H62.9333C63.52 64 64 63.52 64 62.9333V41.6C64 41.4133 63.9467 41.2133 63.8533 41.0533ZM61.0933 40.5333H56.24L58.6667 36.28L61.0933 40.5333ZM42.6667 30.9333H57.6V33.0667H42.6667V30.9333ZM42.2133 35.2H56.8267L53.7733 40.5333H39.1733L42.2133 35.2ZM53.3333 61.8667H38.4V42.6667H53.3333V61.8667ZM61.8667 61.8667H55.4667V42.6667H61.8667V61.8667Z" fill="url(#paint0_linear)"/>
<defs>
<linearGradient id="paint0_linear" x1="-5.12" y1="64" x2="71.3213" y2="58.3778" gradientUnits="userSpaceOnUse">
<stop stop-color="#4E89E2"/>
<stop offset="1" stop-color="#FCD60D"/>
</linearGradient>
</defs>
</svg>
