<svg width="63" height="63" viewBox="0 0 63 63" fill="none" xmlns="http://www.w3.org/2000/svg">
<path d="M31.3889 8.01035C32.0804 8.01035 32.636 7.45664 32.636 6.76758V1.24277C32.636 0.553711 32.0804 0 31.3889 0C30.6974 0 30.1417 0.553711 30.1417 1.24277V6.76758C30.1417 7.45664 30.7097 8.01035 31.3889 8.01035ZM61.7899 42.5742L59.5919 40.3963C58.814 39.6211 57.7644 39.1904 56.6531 39.1904C55.9492 39.1904 55.2577 39.3627 54.6527 39.6949L50.5161 35.5729L50.7136 35.376C52.393 33.7025 52.393 30.9709 50.7136 29.2975C50.1086 28.6945 49.3677 28.3008 48.5527 28.1285C48.6639 27.7471 48.7256 27.341 48.7256 26.9227C48.7256 25.766 48.2811 24.6955 47.4661 23.8834C46.861 23.2805 46.1201 22.8867 45.3052 22.7145C45.4163 22.333 45.478 21.927 45.478 21.5086C45.478 20.352 45.0335 19.2814 44.2185 18.4693C43.6011 17.8541 42.8479 17.4727 42.0576 17.3004C42.4775 15.8484 42.1194 14.1996 40.971 13.0553C40.0078 12.1078 38.7113 11.7018 37.4641 11.8248L29.265 10.2744C28.0178 10.0406 26.4496 9.88066 25.4618 10.7789C25.4 10.8404 25.3383 10.902 25.2766 10.9758C23.7454 10.4221 21.9673 10.7543 20.7448 11.9725C19.9298 12.7846 19.4853 13.8551 19.4853 15.0117C19.4853 15.4301 19.547 15.8361 19.6582 16.2176C18.8432 16.3898 18.09 16.7836 17.4973 17.3865C16.6823 18.1986 16.2377 19.2691 16.2377 20.4258C16.2377 20.8441 16.2995 21.2502 16.4106 21.6316C15.5956 21.8039 14.8424 22.1977 14.2497 22.7883C13.4347 23.6004 12.9902 24.6832 12.9902 25.8275C12.9902 26.7135 13.2495 27.5502 13.7434 28.2516C13.126 28.4607 12.558 28.8053 12.0888 29.2729C10.4094 30.9463 10.4094 33.6656 12.0888 35.3514L12.2864 35.5482L8.14974 39.6703C6.60623 38.9443 4.71697 39.215 3.44512 40.4824L1.21011 42.685C0.432183 43.4602 0 44.5061 0 45.6012C0 46.7086 0.432183 47.7422 1.21011 48.5297L3.95139 51.2613C4.43297 51.7412 5.22325 51.7412 5.70482 51.2613C6.1864 50.7814 6.1864 49.9939 5.70482 49.5141L2.96354 46.7824C2.65484 46.4748 2.48197 46.0564 2.48197 45.6135C2.48197 45.1705 2.65484 44.7522 2.96354 44.4445L5.16151 42.2543C5.70482 41.7129 6.55684 41.6268 7.18659 42.0082C7.23599 42.0697 7.28538 42.1436 7.34712 42.1928C7.45825 42.3035 7.56938 42.3773 7.70521 42.4389L20.3126 54.9773C20.3744 55.1127 20.4608 55.2357 20.5596 55.3342C20.6584 55.4326 20.7818 55.5188 20.9053 55.5803C21.177 55.8756 21.3252 56.2693 21.3252 56.6754C21.3252 57.1184 21.1523 57.5367 20.8436 57.8443L18.6456 60.0469C17.9912 60.6867 16.9416 60.6867 16.2995 60.0469L13.5582 57.3152C13.0766 56.8354 12.2864 56.8354 11.8048 57.3152C11.3232 57.7951 11.3232 58.5826 11.8048 59.0625L14.5461 61.7941C15.3487 62.5939 16.4106 63 17.4726 63C18.5345 63 19.5964 62.5939 20.4114 61.7941L22.6094 59.6039C23.3873 58.8287 23.8195 57.7828 23.8195 56.6754C23.8195 55.8879 23.5972 55.1373 23.1897 54.4852L27.845 49.8463L27.8573 49.834C28.3883 49.2803 29.8824 49.391 31.3148 49.4895C32.3397 49.5633 33.4757 49.6371 34.587 49.5141L39.6868 54.5959C39.3534 55.1988 39.1805 55.8756 39.1805 56.577C39.1805 57.6844 39.6127 58.718 40.3906 59.4932L42.5886 61.6834C43.3665 62.4586 44.4161 62.8893 45.5274 62.8893C46.6388 62.8893 47.676 62.4586 48.4663 61.6834L61.7899 48.4189C62.5678 47.6437 63 46.5979 63 45.4904C63 44.3953 62.5678 43.3494 61.7899 42.5742ZM28.7834 12.723L34.1795 13.7443L30.9567 16.9559C30.4628 16.7221 29.7713 16.2668 29.018 15.5531C27.9931 14.5688 27.2523 13.4367 27.1905 12.7354C27.1905 12.6861 27.1905 12.6492 27.1905 12.6123C27.3387 12.5754 27.7709 12.5385 28.7834 12.723ZM22.4859 13.732C23.1156 13.1045 24.0911 13.0307 24.8073 13.5105C25.2148 15.1963 26.6595 16.7221 27.3016 17.3373C27.7832 17.7926 29.3267 19.1707 30.8826 19.5521C31.0925 19.8475 31.2036 20.2166 31.2036 20.5857C31.2036 21.0779 31.0184 21.5332 30.6727 21.8654C30.3269 22.21 29.87 22.3945 29.3761 22.3945C28.8822 22.3945 28.4253 22.21 28.0796 21.8654L22.4735 16.2914C22.1278 15.9469 21.9426 15.4916 21.9426 15.0117C21.9549 14.5318 22.1401 14.0766 22.4859 13.732ZM19.2383 19.1461C19.5841 18.8016 20.041 18.617 20.5225 18.617C21.0165 18.617 21.4733 18.8016 21.8191 19.1461L26.3385 23.6373C27.0547 24.351 27.0547 25.5076 26.3385 26.209C25.9927 26.5535 25.5359 26.7381 25.0419 26.7381C24.548 26.7381 24.0911 26.5535 23.7454 26.209L20.325 22.8006L20.3126 22.7883L19.2383 21.7178C18.8926 21.3732 18.7074 20.918 18.7074 20.4258C18.695 19.9459 18.8926 19.4906 19.2383 19.1461ZM15.9784 24.5479C16.3242 24.2033 16.7811 24.0187 17.275 24.0187C17.7566 24.0187 18.2134 24.2033 18.5592 24.5355L21.992 27.9562C22.3377 28.3008 22.5229 28.7561 22.5229 29.2359C22.5229 29.7281 22.3377 30.1834 21.992 30.5156C21.6462 30.8602 21.1893 31.0447 20.6954 31.0447C20.2015 31.0447 19.7446 30.8602 19.3989 30.5156L18.1517 29.2975L15.9784 27.1318C15.6327 26.7873 15.4475 26.332 15.4475 25.8398C15.4475 25.3477 15.6327 24.8924 15.9784 24.5479ZM13.8052 31.0447C14.1509 30.7002 14.6078 30.5156 15.1017 30.5156C15.5956 30.5156 16.0525 30.7002 16.3983 31.0447L17.6454 32.2875C17.9912 32.632 18.1764 33.0873 18.1764 33.5672C18.1764 34.0471 17.9912 34.5146 17.6454 34.8469C17.2997 35.1914 16.8428 35.376 16.3489 35.376C15.855 35.376 15.3981 35.1914 15.0523 34.8469L14.8918 34.6869C14.8918 34.6869 14.8918 34.6869 14.8918 34.6746C14.8918 34.6746 14.8918 34.6746 14.8795 34.6623L13.8052 33.5918C13.1013 32.9027 13.1013 31.7584 13.8052 31.0447ZM39.1558 45.1336C38.6742 44.6537 37.884 44.6537 37.4024 45.1336L36.2911 46.2287C35.2415 47.2746 33.3399 47.1393 31.4876 47.0162C29.4873 46.8809 27.4128 46.7332 26.0792 48.099L21.498 52.6518L10.039 41.2576L14.0892 37.2217C14.756 37.6277 15.5339 37.8492 16.3365 37.8492C17.4973 37.8492 18.5715 37.4062 19.3865 36.5941C20.2015 35.782 20.646 34.7115 20.646 33.5549C20.646 33.5426 20.646 33.5303 20.646 33.518C20.6584 33.518 20.6707 33.518 20.6831 33.518C21.8314 33.518 22.9181 33.075 23.733 32.2629C24.548 31.4508 24.9925 30.3803 24.9925 29.2236C24.9925 29.2113 24.9925 29.199 24.9925 29.1867C25.0049 29.1867 25.0172 29.1867 25.0296 29.1867C26.178 29.1867 27.2646 28.7437 28.0796 27.9316C28.9316 27.0826 29.3514 25.9752 29.3391 24.8678C29.3514 24.8678 29.3638 24.8678 29.3761 24.8678C30.5368 24.8678 31.6111 24.4248 32.4261 23.6127C33.2411 22.8006 33.6856 21.7301 33.6856 20.5734C33.6856 19.7736 33.4633 18.9984 33.0559 18.334L36.6121 14.7902C36.8714 14.5318 37.2048 14.3596 37.5506 14.298C37.5876 14.298 37.6247 14.2857 37.6617 14.2857C38.205 14.2119 38.7854 14.3842 39.2052 14.7902C39.9214 15.5039 39.9214 16.6605 39.2052 17.3619L38.1186 18.4324L38.1062 18.4447L36.8591 19.6875C36.3775 20.1674 36.3775 20.9549 36.8591 21.4348C37.3406 21.9146 38.1309 21.9146 38.6125 21.4348L39.6991 20.352L39.8597 20.192C40.5759 19.4906 41.7242 19.4906 42.4404 20.2043C42.7862 20.5488 42.9714 21.0041 42.9714 21.484C42.9714 21.9762 42.7862 22.4314 42.4404 22.7637L41.3538 23.8465L40.1066 25.0893C39.625 25.5691 39.6127 26.3566 40.1066 26.8365C40.5882 27.3164 41.3785 27.3287 41.8601 26.8365L43.1072 25.5938C43.453 25.2492 43.9098 25.0646 44.4038 25.0646C44.8977 25.0646 45.3546 25.2492 45.7003 25.5938C46.0461 25.9383 46.2313 26.3936 46.2313 26.8734C46.2313 27.3656 46.0461 27.8209 45.7003 28.1531L43.527 30.3187C43.0455 30.7986 43.0455 31.5861 43.527 32.066C43.774 32.3121 44.0827 32.4229 44.4038 32.4229C44.7248 32.4229 45.0459 32.2998 45.2805 32.0537L46.3424 30.9955C46.3424 30.9955 46.3548 30.9832 46.3671 30.9832C46.7129 30.6387 47.1697 30.4541 47.6637 30.4541C48.1576 30.4541 48.6145 30.6387 48.9602 30.9832C49.6764 31.6846 49.6641 32.8412 48.9602 33.5549L47.8736 34.6254L46.1572 36.3357C45.6756 36.8156 45.6756 37.6031 46.1572 38.083C46.4042 38.3291 46.7129 38.4521 47.0339 38.4521C47.355 38.4521 47.676 38.3291 47.9106 38.0953L48.7503 37.2586L52.7758 41.2576L41.3167 52.6518L37.2172 48.5666C37.5012 48.382 37.7728 48.1729 38.0321 47.9145L39.1435 46.8193C39.6374 46.401 39.6374 45.6135 39.1558 45.1336ZM60.0365 46.6594L46.7005 59.9361C46.3918 60.2438 45.972 60.416 45.5274 60.416C45.0829 60.416 44.6631 60.2438 44.3544 59.9361L42.1564 57.7459C41.8477 57.4383 41.6748 57.0199 41.6748 56.577C41.6748 56.134 41.8477 55.7156 42.1564 55.408L55.48 42.1436C55.7887 41.8359 56.2085 41.6637 56.6531 41.6637C57.0976 41.6637 57.5174 41.8359 57.8261 42.1436L60.0241 44.3215C60.3328 44.6291 60.5057 45.0475 60.5057 45.4904C60.518 45.9457 60.3452 46.3518 60.0365 46.6594ZM14.8795 6.96445C15.1264 7.21055 15.4351 7.32129 15.7562 7.32129C16.0772 7.32129 16.3983 7.19824 16.6329 6.95215C17.1145 6.47227 17.1145 5.68477 16.6329 5.20488L12.1011 0.701367C11.6196 0.221484 10.8293 0.221484 10.3477 0.701367C9.86613 1.18125 9.86613 1.96875 10.3477 2.44863L14.8795 6.96445ZM47.0216 7.32129C47.3426 7.32129 47.6637 7.19824 47.8983 6.96445L52.43 2.46094C52.9116 1.98105 52.9116 1.19355 52.43 0.713672C51.9485 0.233789 51.1582 0.233789 50.6766 0.713672L46.1448 5.21719C45.6633 5.69707 45.6633 6.48457 46.1448 6.96445C46.3918 7.19824 46.7005 7.32129 47.0216 7.32129ZM7.64347 53.3039C7.1619 53.7961 7.17424 54.5713 7.65582 55.0512C7.90278 55.285 8.21148 55.408 8.52019 55.408C8.84124 55.408 9.16229 55.285 9.40925 55.0389C9.89083 54.5467 9.87848 53.7592 9.3969 53.2793C8.91533 52.8117 8.12505 52.8117 7.64347 53.3039ZM42.1935 43.3494C42.3787 43.3494 42.5762 43.3125 42.7491 43.2141C43.3665 42.9064 43.6135 42.1559 43.3048 41.5529C42.9961 40.9377 42.2428 40.6916 41.6378 40.9992H41.6254C41.008 41.3068 40.7734 42.0451 41.0821 42.6604C41.3044 43.091 41.7366 43.3494 42.1935 43.3494Z" fill="url(#paint0_linear)"/>
<defs>
<linearGradient id="paint0_linear" x1="-5.04" y1="63" x2="70.2069" y2="57.4656" gradientUnits="userSpaceOnUse">
<stop stop-color="#4E89E2"/>
<stop offset="1" stop-color="#FCD60D"/>
</linearGradient>
</defs>
</svg>
