<svg width="108" height="97" viewBox="0 0 108 97" fill="none" xmlns="http://www.w3.org/2000/svg">
<path d="M104.287 29.8494H103.254L93.593 3.82089C92.7492 1.54102 90.5555 0 88.1086 0H19.8914C17.4656 0 15.2508 1.54102 14.407 3.82089L4.74609 29.8494H3.7125C1.66641 29.8494 0 31.5171 0 33.5647V36.5412C0 38.5889 1.66641 40.2566 3.7125 40.2566H4.26094V74.9613C4.26094 75.8268 4.97813 76.5445 5.84297 76.5445C6.70781 76.5445 7.425 75.8268 7.425 74.9613V40.2777H32.2734C33.6656 40.2777 34.9734 39.7288 35.9437 38.7578L54 20.6877L72.0563 38.7578C73.0477 39.7499 74.3555 40.2777 75.7266 40.2777H100.575V44.4786C100.575 45.3441 101.292 46.0618 102.157 46.0618C103.022 46.0618 103.739 45.3441 103.739 44.4786V40.2777H104.287C106.334 40.2777 108 38.61 108 36.5623V33.5647C108 31.5171 106.334 29.8494 104.287 29.8494ZM17.3813 4.91861C17.7609 3.86311 18.7734 3.16649 19.8914 3.16649H88.1086C89.2266 3.16649 90.2391 3.86311 90.6188 4.91861L99.8789 29.8494H77.8992L57.6914 9.62611C56.7 8.63395 55.3922 8.1062 54.0211 8.1062C52.6289 8.1062 51.3211 8.65506 50.3508 9.62611L30.143 29.8494H8.12109L17.3813 4.91861ZM104.836 36.5623C104.836 36.8579 104.583 37.1112 104.287 37.1112H75.7266C75.1781 37.1112 74.6719 36.9001 74.2922 36.5201L55.118 17.3101C54.8227 17.0146 54.4219 16.8457 54 16.8457C53.5781 16.8457 53.1773 17.0146 52.882 17.3101L33.7078 36.499C33.3281 36.879 32.8008 37.0901 32.2734 37.0901H3.7125C3.41719 37.0901 3.16406 36.8368 3.16406 36.5412V33.5647C3.16406 33.2692 3.41719 33.0159 3.7125 33.0159H30.7547C31.1766 33.0159 31.5773 32.847 31.8727 32.5515L52.5445 11.8638C52.9242 11.4838 53.4516 11.2727 53.9789 11.2727C54.5273 11.2727 55.0336 11.4838 55.4133 11.8638L76.0852 32.5515C76.3805 32.847 76.7812 33.0159 77.2031 33.0159H104.245C104.541 33.0159 104.794 33.2692 104.794 33.5647L104.836 36.5623ZM95.1328 84.2074C95.9977 84.2074 96.7148 83.4897 96.7148 82.6242V54.4635C96.7148 53.598 95.9977 52.8803 95.1328 52.8803H73.8281C72.9633 52.8803 72.2461 53.598 72.2461 54.4635V82.603C72.2461 83.4685 72.9633 84.1863 73.8281 84.1863H95.1328V84.2074ZM93.5508 74.2013H86.0625V66.7073H93.5508V74.2013ZM82.8984 74.2013H75.4102V66.7073H82.8984V74.2013ZM93.5508 81.0409H75.4102V77.3889H93.5508V81.0409ZM93.5508 63.5408H86.0625V56.0468H93.5508V63.5408ZM82.8984 56.0468V63.5408H75.4102V56.0468H82.8984ZM34.193 84.2074C35.0578 84.2074 35.775 83.4897 35.775 82.6242V54.4635C35.775 53.598 35.0578 52.8803 34.193 52.8803H12.8672C12.0023 52.8803 11.2852 53.598 11.2852 54.4635V82.603C11.2852 83.4685 12.0023 84.1863 12.8672 84.1863H34.193V84.2074ZM32.6109 74.2013H25.1016V66.7073H32.5898V74.2013H32.6109ZM21.9375 74.2013H14.4492V66.7073H21.9375V74.2013ZM32.6109 81.0409H14.4703V77.3889H32.6109V81.0409ZM32.6109 63.5408H25.1016V56.0468H32.5898V63.5408H32.6109ZM21.9375 56.0468V63.5408H14.4492V56.0468H21.9375ZM59.1047 59.6988H48.8742C48.0094 59.6988 47.2922 60.4165 47.2922 61.282V68.1005C47.2922 68.966 48.0094 69.6838 48.8742 69.6838H59.1047C59.9695 69.6838 60.6867 68.966 60.6867 68.1005V61.282C60.6867 60.4165 59.9906 59.6988 59.1047 59.6988ZM57.5227 66.5384H50.4562V62.8864H57.5227V66.5384ZM62.3953 39.7499C62.3953 35.1058 58.6195 31.3482 54 31.3482C49.3805 31.3482 45.6047 35.1269 45.6047 39.7499C45.6047 44.373 49.3805 48.1517 54 48.1517C58.6195 48.1517 62.3953 44.3941 62.3953 39.7499ZM48.7687 39.7499C48.7687 36.8579 51.1102 34.5147 54 34.5147C56.8898 34.5147 59.2312 36.8579 59.2312 39.7499C59.2312 42.642 56.8898 44.9852 54 44.9852C51.1102 44.9852 48.7687 42.642 48.7687 39.7499ZM106.418 86.5717H103.739V51.867C103.739 51.0015 103.022 50.2838 102.157 50.2838C101.292 50.2838 100.575 51.0015 100.575 51.867V86.5717H67.5211V54.4635C67.5211 53.598 66.8039 52.8803 65.9391 52.8803H42.0609C41.1961 52.8803 40.4789 53.598 40.4789 54.4635V86.5717H7.425V82.3708C7.425 81.5053 6.70781 80.7876 5.84297 80.7876C4.97813 80.7876 4.26094 81.5053 4.26094 82.3708V86.5717H1.58203C0.717188 86.5717 0 87.2894 0 88.155V95.4168C0 96.2823 0.717188 97 1.58203 97H106.418C107.283 97 108 96.2823 108 95.4168V88.1761C108 87.2894 107.283 86.5717 106.418 86.5717ZM43.643 75.0246H45.9C46.7648 75.0246 47.482 74.3069 47.482 73.4413C47.482 72.5758 46.7648 71.8581 45.9 71.8581H43.643V56.0468H64.3359V86.5717H43.643V75.0246ZM104.836 93.8335H3.16406V89.7593H104.836V93.8335Z" fill="white"/>
</svg>
