<svg width="19" height="17" viewBox="0 0 19 17" fill="none" xmlns="http://www.w3.org/2000/svg">
<path d="M18.3945 7.33594L16.25 5.57812V2.83594C16.25 2.73047 16.1445 2.625 16.0391 2.625H15.3359C15.1953 2.625 15.125 2.73047 15.125 2.83594V4.66406L10.2031 0.65625C9.99219 0.480469 9.74609 0.410156 9.5 0.410156C9.21875 0.410156 8.97266 0.480469 8.76172 0.65625L0.605469 7.33594C0.535156 7.37109 0.5 7.44141 0.5 7.54688C0.5 7.61719 0.5 7.6875 0.535156 7.72266L0.886719 8.14453C0.957031 8.21484 1.02734 8.25 1.13281 8.25C1.20312 8.25 1.23828 8.25 1.30859 8.17969L2.75 7.01953V15.5625C2.75 15.8789 2.99609 16.125 3.3125 16.125H7.8125C8.09375 16.125 8.375 15.8789 8.375 15.5625V11.0625H10.625V15.5625C10.625 15.8789 10.8711 16.125 11.1875 16.125H15.6875C15.9688 16.125 16.25 15.8789 16.25 15.5625V7.01953L17.6562 8.17969C17.7266 8.25 17.7617 8.25 17.832 8.25C17.9375 8.25 18.0078 8.21484 18.0781 8.14453L18.4297 7.72266C18.4648 7.6875 18.4648 7.61719 18.4648 7.54688C18.4648 7.44141 18.4297 7.37109 18.3945 7.33594ZM15.0898 15L11.7148 15.0352V10.5C11.7148 10.2188 11.4688 9.9375 11.1875 9.9375H7.8125H7.77734C7.49609 9.9375 7.21484 10.1836 7.21484 10.5V15H3.875V6.10547L9.5 1.5L15.125 6.10547L15.0898 15Z" fill="url(#paint0_linear)"/>
<defs>
<linearGradient id="paint0_linear" x1="-2.68" y1="17" x2="22.3537" y2="14.8519" gradientUnits="userSpaceOnUse">
<stop stop-color="#4E89E2"/>
<stop offset="1" stop-color="#FCD60D"/>
</linearGradient>
</defs>
</svg>
