<svg width="58" height="52" viewBox="0 0 58 52" fill="none" xmlns="http://www.w3.org/2000/svg">
<path d="M56.0062 16.0017H55.4512L50.2629 2.04831C49.8098 0.826115 48.6316 0 47.3176 0H10.6824C9.37969 0 8.19024 0.826115 7.73711 2.04831L2.54883 16.0017H1.99375C0.894922 16.0017 0 16.8958 0 17.9935V19.5891C0 20.6868 0.894922 21.5808 1.99375 21.5808H2.28828V40.1854C2.28828 40.6494 2.67344 41.0342 3.13789 41.0342C3.60234 41.0342 3.9875 40.6494 3.9875 40.1854V21.5922H17.332C18.0797 21.5922 18.782 21.2979 19.3031 20.7774L29 11.0903L38.6969 20.7774C39.2293 21.3092 39.9316 21.5922 40.668 21.5922H54.0125V23.8442C54.0125 24.3082 54.3977 24.6929 54.8621 24.6929C55.3266 24.6929 55.7117 24.3082 55.7117 23.8442V21.5922H56.0062C57.1051 21.5922 58 20.6982 58 19.6004V17.9935C58 16.8958 57.1051 16.0017 56.0062 16.0017ZM9.33438 2.63678C9.53828 2.07095 10.082 1.6975 10.6824 1.6975H47.3176C47.918 1.6975 48.4617 2.07095 48.6656 2.63678L53.6387 16.0017H41.8348L30.9824 5.16039C30.45 4.62851 29.7477 4.34559 29.0113 4.34559C28.2637 4.34559 27.5613 4.63983 27.0402 5.16039L16.1879 16.0017H4.36133L9.33438 2.63678ZM56.3008 19.6004C56.3008 19.7589 56.1648 19.8947 56.0062 19.8947H40.668C40.3734 19.8947 40.1016 19.7815 39.8977 19.5778L29.6004 9.27965C29.4418 9.12122 29.2266 9.03069 29 9.03069C28.7734 9.03069 28.5582 9.12122 28.3996 9.27965L18.1023 19.5665C17.8984 19.7702 17.6152 19.8834 17.332 19.8834H1.99375C1.83516 19.8834 1.69922 19.7476 1.69922 19.5891V17.9935C1.69922 17.835 1.83516 17.6992 1.99375 17.6992H16.5164C16.743 17.6992 16.9582 17.6087 17.1168 17.4503L28.2184 6.35996C28.4223 6.15626 28.7055 6.04309 28.9887 6.04309C29.2832 6.04309 29.5551 6.15626 29.759 6.35996L40.8605 17.4503C41.0191 17.6087 41.2344 17.6992 41.4609 17.6992H55.9836C56.1422 17.6992 56.2781 17.835 56.2781 17.9935L56.3008 19.6004ZM51.0898 45.1421C51.5543 45.1421 51.9395 44.7573 51.9395 44.2934V29.197C51.9395 28.733 51.5543 28.3482 51.0898 28.3482H39.6484C39.184 28.3482 38.7988 28.733 38.7988 29.197V44.282C38.7988 44.746 39.184 45.1308 39.6484 45.1308H51.0898V45.1421ZM50.2402 39.778H46.2188V35.7606H50.2402V39.778ZM44.5195 39.778H40.498V35.7606H44.5195V39.778ZM50.2402 43.4446H40.498V41.4868H50.2402V43.4446ZM50.2402 34.0631H46.2188V30.0457H50.2402V34.0631ZM44.5195 30.0457V34.0631H40.498V30.0457H44.5195ZM18.3629 45.1421C18.8273 45.1421 19.2125 44.7573 19.2125 44.2934V29.197C19.2125 28.733 18.8273 28.3482 18.3629 28.3482H6.91016C6.4457 28.3482 6.06055 28.733 6.06055 29.197V44.282C6.06055 44.746 6.4457 45.1308 6.91016 45.1308H18.3629V45.1421ZM17.5133 39.778H13.4805V35.7606H17.502V39.778H17.5133ZM11.7812 39.778H7.75977V35.7606H11.7812V39.778ZM17.5133 43.4446H7.77109V41.4868H17.5133V43.4446ZM17.5133 34.0631H13.4805V30.0457H17.502V34.0631H17.5133ZM11.7812 30.0457V34.0631H7.75977V30.0457H11.7812ZM31.7414 32.0035H26.2473C25.7828 32.0035 25.3977 32.3882 25.3977 32.8522V36.5075C25.3977 36.9715 25.7828 37.3563 26.2473 37.3563H31.7414C32.2059 37.3563 32.591 36.9715 32.591 36.5075V32.8522C32.591 32.3882 32.2172 32.0035 31.7414 32.0035ZM30.8918 35.6701H27.0969V33.7123H30.8918V35.6701ZM33.5086 21.3092C33.5086 18.8196 31.4809 16.8052 29 16.8052C26.5191 16.8052 24.4914 18.8309 24.4914 21.3092C24.4914 23.7876 26.5191 25.8133 29 25.8133C31.4809 25.8133 33.5086 23.7989 33.5086 21.3092ZM26.1906 21.3092C26.1906 19.7589 27.448 18.5027 29 18.5027C30.552 18.5027 31.8094 19.7589 31.8094 21.3092C31.8094 22.8596 30.552 24.1158 29 24.1158C27.448 24.1158 26.1906 22.8596 26.1906 21.3092ZM57.1504 46.4096H55.7117V27.805C55.7117 27.341 55.3266 26.9563 54.8621 26.9563C54.3977 26.9563 54.0125 27.341 54.0125 27.805V46.4096H36.2613V29.197C36.2613 28.733 35.8762 28.3482 35.4117 28.3482H22.5883C22.1238 28.3482 21.7387 28.733 21.7387 29.197V46.4096H3.9875V44.1576C3.9875 43.6936 3.60234 43.3088 3.13789 43.3088C2.67344 43.3088 2.28828 43.6936 2.28828 44.1576V46.4096H0.849609C0.385156 46.4096 0 46.7943 0 47.2583V51.1513C0 51.6152 0.385156 52 0.849609 52H57.1504C57.6148 52 58 51.6152 58 51.1513V47.2696C58 46.7943 57.6148 46.4096 57.1504 46.4096ZM23.4379 40.2194H24.65C25.1145 40.2194 25.4996 39.8346 25.4996 39.3706C25.4996 38.9066 25.1145 38.5219 24.65 38.5219H23.4379V30.0457H34.5508V46.4096H23.4379V40.2194ZM56.3008 50.3025H1.69922V48.1184H56.3008V50.3025Z" fill="url(#paint0_linear)"/>
<defs>
<linearGradient id="paint0_linear" x1="-4.64" y1="52" x2="64.5441" y2="46.3244" gradientUnits="userSpaceOnUse">
<stop stop-color="#4E89E2"/>
<stop offset="1" stop-color="#FCD60D"/>
</linearGradient>
</defs>
</svg>
