<svg width="71" height="70" viewBox="0 0 71 70" fill="none" xmlns="http://www.w3.org/2000/svg">
<path d="M70.0194 18.1645L65.4379 17.5083C64.7897 17.4209 64.3478 16.823 64.4362 16.1961C64.4804 15.8899 64.6424 15.6128 64.8928 15.4233L68.6052 12.6674C69.1208 12.2738 69.2387 11.5447 68.8409 11.0344L64.5982 5.43527C64.2005 4.92493 63.4639 4.80828 62.9483 5.20197L59.2506 7.95778C58.735 8.35147 57.9984 8.2494 57.6007 7.73907C57.4092 7.49119 57.3208 7.17041 57.3797 6.86421L58.0279 2.32951C58.1163 1.68795 57.6743 1.1047 57.0261 1.00264L50.0286 0.0111289C49.3804 -0.0763572 48.7912 0.361073 48.688 1.00264L48.0251 5.55191C47.9367 6.19348 47.3327 6.63091 46.6993 6.54342C46.3899 6.49968 46.11 6.33929 45.9185 6.09141L43.1342 2.417C42.7365 1.90666 41.9999 1.79001 41.4843 2.1837L37.9487 4.80828C36.3429 4.63331 34.7372 4.63331 33.1314 4.80828C22.6425 5.98935 14.4075 14.2714 13.3911 24.6822C13.3616 25.0176 13.3469 25.3384 13.3321 25.6737H12.9638C12.404 25.6737 11.9179 26.0674 11.8148 26.6069L11.0045 30.4417L7.74884 28.2108C7.27743 27.89 6.64397 27.9484 6.24621 28.342L2.71062 31.8415C2.31287 32.2352 2.25394 32.8622 2.57804 33.3287L4.81724 36.5512L0.942824 37.3531C0.383022 37.4843 0 37.9509 0 38.505V43.1709C0 43.725 0.383022 44.2062 0.942824 44.3082L4.81724 45.1102L2.57804 48.3326C2.25394 48.7992 2.31287 49.4262 2.71062 49.8199L6.24621 53.3193C6.64397 53.713 7.27743 53.7713 7.74884 53.4505L11.0045 51.2342L11.8148 55.069C11.9326 55.6085 12.404 56.0022 12.9638 56.0022H17.678C18.2378 56.0022 18.7239 55.6231 18.827 55.069L19.6373 51.2342L22.893 53.4505C23.3644 53.7713 23.9978 53.713 24.3956 53.3193L26.2223 51.4967V54.8357C26.2223 56.498 27.1209 58.029 28.5794 58.8601V65.3341C28.5794 67.9149 30.686 70 33.2935 70H38.0076C40.6151 70 42.7217 67.9149 42.7217 65.3341V58.8601C44.1802 58.029 45.0788 56.498 45.0788 54.8357V50.2136C45.1083 48.2743 46.1395 46.4808 47.8041 45.4456C48.7764 44.8186 49.7045 44.1187 50.5737 43.3459L48.9974 41.6108C48.2166 42.2961 47.3917 42.9231 46.5078 43.4917C44.1654 44.9498 42.7365 47.4723 42.707 50.2136V54.8357C42.707 56.1189 41.6463 57.1687 40.3499 57.1687H30.9217C29.6253 57.1687 28.5646 56.1189 28.5646 54.8357V50.1261C28.5352 47.4432 27.1209 44.9644 24.8228 43.5355C15.4829 37.7322 12.6692 25.5279 18.5324 16.2835C22.1711 10.5532 28.5352 7.05376 35.3707 7.0246C35.3559 7.06834 35.3412 7.11208 35.3265 7.15583C35.2823 7.46203 35.3706 7.76823 35.5474 8.01611L38.3317 11.6759C38.6263 12.055 38.6558 12.5654 38.4054 12.9737C38.1697 13.3819 37.6982 13.6006 37.2268 13.5277L32.6453 12.8862C31.9971 12.7987 31.4078 13.2361 31.3047 13.8777L30.303 20.8037C30.2146 21.4452 30.6565 22.0285 31.3047 22.1305L35.8863 22.7721C36.5345 22.8596 36.9764 23.4574 36.888 24.0844C36.8438 24.3906 36.6818 24.6676 36.4313 24.8572L32.7337 27.613C32.2181 28.0067 32.1002 28.7357 32.498 29.2461L36.7407 34.8452C37.1384 35.3555 37.875 35.4722 38.3906 35.0785L42.103 32.3227C42.6186 31.9436 43.3699 32.0456 43.7529 32.556C43.9445 32.8038 44.0181 33.11 43.9739 33.4162L43.3257 37.9509C43.2373 38.5925 43.6793 39.1757 44.3275 39.2778L51.325 40.2693C51.3839 40.2693 51.4429 40.2839 51.4871 40.2839C52.0763 40.2839 52.5772 39.861 52.6509 39.2778L53.299 34.7431C53.3874 34.1015 53.9914 33.6641 54.6249 33.7516C54.9343 33.7953 55.2142 33.9557 55.4057 34.2036L58.1899 37.8634C58.5877 38.3738 59.3243 38.4904 59.8399 38.0967L65.4968 33.8974C66.0124 33.5037 66.1303 32.7747 65.7325 32.2643L62.9483 28.6045C62.6536 28.2254 62.6242 27.7151 62.8746 27.3068C63.1103 26.8985 63.5817 26.6652 64.0531 26.7527L68.6347 27.3943C69.2829 27.4818 69.8721 27.0443 69.9753 26.4028L70.977 19.4768C71.1096 18.8498 70.6529 18.2666 70.0194 18.1645ZM30.9512 59.5017H40.3794V61.8346H30.9512V59.5017ZM30.9512 64.1676H40.3794V65.3341C40.3794 66.6172 39.3187 67.667 38.0223 67.667H33.3082C32.0118 67.667 30.9512 66.6172 30.9512 65.3341V64.1676ZM21.5671 44.0458C22.2153 44.5707 22.8782 45.0519 23.5853 45.5039C24.7049 46.2038 25.5299 47.2536 25.9571 48.493L23.4233 50.9864L20.9778 49.3095C19.9024 48.5805 18.444 48.8429 17.6927 49.9074C17.5159 50.1552 17.3981 50.4469 17.3244 50.7531L16.7057 53.6693H13.9067L13.2879 50.7676C13.0228 49.5137 11.7706 48.6971 10.4889 48.9596C10.1796 49.0179 9.89966 49.1491 9.63449 49.3241L7.18904 50.9864L5.03822 48.8721L6.71762 46.4517C7.45421 45.3872 7.18904 43.9437 6.11363 43.2001C5.86319 43.0251 5.56856 42.8939 5.25919 42.8356L2.35706 42.2232V39.4528L5.28866 38.8404C6.55558 38.5779 7.38055 37.3385 7.10065 36.07C7.04172 35.7638 6.90914 35.4867 6.73236 35.2389L5.03822 32.8038L7.18904 30.6896L9.63449 32.3664C10.7099 33.0954 12.1683 32.833 12.9196 31.7686C13.0964 31.5207 13.2143 31.2291 13.2879 30.9229L13.4942 29.946C13.6857 31.2874 13.9951 32.6143 14.4223 33.8974C10.5478 34.3494 7.7783 37.8343 8.23498 41.6691C8.69166 45.5039 12.2125 48.2451 16.0869 47.7931C18.4587 47.5307 20.4917 46.1163 21.5671 44.0458ZM19.7404 42.4127C18.8565 44.8332 16.1606 46.0871 13.7151 45.2123C11.2697 44.3374 10.0028 41.6691 10.8867 39.2486C11.5496 37.3969 13.3321 36.172 15.3209 36.172C15.3356 36.172 15.3504 36.172 15.3651 36.172C16.4552 38.4904 17.9284 40.5901 19.7404 42.4127ZM67.8392 24.9301L64.4214 24.4489C62.4916 24.1719 60.6943 25.4987 60.4144 27.4234C60.2818 28.342 60.5175 29.2752 61.0921 30.0189L63.1692 32.7455L59.3979 35.5451L57.3208 32.8184C56.1423 31.2728 53.9325 30.952 52.371 32.1185C51.6196 32.6726 51.1188 33.5037 50.9862 34.4223L50.5148 37.8051L45.8448 37.149L46.331 33.7662C46.6109 31.8561 45.2703 30.0772 43.3257 29.8001C42.3976 29.6689 41.4548 29.9022 40.7035 30.4709L37.9487 32.5268L35.1202 28.7941L37.875 26.7381C39.4366 25.5716 39.7607 23.3845 38.5821 21.8389C38.0223 21.0953 37.1826 20.5995 36.2545 20.4683L32.8515 19.9871L33.5145 15.3649L36.9322 15.8461C38.862 16.1231 40.6593 14.7963 40.9392 12.8716C41.0718 11.953 40.8361 11.0198 40.2615 10.2762L38.1844 7.53493L41.9557 4.73538L44.0328 7.46203C45.2114 9.00761 47.4211 9.3284 48.9827 8.16192C49.734 7.60784 50.2349 6.77672 50.3675 5.85812L50.8536 2.47532L55.5235 3.13147L55.0374 6.51426C54.7575 8.42437 56.0981 10.2033 58.0426 10.4803C58.9707 10.6115 59.9135 10.3782 60.6649 9.80957L63.4197 7.75365L66.2482 11.4864L63.4786 13.5715C61.917 14.738 61.593 16.9251 62.7715 18.4707C63.3313 19.2143 64.171 19.7101 65.0991 19.8413L68.5168 20.3225L67.8392 24.9301ZM50.6768 10.8157C45.4765 10.8157 41.2486 15.0004 41.2486 20.1475C41.2486 25.2946 45.4765 29.4794 50.6768 29.4794C55.8771 29.4794 60.1051 25.2946 60.1051 20.1475C60.1051 15.0004 55.8771 10.8302 50.6768 10.8157ZM50.6768 27.1464C46.7729 27.1464 43.6056 24.0115 43.6056 20.1475C43.6056 16.2835 46.7729 13.1486 50.6768 13.1486C54.5807 13.1486 57.748 16.2835 57.748 20.1475C57.748 24.0115 54.5807 27.1464 50.6768 27.1464ZM34.4868 51.3363H36.8438V54.8357H34.4868V51.3363ZM30.5092 39.8756C23.2318 37.0615 19.6373 28.9399 22.4805 21.7368C23.5853 18.9519 25.5594 16.5752 28.1227 14.9858L26.8558 13.0174C19.1511 17.8291 16.8383 27.9046 21.685 35.5451C23.5706 38.505 26.3549 40.7796 29.64 42.0482C32.5569 43.1563 34.472 45.9122 34.472 49.0033H36.8291C36.8438 44.9644 34.3247 41.3337 30.5092 39.8756Z" fill="url(#paint0_linear)"/>
<defs>
<linearGradient id="paint0_linear" x1="-5.68" y1="70" x2="79.1089" y2="63.6747" gradientUnits="userSpaceOnUse">
<stop stop-color="#4E89E2"/>
<stop offset="1" stop-color="#FCD60D"/>
</linearGradient>
</defs>
</svg>
