<svg width="190" height="249" viewBox="0 0 190 249" fill="none" xmlns="http://www.w3.org/2000/svg">
<path d="M73.3672 15H66.832V5.19727H69.5186V13.1543H73.3672V15ZM74.5566 15V5.19727H78.1523C78.7402 5.19727 79.262 5.2474 79.7178 5.34766C80.1781 5.44792 80.5973 5.61654 80.9756 5.85352C81.3538 6.08594 81.6455 6.41634 81.8506 6.84473C82.0557 7.26855 82.1582 7.78353 82.1582 8.38965C82.1582 10.4997 80.791 11.5547 78.0566 11.5547H77.2432V15H74.5566ZM77.2295 7.00879V9.87305H78.043C78.5534 9.87305 78.9225 9.75228 79.1504 9.51074C79.3828 9.26921 79.499 8.90007 79.499 8.40332C79.499 7.88835 79.3828 7.52832 79.1504 7.32324C78.918 7.11361 78.5488 7.00879 78.043 7.00879H77.2295ZM83.2246 15V5.19727H86.8887C87.2806 5.19727 87.6383 5.21777 87.9619 5.25879C88.2855 5.29525 88.6113 5.37044 88.9395 5.48438C89.2721 5.59375 89.5501 5.73958 89.7734 5.92188C89.9967 6.10417 90.179 6.35254 90.3203 6.66699C90.4616 6.98145 90.5322 7.34603 90.5322 7.76074C90.5322 8.86361 89.9443 9.54948 88.7686 9.81836V9.87305C90.1859 10.1465 90.8945 10.9076 90.8945 12.1562C90.8945 12.5938 90.8148 12.9811 90.6553 13.3184C90.5003 13.6556 90.2975 13.929 90.0469 14.1387C89.7962 14.3438 89.4954 14.5146 89.1445 14.6514C88.7936 14.7835 88.4404 14.8747 88.085 14.9248C87.734 14.9749 87.3604 15 86.9639 15H83.2246ZM85.8564 13.2637H86.8477C87.7454 13.2637 88.1943 12.8444 88.1943 12.0059C88.1943 11.1719 87.7454 10.7549 86.8477 10.7549H85.8564V13.2637ZM85.8564 9.12109H86.7656C87.1667 9.12109 87.4674 9.03678 87.668 8.86816C87.8685 8.69954 87.9688 8.41927 87.9688 8.02734C87.9688 7.30729 87.5723 6.94727 86.7793 6.94727H85.8564V9.12109ZM94.6406 15V5.19727H98.3047C98.6966 5.19727 99.0544 5.21777 99.3779 5.25879C99.7015 5.29525 100.027 5.37044 100.355 5.48438C100.688 5.59375 100.966 5.73958 101.189 5.92188C101.413 6.10417 101.595 6.35254 101.736 6.66699C101.878 6.98145 101.948 7.34603 101.948 7.76074C101.948 8.86361 101.36 9.54948 100.185 9.81836V9.87305C101.602 10.1465 102.311 10.9076 102.311 12.1562C102.311 12.5938 102.231 12.9811 102.071 13.3184C101.916 13.6556 101.714 13.929 101.463 14.1387C101.212 14.3438 100.911 14.5146 100.561 14.6514C100.21 14.7835 99.8564 14.8747 99.501 14.9248C99.1501 14.9749 98.7764 15 98.3799 15H94.6406ZM97.2725 13.2637H98.2637C99.1615 13.2637 99.6104 12.8444 99.6104 12.0059C99.6104 11.1719 99.1615 10.7549 98.2637 10.7549H97.2725V13.2637ZM97.2725 9.12109H98.1816C98.5827 9.12109 98.8835 9.03678 99.084 8.86816C99.2845 8.69954 99.3848 8.41927 99.3848 8.02734C99.3848 7.30729 98.9883 6.94727 98.1953 6.94727H97.2725V9.12109ZM109.782 15H108.415C108.137 15 107.918 14.9499 107.759 14.8496C107.599 14.7448 107.481 14.5625 107.403 14.3027C106.92 14.8314 106.216 15.0957 105.291 15.0957C104.589 15.0957 104.024 14.8997 103.596 14.5078C103.167 14.1159 102.953 13.5804 102.953 12.9014C102.953 12.4821 103.033 12.1198 103.192 11.8145C103.356 11.5046 103.577 11.2653 103.855 11.0967C104.138 10.9281 104.443 10.805 104.771 10.7275C105.104 10.6455 105.464 10.6045 105.852 10.6045C106.312 10.6045 106.784 10.6501 107.267 10.7412V10.2422C107.267 9.87305 107.157 9.62467 106.938 9.49707C106.72 9.36491 106.412 9.29883 106.016 9.29883C105.337 9.29883 104.753 9.46289 104.266 9.79102H103.514V8.0957C104.407 7.70378 105.405 7.50781 106.508 7.50781C106.904 7.50781 107.26 7.5306 107.574 7.57617C107.889 7.62174 108.187 7.70378 108.47 7.82227C108.752 7.9362 108.987 8.08887 109.174 8.28027C109.361 8.46712 109.509 8.71094 109.618 9.01172C109.728 9.30794 109.782 9.65658 109.782 10.0576V15ZM106.282 13.626C106.638 13.626 106.966 13.4915 107.267 13.2227V11.917C106.957 11.8714 106.681 11.8486 106.439 11.8486C105.71 11.8486 105.346 12.1426 105.346 12.7305C105.346 13.0221 105.428 13.2454 105.592 13.4004C105.756 13.5508 105.986 13.626 106.282 13.626ZM111.095 7.62402H112.845C113.05 7.62402 113.207 7.67871 113.316 7.78809C113.43 7.92936 113.512 8.17318 113.562 8.51953C114.369 7.84505 115.256 7.50781 116.222 7.50781C117.557 7.50781 118.225 8.2028 118.225 9.59277V15H115.702V10.2559C115.702 10.0371 115.668 9.86393 115.6 9.73633C115.536 9.60872 115.41 9.52214 115.224 9.47656C115.101 9.45378 114.971 9.44238 114.834 9.44238C114.479 9.44238 114.073 9.52214 113.617 9.68164V15H111.095V7.62402ZM122.053 6.5166V10.3652L124.35 7.62402H126.448V8.22559L124.418 10.5361L126.729 14.3984V15H124.363L122.654 12.1289L122.053 12.7852V15H119.53V5.19727H121.13C121.426 5.19727 121.638 5.23828 121.766 5.32031C121.893 5.40234 121.978 5.57552 122.019 5.83984C122.041 6.03125 122.053 6.25684 122.053 6.5166Z" fill="#313131"/>
<path d="M61.1973 242.123C60.1673 242.123 59.2878 241.913 58.5586 241.494C57.8294 241.075 57.2826 240.496 56.918 239.758C56.5579 239.015 56.3779 238.147 56.3779 237.153C56.3779 235.576 56.8314 234.337 57.7383 233.435C58.6497 232.528 59.8779 232.074 61.4229 232.074C62.5485 232.074 63.5283 232.307 64.3623 232.771V234.638H63.3232C62.8584 234.209 62.2477 233.995 61.4912 233.995C61.1357 233.995 60.819 234.052 60.541 234.166C60.2676 234.275 60.042 234.426 59.8643 234.617C59.6911 234.804 59.5475 235.032 59.4336 235.301C59.3197 235.565 59.2399 235.841 59.1943 236.128C59.1488 236.415 59.126 236.725 59.126 237.058C59.126 237.409 59.1419 237.728 59.1738 238.015C59.2103 238.297 59.2764 238.582 59.3721 238.869C59.4723 239.156 59.6022 239.398 59.7617 239.594C59.9258 239.79 60.1423 239.949 60.4111 240.072C60.6846 240.191 61.0013 240.25 61.3613 240.25C62.2135 240.25 62.9245 239.965 63.4941 239.396H64.4443V241.173C63.5739 241.806 62.4915 242.123 61.1973 242.123ZM69.0996 242.109C67.9375 242.109 66.9919 241.765 66.2627 241.077C65.5335 240.384 65.1689 239.473 65.1689 238.343C65.1689 237.19 65.5381 236.262 66.2764 235.561C67.0192 234.859 67.9603 234.508 69.0996 234.508C70.2572 234.508 71.2005 234.863 71.9297 235.574C72.6589 236.285 73.0234 237.208 73.0234 238.343C73.0234 239.108 72.8503 239.781 72.5039 240.359C72.1576 240.934 71.6882 241.369 71.0957 241.665C70.5078 241.961 69.8424 242.109 69.0996 242.109ZM69.0996 240.462C69.373 240.462 69.6055 240.398 69.7969 240.271C69.9883 240.143 70.1296 239.97 70.2207 239.751C70.3118 239.532 70.3757 239.313 70.4121 239.095C70.4531 238.871 70.4736 238.632 70.4736 238.377C70.4736 238.176 70.4622 237.985 70.4395 237.803C70.4167 237.616 70.3734 237.424 70.3096 237.229C70.2503 237.028 70.1706 236.857 70.0703 236.716C69.9746 236.575 69.8424 236.458 69.6738 236.367C69.5098 236.276 69.3184 236.23 69.0996 236.23C68.8809 236.23 68.6872 236.278 68.5186 236.374C68.3499 236.465 68.2155 236.584 68.1152 236.729C68.0195 236.871 67.9398 237.039 67.876 237.235C67.8167 237.431 67.7757 237.62 67.7529 237.803C67.7301 237.985 67.7188 238.176 67.7188 238.377C67.7188 238.637 67.7393 238.881 67.7803 239.108C67.8213 239.332 67.8896 239.55 67.9854 239.765C68.0811 239.979 68.2223 240.15 68.4092 240.277C68.6006 240.4 68.8307 240.462 69.0996 240.462ZM73.9805 234.624H75.7305C75.9355 234.624 76.0928 234.679 76.2021 234.788C76.3206 234.925 76.4027 235.173 76.4482 235.533C76.7992 235.21 77.1934 234.959 77.6309 234.781C78.0729 234.599 78.5264 234.508 78.9912 234.508C79.93 234.508 80.5339 234.859 80.8027 235.561C81.5866 234.859 82.4684 234.508 83.4482 234.508C84.7516 234.508 85.4033 235.203 85.4033 236.593V242H82.8877V237.256C82.8877 236.955 82.8239 236.745 82.6963 236.627C82.5732 236.504 82.3613 236.442 82.0605 236.442C81.7051 236.442 81.3359 236.518 80.9531 236.668V242H78.4375V237.256C78.4375 236.955 78.3737 236.745 78.2461 236.627C78.123 236.504 77.9111 236.442 77.6104 236.442C77.3415 236.442 76.9723 236.513 76.5029 236.654V242H73.9805V234.624ZM86.709 234.624H88.459C88.6641 234.624 88.8213 234.679 88.9307 234.788C89.0492 234.925 89.1312 235.173 89.1768 235.533C89.5277 235.21 89.9219 234.959 90.3594 234.781C90.8014 234.599 91.2549 234.508 91.7197 234.508C92.6585 234.508 93.2624 234.859 93.5312 235.561C94.3151 234.859 95.1969 234.508 96.1768 234.508C97.4801 234.508 98.1318 235.203 98.1318 236.593V242H95.6162V237.256C95.6162 236.955 95.5524 236.745 95.4248 236.627C95.3018 236.504 95.0898 236.442 94.7891 236.442C94.4336 236.442 94.0645 236.518 93.6816 236.668V242H91.166V237.256C91.166 236.955 91.1022 236.745 90.9746 236.627C90.8516 236.504 90.6396 236.442 90.3389 236.442C90.07 236.442 89.7008 236.513 89.2314 236.654V242H86.709V234.624ZM106.26 238.862H101.598C101.661 239.441 101.826 239.849 102.09 240.086C102.359 240.318 102.773 240.435 103.334 240.435C104.072 240.435 104.697 240.252 105.207 239.888H105.993V241.385C105.141 241.868 104.122 242.109 102.938 242.109C101.702 242.109 100.745 241.784 100.066 241.132C99.3874 240.48 99.0479 239.557 99.0479 238.363C99.0479 237.197 99.3896 236.262 100.073 235.561C100.761 234.859 101.675 234.508 102.814 234.508C105.13 234.508 106.287 235.745 106.287 238.22C106.287 238.329 106.283 238.461 106.273 238.616L106.26 238.862ZM103.354 236.169C103.209 236.091 103.029 236.053 102.814 236.053C102.6 236.053 102.416 236.096 102.261 236.183C102.11 236.265 101.992 236.383 101.905 236.538C101.819 236.688 101.753 236.843 101.707 237.003C101.666 237.162 101.634 237.345 101.611 237.55H103.908C103.895 237.326 103.872 237.137 103.84 236.982C103.812 236.823 103.76 236.668 103.683 236.518C103.61 236.363 103.5 236.246 103.354 236.169ZM112.187 236.641H111.852C110.999 236.641 110.304 236.757 109.767 236.989V242H107.244V234.624H108.994C109.09 234.624 109.179 234.635 109.261 234.658C109.511 234.749 109.662 235.073 109.712 235.629C110.268 234.923 110.945 234.569 111.742 234.569C111.797 234.569 111.874 234.574 111.975 234.583C112.025 234.592 112.095 234.606 112.187 234.624V236.641ZM116.527 242.109C115.283 242.109 114.317 241.781 113.629 241.125C112.941 240.464 112.597 239.532 112.597 238.329C112.597 237.723 112.701 237.176 112.911 236.688C113.121 236.201 113.41 235.8 113.779 235.485C114.148 235.166 114.579 234.925 115.071 234.761C115.568 234.592 116.106 234.508 116.685 234.508C117.587 234.508 118.366 234.681 119.022 235.027V236.75H118.113C117.771 236.44 117.332 236.285 116.794 236.285C116.498 236.285 116.24 236.344 116.021 236.463C115.803 236.577 115.632 236.736 115.509 236.941C115.39 237.142 115.301 237.361 115.242 237.598C115.188 237.835 115.16 238.09 115.16 238.363C115.16 238.65 115.188 238.91 115.242 239.143C115.297 239.37 115.383 239.58 115.502 239.771C115.62 239.963 115.785 240.111 115.994 240.216C116.204 240.321 116.452 240.373 116.739 240.373C117.341 240.373 117.831 240.202 118.209 239.86H119.05V241.439C118.362 241.886 117.521 242.109 116.527 242.109ZM126.877 238.862H122.215C122.279 239.441 122.443 239.849 122.707 240.086C122.976 240.318 123.391 240.435 123.951 240.435C124.689 240.435 125.314 240.252 125.824 239.888H126.61V241.385C125.758 241.868 124.74 242.109 123.555 242.109C122.32 242.109 121.363 241.784 120.684 241.132C120.005 240.48 119.665 239.557 119.665 238.363C119.665 237.197 120.007 236.262 120.69 235.561C121.379 234.859 122.292 234.508 123.432 234.508C125.747 234.508 126.904 235.745 126.904 238.22C126.904 238.329 126.9 238.461 126.891 238.616L126.877 238.862ZM123.972 236.169C123.826 236.091 123.646 236.053 123.432 236.053C123.217 236.053 123.033 236.096 122.878 236.183C122.728 236.265 122.609 236.383 122.522 236.538C122.436 236.688 122.37 236.843 122.324 237.003C122.283 237.162 122.251 237.345 122.229 237.55H124.525C124.512 237.326 124.489 237.137 124.457 236.982C124.43 236.823 124.377 236.668 124.3 236.518C124.227 236.363 124.118 236.246 123.972 236.169ZM134.684 238.862H130.021C130.085 239.441 130.249 239.849 130.514 240.086C130.783 240.318 131.197 240.435 131.758 240.435C132.496 240.435 133.12 240.252 133.631 239.888H134.417V241.385C133.565 241.868 132.546 242.109 131.361 242.109C130.126 242.109 129.169 241.784 128.49 241.132C127.811 240.48 127.472 239.557 127.472 238.363C127.472 237.197 127.813 236.262 128.497 235.561C129.185 234.859 130.099 234.508 131.238 234.508C133.553 234.508 134.711 235.745 134.711 238.22C134.711 238.329 134.706 238.461 134.697 238.616L134.684 238.862ZM131.778 236.169C131.632 236.091 131.452 236.053 131.238 236.053C131.024 236.053 130.84 236.096 130.685 236.183C130.534 236.265 130.416 236.383 130.329 236.538C130.243 236.688 130.176 236.843 130.131 237.003C130.09 237.162 130.058 237.345 130.035 237.55H132.332C132.318 237.326 132.296 237.137 132.264 236.982C132.236 236.823 132.184 236.668 132.106 236.518C132.034 236.363 131.924 236.246 131.778 236.169Z" fill="#313131"/>
<path d="M80 113.405V130.595L94.5 142L109 130.595V113.405L94.5 124.811V102L80 113.405Z" fill="#FCD50D"/>
<rect x="15.5" y="29.5" width="158" height="184" rx="14.5" stroke="#313131"/>
<circle cx="95.5" cy="29.5" r="6" fill="white" stroke="#313131"/>
<circle cx="95.5" cy="213.5" r="6" fill="white" stroke="#313131"/>
<rect x="158" y="67" width="32" height="106" fill="white"/>
<rect x="32" y="168" width="32" height="97" transform="rotate(-180 32 168)" fill="white"/>
<path d="M180.108 155.906L179.917 155.715C179.78 155.578 179.589 155.578 179.452 155.715L174.585 160.582L174.585 150.328C174.585 150.137 174.421 150 174.257 150L173.983 150C173.792 150 173.655 150.137 173.655 150.328L173.655 160.582L168.761 155.715C168.624 155.578 168.433 155.578 168.296 155.715L168.104 155.906C167.968 156.043 167.968 156.234 168.104 156.371L173.874 162.141C174.011 162.277 174.202 162.277 174.339 162.141L180.108 156.371C180.245 156.234 180.245 156.043 180.108 155.906Z" fill="#313131"/>
<path d="M9.8916 88.0938L10.083 88.2852C10.2197 88.4219 10.4111 88.4219 10.5479 88.2852L15.415 83.418L15.415 93.6719C15.415 93.8633 15.5791 94 15.7432 94L16.0166 94C16.208 94 16.3447 93.8633 16.3447 93.6719L16.3447 83.418L21.2393 88.2852C21.376 88.4219 21.5674 88.4219 21.7041 88.2852L21.8955 88.0938C22.0322 87.957 22.0322 87.7656 21.8955 87.6289L16.126 81.8594C15.9893 81.7227 15.7979 81.7227 15.6611 81.8594L9.8916 87.6289C9.75488 87.7656 9.75488 87.957 9.8916 88.0938Z" fill="#313131"/>
<path d="M172 79.3076L172.332 79.3076L179.002 81.6221L179.002 82.7793L172.332 85.0791L172 85.0791L172 84.0488L173.958 83.3994L173.958 80.8311L172 80.2012L172 79.3076ZM177.85 82.1006L174.759 81.0898L174.759 83.1309L177.85 82.1201L177.85 82.1006ZM172.732 87.8477C172.732 88.2969 172.898 88.79 173.23 89.3271L177.229 89.3271L177.229 90.3477L172 90.3477L172 89.708C172 89.6038 172.021 89.5273 172.063 89.4785C172.106 89.4297 172.179 89.3955 172.283 89.376C172.368 89.3532 172.47 89.3402 172.591 89.3369C172.151 88.7152 171.932 88.0853 171.932 87.4473C171.932 86.4935 172.397 86.0166 173.328 86.0166L177.229 86.0166L177.229 87.0371L173.558 87.0371C173.261 87.0371 173.05 87.1006 172.923 87.2275C172.796 87.3577 172.732 87.5645 172.732 87.8477ZM176.512 91.2705L177.229 91.2705L177.229 91.9004L178.65 91.9004L178.65 92.9209L177.229 92.9209L177.229 94.0781L176.512 94.0781L176.512 92.9209L173.411 92.9209C173.141 92.9209 172.954 92.9795 172.85 93.0967C172.749 93.2139 172.698 93.4043 172.698 93.668L172.698 94.1416L172.039 94.1416C171.974 93.904 171.941 93.6273 171.941 93.3115C171.941 92.8363 172.052 92.4814 172.273 92.2471C172.495 92.0159 172.833 91.9004 173.289 91.9004L176.512 91.9004L176.512 91.2705ZM178.318 96.0801L176.57 96.0801C176.798 96.3633 176.977 96.6807 177.107 97.0322C177.241 97.3838 177.308 97.7337 177.308 98.082C177.308 98.5508 177.184 98.8909 176.937 99.1025C176.692 99.3141 176.338 99.4199 175.872 99.4199L172 99.4199L172 98.3994L175.628 98.3994C175.927 98.3994 176.141 98.3376 176.268 98.2139C176.395 98.0934 176.458 97.8916 176.458 97.6084C176.458 97.1755 176.285 96.666 175.94 96.0801L172 96.0801L172 95.0596L179.002 95.0596L179.002 95.6211C179.002 95.7708 178.981 95.8766 178.938 95.9385C178.899 96.0003 178.812 96.0426 178.675 96.0654C178.58 96.0752 178.462 96.0801 178.318 96.0801ZM171.941 102.896C171.941 102.512 172.01 102.161 172.146 101.842C172.286 101.526 172.475 101.262 172.713 101.051C172.954 100.842 173.235 100.681 173.558 100.567C173.88 100.453 174.227 100.396 174.598 100.396C175.109 100.396 175.568 100.496 175.975 100.694C176.385 100.893 176.709 101.183 176.946 101.563C177.187 101.948 177.308 102.392 177.308 102.896C177.308 103.284 177.236 103.637 177.093 103.956C176.95 104.275 176.754 104.539 176.507 104.747C176.259 104.955 175.971 105.115 175.643 105.226C175.317 105.34 174.969 105.396 174.598 105.396C173.823 105.396 173.187 105.169 172.688 104.713C172.19 104.257 171.941 103.652 171.941 102.896ZM172.708 102.896C172.708 103.115 172.744 103.308 172.815 103.478C172.887 103.65 172.981 103.79 173.099 103.897C173.219 104.005 173.362 104.093 173.528 104.161C173.694 104.233 173.864 104.283 174.036 104.312C174.212 104.342 174.399 104.356 174.598 104.356C174.799 104.356 174.99 104.34 175.169 104.308C175.351 104.278 175.527 104.228 175.696 104.156C175.866 104.085 176.012 103.993 176.136 103.883C176.259 103.775 176.357 103.637 176.429 103.468C176.504 103.299 176.541 103.108 176.541 102.896C176.541 102.633 176.484 102.402 176.37 102.203C176.259 102.008 176.106 101.856 175.911 101.749C175.719 101.642 175.514 101.562 175.296 101.51C175.078 101.461 174.845 101.437 174.598 101.437C174.396 101.437 174.205 101.451 174.026 101.48C173.847 101.513 173.675 101.565 173.509 101.637C173.346 101.712 173.206 101.803 173.089 101.91C172.972 102.021 172.879 102.159 172.811 102.325C172.742 102.494 172.708 102.685 172.708 102.896ZM175.818 107.428L172 107.428L172 106.407L177.229 106.407L177.229 107.047C177.229 107.105 177.221 107.159 177.205 107.208C177.186 107.25 177.151 107.289 177.103 107.325C176.998 107.384 176.801 107.418 176.512 107.428C176.743 107.626 176.928 107.854 177.068 108.111C177.208 108.372 177.278 108.644 177.278 108.927C177.278 108.972 177.275 109.028 177.269 109.093C177.259 109.135 177.249 109.174 177.239 109.21L176.399 109.21C176.399 109.164 176.401 109.13 176.404 109.107C176.404 109.075 176.406 109.05 176.409 109.034C176.409 108.409 176.212 107.874 175.818 107.428ZM172 111.187L172 110.167L177.229 110.167L177.229 110.738C177.229 110.8 177.228 110.849 177.225 110.885C177.221 110.921 177.208 110.961 177.186 111.007C177.163 111.052 177.13 111.088 177.088 111.114C177.036 111.144 176.958 111.163 176.854 111.173C176.749 111.183 176.614 111.187 176.448 111.187L172 111.187ZM177.859 110.919C177.827 110.851 177.811 110.774 177.811 110.689C177.811 110.605 177.827 110.528 177.859 110.46C177.905 110.349 177.977 110.26 178.074 110.191C178.172 110.123 178.278 110.089 178.392 110.089C178.554 110.089 178.694 110.147 178.812 110.265C178.932 110.385 178.992 110.527 178.992 110.689C178.992 110.852 178.932 110.992 178.812 111.109C178.694 111.23 178.554 111.29 178.392 111.29C178.278 111.29 178.172 111.256 178.074 111.187C177.977 111.119 177.905 111.03 177.859 110.919ZM172 112.262L172.752 112.262L176.482 115.182L176.482 112.442L177.229 112.442L177.229 116.319L176.482 116.319L172.762 113.39L172.762 116.251L172 116.251L172 112.262ZM172 121.168L172 120.768C172 120.624 172.02 120.509 172.059 120.421C172.098 120.333 172.176 120.27 172.293 120.23C172.358 120.204 172.454 120.183 172.581 120.167C172.353 119.955 172.189 119.724 172.088 119.474C171.99 119.223 171.941 118.933 171.941 118.604C171.941 118.103 172.08 117.704 172.356 117.408C172.633 117.115 173.014 116.969 173.499 116.969C173.73 116.969 173.937 117.006 174.119 117.081C174.305 117.159 174.456 117.262 174.573 117.389C174.694 117.516 174.793 117.667 174.871 117.843C174.952 118.022 175.009 118.206 175.042 118.395C175.075 118.583 175.091 118.784 175.091 118.995C175.091 119.369 175.044 119.75 174.949 120.138L175.638 120.138C175.96 120.138 176.189 120.047 176.326 119.864C176.463 119.682 176.531 119.423 176.531 119.088C176.531 118.521 176.388 118.045 176.102 117.657L176.102 117.335L176.858 117.335C177.158 117.931 177.308 118.557 177.308 119.215C177.308 119.514 177.28 119.778 177.225 120.006C177.173 120.234 177.086 120.437 176.966 120.616C176.849 120.795 176.684 120.932 176.473 121.026C176.261 121.121 176.007 121.168 175.711 121.168L172 121.168ZM172.64 118.937C172.64 119.386 172.84 119.786 173.24 120.138L174.349 120.138C174.417 119.841 174.451 119.518 174.451 119.166C174.451 119.003 174.437 118.854 174.407 118.717C174.378 118.583 174.331 118.458 174.266 118.341C174.201 118.224 174.108 118.131 173.987 118.062C173.867 117.997 173.724 117.965 173.558 117.965C173.252 117.965 173.022 118.051 172.869 118.224C172.716 118.399 172.64 118.637 172.64 118.937ZM176.512 122.003L177.229 122.003L177.229 122.633L178.65 122.633L178.65 123.653L177.229 123.653L177.229 124.811L176.512 124.811L176.512 123.653L173.411 123.653C173.141 123.653 172.954 123.712 172.85 123.829C172.749 123.946 172.698 124.137 172.698 124.4L172.698 124.874L172.039 124.874C171.974 124.636 171.941 124.36 171.941 124.044C171.941 123.569 172.052 123.214 172.273 122.979C172.495 122.748 172.833 122.633 173.289 122.633L176.512 122.633L176.512 122.003ZM172 126.822L172 125.802L177.229 125.802L177.229 126.373C177.229 126.435 177.228 126.484 177.225 126.52C177.221 126.555 177.208 126.596 177.186 126.642C177.163 126.687 177.13 126.723 177.088 126.749C177.036 126.778 176.958 126.798 176.854 126.808C176.749 126.817 176.614 126.822 176.448 126.822L172 126.822ZM177.859 126.554C177.827 126.485 177.811 126.409 177.811 126.324C177.811 126.24 177.827 126.163 177.859 126.095C177.905 125.984 177.977 125.895 178.074 125.826C178.172 125.758 178.278 125.724 178.392 125.724C178.554 125.724 178.694 125.782 178.812 125.899C178.932 126.02 178.992 126.161 178.992 126.324C178.992 126.487 178.932 126.627 178.812 126.744C178.694 126.865 178.554 126.925 178.392 126.925C178.278 126.925 178.172 126.891 178.074 126.822C177.977 126.754 177.905 126.664 177.859 126.554ZM171.941 130.367C171.941 129.983 172.01 129.632 172.146 129.312C172.286 128.997 172.475 128.733 172.713 128.521C172.954 128.313 173.235 128.152 173.558 128.038C173.88 127.924 174.227 127.867 174.598 127.867C175.109 127.867 175.568 127.966 175.975 128.165C176.385 128.364 176.709 128.653 176.946 129.034C177.187 129.418 177.308 129.863 177.308 130.367C177.308 130.755 177.236 131.108 177.093 131.427C176.95 131.746 176.754 132.009 176.507 132.218C176.259 132.426 175.971 132.586 175.643 132.696C175.317 132.81 174.969 132.867 174.598 132.867C173.823 132.867 173.187 132.639 172.688 132.184C172.19 131.728 171.941 131.122 171.941 130.367ZM172.708 130.367C172.708 130.585 172.744 130.779 172.815 130.948C172.887 131.121 172.981 131.261 173.099 131.368C173.219 131.476 173.362 131.563 173.528 131.632C173.694 131.703 173.864 131.754 174.036 131.783C174.212 131.812 174.399 131.827 174.598 131.827C174.799 131.827 174.99 131.811 175.169 131.778C175.351 131.749 175.527 131.699 175.696 131.627C175.866 131.555 176.012 131.464 176.136 131.354C176.259 131.246 176.357 131.108 176.429 130.938C176.504 130.769 176.541 130.579 176.541 130.367C176.541 130.104 176.484 129.872 176.37 129.674C176.259 129.479 176.106 129.327 175.911 129.22C175.719 129.112 175.514 129.033 175.296 128.98C175.078 128.932 174.845 128.907 174.598 128.907C174.396 128.907 174.205 128.922 174.026 128.951C173.847 128.984 173.675 129.036 173.509 129.107C173.346 129.182 173.206 129.273 173.089 129.381C172.972 129.492 172.879 129.63 172.811 129.796C172.742 129.965 172.708 130.156 172.708 130.367ZM177.229 133.878L177.229 134.518C177.229 134.648 177.189 134.741 177.107 134.796C177.007 134.854 176.827 134.889 176.57 134.898C176.798 135.182 176.977 135.499 177.107 135.851C177.241 136.202 177.308 136.552 177.308 136.9C177.308 137.369 177.184 137.709 176.937 137.921C176.692 138.132 176.338 138.238 175.872 138.238L172 138.238L172 137.218L175.628 137.218C175.927 137.218 176.141 137.156 176.268 137.032C176.395 136.912 176.458 136.71 176.458 136.427C176.458 135.994 176.285 135.484 175.94 134.898L172 134.898L172 133.878L177.229 133.878Z" fill="#313131"/>
<path d="M18.0586 155.578C18.0586 156.411 17.8617 157.123 17.4678 157.712L16.5889 157.712L16.5889 157.331C17.0153 156.905 17.2285 156.332 17.2285 155.612C17.2285 155.41 17.2106 155.228 17.1748 155.065C17.1357 154.899 17.0755 154.748 16.9941 154.611C16.9095 154.471 16.7923 154.364 16.6426 154.289C16.4896 154.211 16.3089 154.172 16.1006 154.172C15.8011 154.172 15.5716 154.257 15.4121 154.426C15.2493 154.592 15.124 154.829 15.0361 155.139C14.9906 155.301 14.932 155.508 14.8604 155.759C14.7887 155.996 14.7171 156.203 14.6455 156.379C14.5706 156.551 14.4795 156.719 14.3721 156.882C14.2614 157.045 14.1393 157.176 14.0059 157.277C13.8691 157.378 13.7064 157.46 13.5176 157.521C13.3255 157.58 13.109 157.609 12.8682 157.609C12.5394 157.609 12.2497 157.551 11.999 157.434C11.7484 157.313 11.5482 157.149 11.3984 156.94C11.2454 156.732 11.1315 156.498 11.0566 156.237C10.9785 155.974 10.9395 155.687 10.9395 155.378C10.9395 154.636 11.0957 154.016 11.4082 153.518L12.2578 153.518L12.2578 153.889C11.9323 154.299 11.7695 154.782 11.7695 155.339C11.7695 156.221 12.1097 156.662 12.79 156.662C13.0472 156.662 13.2523 156.592 13.4053 156.452C13.5583 156.312 13.6755 156.112 13.7568 155.852C13.8219 155.663 13.8789 155.472 13.9277 155.28C13.9668 155.137 13.9993 155.026 14.0254 154.948C14.0482 154.867 14.084 154.758 14.1328 154.621C14.1784 154.481 14.2223 154.369 14.2646 154.284C14.3037 154.196 14.3574 154.095 14.4258 153.981C14.4909 153.868 14.5592 153.773 14.6309 153.698C14.6992 153.623 14.7822 153.55 14.8799 153.479C14.9743 153.404 15.0768 153.343 15.1875 153.298C15.4121 153.213 15.679 153.171 15.9883 153.171C16.3561 153.171 16.6768 153.233 16.9502 153.356C17.2204 153.48 17.4352 153.654 17.5947 153.879C17.7542 154.104 17.8714 154.357 17.9463 154.641C18.0212 154.921 18.0586 155.233 18.0586 155.578ZM15.5781 147.854L15.5781 151.374C16.151 151.345 16.5807 151.208 16.8672 150.964C17.1504 150.716 17.292 150.324 17.292 149.787C17.292 149.214 17.1309 148.731 16.8086 148.337L16.8086 148.005L17.5215 148.005C17.8796 148.526 18.0586 149.169 18.0586 149.934C18.0586 150.744 17.8161 151.363 17.3311 151.789C16.846 152.212 16.2031 152.424 15.4023 152.424C15.0345 152.424 14.6878 152.37 14.3623 152.263C14.0335 152.155 13.7454 152.002 13.498 151.804C13.2507 151.605 13.0553 151.354 12.9121 151.052C12.7656 150.746 12.6924 150.407 12.6924 150.036C12.6924 149.717 12.7347 149.434 12.8193 149.187C12.904 148.936 13.0212 148.728 13.1709 148.562C13.3206 148.396 13.5029 148.259 13.7178 148.151C13.9326 148.041 14.1637 147.963 14.4111 147.917C14.6585 147.868 14.9287 147.844 15.2217 147.844C15.3161 147.844 15.3877 147.845 15.4365 147.849C15.4854 147.852 15.5326 147.854 15.5781 147.854ZM13.3906 150.036C13.3906 150.254 13.4329 150.448 13.5176 150.617C13.599 150.783 13.7129 150.917 13.8594 151.018C14.0059 151.115 14.1654 151.192 14.3379 151.247C14.5104 151.299 14.7008 151.335 14.9092 151.354L14.9092 148.854C14.6846 148.858 14.486 148.879 14.3135 148.918C14.141 148.954 13.9831 149.016 13.8398 149.104C13.6934 149.188 13.5827 149.309 13.5078 149.465C13.4297 149.621 13.3906 149.812 13.3906 150.036ZM13.4883 147.302L12.7705 147.302L12.7705 146.672L11.3496 146.672L11.3496 145.651L12.7705 145.651L12.7705 144.494L13.4883 144.494L13.4883 145.651L16.5889 145.651C16.8591 145.651 17.0462 145.593 17.1504 145.476C17.2513 145.358 17.3018 145.168 17.3018 144.904L17.3018 144.431L17.9609 144.431C18.026 144.668 18.0586 144.945 18.0586 145.261C18.0586 145.736 17.9479 146.091 17.7266 146.325C17.5052 146.556 17.1667 146.672 16.7109 146.672L13.4883 146.672L13.4883 147.302ZM13.4883 143.981L12.7705 143.981L12.7705 143.352L11.3496 143.352L11.3496 142.331L12.7705 142.331L12.7705 141.174L13.4883 141.174L13.4883 142.331L16.5889 142.331C16.8591 142.331 17.0462 142.272 17.1504 142.155C17.2513 142.038 17.3018 141.848 17.3018 141.584L17.3018 141.11L17.9609 141.11C18.026 141.348 18.0586 141.625 18.0586 141.94C18.0586 142.416 17.9479 142.771 17.7266 143.005C17.5052 143.236 17.1667 143.352 16.7109 143.352L13.4883 143.352L13.4883 143.981ZM18 139.152L18 140.183L10.998 140.183L10.998 139.611C10.998 139.462 11.0192 139.354 11.0615 139.289C11.1038 139.221 11.1917 139.18 11.3252 139.167C11.4196 139.157 11.5384 139.152 11.6816 139.152L18 139.152ZM15.5781 133.557L15.5781 137.077C16.151 137.048 16.5807 136.911 16.8672 136.667C17.1504 136.42 17.292 136.027 17.292 135.49C17.292 134.917 17.1309 134.434 16.8086 134.04L16.8086 133.708L17.5215 133.708C17.8796 134.229 18.0586 134.872 18.0586 135.637C18.0586 136.447 17.8161 137.066 17.3311 137.492C16.846 137.915 16.2031 138.127 15.4023 138.127C15.0345 138.127 14.6878 138.073 14.3623 137.966C14.0335 137.858 13.7454 137.705 13.498 137.507C13.2507 137.308 13.0553 137.058 12.9121 136.755C12.7656 136.449 12.6924 136.11 12.6924 135.739C12.6924 135.42 12.7347 135.137 12.8193 134.89C12.904 134.639 13.0212 134.431 13.1709 134.265C13.3206 134.099 13.5029 133.962 13.7178 133.854C13.9326 133.744 14.1637 133.666 14.4111 133.62C14.6585 133.571 14.9287 133.547 15.2217 133.547C15.3161 133.547 15.3877 133.549 15.4365 133.552C15.4854 133.555 15.5326 133.557 15.5781 133.557ZM13.3906 135.739C13.3906 135.957 13.4329 136.151 13.5176 136.32C13.599 136.486 13.7129 136.62 13.8594 136.721C14.0059 136.818 14.1654 136.895 14.3379 136.95C14.5104 137.002 14.7008 137.038 14.9092 137.058L14.9092 134.558C14.6846 134.561 14.486 134.582 14.3135 134.621C14.141 134.657 13.9831 134.719 13.8398 134.807C13.6934 134.891 13.5827 135.012 13.5078 135.168C13.4297 135.324 13.3906 135.515 13.3906 135.739ZM13.4883 130.847L12.7705 130.847L12.7705 130.217L12.3213 130.217C11.8591 130.217 11.5124 130.093 11.2813 129.846C11.0469 129.598 10.9297 129.248 10.9297 128.796C10.9297 128.47 10.9671 128.218 11.042 128.039L11.6816 128.039L11.6816 128.479C11.6816 128.732 11.7337 128.916 11.8379 129.03C11.9421 129.141 12.1162 129.196 12.3604 129.196L12.7705 129.196L12.7705 128.127L13.4883 128.127L13.4883 129.196L18 129.196L18 130.217L13.4883 130.217L13.4883 130.847ZM17.2676 125.373C17.2676 124.924 17.1016 124.431 16.7695 123.894L12.7705 123.894L12.7705 122.873L18 122.873L18 123.513C18 123.617 17.9788 123.693 17.9365 123.742C17.8942 123.791 17.821 123.825 17.7168 123.845C17.6322 123.868 17.5296 123.881 17.4092 123.884C17.8486 124.506 18.0684 125.135 18.0684 125.773C18.0684 126.727 17.6029 127.204 16.6719 127.204L12.7705 127.204L12.7705 126.184L16.4424 126.184C16.7386 126.184 16.9502 126.12 17.0772 125.993C17.2041 125.863 17.2676 125.656 17.2676 125.373ZM12.7705 121.481L12.7705 120.842C12.7705 120.712 12.8112 120.619 12.8926 120.563C12.9935 120.505 13.1725 120.471 13.4297 120.461C13.2018 120.178 13.0228 119.86 12.8926 119.509C12.7591 119.157 12.6924 118.807 12.6924 118.459C12.6924 117.99 12.8161 117.65 13.0635 117.438C13.3076 117.227 13.6624 117.121 14.1279 117.121L18 117.121L18 118.142L14.3721 118.142C14.0726 118.142 13.8594 118.203 13.7324 118.327C13.6055 118.448 13.542 118.649 13.542 118.933C13.542 119.366 13.7145 119.875 14.0596 120.461L18 120.461L18 121.481L12.7705 121.481ZM18 111.447L18 112.116C18 112.237 17.9544 112.318 17.8633 112.36C17.7689 112.416 17.5785 112.448 17.292 112.458C17.5361 112.66 17.7249 112.904 17.8584 113.19C17.9919 113.477 18.0586 113.78 18.0586 114.099C18.0586 114.564 17.9333 114.953 17.6826 115.266C17.4287 115.578 17.0788 115.808 16.6328 115.954C16.3073 116.062 15.9167 116.115 15.4609 116.115C14.5169 116.115 13.7992 115.886 13.3076 115.427C12.8975 115.056 12.6924 114.566 12.6924 113.957C12.6924 113.322 12.8714 112.826 13.2295 112.468L10.9981 112.468L10.9981 111.906C10.9981 111.757 11.0192 111.649 11.0615 111.584C11.1038 111.516 11.1917 111.475 11.3252 111.462C11.4196 111.452 11.5384 111.447 11.6816 111.447L18 111.447ZM17.3115 113.845C17.3115 113.571 17.2513 113.326 17.1309 113.107C17.0104 112.889 16.8363 112.676 16.6084 112.468L13.9522 112.468C13.7894 112.64 13.6755 112.821 13.6104 113.01C13.542 113.199 13.5078 113.417 13.5078 113.664C13.5078 113.885 13.5453 114.081 13.6201 114.25C13.6917 114.416 13.7878 114.551 13.9082 114.655C14.0254 114.759 14.1686 114.846 14.3379 114.914C14.5072 114.979 14.6781 115.025 14.8506 115.051C15.0231 115.074 15.2103 115.085 15.4121 115.085C16.6784 115.085 17.3115 114.672 17.3115 113.845ZM18.0488 108.674C18.0488 109.357 17.8958 109.927 17.5898 110.383L16.7988 110.383L16.7988 110.056C17.1113 109.72 17.2676 109.276 17.2676 108.723C17.2676 107.997 17.0153 107.634 16.5107 107.634C16.3252 107.634 16.1852 107.681 16.0908 107.775C15.9964 107.867 15.9199 108.008 15.8613 108.2C15.8255 108.317 15.7881 108.495 15.749 108.732C15.71 108.986 15.6595 109.208 15.5977 109.396C15.5326 109.582 15.4447 109.753 15.334 109.909C15.2201 110.065 15.0719 110.184 14.8897 110.266C14.7074 110.344 14.4909 110.383 14.2402 110.383C13.9701 110.383 13.7341 110.332 13.5322 110.231C13.3272 110.127 13.1676 109.986 13.0537 109.807C12.9365 109.624 12.8503 109.426 12.7949 109.211C12.7396 108.993 12.7119 108.757 12.7119 108.503C12.7119 107.884 12.834 107.372 13.0781 106.965L13.8594 106.965L13.8594 107.292C13.612 107.601 13.4883 108.002 13.4883 108.493C13.4883 108.627 13.4981 108.745 13.5176 108.85C13.5339 108.954 13.5648 109.056 13.6104 109.157C13.6527 109.258 13.721 109.336 13.8154 109.392C13.9098 109.447 14.0254 109.475 14.1621 109.475C14.3379 109.475 14.4697 109.423 14.5576 109.318C14.6455 109.214 14.7155 109.068 14.7676 108.879C14.8066 108.736 14.8408 108.563 14.8701 108.361C14.9027 108.143 14.9417 107.954 14.9873 107.795C15.0296 107.635 15.0899 107.482 15.168 107.336C15.2428 107.186 15.334 107.066 15.4414 106.975C15.5488 106.88 15.6856 106.807 15.8516 106.755C16.0143 106.7 16.2031 106.672 16.418 106.672C16.7175 106.672 16.9762 106.726 17.1943 106.833C17.4092 106.94 17.5785 107.09 17.7022 107.282C17.8226 107.471 17.9105 107.681 17.9658 107.912C18.0212 108.14 18.0488 108.394 18.0488 108.674Z" fill="#313131"/>
</svg>
