<svg width="207" height="249" viewBox="0 0 207 249" fill="none" xmlns="http://www.w3.org/2000/svg">
<path d="M95.9756 15.123C94.7223 15.123 93.6536 14.8633 92.7695 14.3438V12.4775H93.7607C94.2848 13.0016 94.9912 13.2637 95.8799 13.2637C96.0622 13.2637 96.2331 13.2523 96.3926 13.2295C96.5521 13.2021 96.7116 13.1566 96.8711 13.0928C97.0352 13.0244 97.165 12.9242 97.2607 12.792C97.3564 12.6553 97.4043 12.4912 97.4043 12.2998C97.4043 12.0947 97.3587 11.9261 97.2676 11.7939C97.1628 11.6618 97.0306 11.5592 96.8711 11.4863C96.7116 11.4089 96.5156 11.3382 96.2832 11.2744C95.9688 11.1969 95.7181 11.1331 95.5312 11.083C95.0664 10.9645 94.6722 10.8301 94.3486 10.6797C94.0296 10.5293 93.7471 10.3379 93.501 10.1055C93.2549 9.87305 93.0726 9.58822 92.9541 9.25098C92.8402 8.91374 92.7832 8.51497 92.7832 8.05469C92.7832 7.6263 92.8516 7.24121 92.9883 6.89941C93.125 6.55762 93.3073 6.27507 93.5352 6.05176C93.763 5.82845 94.0365 5.6416 94.3555 5.49121C94.6745 5.34082 95.0072 5.23372 95.3535 5.16992C95.7044 5.10612 96.0758 5.07422 96.4678 5.07422C97.6481 5.07422 98.6188 5.29297 99.3799 5.73047V7.53516H98.4092C97.8851 7.13411 97.2699 6.93359 96.5635 6.93359C95.611 6.93359 95.1348 7.23665 95.1348 7.84277C95.1348 8.09798 95.2145 8.28939 95.374 8.41699C95.5335 8.54004 95.7568 8.64714 96.0439 8.73828C96.2308 8.79753 96.4655 8.85905 96.748 8.92285C97.0443 8.99121 97.304 9.05957 97.5273 9.12793C97.7552 9.19173 97.9808 9.27148 98.2041 9.36719C98.432 9.45833 98.6279 9.56087 98.792 9.6748C98.9561 9.78418 99.1087 9.91634 99.25 10.0713C99.3958 10.2217 99.512 10.3903 99.5986 10.5771C99.6852 10.764 99.7536 10.9805 99.8037 11.2266C99.8538 11.4681 99.8789 11.737 99.8789 12.0332C99.8789 12.4935 99.806 12.9036 99.6602 13.2637C99.5189 13.6191 99.3275 13.9131 99.0859 14.1455C98.8444 14.3734 98.5527 14.5625 98.2109 14.7129C97.8737 14.8633 97.5205 14.9681 97.1514 15.0273C96.7868 15.0911 96.3949 15.123 95.9756 15.123ZM107.378 15H106.011C105.733 15 105.514 14.9499 105.354 14.8496C105.195 14.7448 105.076 14.5625 104.999 14.3027C104.516 14.8314 103.812 15.0957 102.887 15.0957C102.185 15.0957 101.62 14.8997 101.191 14.5078C100.763 14.1159 100.549 13.5804 100.549 12.9014C100.549 12.4821 100.629 12.1198 100.788 11.8145C100.952 11.5046 101.173 11.2653 101.451 11.0967C101.734 10.9281 102.039 10.805 102.367 10.7275C102.7 10.6455 103.06 10.6045 103.447 10.6045C103.908 10.6045 104.379 10.6501 104.862 10.7412V10.2422C104.862 9.87305 104.753 9.62467 104.534 9.49707C104.315 9.36491 104.008 9.29883 103.611 9.29883C102.932 9.29883 102.349 9.46289 101.861 9.79102H101.109V8.0957C102.003 7.70378 103.001 7.50781 104.104 7.50781C104.5 7.50781 104.855 7.5306 105.17 7.57617C105.484 7.62174 105.783 7.70378 106.065 7.82227C106.348 7.9362 106.583 8.08887 106.77 8.28027C106.956 8.46712 107.104 8.71094 107.214 9.01172C107.323 9.30794 107.378 9.65658 107.378 10.0576V15ZM103.878 13.626C104.233 13.626 104.562 13.4915 104.862 13.2227V11.917C104.552 11.8714 104.277 11.8486 104.035 11.8486C103.306 11.8486 102.941 12.1426 102.941 12.7305C102.941 13.0221 103.023 13.2454 103.188 13.4004C103.352 13.5508 103.582 13.626 103.878 13.626ZM115.13 15H113.763C113.485 15 113.266 14.9499 113.106 14.8496C112.947 14.7448 112.828 14.5625 112.751 14.3027C112.268 14.8314 111.564 15.0957 110.639 15.0957C109.937 15.0957 109.372 14.8997 108.943 14.5078C108.515 14.1159 108.301 13.5804 108.301 12.9014C108.301 12.4821 108.381 12.1198 108.54 11.8145C108.704 11.5046 108.925 11.2653 109.203 11.0967C109.486 10.9281 109.791 10.805 110.119 10.7275C110.452 10.6455 110.812 10.6045 111.199 10.6045C111.66 10.6045 112.131 10.6501 112.614 10.7412V10.2422C112.614 9.87305 112.505 9.62467 112.286 9.49707C112.067 9.36491 111.76 9.29883 111.363 9.29883C110.684 9.29883 110.101 9.46289 109.613 9.79102H108.861V8.0957C109.755 7.70378 110.753 7.50781 111.855 7.50781C112.252 7.50781 112.607 7.5306 112.922 7.57617C113.236 7.62174 113.535 7.70378 113.817 7.82227C114.1 7.9362 114.335 8.08887 114.521 8.28027C114.708 8.46712 114.856 8.71094 114.966 9.01172C115.075 9.30794 115.13 9.65658 115.13 10.0576V15ZM111.63 13.626C111.985 13.626 112.313 13.4915 112.614 13.2227V11.917C112.304 11.8714 112.029 11.8486 111.787 11.8486C111.058 11.8486 110.693 12.1426 110.693 12.7305C110.693 13.0221 110.775 13.2454 110.939 13.4004C111.104 13.5508 111.334 13.626 111.63 13.626ZM119.286 15.123C118.033 15.123 116.964 14.8633 116.08 14.3438V12.4775H117.071C117.595 13.0016 118.302 13.2637 119.19 13.2637C119.373 13.2637 119.544 13.2523 119.703 13.2295C119.863 13.2021 120.022 13.1566 120.182 13.0928C120.346 13.0244 120.476 12.9242 120.571 12.792C120.667 12.6553 120.715 12.4912 120.715 12.2998C120.715 12.0947 120.669 11.9261 120.578 11.7939C120.473 11.6618 120.341 11.5592 120.182 11.4863C120.022 11.4089 119.826 11.3382 119.594 11.2744C119.279 11.1969 119.029 11.1331 118.842 11.083C118.377 10.9645 117.983 10.8301 117.659 10.6797C117.34 10.5293 117.058 10.3379 116.812 10.1055C116.565 9.87305 116.383 9.58822 116.265 9.25098C116.151 8.91374 116.094 8.51497 116.094 8.05469C116.094 7.6263 116.162 7.24121 116.299 6.89941C116.436 6.55762 116.618 6.27507 116.846 6.05176C117.074 5.82845 117.347 5.6416 117.666 5.49121C117.985 5.34082 118.318 5.23372 118.664 5.16992C119.015 5.10612 119.386 5.07422 119.778 5.07422C120.959 5.07422 121.929 5.29297 122.69 5.73047V7.53516H121.72C121.196 7.13411 120.58 6.93359 119.874 6.93359C118.922 6.93359 118.445 7.23665 118.445 7.84277C118.445 8.09798 118.525 8.28939 118.685 8.41699C118.844 8.54004 119.067 8.64714 119.354 8.73828C119.541 8.79753 119.776 8.85905 120.059 8.92285C120.355 8.99121 120.615 9.05957 120.838 9.12793C121.066 9.19173 121.291 9.27148 121.515 9.36719C121.743 9.45833 121.938 9.56087 122.103 9.6748C122.267 9.78418 122.419 9.91634 122.561 10.0713C122.706 10.2217 122.823 10.3903 122.909 10.5771C122.996 10.764 123.064 10.9805 123.114 11.2266C123.164 11.4681 123.189 11.737 123.189 12.0332C123.189 12.4935 123.117 12.9036 122.971 13.2637C122.829 13.6191 122.638 13.9131 122.396 14.1455C122.155 14.3734 121.863 14.5625 121.521 14.7129C121.184 14.8633 120.831 14.9681 120.462 15.0273C120.097 15.0911 119.705 15.123 119.286 15.123Z" fill="#313131"/>
<path d="M7.36719 242H0.832031V232.197H3.51855V240.154H7.36719V242ZM8.55664 242V232.197H12.1523C12.7402 232.197 13.262 232.247 13.7178 232.348C14.1781 232.448 14.5973 232.617 14.9756 232.854C15.3538 233.086 15.6455 233.416 15.8506 233.845C16.0557 234.269 16.1582 234.784 16.1582 235.39C16.1582 237.5 14.791 238.555 12.0566 238.555H11.2432V242H8.55664ZM11.2295 234.009V236.873H12.043C12.5534 236.873 12.9225 236.752 13.1504 236.511C13.3828 236.269 13.499 235.9 13.499 235.403C13.499 234.888 13.3828 234.528 13.1504 234.323C12.918 234.114 12.5488 234.009 12.043 234.009H11.2295ZM17.2246 242V232.197H20.8887C21.2806 232.197 21.6383 232.218 21.9619 232.259C22.2855 232.295 22.6113 232.37 22.9395 232.484C23.2721 232.594 23.5501 232.74 23.7734 232.922C23.9967 233.104 24.179 233.353 24.3203 233.667C24.4616 233.981 24.5322 234.346 24.5322 234.761C24.5322 235.864 23.9443 236.549 22.7686 236.818V236.873C24.1859 237.146 24.8945 237.908 24.8945 239.156C24.8945 239.594 24.8148 239.981 24.6553 240.318C24.5003 240.656 24.2975 240.929 24.0469 241.139C23.7962 241.344 23.4954 241.515 23.1445 241.651C22.7936 241.784 22.4404 241.875 22.085 241.925C21.734 241.975 21.3604 242 20.9639 242H17.2246ZM19.8564 240.264H20.8477C21.7454 240.264 22.1943 239.844 22.1943 239.006C22.1943 238.172 21.7454 237.755 20.8477 237.755H19.8564V240.264ZM19.8564 236.121H20.7656C21.1667 236.121 21.4674 236.037 21.668 235.868C21.8685 235.7 21.9688 235.419 21.9688 235.027C21.9688 234.307 21.5723 233.947 20.7793 233.947H19.8564V236.121ZM28.6406 242V232.197H32.3047C32.6966 232.197 33.0544 232.218 33.3779 232.259C33.7015 232.295 34.0273 232.37 34.3555 232.484C34.6882 232.594 34.9661 232.74 35.1895 232.922C35.4128 233.104 35.5951 233.353 35.7363 233.667C35.8776 233.981 35.9482 234.346 35.9482 234.761C35.9482 235.864 35.3604 236.549 34.1846 236.818V236.873C35.6019 237.146 36.3105 237.908 36.3105 239.156C36.3105 239.594 36.2308 239.981 36.0713 240.318C35.9163 240.656 35.7135 240.929 35.4629 241.139C35.2122 241.344 34.9115 241.515 34.5605 241.651C34.2096 241.784 33.8564 241.875 33.501 241.925C33.1501 241.975 32.7764 242 32.3799 242H28.6406ZM31.2725 240.264H32.2637C33.1615 240.264 33.6104 239.844 33.6104 239.006C33.6104 238.172 33.1615 237.755 32.2637 237.755H31.2725V240.264ZM31.2725 236.121H32.1816C32.5827 236.121 32.8835 236.037 33.084 235.868C33.2845 235.7 33.3848 235.419 33.3848 235.027C33.3848 234.307 32.9883 233.947 32.1953 233.947H31.2725V236.121ZM43.7822 242H42.415C42.137 242 41.9183 241.95 41.7588 241.85C41.5993 241.745 41.4808 241.562 41.4033 241.303C40.9202 241.831 40.2161 242.096 39.291 242.096C38.5892 242.096 38.0241 241.9 37.5957 241.508C37.1673 241.116 36.9531 240.58 36.9531 239.901C36.9531 239.482 37.0329 239.12 37.1924 238.814C37.3564 238.505 37.5775 238.265 37.8555 238.097C38.138 237.928 38.4434 237.805 38.7715 237.728C39.1042 237.646 39.4642 237.604 39.8516 237.604C40.3118 237.604 40.7835 237.65 41.2666 237.741V237.242C41.2666 236.873 41.1572 236.625 40.9385 236.497C40.7197 236.365 40.4121 236.299 40.0156 236.299C39.3366 236.299 38.7533 236.463 38.2656 236.791H37.5137V235.096C38.4069 234.704 39.4049 234.508 40.5078 234.508C40.9043 234.508 41.2598 234.531 41.5742 234.576C41.8887 234.622 42.1872 234.704 42.4697 234.822C42.7523 234.936 42.987 235.089 43.1738 235.28C43.3607 235.467 43.5088 235.711 43.6182 236.012C43.7275 236.308 43.7822 236.657 43.7822 237.058V242ZM40.2822 240.626C40.6377 240.626 40.9658 240.492 41.2666 240.223V238.917C40.9567 238.871 40.681 238.849 40.4395 238.849C39.7103 238.849 39.3457 239.143 39.3457 239.73C39.3457 240.022 39.4277 240.245 39.5918 240.4C39.7559 240.551 39.986 240.626 40.2822 240.626ZM45.0947 234.624H46.8447C47.0498 234.624 47.207 234.679 47.3164 234.788C47.4303 234.929 47.5124 235.173 47.5625 235.52C48.3691 234.845 49.2555 234.508 50.2217 234.508C51.557 234.508 52.2246 235.203 52.2246 236.593V242H49.7021V237.256C49.7021 237.037 49.668 236.864 49.5996 236.736C49.5358 236.609 49.4105 236.522 49.2236 236.477C49.1006 236.454 48.9707 236.442 48.834 236.442C48.4785 236.442 48.0729 236.522 47.6172 236.682V242H45.0947V234.624ZM56.0527 233.517V237.365L58.3496 234.624H60.4482V235.226L58.418 237.536L60.7285 241.398V242H58.3633L56.6543 239.129L56.0527 239.785V242H53.5303V232.197H55.1299C55.4261 232.197 55.638 232.238 55.7656 232.32C55.8932 232.402 55.9775 232.576 56.0186 232.84C56.0413 233.031 56.0527 233.257 56.0527 233.517Z" fill="#313131"/>
<path d="M161.589 242H158.902V232.197H165.69V234.077H161.589V236.415H164.74V238.206H161.589V242ZM169.238 242H166.729V234.624H168.356C168.539 234.624 168.691 234.642 168.814 234.679C169.042 234.761 169.174 234.977 169.211 235.328C169.229 235.492 169.238 235.729 169.238 236.039V242ZM168.91 233.852C168.66 234.066 168.354 234.173 167.994 234.173C167.634 234.173 167.326 234.063 167.071 233.845C166.816 233.626 166.688 233.343 166.688 232.997C166.688 232.642 166.816 232.354 167.071 232.136C167.331 231.917 167.639 231.808 167.994 231.808C168.359 231.808 168.666 231.917 168.917 232.136C169.168 232.354 169.293 232.642 169.293 232.997C169.293 233.353 169.165 233.637 168.91 233.852ZM170.612 234.624H172.362C172.567 234.624 172.725 234.679 172.834 234.788C172.948 234.929 173.03 235.173 173.08 235.52C173.887 234.845 174.773 234.508 175.739 234.508C177.075 234.508 177.742 235.203 177.742 236.593V242H175.22V237.256C175.22 237.037 175.186 236.864 175.117 236.736C175.053 236.609 174.928 236.522 174.741 236.477C174.618 236.454 174.488 236.442 174.352 236.442C173.996 236.442 173.59 236.522 173.135 236.682V242H170.612V234.624ZM178.549 236.244V234.624H179.342V232.744H181.864V234.624H183.238V236.244H181.864V239.607C181.864 239.931 181.933 240.157 182.069 240.284C182.211 240.412 182.445 240.476 182.773 240.476H183.266V241.932C182.819 242.059 182.338 242.123 181.823 242.123C181.012 242.123 180.395 241.957 179.971 241.624C179.551 241.291 179.342 240.744 179.342 239.983V236.244H178.549ZM191.024 238.862H186.362C186.426 239.441 186.59 239.849 186.854 240.086C187.123 240.318 187.538 240.435 188.099 240.435C188.837 240.435 189.461 240.252 189.972 239.888H190.758V241.385C189.906 241.868 188.887 242.109 187.702 242.109C186.467 242.109 185.51 241.784 184.831 241.132C184.152 240.48 183.812 239.557 183.812 238.363C183.812 237.197 184.154 236.262 184.838 235.561C185.526 234.859 186.44 234.508 187.579 234.508C189.894 234.508 191.052 235.745 191.052 238.22C191.052 238.329 191.047 238.461 191.038 238.616L191.024 238.862ZM188.119 236.169C187.973 236.091 187.793 236.053 187.579 236.053C187.365 236.053 187.18 236.096 187.025 236.183C186.875 236.265 186.757 236.383 186.67 236.538C186.583 236.688 186.517 236.843 186.472 237.003C186.431 237.162 186.399 237.345 186.376 237.55H188.673C188.659 237.326 188.636 237.137 188.604 236.982C188.577 236.823 188.525 236.668 188.447 236.518C188.374 236.363 188.265 236.246 188.119 236.169ZM195.55 242.109C194.306 242.109 193.34 241.781 192.651 241.125C191.963 240.464 191.619 239.532 191.619 238.329C191.619 237.723 191.724 237.176 191.934 236.688C192.143 236.201 192.433 235.8 192.802 235.485C193.171 235.166 193.602 234.925 194.094 234.761C194.59 234.592 195.128 234.508 195.707 234.508C196.609 234.508 197.389 234.681 198.045 235.027V236.75H197.136C196.794 236.44 196.354 236.285 195.816 236.285C195.52 236.285 195.263 236.344 195.044 236.463C194.825 236.577 194.654 236.736 194.531 236.941C194.413 237.142 194.324 237.361 194.265 237.598C194.21 237.835 194.183 238.09 194.183 238.363C194.183 238.65 194.21 238.91 194.265 239.143C194.319 239.37 194.406 239.58 194.524 239.771C194.643 239.963 194.807 240.111 195.017 240.216C195.226 240.321 195.475 240.373 195.762 240.373C196.363 240.373 196.853 240.202 197.231 239.86H198.072V241.439C197.384 241.886 196.543 242.109 195.55 242.109ZM201.641 233.517V235.479C202.424 234.831 203.293 234.508 204.245 234.508C205.58 234.508 206.248 235.203 206.248 236.593V242H203.726V237.256C203.726 237.037 203.691 236.864 203.623 236.736C203.559 236.609 203.434 236.522 203.247 236.477C203.124 236.454 202.994 236.442 202.857 236.442C202.502 236.442 202.096 236.522 201.641 236.682V242H199.118V232.197H200.718C201.014 232.197 201.226 232.238 201.354 232.32C201.481 232.402 201.565 232.576 201.606 232.84C201.629 233.031 201.641 233.257 201.641 233.517Z" fill="#313131"/>
<rect x="27.5" y="29.5" width="158" height="184" rx="14.5" stroke="#313131"/>
<path d="M94 113.405V130.595L108.5 142L123 130.595V113.405L108.5 124.811V102L94 113.405Z" fill="#FCD50D"/>
<rect x="170" y="101" width="32" height="38" fill="white"/>
<rect x="11" y="101" width="32" height="38" fill="white"/>
<path d="M33.1084 118.906L32.917 118.715C32.7803 118.578 32.5889 118.578 32.4521 118.715L27.585 123.582L27.585 113.328C27.585 113.137 27.4209 113 27.2568 113L26.9834 113C26.792 113 26.6553 113.137 26.6553 113.328L26.6553 123.582L21.7607 118.715C21.624 118.578 21.4326 118.578 21.2959 118.715L21.1045 118.906C20.9678 119.043 20.9678 119.234 21.1045 119.371L26.874 125.141C27.0107 125.277 27.2021 125.277 27.3389 125.141L33.1084 119.371C33.2451 119.234 33.2451 119.043 33.1084 118.906Z" fill="#313131"/>
<path d="M192.108 118.906L191.917 118.715C191.78 118.578 191.589 118.578 191.452 118.715L186.585 123.582L186.585 113.328C186.585 113.137 186.421 113 186.257 113L185.983 113C185.792 113 185.655 113.137 185.655 113.328L185.655 123.582L180.761 118.715C180.624 118.578 180.433 118.578 180.296 118.715L180.104 118.906C179.968 119.043 179.968 119.234 180.104 119.371L185.874 125.141C186.011 125.277 186.202 125.277 186.339 125.141L192.108 119.371C192.245 119.234 192.245 119.043 192.108 118.906Z" fill="#313131"/>
<rect x="144" y="198" width="32" height="74" transform="rotate(90 144 198)" fill="white"/>
<path d="M83.9062 208.103L83.7148 208.294C83.5781 208.431 83.5781 208.622 83.7148 208.759L88.582 213.626H78.3281C78.1367 213.626 78 213.79 78 213.954V214.228C78 214.419 78.1367 214.556 78.3281 214.556H88.582L83.7148 219.45C83.5781 219.587 83.5781 219.778 83.7148 219.915L83.9062 220.106C84.043 220.243 84.2344 220.243 84.3711 220.106L90.1406 214.337C90.2773 214.2 90.2773 214.009 90.1406 213.872L84.3711 208.103C84.2344 207.966 84.043 207.966 83.9062 208.103Z" fill="#313131"/>
<path d="M129.336 220.106L129.527 219.915C129.664 219.778 129.664 219.587 129.527 219.45L124.66 214.583L134.914 214.583C135.105 214.583 135.242 214.419 135.242 214.255L135.242 213.981C135.242 213.79 135.105 213.653 134.914 213.653L124.66 213.653L129.527 208.759C129.664 208.622 129.664 208.431 129.527 208.294L129.336 208.103C129.199 207.966 129.008 207.966 128.871 208.103L123.102 213.872C122.965 214.009 122.965 214.2 123.102 214.337L128.871 220.106C129.008 220.243 129.199 220.243 129.336 220.106Z" fill="#313131"/>
<circle cx="107.5" cy="29.5" r="6" fill="white" stroke="#313131"/>
<circle cx="30.5" cy="207.5" r="6" fill="white" stroke="#313131"/>
<circle cx="182.5" cy="207.5" r="6" fill="white" stroke="#313131"/>
</svg>
