<svg width="74" height="64" viewBox="0 0 74 64" fill="none" xmlns="http://www.w3.org/2000/svg">
<path d="M5.6811 44.3521V45.5079C5.6811 48.5418 8.15748 50.8533 11.0709 50.8533C13.9843 50.8533 16.4606 48.3973 16.4606 45.5079V44.3521C16.4606 41.3183 13.9843 39.0068 11.0709 39.0068C8.15748 39.0068 5.6811 41.3183 5.6811 44.3521ZM13.8386 44.3521V45.5079C13.8386 46.9526 12.6732 48.1083 11.2165 48.1083C9.75984 48.1083 8.59449 46.9526 8.59449 45.5079V44.3521C8.59449 42.9074 9.75984 41.7517 11.2165 41.7517C12.5276 41.7517 13.8386 42.9074 13.8386 44.3521ZM22.4331 62.5553V59.6659C22.4331 55.0429 18.6457 51.4311 14.1299 51.4311H8.30315C3.64173 51.4311 0 55.1874 0 59.6659V62.5553C0 63.2776 0.582677 64 1.45669 64H21.2677C21.8504 63.8555 22.4331 63.2776 22.4331 62.5553ZM19.6654 61.1106H2.62205V59.6659C2.62205 56.6321 5.09842 54.1761 8.15748 54.1761H13.9843C17.0433 54.1761 19.5197 56.6321 19.5197 59.6659V61.1106H19.6654ZM42.2441 45.5079V44.3521C42.2441 41.3183 39.7677 39.0068 36.8543 39.0068C33.7953 39.0068 31.4646 41.4628 31.4646 44.3521V45.5079C31.4646 48.5418 33.9409 50.8533 36.8543 50.8533C39.7677 50.8533 42.2441 48.5418 42.2441 45.5079ZM34.2323 45.5079V44.3521C34.2323 42.9074 35.3976 41.7517 36.8543 41.7517C38.311 41.7517 39.4764 42.9074 39.4764 44.3521V45.5079C39.4764 46.9526 38.311 48.1083 36.8543 48.1083C35.3976 48.1083 34.2323 46.9526 34.2323 45.5079ZM25.4921 59.6659V62.5553C25.4921 63.2776 26.0748 64 26.9488 64H46.7598C47.4882 64 48.2165 63.4221 48.2165 62.5553V59.6659C48.2165 55.0429 44.4291 51.4311 39.9134 51.4311H34.0866C29.2795 51.2867 25.4921 55.0429 25.4921 59.6659ZM28.4055 59.6659C28.4055 56.6321 30.8819 54.1761 33.9409 54.1761H39.7677C42.8268 54.1761 45.3031 56.6321 45.3031 59.6659V61.1106H28.4055V59.6659ZM42.2441 6.6456V5.34537C42.2441 2.31151 39.7677 0 36.8543 0C33.7953 0 31.4646 2.45598 31.4646 5.34537V6.50113C31.4646 9.53499 33.9409 11.8465 36.8543 11.8465C39.7677 11.991 42.2441 9.53499 42.2441 6.6456ZM34.2323 6.6456V5.34537C34.2323 3.90068 35.3976 2.74492 36.8543 2.74492C38.311 2.74492 39.4764 3.90068 39.4764 5.34537V6.50113C39.4764 7.94582 38.311 9.10158 36.8543 9.10158C35.3976 9.24605 34.2323 8.09029 34.2323 6.6456ZM25.4921 20.6591V23.5485C25.4921 24.2709 26.0748 24.9932 26.9488 24.9932H46.7598C47.4882 24.9932 48.2165 24.4153 48.2165 23.5485V20.6591C48.2165 16.0361 44.4291 12.4244 39.9134 12.4244H34.0866C29.2795 12.4244 25.4921 16.1806 25.4921 20.6591ZM28.4055 20.6591C28.4055 17.6253 30.8819 15.1693 33.9409 15.1693H39.7677C42.8268 15.1693 45.3031 17.6253 45.3031 20.6591V22.1038H28.4055V20.6591ZM62.4921 50.8533C65.5512 50.8533 67.8819 48.3973 67.8819 45.5079V44.3521C67.8819 41.3183 65.4055 39.0068 62.4921 39.0068C59.5787 39.0068 57.1024 41.4628 57.1024 44.3521V45.5079C57.1024 48.5418 59.5787 50.8533 62.4921 50.8533ZM59.8701 44.3521C59.8701 42.9074 61.0354 41.7517 62.4921 41.7517C63.9488 41.7517 65.1142 42.9074 65.1142 44.3521V45.5079C65.1142 46.9526 63.9488 48.1083 62.4921 48.1083C61.0354 48.1083 59.8701 46.9526 59.8701 45.5079V44.3521ZM65.4055 51.2867H59.5787C54.9173 51.2867 51.2756 55.0429 51.2756 59.5214V62.4108C51.2756 63.1332 51.8583 63.8555 52.7323 63.8555H72.5433C73.2717 63.8555 74 63.2777 74 62.4108V59.5214C73.8543 55.0429 70.0669 51.2867 65.4055 51.2867ZM70.9409 61.1106H54.0433V59.6659C54.0433 56.6321 56.5197 54.1761 59.5787 54.1761H65.4055C68.4646 54.1761 70.9409 56.6321 70.9409 59.6659V61.1106ZM61.1811 33.3725H38.311V35.684C38.311 36.4063 37.7283 37.1287 36.8543 37.1287C36.126 37.1287 35.3976 36.5508 35.3976 35.684V33.3725H12.5276V35.684C12.5276 36.4063 11.9449 37.1287 11.0709 37.1287C10.3425 37.1287 9.61417 36.5508 9.61417 35.684V31.9278C9.61417 31.2054 10.1968 30.4831 11.0709 30.4831H35.3976V28.1716C35.3976 27.4492 35.9803 26.7269 36.8543 26.7269C37.5827 26.7269 38.311 27.3047 38.311 28.1716V30.4831H62.4921C63.2205 30.4831 63.9488 31.0609 63.9488 31.9278V35.684C63.9488 36.4063 63.3661 37.1287 62.4921 37.1287C61.7638 37.1287 61.0354 36.5508 61.0354 35.684V33.3725H61.1811Z" fill="white"/>
</svg>
