<svg width="16" height="17" viewBox="0 0 16 17" fill="none" xmlns="http://www.w3.org/2000/svg">
<path d="M14.625 0.375C14.9062 0.375 15.1875 0.515625 15.3984 0.726562C15.6094 0.9375 15.75 1.21875 15.75 1.5V15C15.75 15.3164 15.6094 15.5977 15.3984 15.8086C15.1875 16.0195 14.9062 16.125 14.625 16.125H1.125C0.808594 16.125 0.527344 16.0195 0.316406 15.8086C0.105469 15.5977 0 15.3164 0 15V1.5C0 1.21875 0.105469 0.9375 0.316406 0.726562C0.527344 0.515625 0.808594 0.375 1.125 0.375H14.625ZM4.74609 13.875H4.78125V6.35156H2.42578V13.875H4.74609ZM3.58594 5.33203C3.9375 5.33203 4.25391 5.22656 4.53516 4.94531C4.81641 4.66406 4.95703 4.34766 4.95703 3.99609C4.95703 3.64453 4.81641 3.32812 4.53516 3.04688C4.25391 2.76562 3.9375 2.625 3.58594 2.625C3.19922 2.625 2.88281 2.76562 2.63672 3.04688C2.35547 3.32812 2.25 3.64453 2.25 3.99609C2.25 4.34766 2.35547 4.66406 2.63672 4.94531C2.88281 5.22656 3.19922 5.33203 3.58594 5.33203ZM13.5 13.875V9.76172C13.5 8.60156 13.3242 7.75781 13.0078 7.19531C12.5508 6.52734 11.7773 6.17578 10.7227 6.17578C10.1602 6.17578 9.70312 6.31641 9.28125 6.5625C8.92969 6.77344 8.64844 7.05469 8.50781 7.37109H8.47266V6.35156H6.22266V13.875H8.54297V10.1484C8.54297 9.58594 8.61328 9.12891 8.78906 8.8125C9 8.42578 9.38672 8.21484 9.94922 8.21484C10.4766 8.21484 10.8281 8.46094 11.0039 8.88281C11.1094 9.16406 11.1797 9.62109 11.1797 10.2188V13.875H13.5Z" fill="#817F7F"/>
</svg>
