<svg width="132" height="43" viewBox="0 0 132 43" fill="none" xmlns="http://www.w3.org/2000/svg">
<path d="M41.8019 6.85451V32.6313H62.5765L58.55 36.4544H37.9894V10.2914L41.8019 6.85451ZM103.056 32.6313H122.663C124.569 32.6313 125.989 32.2259 126.884 31.3956C127.779 30.5653 128.226 29.3103 128.226 27.6304C128.226 25.7961 127.76 24.5025 126.806 23.7881C126.359 23.4984 125.795 23.286 125.095 23.1316C124.394 22.9771 123.538 22.8999 122.527 22.8999H103.075V32.6313H103.056ZM103.056 19.0961H121.438C123.286 19.0961 124.569 18.8258 125.25 18.3044C126.281 17.7831 126.806 16.6632 126.806 14.9448C126.806 13.4773 126.359 12.4154 125.445 11.7396C124.531 11.0638 123.188 10.7355 121.399 10.7355H103.075V19.0961H103.056ZM120.212 6.85451C127.118 6.85451 130.58 9.38392 130.58 14.4427C130.58 17.4163 129.86 19.4823 128.421 20.6601C130.794 21.8186 132 24.1356 132 27.6304C132 29.2524 131.767 30.6619 131.319 31.8397C130.872 33.0368 130.133 33.9829 129.121 34.6973C128.304 35.3152 127.273 35.7593 126.009 36.0489C124.744 36.3386 123.266 36.4737 121.574 36.4737H99.6711H99.2432V6.85451H99.6711H120.212ZM70.3183 20.2353H86.2882C88.2334 20.2353 89.6534 20.0422 90.5676 19.6174V19.656C91.1901 19.3471 91.6569 18.8837 91.9293 18.3044C92.221 17.7059 92.3572 17.0108 92.3572 16.1998V14.7517C92.3572 13.9407 92.221 13.2456 91.9293 12.705C91.6569 12.145 91.1901 11.7009 90.5676 11.392C90.1008 11.1796 89.5173 11.0058 88.817 10.89C88.1167 10.7934 87.2803 10.7162 86.2688 10.7162H70.2989V20.2353H70.3183ZM86.4244 6.85451C88.1751 6.85451 89.7118 7.02829 90.9956 7.37584C92.2794 7.72339 93.3103 8.24472 94.069 8.95914C94.7887 9.69286 95.3528 10.6583 95.7613 11.894C96.1698 13.1298 96.3837 14.6165 96.3837 16.3736C96.3837 21.5483 93.0769 24.1356 86.4439 24.1356H70.3378V32.2066L66.4279 36.5896V24.348V24.1356H66.4085C66.4085 24.1356 66.4085 24.1356 66.4279 24.1356V6.85451H86.4244ZM0 12.2609V30.7391L15.5031 43L31.0062 30.7391V12.2609L15.5031 24.5218V0L0 12.2609Z" fill="white"/>
</svg>
