<svg width="40" height="36" viewBox="0 0 40 36" fill="none" xmlns="http://www.w3.org/2000/svg">
<path d="M3.90608 20.4286C3.47555 20.4286 3.1233 20.78 3.1233 21.2095C3.1233 21.639 3.47555 21.9905 3.90608 21.9905C4.33661 21.9905 4.68886 21.639 4.68886 21.2095C4.68886 20.78 4.33661 20.4286 3.90608 20.4286ZM35.9062 23.1306L28.5402 25.6529C28.5715 25.4733 28.595 25.2859 28.595 25.0985C28.595 23.3805 27.1938 21.9826 25.4717 21.9826H20.4149C20.2819 21.9826 20.1488 21.9514 20.0314 21.8811L15.9061 19.5618C15.092 19.1011 14.1605 18.859 13.2212 18.859H7.67909C7.35815 17.9531 6.48926 17.2972 5.47164 17.2972H0.782781C0.352252 17.2972 0 17.6486 0 18.0781V32.1033C0 32.5328 0.352252 32.8842 0.782781 32.8842H5.47164C6.46578 32.8842 7.31901 32.2594 7.6556 31.3848C8.54015 31.4941 9.56559 31.7518 10.2075 32.1423L14.2936 34.5866C15.8435 35.5158 17.6126 36 19.4208 36C20.8533 36 22.2388 35.7033 23.5382 35.1098L38.1215 28.7063C39.734 28.0503 40.5324 26.1215 39.6087 24.4191C38.9277 23.1774 37.3387 22.6152 35.9062 23.1306ZM6.2466 30.5649C6.2466 30.9944 5.89434 31.338 5.46381 31.338H1.56556V18.8668H5.47164C5.90217 18.8668 6.25442 19.2182 6.25442 19.6477V30.5649H6.2466ZM37.5265 27.2772C37.5187 27.2772 37.5109 27.285 37.5031 27.285C37.5031 27.285 22.8964 33.6963 22.8964 33.7041C21.7926 34.2039 20.6263 34.4538 19.4208 34.4538C17.9022 34.4538 16.4071 34.0399 15.0999 33.259L11.0137 30.8148C10.137 30.2915 8.88457 29.9714 7.81216 29.8464V20.4286H13.2134C13.8865 20.4286 14.5441 20.6004 15.1312 20.9284L19.2564 23.2477C19.6087 23.443 20.0079 23.5523 20.4071 23.5523H25.4639C26.3249 23.5523 27.0294 24.2551 27.0294 25.1141C27.0294 25.9731 26.3249 26.6759 25.4639 26.6759H17.5265C17.0959 26.6759 16.7437 27.0273 16.7437 27.4568C16.7437 27.8863 17.0959 28.2377 17.5265 28.2377H25.4717C25.9805 28.2377 26.4893 28.1128 26.9355 27.8707C26.9355 27.8707 36.4306 24.6143 36.4385 24.6143C37.1352 24.3644 37.9336 24.6143 38.2389 25.1844C38.7007 26.0278 38.3172 26.9649 37.5265 27.2772ZM22.7555 18.9059C22.9042 19.0308 23.0842 19.0933 23.2643 19.0933C23.4443 19.0933 23.6322 19.0308 23.7731 18.9059C30.1449 13.3926 34.0901 10.6048 34.0901 6.27072C34.0901 2.84252 31.6557 0 28.2349 0C25.9883 0 24.2741 1.2885 23.1625 3.22516C22.0666 1.29631 20.3523 0 18.0979 0C15.4834 0 13.2916 1.69458 12.5245 4.31063C12.3993 4.72451 12.6419 5.15401 13.0568 5.27896C13.4717 5.4039 13.9022 5.16182 14.0274 4.74794C14.5989 2.81128 16.1957 1.56182 18.0979 1.56182C20.3288 1.56182 21.8866 3.53753 22.4189 5.37267C22.5128 5.70846 22.8181 5.94273 23.1703 5.94273C23.5226 5.94273 23.8279 5.70846 23.9218 5.37267C23.9296 5.33362 25.0177 1.56182 28.2428 1.56182C30.685 1.56182 32.5324 3.58438 32.5324 6.27072C32.5324 9.73796 29.1351 12.2369 23.2643 17.2894C19.687 14.2282 16.8455 12.0651 15.2329 9.95662C14.9746 9.61302 14.4815 9.55054 14.137 9.80824C13.7926 10.0659 13.73 10.5579 13.9883 10.9015C15.8122 13.2755 18.8807 15.5557 22.7555 18.9059ZM13.2055 6.86421C12.775 6.86421 12.4227 7.21562 12.4227 7.64512C12.4227 8.07462 12.775 8.42603 13.2055 8.42603C13.6361 8.42603 13.9883 8.07462 13.9883 7.64512C13.9883 7.21562 13.6361 6.86421 13.2055 6.86421Z" fill="url(#paint0_linear)"/>
<defs>
<linearGradient id="paint0_linear" x1="-3.2" y1="36" x2="44.5156" y2="32.1006" gradientUnits="userSpaceOnUse">
<stop stop-color="#4E89E2"/>
<stop offset="1" stop-color="#FCD60D"/>
</linearGradient>
</defs>
</svg>
