<?xml version="1.0" encoding="UTF-8"?>
<svg width="62px" height="80px" viewBox="0 0 62 80" version="1.1" xmlns="http://www.w3.org/2000/svg" xmlns:xlink="http://www.w3.org/1999/xlink">
    <title>mail</title>
    <defs>
        <linearGradient x1="-8%" y1="76.3397503%" x2="110.865%" y2="67.5972945%" id="linearGradient-1">
            <stop stop-color="#4E89E2" offset="0%"></stop>
            <stop stop-color="#FCD60D" offset="100%"></stop>
        </linearGradient>
    </defs>
    <g id="Page-1" stroke="none" stroke-width="1" fill="none" fill-rule="evenodd">
        <g id="mail" transform="translate(0.000000, 17.000000)" fill="url(#linearGradient-1)" fill-rule="nonzero">
            <path d="M62,42.1831 L62,2.8169 C62,2.08451 61.7195,1.42254 61.2706,0.929577 C61.2706,0.915493 61.2566,0.915493 61.2425,0.901408 C60.7376,0.352113 60.0081,0 59.1946,0 L2.80543,0 C1.99186,0 1.27647,0.352113 0.757466,0.901408 C0.743439,0.901408 0.743439,0.915493 0.729412,0.929577 C0.280543,1.42254 0,2.08451 0,2.8169 L0,42.1831 C0,42.9155 0.280543,43.5775 0.729412,44.0704 C0.729412,44.0845 0.743439,44.0845 0.743439,44.0986 C1.26244,44.6479 1.99186,45 2.7914,45 L59.1805,45 C59.9941,45 60.7235,44.6479 61.2285,44.0986 C61.2425,44.0845 61.2425,44.0845 61.2566,44.0704 C61.7195,43.5775 62,42.9155 62,42.1831 Z M13.7466,30.6761 C13.1855,30.1408 12.3018,30.1549 11.7688,30.7183 L2.80543,40.0845 L2.80543,4.91549 L19.624,22.507 L15.0792,27.2535 C14.5462,27.8169 14.5602,28.7042 15.1213,29.2394 C15.3878,29.507 15.7385,29.6338 16.0891,29.6338 C16.4538,29.6338 16.8326,29.493 17.0991,29.1972 L21.5597,24.5211 L28.0262,31.2958 C28.8118,32.1127 29.8638,32.5634 30.986,32.5634 C32.1081,32.5634 33.1602,32.1127 33.9457,31.2958 L40.4122,24.5211 L57.2869,42.169 L4.6991,42.169 L13.8027,32.6479 C14.3357,32.1127 14.3077,31.2113 13.7466,30.6761 Z M31.9258,29.3521 C31.6733,29.6197 31.3507,29.7606 31,29.7606 C30.6493,29.7606 30.3127,29.6197 30.0742,29.3521 L4.6991,2.8169 L57.3149,2.8169 L31.9258,29.3521 Z M42.376,22.507 L59.1946,4.91549 L59.1946,40.0986 L42.376,22.507 Z" id="Shape"></path>
        </g>
    </g>
</svg>