<svg width="112" height="112" viewBox="0 0 112 112" fill="none" xmlns="http://www.w3.org/2000/svg">
<path d="M111.792 111.26C111.815 111.237 111.838 111.19 111.838 111.167C111.838 111.144 111.861 111.121 111.861 111.121C111.884 111.098 111.884 111.052 111.907 111.029C111.907 111.005 111.931 110.982 111.931 110.959C111.931 110.936 111.954 110.89 111.954 110.867C111.954 110.844 111.954 110.82 111.977 110.797C111.977 110.774 112 110.728 112 110.705C112 110.682 112 110.658 112 110.635C112 110.612 112 110.589 112 110.543C112 110.52 112 110.497 112 110.473C112 110.45 112 110.427 112 110.404V43.2353C112 43.2353 112 43.2353 112 43.2121C112 43.2121 112 43.2121 112 43.189C112 43.1659 112 43.1427 112 43.1196C112 43.0965 112 43.0734 112 43.0502V43.0271C112 43.004 112 42.9808 112 42.9577C112 42.9346 112 42.9115 112 42.8883V42.8652C112 42.8421 112 42.8421 111.977 42.8189C111.977 42.7958 111.954 42.7727 111.954 42.7495V42.7264C111.954 42.7033 111.931 42.7033 111.931 42.6802C111.931 42.657 111.907 42.6339 111.907 42.6108V42.5876C111.907 42.5645 111.884 42.5414 111.884 42.5414C111.884 42.5182 111.861 42.4951 111.861 42.472C111.861 42.472 111.861 42.4489 111.838 42.4489C111.815 42.4257 111.815 42.4026 111.792 42.3795C111.792 42.3563 111.769 42.3563 111.769 42.3332C111.769 42.3332 111.769 42.3332 111.746 42.3101C111.722 42.2869 111.722 42.2638 111.699 42.2407C111.699 42.2176 111.676 42.2176 111.676 42.1944C111.676 42.1944 111.676 42.1944 111.653 42.1713C111.63 42.1482 111.607 42.125 111.607 42.1019C111.584 42.0788 111.561 42.0557 111.561 42.0325C111.537 42.0094 111.537 42.0094 111.514 41.9863C111.491 41.9631 111.468 41.94 111.445 41.9169C111.445 41.9169 111.445 41.9169 111.422 41.9169L96.8492 30.7683V12.7965C96.8492 11.9176 96.1322 11.2006 95.2532 11.2006H71.197L56.9715 0.329599C56.3932 -0.109866 55.6068 -0.109866 55.0285 0.329599L40.803 11.2006H16.8162C15.9372 11.2006 15.2202 11.9176 15.2202 12.7965V30.7683L0.647666 41.9169C0.647666 41.9169 0.647666 41.9169 0.624535 41.9169C0.578273 41.94 0.555143 41.9863 0.508881 42.0094L0.48575 42.0325C0.462619 42.0557 0.439488 42.0788 0.416357 42.1019C0.393226 42.125 0.393226 42.125 0.370095 42.1482C0.346964 42.1713 0.346964 42.1944 0.323833 42.1944C0.300702 42.2176 0.300702 42.2407 0.277571 42.2638C0.277571 42.2638 0.277571 42.287 0.25444 42.287V42.3101C0.25444 42.3332 0.231309 42.3332 0.231309 42.3563C0.208178 42.3795 0.208178 42.4026 0.185047 42.4257C0.185047 42.4489 0.161917 42.4489 0.161917 42.472C0.161917 42.472 0.161917 42.4951 0.138786 42.4951C0.138786 42.4951 0.138786 42.4951 0.138786 42.5182C0.138786 42.5414 0.115655 42.5645 0.115655 42.5876C0.115655 42.6108 0.0925237 42.6339 0.0925237 42.6339C0.0925237 42.657 0.0925238 42.657 0.0693928 42.6802C0.0693928 42.7033 0.0462619 42.7033 0.0462619 42.7264C0.0462619 42.7495 0.0231309 42.7727 0.0231309 42.7958C0.0231309 42.8189 0.0231309 42.8189 0.0231309 42.8421C0.0231309 42.8652 0.0231309 42.8652 0.0231309 42.8883C0.0231309 42.9115 0.0231309 42.9577 0 42.9808C0 43.004 0 43.004 0 43.0271V43.0502C0 43.0965 0 43.1427 0 43.189C0 43.189 0 43.189 0 43.2121V110.381V110.404C0 111.283 0.717059 112 1.59603 112H110.427C110.496 112 110.543 112 110.612 112C110.635 112 110.635 112 110.658 112C110.705 112 110.751 111.977 110.797 111.977C110.82 111.977 110.82 111.977 110.843 111.977C110.89 111.977 110.936 111.954 110.959 111.931C110.982 111.931 110.982 111.931 111.005 111.907C111.052 111.884 111.075 111.884 111.121 111.861C111.144 111.861 111.144 111.838 111.167 111.838C111.214 111.815 111.237 111.792 111.283 111.769C111.306 111.769 111.306 111.746 111.329 111.746C111.375 111.722 111.399 111.699 111.445 111.676L111.468 111.653C111.514 111.607 111.561 111.584 111.607 111.537C111.653 111.491 111.676 111.445 111.722 111.422L111.746 111.399C111.769 111.375 111.792 111.329 111.815 111.306C111.792 111.283 111.792 111.26 111.792 111.26ZM3.19207 46.5891L41.0343 77.3979L3.19207 107.143V46.5891ZM43.6249 79.4333C47.2334 82.0007 51.5589 83.4116 56 83.3885C60.4411 83.3885 64.7898 82.0007 68.3751 79.4333L105.778 108.831H6.22222L43.6249 79.4333ZM70.9888 77.3979L108.831 46.5891V107.143L70.9888 77.3979ZM107.86 43.2584L96.8261 52.2327V34.816L107.86 43.2584ZM56.0231 3.61402L65.9232 11.2006H46.0768L56.0231 3.61402ZM93.634 14.4156V31.1847C93.5878 31.416 93.5878 31.6704 93.634 31.9017V54.8233L67.4267 76.172C60.8575 81.4919 51.4895 81.5381 44.8509 76.3339C44.7121 76.172 44.5733 76.0564 44.3883 75.9639L18.4122 54.8233V14.4156H93.634ZM15.197 52.2327L4.1867 43.2584L15.2202 34.816V52.2327H15.197ZM29.6076 26.4199C29.6076 25.541 30.3247 24.824 31.2036 24.824H80.8195C81.6985 24.824 82.4155 25.541 82.4155 26.4199C82.4155 27.2989 81.6985 28.0159 80.8195 28.0159H31.2036C30.3247 28.0159 29.6076 27.2989 29.6076 26.4199ZM29.6076 38.8175C29.6076 37.9386 30.3247 37.2215 31.2036 37.2215H80.8195C81.6985 37.2215 82.4155 37.9386 82.4155 38.8175C82.4155 39.6964 81.6985 40.4134 80.8195 40.4134H31.2036C30.3247 40.4134 29.6076 39.6964 29.6076 38.8175ZM29.6076 51.215C29.6076 50.3361 30.3247 49.6191 31.2036 49.6191H80.8195C81.6985 49.6191 82.4155 50.3361 82.4155 51.215C82.4155 52.094 81.6985 52.811 80.8195 52.811H31.2036C30.3247 52.811 29.6076 52.094 29.6076 51.215Z" fill="url(#paint0_linear)"/>
<defs>
<linearGradient id="paint0_linear" x1="-1.28546e-06" y1="36.9141" x2="112" y2="36.914" gradientUnits="userSpaceOnUse">
<stop stop-color="#FCD60D"/>
<stop offset="1" stop-color="#428BBF"/>
</linearGradient>
</defs>
</svg>
