<svg width="14" height="13" viewBox="0 0 14 13" fill="none" xmlns="http://www.w3.org/2000/svg">
<path d="M8.29102 6.5L12.3145 2.51562L13.1348 1.69531C13.252 1.57812 13.252 1.38281 13.1348 1.22656L12.2754 0.367188C12.1191 0.25 11.9238 0.25 11.8066 0.367188L7.00195 5.21094L2.1582 0.367188C2.04102 0.25 1.8457 0.25 1.68945 0.367188L0.830078 1.22656C0.712891 1.38281 0.712891 1.57812 0.830078 1.69531L5.67383 6.5L0.830078 11.3438C0.712891 11.4609 0.712891 11.6562 0.830078 11.8125L1.68945 12.6719C1.8457 12.7891 2.04102 12.7891 2.1582 12.6719L7.00195 7.82812L10.9863 11.8516L11.8066 12.6719C11.9238 12.7891 12.1191 12.7891 12.2754 12.6719L13.1348 11.8125C13.252 11.6562 13.252 11.4609 13.1348 11.3438L8.29102 6.5Z" fill="#313131"/>
</svg>
