<svg width="66" height="62" viewBox="0 0 66 62" fill="none" xmlns="http://www.w3.org/2000/svg">
<path d="M52 61.8C51.2 61.8 50.6 61.2 50.6 60.4C50.6 59.6 51.2 59 52 59H62.5C62.9 59 63.2 58.7 63.2 58.3V28.8C63.2 28.4 62.9 28.1 62.5 28.1H43.6C43.3 28.1 43.1 28.3 43 28.5C42.9 28.8 43 29.1 43.2 29.3C47 32.8 49.3 38 49.3 43.5C49.3 53.6 42.1 61.8 33.1 61.8C24.2 61.8 16.9 53.6 16.9 43.5C16.9 38 19.1 32.8 23 29.3C23.2 29.1 23.3 28.8 23.2 28.5C23.1 28.2 22.8 28.1 22.6 28.1H3.5C3.1 28.1 2.8 28.4 2.8 28.8V58.3C2.8 58.7 3.1 59 3.5 59H14C14.8 59 15.4 59.6 15.4 60.4C15.4 61.2 14.8 61.8 14 61.8H1.4C0.6 61.8 0 61.2 0 60.4V26.7C0 25.9 0.6 25.3 1.4 25.3H64.6C65.4 25.3 66 25.9 66 26.7V60.4C66 61.2 65.4 61.8 64.6 61.8H52ZM33 28.1C25.7 28.1 19.7 35 19.7 43.5C19.7 52 25.7 59 33 59C40.3 59 46.3 52.1 46.3 43.6C46.3 35 40.3 28.1 33 28.1ZM57.6 44.9V42.1H54.8V44.9H57.6ZM11.3 44.9V42.1H8.4V44.9H11.3ZM45.3 21.5C45.9 21.1 46.1 20.2 45.6 19.5C44.9 18.4 44 17.5 43.1 16.6C42.9 16.4 42.8 16.1 42.9 15.8C43 15.5 43.3 15.4 43.5 15.4H62.4C62.8 15.4 63.1 15.7 63.1 16.1V20.3C63.1 21.1 63.7 21.7 64.5 21.7C65.3 21.7 65.9 21.1 65.9 20.3V14C65.9 13.2 65.3 12.6 64.5 12.6H1.4C0.6 12.6 0 13.3 0 14V20.3C0 21.1 0.6 21.7 1.4 21.7C2.2 21.7 2.8 21.1 2.8 20.3V16.1C2.8 15.7 3.1 15.4 3.5 15.4H22.4C22.7 15.4 22.9 15.6 23 15.8C23.1 16.1 23 16.4 22.8 16.6C21.9 17.5 21 18.4 20.3 19.5C19.9 20.1 20 21 20.6 21.5C20.8 21.7 21.1 21.8 21.4 21.8C21.9 21.8 22.3 21.6 22.6 21.2C25.1 17.6 28.9 15.5 32.9 15.5C36.9 15.5 40.7 17.6 43.2 21.2C43.5 21.6 43.9 21.8 44.4 21.8C44.8 21.8 45.1 21.7 45.3 21.5ZM66 7.7V1.4C66 0.6 65.4 0 64.6 0H1.4C0.6 0 0 0.6 0 1.4V7.7C0 8.5 0.6 9.1 1.4 9.1C2.2 9.1 2.8 8.5 2.8 7.7V3.5C2.8 3.1 3.1 2.8 3.5 2.8H22.4C22.7 2.8 22.9 3 23 3.2C23.1 3.5 23 3.8 22.8 4C21.9 4.9 21 5.8 20.3 6.9C19.9 7.5 20 8.4 20.6 8.9C20.8 9.1 21.1 9.2 21.4 9.2C21.9 9.2 22.3 9 22.6 8.6C25.2 4.9 29 2.8 33 2.8C37 2.8 40.8 4.9 43.3 8.5C43.6 8.9 44 9.1 44.5 9.1C44.8 9.1 45.1 9 45.3 8.8C45.9 8.4 46.1 7.5 45.6 6.8C44.9 5.7 44 4.8 43.1 3.9C42.9 3.7 42.8 3.4 42.9 3.1C43 3 43.3 2.8 43.6 2.8H62.5C62.9 2.8 63.2 3.1 63.2 3.5V7.7C63.2 8.5 63.8 9.1 64.6 9.1C65.4 9.1 66 8.5 66 7.7ZM39.6 39V38.2C39.6 35.5 37.5 33.4 34.8 33.4H33.6C30.9 33.4 28.8 35.4 28.8 38.2V40.1H26.3V42.6H28.8V44.1H26.3V46.6H28.8V48.5C28.8 51.2 30.9 53.3 33.6 53.3H34.8C37.5 53.3 39.6 51.3 39.6 48.5V47.7L36.6 47.4V48.5C36.6 49.6 35.8 50.4 34.7 50.4H33.6C32.5 50.4 31.7 49.6 31.7 48.5V46.6H35.6V44.1H31.7V42.6H35.6V40.1H31.7V38.2C31.7 37.1 32.5 36.3 33.6 36.3H34.7C35.8 36.3 36.6 37.1 36.6 38.2V39.3L39.6 39Z" fill="url(#paint0_linear)"/>
<defs>
<linearGradient id="paint0_linear" x1="-5.28" y1="61.8" x2="73.4905" y2="55.6127" gradientUnits="userSpaceOnUse">
<stop stop-color="#4E89E2"/>
<stop offset="1" stop-color="#FCD60D"/>
</linearGradient>
</defs>
</svg>
