<svg width="34" height="34" viewBox="0 0 34 34" fill="none" xmlns="http://www.w3.org/2000/svg">
<path d="M33.3359 0H6.50781C6.14258 0 5.84375 0.298828 5.84375 0.664062V3.58594H3.58594C3.2207 3.58594 2.92188 3.88477 2.92188 4.25V7.83594H0.664062C0.298828 7.83594 0 8.13477 0 8.5V30.4141C0 32.393 1.60703 34 3.58594 34H30.4141C32.393 34 34 32.393 34 30.4141V0.664062C34 0.298828 33.7012 0 33.3359 0ZM32.6719 30.4141C32.6719 31.6559 31.6559 32.6719 30.4141 32.6719H6.36836C6.87305 32.0543 7.17188 31.2707 7.17188 30.4141V21.4492C7.17188 21.084 6.87305 20.7852 6.50781 20.7852C6.14258 20.7852 5.84375 21.084 5.84375 21.4492V30.4141C5.84375 31.6559 4.82773 32.6719 3.58594 32.6719C2.34414 32.6719 1.32812 31.6559 1.32812 30.4141V9.16406H2.92188V29.75C2.92188 30.1152 3.2207 30.4141 3.58594 30.4141C3.95117 30.4141 4.25 30.1152 4.25 29.75V4.91406H5.84375V15.4727C5.84375 15.8379 6.14258 16.1367 6.50781 16.1367C6.87305 16.1367 7.17188 15.8379 7.17188 15.4727V1.32812H32.6719V30.4141ZM9.69531 10.4922H30.1484C30.5137 10.4922 30.8125 10.1934 30.8125 9.82812V5.04688C30.8125 4.68164 30.5137 4.38281 30.1484 4.38281H9.69531C9.33008 4.38281 9.03125 4.68164 9.03125 5.04688V9.82812C9.03125 10.1934 9.33008 10.4922 9.69531 10.4922ZM10.3594 5.71094H29.4844V9.16406H10.3594V5.71094ZM9.69531 26.4297H19.9219C20.2871 26.4297 20.5859 26.1309 20.5859 25.7656V13.0156C20.5859 12.6504 20.2871 12.3516 19.9219 12.3516H9.69531C9.33008 12.3516 9.03125 12.6504 9.03125 13.0156V25.7656C9.03125 26.1309 9.33008 26.4297 9.69531 26.4297ZM10.3594 13.6797H19.2578V25.1016H10.3594V13.6797ZM30.1484 12.3516H23.1094C22.7441 12.3516 22.4453 12.6504 22.4453 13.0156C22.4453 13.3809 22.7441 13.6797 23.1094 13.6797H30.1484C30.5137 13.6797 30.8125 13.3809 30.8125 13.0156C30.8125 12.6504 30.5137 12.3516 30.1484 12.3516ZM30.1484 15.5391H23.1094C22.7441 15.5391 22.4453 15.8379 22.4453 16.2031C22.4453 16.5684 22.7441 16.8672 23.1094 16.8672H30.1484C30.5137 16.8672 30.8125 16.5684 30.8125 16.2031C30.8125 15.8379 30.5137 15.5391 30.1484 15.5391ZM30.1484 18.7266H23.1094C22.7441 18.7266 22.4453 19.0254 22.4453 19.3906C22.4453 19.7559 22.7441 20.0547 23.1094 20.0547H30.1484C30.5137 20.0547 30.8125 19.7559 30.8125 19.3906C30.8125 19.0254 30.5137 18.7266 30.1484 18.7266ZM30.1484 21.9141H23.1094C22.7441 21.9141 22.4453 22.2129 22.4453 22.5781C22.4453 22.9434 22.7441 23.2422 23.1094 23.2422H30.1484C30.5137 23.2422 30.8125 22.9434 30.8125 22.5781C30.8125 22.2129 30.5137 21.9141 30.1484 21.9141ZM30.1484 25.1016H23.1094C22.7441 25.1016 22.4453 25.4004 22.4453 25.7656C22.4453 26.1309 22.7441 26.4297 23.1094 26.4297H30.1484C30.5137 26.4297 30.8125 26.1309 30.8125 25.7656C30.8125 25.4004 30.5137 25.1016 30.1484 25.1016ZM9.69531 29.6172H30.1484C30.5137 29.6172 30.8125 29.3184 30.8125 28.9531C30.8125 28.5879 30.5137 28.2891 30.1484 28.2891H9.69531C9.33008 28.2891 9.03125 28.5879 9.03125 28.9531C9.03125 29.3184 9.33008 29.6172 9.69531 29.6172ZM6.54102 17.7969C6.36836 17.7969 6.1957 17.8699 6.06953 17.9895C5.94336 18.1156 5.87695 18.2816 5.87695 18.4609C5.87695 18.6336 5.95 18.8062 6.06953 18.9324C6.1957 19.0586 6.36172 19.125 6.54102 19.125C6.72031 19.125 6.88633 19.052 7.0125 18.9324C7.13867 18.8062 7.20508 18.6402 7.20508 18.4609C7.20508 18.2816 7.13203 18.1156 7.0125 17.9895C6.88633 17.8699 6.71367 17.7969 6.54102 17.7969Z" fill="url(#paint0_linear)"/>
<defs>
<linearGradient id="paint0_linear" x1="-2.72" y1="34" x2="37.8894" y2="31.0132" gradientUnits="userSpaceOnUse">
<stop stop-color="#4E89E2"/>
<stop offset="1" stop-color="#FCD60D"/>
</linearGradient>
</defs>
</svg>
