<svg width="23" height="28" viewBox="0 0 23 28" fill="none" xmlns="http://www.w3.org/2000/svg">
<path d="M22.8411 6.28478C22.8411 6.27717 22.8336 6.27717 22.8411 6.28478C22.8336 6.27717 22.826 6.26957 22.826 6.26957L16.7734 0.182609C16.6599 0.0608696 16.501 0 16.3421 0H15.1618C15.1467 0 15.124 0 15.1089 0H1.81579C0.817105 0 0 0.821739 0 1.82609V26.1739C0 27.1783 0.817105 28 1.81579 28H21.1842C22.1829 28 23 27.1783 23 26.1739V6.69565C23 6.53587 22.9395 6.3913 22.8411 6.28478ZM21.7895 26.1739C21.7895 26.5087 21.5171 26.7826 21.1842 26.7826H1.81579C1.48289 26.7826 1.21053 26.5087 1.21053 26.1739V1.82609C1.21053 1.4913 1.48289 1.21739 1.81579 1.21739H14.5263V3.65217H4.23684C3.90395 3.65217 3.63158 3.92609 3.63158 4.26087V7.91304C3.63158 8.24783 3.90395 8.52174 4.23684 8.52174C4.56974 8.52174 4.84211 8.24783 4.84211 7.91304V4.86957H14.5263V7.91304C14.5263 8.24783 14.7987 8.52174 15.1316 8.52174H21.7895V26.1739ZM21.7895 7.30435H15.7368V1.21739H16.0924L21.7895 6.94674V7.30435ZM5.44737 17.0435C5.44737 20.3989 8.16349 23.1304 11.5 23.1304C14.8365 23.1304 17.5526 20.3989 17.5526 17.0435C17.5526 15.5217 16.9928 14.137 16.0697 13.0717L16.8414 11.9076C17.0306 11.6261 16.9549 11.2533 16.675 11.063C16.3951 10.8728 16.0168 10.9489 15.8352 11.2304L15.177 12.2272C14.1556 11.4283 12.8845 10.9565 11.5 10.9565C8.16349 10.9565 5.44737 13.688 5.44737 17.0435ZM9.2 16.8L11.0158 19.2348C11.1293 19.387 11.3109 19.4783 11.5 19.4783C11.5076 19.4783 11.5151 19.4783 11.5151 19.4783C11.7118 19.4707 11.8934 19.3717 11.9993 19.2043L15.3661 14.1293C15.9714 14.9435 16.3345 15.9478 16.3345 17.0435C16.3345 19.7293 14.1632 21.913 11.4924 21.913C8.82171 21.913 6.65033 19.7293 6.65033 17.0435C6.65033 14.3576 8.82171 12.1739 11.4924 12.1739C12.6273 12.1739 13.6714 12.5696 14.5036 13.2315L11.4697 17.812L10.1684 16.062C9.97171 15.7957 9.58586 15.7348 9.32105 15.9402C9.05625 16.1457 9.00329 16.5337 9.2 16.8Z" fill="url(#paint0_linear)"/>
<defs>
<linearGradient id="paint0_linear" x1="-1.84" y1="28" x2="25.6792" y2="26.3374" gradientUnits="userSpaceOnUse">
<stop stop-color="#4E89E2"/>
<stop offset="1" stop-color="#FCD60D"/>
</linearGradient>
</defs>
</svg>
