<svg width="32" height="31" viewBox="0 0 32 31" fill="none" xmlns="http://www.w3.org/2000/svg">
<path d="M9.23172 29.0083C9.57549 29.0083 9.85675 29.291 9.85675 29.6366C9.85675 29.9822 9.57549 30.2649 9.23172 30.2649C8.88795 30.2649 8.60669 29.9822 8.60669 29.6366C8.60669 29.291 8.88795 29.0083 9.23172 29.0083ZM31.5704 26.4574L25.495 16.5554C25.3075 16.2538 24.9138 16.1595 24.6137 16.348L24.3075 16.5365L22.9137 14.2621C25.5388 11.5729 26.1138 7.33191 24.0637 3.98307C21.6511 0.0499057 16.5008 -1.18156 12.5819 1.24368C11.6318 1.83428 10.838 2.58824 10.2193 3.44273H0.643783C0.287515 3.44901 0 3.73803 0 4.08988V29.668C0 30.0261 0.287515 30.3152 0.643783 30.3152H6.36907C6.72534 30.3152 7.01286 30.0261 7.01286 29.668C7.01286 29.3099 6.72534 29.0209 6.36907 29.0209H1.28131V4.73703H9.45048C8.25667 7.23138 8.31292 10.2598 9.85675 12.7856C11.4318 15.3553 14.1695 16.769 16.9696 16.769C17.2071 16.769 17.4509 16.7564 17.6884 16.7376V29.0271H12.1131C11.7568 29.0271 11.4693 29.3162 11.4693 29.6743C11.4693 30.0324 11.7568 30.3214 12.1131 30.3214H18.3259C18.6822 30.3214 18.9697 30.0324 18.9697 29.6743V16.524C19.151 16.48 19.326 16.4297 19.501 16.3732L20.8948 18.6476L20.5885 18.8361C20.2885 19.0246 20.1948 19.4204 20.3823 19.722L26.4576 29.624C27.0014 30.5099 27.9514 31 28.9202 31C29.439 31 29.9578 30.8618 30.4265 30.5665L30.6266 30.4408C31.9829 29.6052 32.4079 27.8208 31.5704 26.4574ZM10.9506 12.107C8.9067 8.777 9.938 4.39775 13.2507 2.3432C14.4007 1.62694 15.682 1.28766 16.9446 1.28766C19.3135 1.28766 21.6323 2.48771 22.9637 4.65535C25.0075 7.98534 23.9762 12.3646 20.6573 14.4191C17.3509 16.48 12.9944 15.437 10.9506 12.107ZM20.7073 15.8705C20.9198 15.7637 21.1323 15.6443 21.3323 15.5187C21.5386 15.393 21.7386 15.2548 21.9261 15.1103L23.2137 17.2025L21.9949 17.969L20.7073 15.8705ZM24.745 17.7806L29.1265 24.9181L26.1951 26.7338L21.8136 19.5963L24.745 17.7806ZM29.9578 29.3476L29.7578 29.4732C29.0077 29.9382 28.0139 29.7057 27.5514 28.9455L26.8639 27.8271L29.7953 26.0113L30.4828 27.1297C30.9453 27.8899 30.7078 28.8826 29.9578 29.3476ZM22.4386 9.68804C22.7887 8.21782 22.5449 6.69733 21.7511 5.40931C20.126 2.7516 16.6446 1.92224 14.0007 3.56211C11.3568 5.20197 10.5318 8.69532 12.1631 11.3593C13.2257 13.0934 15.0758 14.0484 16.9696 14.0484C17.9759 14.0484 19.001 13.7783 19.9198 13.2065C21.1948 12.4086 22.0949 11.1645 22.4386 9.68804ZM19.2447 12.107C17.2009 13.3762 13.8257 12.5971 13.0194 10.2347H17.3759C17.7321 10.2347 18.0197 9.94564 18.0197 9.58751C18.0197 9.22938 17.7321 8.94036 17.3759 8.94036H12.6444C12.5881 8.50683 12.6006 8.07331 12.6694 7.65234H17.3759C17.7321 7.65234 18.0197 7.36333 18.0197 7.00519C18.0197 6.64706 17.7321 6.35805 17.3759 6.35805H13.0944C13.4444 5.6732 13.9757 5.07631 14.6757 4.64278C15.3883 4.20297 16.1758 3.99563 16.9509 3.99563C18.4134 3.99563 19.8385 4.73703 20.6635 6.07531C21.2761 7.06802 21.4636 8.24295 21.1948 9.38017C20.9261 10.53 20.2323 11.4975 19.2447 12.107ZM3.22516 10.2095H6.68784C7.04411 10.2095 7.33162 9.92051 7.33162 9.56238C7.33162 9.20425 7.04411 8.91523 6.68784 8.91523H3.22516C2.8689 8.91523 2.58138 9.20425 2.58138 9.56238C2.58763 9.92051 2.87515 10.2095 3.22516 10.2095ZM3.22516 12.7856H6.68784C7.04411 12.7856 7.33162 12.4965 7.33162 12.1384C7.33162 11.7803 7.04411 11.4913 6.68784 11.4913H3.22516C2.8689 11.4913 2.58138 11.7803 2.58138 12.1384C2.58763 12.4965 2.87515 12.7856 3.22516 12.7856ZM3.22516 15.3616H8.71919C9.07546 15.3616 9.36297 15.0726 9.36297 14.7144C9.36297 14.3563 9.07546 14.0673 8.71919 14.0673H3.22516C2.8689 14.0673 2.58138 14.3563 2.58138 14.7144C2.58138 15.0726 2.87515 15.3616 3.22516 15.3616ZM3.22516 17.9376H12.2444C12.6006 17.9376 12.8882 17.6486 12.8882 17.2905C12.8882 16.9323 12.6006 16.6433 12.2444 16.6433H3.22516C2.8689 16.6433 2.58138 16.9323 2.58138 17.2905C2.58138 17.6486 2.87515 17.9376 3.22516 17.9376ZM3.22516 20.5199H15.7695C16.1258 20.5199 16.4133 20.2309 16.4133 19.8728C16.4133 19.5147 16.1258 19.2256 15.7695 19.2256H3.22516C2.8689 19.2256 2.58138 19.5147 2.58138 19.8728C2.58138 20.2309 2.87515 20.5199 3.22516 20.5199ZM3.22516 23.096H15.7695C16.1258 23.096 16.4133 22.807 16.4133 22.4488C16.4133 22.0907 16.1258 21.8017 15.7695 21.8017H3.22516C2.8689 21.8017 2.58138 22.0907 2.58138 22.4488C2.58138 22.807 2.87515 23.096 3.22516 23.096Z" fill="url(#paint0_linear)"/>
<defs>
<linearGradient id="paint0_linear" x1="-2.56" y1="31" x2="35.6472" y2="28.0992" gradientUnits="userSpaceOnUse">
<stop stop-color="#4E89E2"/>
<stop offset="1" stop-color="#FCD60D"/>
</linearGradient>
</defs>
</svg>
