<svg width="69" height="68" viewBox="0 0 69 68" fill="none" xmlns="http://www.w3.org/2000/svg">
<path d="M0.23194 55.08L3.23527 59.0892L0.0902736 66.4133C-0.0938931 66.8525 0.00527358 67.3767 0.373607 67.7025C0.586107 67.9008 0.855274 68 1.13861 68C1.32277 68 1.50694 67.9575 1.69111 67.8583L24.3578 55.3917C24.7261 55.1933 24.9386 54.8108 24.9386 54.4C24.9386 53.9892 24.7119 53.6067 24.3578 53.4083L1.69111 40.9417C1.26611 40.715 0.74194 40.7717 0.387774 41.0975C0.0336069 41.4233 -0.0797264 41.9333 0.10444 42.3867L3.24944 49.7108L0.23194 53.72C-0.0655597 54.1167 -0.0655597 54.6833 0.23194 55.08ZM5.36027 59.9108L15.9994 57.4033L3.47611 64.2883L5.36027 59.9108ZM15.9994 51.3967L5.36027 48.8892L3.47611 44.5117L15.9994 51.3967ZM5.00611 51.1417L18.8611 54.4L5.00611 57.6583L2.55527 54.4L5.00611 51.1417ZM49.8719 0C40.2528 0 32.3903 7.53667 31.7953 17H28.8061L25.7319 13.9258L24.1311 15.5267L25.5903 16.9858H20.9719C14.4128 16.9858 9.07194 22.3267 9.07194 28.8858C9.07194 35.445 14.4128 40.7858 20.9719 40.7858H33.5378L36.6119 43.86L38.2128 42.2592L36.7394 40.8H58.3719C61.8144 40.8 64.6053 43.5908 64.6053 47.0333C64.6053 50.4758 61.8144 53.2667 58.3719 53.2667H48.0728L44.9986 50.1925L43.3978 51.7933L44.8569 53.2525H27.2053V55.5192H44.8711L43.4119 56.9783L45.0128 58.5792L48.0869 55.505H58.3719C63.0611 55.505 66.8719 51.6942 66.8719 47.005C66.8719 42.3158 63.0611 38.505 58.3719 38.505H36.7394L38.1986 37.0458L36.5978 35.445L33.5378 38.5333H20.9719C15.6594 38.5333 11.3386 34.2125 11.3386 28.9C11.3386 23.5875 15.6594 19.2667 20.9719 19.2667H25.6044L24.1453 20.7258L25.7461 22.3267L28.8203 19.2525H31.8094C32.4044 28.7158 40.2669 36.2525 49.8861 36.2525C59.8878 36.2525 68.0194 28.1208 68.0194 18.1192C68.0194 8.1175 59.8736 0 49.8719 0ZM49.8719 34C41.4994 34 34.6428 27.4833 34.0619 19.2667H37.4619C38.0428 25.6133 43.3836 30.6 49.8719 30.6C56.7428 30.6 62.3386 25.0042 62.3386 18.1333C62.3386 11.2625 56.7428 5.66667 49.8719 5.66667C43.3836 5.66667 38.0428 10.6533 37.4619 17H34.0619C34.6428 8.78333 41.4994 2.26667 49.8719 2.26667C58.6269 2.26667 65.7386 9.37833 65.7386 18.1333C65.7386 26.8883 58.6269 34 49.8719 34ZM47.2794 22.3408L50.6794 18.9408C51.1186 18.5017 51.1186 17.7792 50.6794 17.34L47.2794 13.94L45.6786 15.5408L47.1378 17H39.7428C40.3094 11.9142 44.6303 7.93333 49.8719 7.93333C55.4961 7.93333 60.0719 12.5092 60.0719 18.1333C60.0719 23.7575 55.4961 28.3333 49.8719 28.3333C44.6303 28.3333 40.3094 24.3525 39.7428 19.2667H47.1378L45.6786 20.7258L47.2794 22.3408ZM56.6719 18.1333C56.6719 14.3792 53.6261 11.3333 49.8719 11.3333V13.6C52.3653 13.6 54.4053 15.64 54.4053 18.1333C54.4053 20.6267 52.3653 22.6667 49.8719 22.6667V24.9333C53.6261 24.9333 56.6719 21.8875 56.6719 18.1333Z" fill="url(#paint0_linear)"/>
<defs>
<linearGradient id="paint0_linear" x1="-5.44156" y1="68" x2="75.8003" y2="62.023" gradientUnits="userSpaceOnUse">
<stop stop-color="#4E89E2"/>
<stop offset="1" stop-color="#FCD60D"/>
</linearGradient>
</defs>
</svg>
