<svg width="355" height="40" viewBox="0 0 355 40" fill="none" xmlns="http://www.w3.org/2000/svg">
<path d="M51.0999 8C44.8999 8 40.4999 11.3 40.4999 16C40.4999 19.5 43.5999 21.4 45.9999 22.6C48.4999 23.8 49.2999 24.5 49.2999 25.6C49.2999 27.2 47.2999 28 45.4999 28C42.9999 28 41.5999 27.6 39.5999 26.7L38.7999 26.3L37.8999 31.7C39.3999 32.4 42.0999 33 44.8999 33C51.4999 33 55.7999 29.7 55.7999 24.7C55.7999 21.9 54.0999 19.8 50.4999 18.1C48.2999 17 46.9999 16.2 46.9999 15.1C46.9999 14.1 48.0999 13 50.5999 13C52.6999 13 54.0999 13.4 55.2999 13.9L55.8999 14.2L56.7999 9C55.4999 8.5 53.5999 8 51.0999 8ZM31.5999 8.4L27.6999 32.6H33.9999L37.8999 8.4H31.5999ZM22.3999 8.4L16.2999 25L15.5999 21.6C14.0999 17.5 10.6999 13.2 6.8999 11.4L12.4999 32.6H19.1999L29.0999 8.4H22.3999ZM68.0999 8.4C66.5999 8.4 65.4999 8.8 64.7999 10.4L55.4999 32.6H61.9999C61.9999 32.6 63.0999 29.6 63.2999 29C63.9999 29 70.3999 29 71.3999 29C71.5999 29.8 72.1999 32.6 72.1999 32.6H77.9999L72.8999 8.4H68.0999ZM68.4999 15L68.8999 17.1C68.8999 17.1 70.0999 22.9 70.3999 24.1H65.1999C65.6999 22.7 67.6999 17.3 67.6999 17.3C67.5999 17.4 68.1999 15.9 68.4999 15Z" fill="#E3E3E3"/>
<path d="M10.2 8.80005H0.1L0 9.20005C7.9 11.2 13.1 16 15.3 21.7L13.1 10.8C12.7 9.30005 11.6 8.80005 10.2 8.80005Z" fill="#E3E3E3"/>
<path fill-rule="evenodd" clip-rule="evenodd" d="M121.5 31H133.8V9H121.5V31Z" fill="#E3E3E3"/>
<path fill-rule="evenodd" clip-rule="evenodd" d="M127.7 9C125.3 7.1 122.3 6 119 6C111.3 6 105 12.3 105 20C105 27.7 111.3 34 119 34C122.3 34 125.3 32.9 127.7 31C124.4 28.4 122.4 24.5 122.4 20C122.4 15.5 124.4 11.6 127.7 9Z" fill="#E3E3E3"/>
<mask id="mask0" mask-type="alpha" maskUnits="userSpaceOnUse" x="127" y="6" width="24" height="28">
<path fill-rule="evenodd" clip-rule="evenodd" d="M150.256 6H127.656V34H150.256V6Z" fill="#E3E3E3"/>
</mask>
<g mask="url(#mask0)">
<path fill-rule="evenodd" clip-rule="evenodd" d="M149.855 28.7V28.2H149.755L149.555 28.5L149.355 28.1H149.255V28.6H149.355V28.2L149.555 28.6H149.655L149.855 28.2V28.7ZM148.955 28.7V28.2H149.155V28.1H148.655V28.2H148.855L148.955 28.7ZM150.255 20C150.255 27.7 143.955 34 136.255 34C132.955 34 129.955 32.9 127.555 31C130.855 28.4 132.855 24.5 132.855 20C132.855 15.5 130.755 11.6 127.555 9C129.955 7.1 132.955 6 136.255 6C144.055 6 150.255 12.3 150.255 20Z" fill="#E3E3E3"/>
</g>
<mask id="mask1" mask-type="alpha" maskUnits="userSpaceOnUse" x="159" y="11" width="106" height="15">
<path fill-rule="evenodd" clip-rule="evenodd" d="M264.745 25.0444V11.6444H159.645V25.0444H264.745Z" fill="#E3E3E3"/>
</mask>
<g mask="url(#mask1)">
<path fill-rule="evenodd" clip-rule="evenodd" d="M178.244 20.0444C178.244 18.4444 179.344 17.0444 181.044 17.0444C182.744 17.0444 183.844 18.3444 183.844 20.0444C183.844 21.7444 182.744 23.0444 181.044 23.0444C179.344 23.0444 178.244 21.7444 178.244 20.0444ZM185.844 20.0444V15.4444H183.844V16.5444C183.244 15.7444 182.244 15.1444 180.944 15.1444C178.344 15.1444 176.244 17.1444 176.244 20.0444C176.244 22.8444 178.244 24.9444 180.944 24.9444C182.244 24.9444 183.244 24.4444 183.844 23.5444V24.6444H185.844V20.0444ZM254.244 20.0444C254.244 18.4444 255.344 17.0444 257.044 17.0444C258.744 17.0444 259.844 18.3444 259.844 20.0444C259.844 21.7444 258.744 23.0444 257.044 23.0444C255.244 23.0444 254.244 21.7444 254.244 20.0444ZM264.044 24.2444V24.4444H264.144H264.244C264.244 24.4444 264.244 24.4444 264.244 24.3444C264.244 24.3444 264.244 24.3444 264.244 24.2444C264.244 24.2444 264.244 24.2444 264.144 24.2444H264.044ZM264.144 24.1444C264.244 24.1444 264.244 24.1444 264.344 24.1444L264.444 24.2444V24.3444C264.444 24.3444 264.344 24.3444 264.344 24.4444L264.544 24.6444H264.444L264.244 24.4444H264.144V24.6444H264.044V24.1444H264.144ZM264.144 24.9444C264.244 24.9444 264.244 24.9444 264.344 24.9444C264.444 24.9444 264.444 24.8444 264.444 24.8444L264.544 24.7444C264.544 24.7444 264.544 24.6444 264.544 24.5444C264.544 24.4444 264.544 24.4444 264.544 24.3444C264.544 24.2444 264.444 24.2444 264.444 24.2444L264.344 24.1444C264.244 24.1444 264.244 24.1444 264.144 24.1444C264.044 24.1444 264.044 24.1444 263.944 24.1444C263.844 24.1444 263.844 24.2444 263.844 24.2444L263.744 24.3444C263.744 24.4444 263.744 24.4444 263.744 24.5444C263.744 24.6444 263.744 24.6444 263.744 24.7444C263.744 24.8444 263.844 24.8444 263.844 24.8444L263.944 24.9444C263.944 24.9444 264.044 24.9444 264.144 24.9444ZM264.144 23.8444C264.244 23.8444 264.344 23.8444 264.344 23.8444C264.444 23.8444 264.444 23.9444 264.544 23.9444C264.644 24.0444 264.644 24.0444 264.644 24.1444C264.644 24.2444 264.644 24.2444 264.644 24.3444C264.644 24.4444 264.644 24.5444 264.644 24.5444C264.644 24.6444 264.544 24.6444 264.544 24.7444C264.444 24.8444 264.444 24.8444 264.344 24.8444C264.244 24.8444 264.144 24.8444 264.144 24.8444C264.044 24.8444 263.944 24.8444 263.944 24.8444C263.844 24.8444 263.844 24.7444 263.744 24.7444C263.644 24.6444 263.644 24.6444 263.644 24.5444C263.644 24.4444 263.644 24.4444 263.644 24.3444C263.644 24.2444 263.644 24.1444 263.644 24.1444C263.644 24.0444 263.744 24.0444 263.744 23.9444C263.844 23.8444 263.844 23.8444 263.944 23.8444C263.944 23.8444 264.044 23.8444 264.144 23.8444ZM261.744 20.0444V11.6444H259.744V16.5444C259.144 15.7444 258.144 15.1444 256.844 15.1444C254.244 15.1444 252.144 17.1444 252.144 20.0444C252.144 22.8444 254.144 24.9444 256.844 24.9444C258.144 24.9444 259.144 24.4444 259.744 23.5444V24.6444H261.744V20.0444ZM210.944 16.9444C212.244 16.9444 213.044 17.7444 213.344 19.2444H208.444C208.644 17.9444 209.444 16.9444 210.944 16.9444ZM210.944 15.1444C208.244 15.1444 206.344 17.1444 206.344 20.0444C206.344 23.0444 208.344 24.9444 211.144 24.9444C212.544 24.9444 213.844 24.5444 214.944 23.6444L213.944 22.1444C213.144 22.7444 212.144 23.1444 211.244 23.1444C209.944 23.1444 208.744 22.5444 208.444 20.8444H215.344C215.344 20.5444 215.344 20.3444 215.344 20.0444C215.344 17.1444 213.544 15.1444 210.944 15.1444ZM235.444 20.0444C235.444 18.4444 236.544 17.0444 238.244 17.0444C239.944 17.0444 241.044 18.3444 241.044 20.0444C241.044 21.7444 239.944 23.0444 238.244 23.0444C236.444 23.0444 235.444 21.7444 235.444 20.0444ZM242.944 20.0444V15.4444H240.944V16.5444C240.344 15.7444 239.344 15.1444 238.044 15.1444C235.444 15.1444 233.344 17.1444 233.344 20.0444C233.344 22.8444 235.344 24.9444 238.044 24.9444C239.344 24.9444 240.344 24.4444 240.944 23.5444V24.6444H242.944V20.0444ZM223.944 20.0444C223.944 22.8444 225.944 24.9444 228.944 24.9444C230.344 24.9444 231.244 24.6444 232.344 23.8444L231.344 22.2444C230.544 22.7444 229.744 23.0444 228.944 23.0444C227.344 23.0444 226.144 21.8444 226.144 20.0444C226.144 18.2444 227.344 17.0444 228.944 17.0444C229.844 17.0444 230.644 17.3444 231.344 17.8444L232.344 16.2444C231.344 15.4444 230.444 15.1444 228.944 15.1444C225.944 15.1444 223.944 17.2444 223.944 20.0444ZM250.044 15.1444C248.844 15.1444 248.144 15.6444 247.544 16.5444V15.4444H245.544V24.7444H247.544V19.5444C247.544 18.0444 248.244 17.1444 249.544 17.1444C249.944 17.1444 250.344 17.2444 250.844 17.3444L251.544 15.4444C251.044 15.2444 250.444 15.1444 250.044 15.1444ZM195.844 16.1444C194.844 15.5444 193.544 15.1444 192.044 15.1444C189.644 15.1444 188.144 16.2444 188.144 18.1444C188.144 19.6444 189.244 20.6444 191.344 20.8444L192.344 20.9444C193.444 21.1444 193.944 21.3444 193.944 21.9444C193.944 22.6444 193.244 23.0444 191.844 23.0444C190.444 23.0444 189.444 22.6444 188.744 22.0444L187.744 23.6444C188.844 24.4444 190.244 24.8444 191.744 24.8444C194.444 24.8444 195.944 23.5444 195.944 21.8444C195.944 20.2444 194.744 19.3444 192.644 19.0444L191.644 18.9444C190.744 18.8444 190.044 18.6444 190.044 18.0444C190.044 17.3444 190.744 16.9444 191.844 16.9444C193.044 16.9444 194.144 17.3444 194.744 17.7444L195.844 16.1444ZM221.944 15.1444C220.744 15.1444 220.044 15.6444 219.444 16.5444V15.4444H217.444V24.7444H219.444V19.5444C219.444 18.0444 220.144 17.1444 221.444 17.1444C221.844 17.1444 222.244 17.2444 222.744 17.3444L223.344 15.4444C222.944 15.2444 222.344 15.1444 221.944 15.1444ZM204.644 15.4444H201.344V12.5444H199.344V15.4444H197.444V17.3444H199.344V21.5444C199.344 23.7444 200.144 24.9444 202.544 24.9444C203.444 24.9444 204.444 24.6444 205.044 24.2444L204.444 22.5444C203.844 22.9444 203.144 23.0444 202.644 23.0444C201.644 23.0444 201.344 22.4444 201.344 21.4444V17.2444H204.644V15.4444ZM174.344 24.7444V18.8444C174.344 16.6444 172.944 15.1444 170.644 15.1444C169.444 15.1444 168.244 15.5444 167.344 16.8444C166.744 15.8444 165.644 15.1444 164.244 15.1444C163.244 15.1444 162.244 15.4444 161.544 16.5444V15.4444H159.544V24.7444H161.544V19.5444C161.544 17.9444 162.444 17.0444 163.844 17.0444C165.144 17.0444 165.844 17.9444 165.844 19.5444V24.7444H167.844V19.5444C167.844 17.9444 168.744 17.0444 170.144 17.0444C171.544 17.0444 172.144 17.9444 172.144 19.5444V24.7444H174.344Z" fill="#E3E3E3"/>
</g>
<path d="M348.9 0H297.6C297.4 0 297.2 0 297 0C296.8 0 296.6 0 296.4 0C296 0 295.6 0 295.2 0.1C294.8 0.2 294.5 0.3 294.1 0.5C293.7 0.7 293.4 0.9 293.1 1.2C292.8 1.5 292.6 1.8 292.4 2.2C292.3 2.5 292.2 2.8 292.1 3.2C292 3.6 292 4 292 4.4C292 4.6 292 4.8 292 5C292 5.2 292 5.4 292 5.6V34.4C292 34.6 292 34.8 292 35C292 35.2 292 35.4 292 35.5C292 35.9 292 36.3 292.1 36.7C292.2 37.1 292.3 37.5 292.5 37.8C292.7 38.2 292.9 38.5 293.2 38.8C293.5 39.1 293.8 39.3 294.2 39.5C294.6 39.7 294.9 39.8 295.3 39.9C295.6 40 296 40 296.4 40C296.6 40 296.8 40 296.9 40C297.1 40 297.3 40 297.5 40H348.8C349 40 349.2 40 349.4 40C349.6 40 349.8 40 349.9 40C350.3 40 350.7 40 351.1 39.9C351.5 39.8 351.9 39.7 352.2 39.5C352.6 39.3 352.9 39.1 353.2 38.8C353.5 38.5 353.7 38.2 353.9 37.8C354.1 37.4 354.2 37.1 354.3 36.7C354.4 36.3 354.4 35.9 354.4 35.5C354.4 35.3 354.4 35.1 354.4 35C354.4 34.8 354.4 34.6 354.4 34.4V5.6C354.4 5.4 354.4 5.2 354.4 5C354.4 4.8 354.4 4.6 354.4 4.5C354.4 4.1 354.4 3.7 354.3 3.3C354.2 2.9 354.1 2.5 353.9 2.2C353.7 1.8 353.5 1.5 353.2 1.2C352.9 0.9 352.6 0.7 352.2 0.5C351.8 0.3 351.5 0.2 351.1 0.1C350.9 0 350.5 0 350.1 0C349.9 0 349.7 0 349.6 0C349.3 0 349.1 0 348.9 0Z" fill="#E3E3E3"/>
<path d="M348.9 1.30005H349.5C349.7 1.30005 349.8 1.30005 350 1.30005C350.3 1.30005 350.6 1.30005 351 1.40005C351.3 1.50005 351.5 1.50005 351.7 1.60005C351.9 1.70005 352.1 1.90005 352.3 2.00005C352.5 2.20005 352.6 2.40005 352.7 2.60005C352.9 3.00005 353 3.20005 353.1 3.50005C353.2 3.80005 353.2 4.20005 353.2 4.50005C353.2 4.70005 353.2 4.80005 353.2 5.00005C353.2 5.20005 353.2 5.40005 353.2 5.60005V34.4001C353.2 34.6001 353.2 34.8 353.2 35C353.2 35.2001 353.2 35.3 353.2 35.5C353.2 35.8 353.2 36.2001 353.1 36.5C353.1 36.8 353 37 352.9 37.2001C352.8 37.4001 352.6 37.6 352.5 37.8C352.3 38 352.1 38.1001 351.9 38.2001C351.7 38.3 351.4 38.4001 351.2 38.4001C350.9 38.5 350.5 38.5 350.2 38.5C350 38.5 349.9 38.5 349.7 38.5C349.5 38.5 349.3 38.5 349.1 38.5H297.6C297.4 38.5 297.2 38.5 297 38.5C296.8 38.5 296.7 38.5 296.5 38.5C296.2 38.5 295.9 38.5 295.5 38.4001C295.2 38.3001 295 38.3 294.8 38.2001C294.6 38.1001 294.4 37.9 294.2 37.8C294 37.6 293.9 37.4001 293.8 37.2001C293.7 37 293.6 36.7001 293.6 36.5C293.5 36.2001 293.5 35.8 293.5 35.5C293.5 35.3 293.5 35.2001 293.5 35V34.5V34.4001V5.60005V5.50005V5.00005C293.5 4.80005 293.5 4.70005 293.5 4.50005C293.5 4.20005 293.5 3.90005 293.6 3.50005C293.5 3.20005 293.6 3.00005 293.7 2.70005C293.8 2.50005 294 2.30005 294.1 2.10005C294.3 1.90005 294.5 1.80005 294.7 1.70005C295 1.60005 295.2 1.50005 295.5 1.40005C295.8 1.30005 296.2 1.30005 296.5 1.30005C296.7 1.30005 296.8 1.30005 297 1.30005H297.6H348.9Z" fill="white"/>
<path d="M309.1 13.5C309.6 12.8 310 11.9 309.9 11C309.1 11 308.2 11.5 307.6 12.2C307.1 12.8 306.7 13.7 306.8 14.6C307.6 14.6 308.5 14.1 309.1 13.5Z" fill="#E3E3E3"/>
<path d="M309.8 14.7001C308.5 14.6001 307.4 15.4001 306.8 15.4001C306.2 15.4001 305.3 14.7001 304.2 14.7001C302.9 14.7001 301.7 15.5001 301 16.6001C299.6 19.0001 300.6 22.5001 302 24.4001C302.6 25.4001 303.4 26.4001 304.5 26.4001C305.5 26.4001 305.9 25.8001 307 25.8001C308.2 25.8001 308.5 26.4001 309.6 26.4001C310.7 26.4001 311.3 25.4001 312 24.5001C312.7 23.4001 313 22.4001 313.1 22.3001C313.1 22.3001 311 21.5001 311 19.2001C311 17.2001 312.6 16.3001 312.7 16.2001C311.8 14.9001 310.3 14.8001 309.8 14.7001Z" fill="#E3E3E3"/>
<path d="M321 12.1C323.8 12.1 325.7 14 325.7 16.8C325.7 19.6 323.7 21.5 320.9 21.5H317.8V26.4H315.6V12.1H321ZM317.8 19.6H320.3C322.2 19.6 323.3 18.6 323.3 16.8C323.3 15 322.2 14 320.3 14H317.7V19.6H317.8Z" fill="#E3E3E3"/>
<path d="M326.3 23.4C326.3 21.6 327.7 20.5 330.2 20.3L333.1 20.1V19.3C333.1 18.1 332.3 17.4 331 17.4C329.8 17.4 329 18 328.8 18.9H326.8C326.9 17 328.5 15.6 331.1 15.6C333.6 15.6 335.2 16.9 335.2 19V26.2H333.1V24.5C332.5 25.7 331.2 26.4 329.8 26.4C327.7 26.5 326.3 25.3 326.3 23.4ZM333 22.5V21.7L330.4 21.9C329.1 22 328.4 22.6 328.4 23.4C328.4 24.3 329.2 24.9 330.3 24.9C331.8 24.8 333 23.8 333 22.5Z" fill="#E3E3E3"/>
<path d="M337 30.2V28.5C337.2 28.5 337.5 28.5 337.7 28.5C338.7 28.5 339.2 28.1 339.6 27L339.8 26.4L336 15.9H338.3L340.9 24.4L343.5 15.9H345.8L341.9 26.9C341 29.4 340 30.2 337.8 30.2C337.7 30.2 337.2 30.2 337 30.2Z" fill="#E3E3E3"/>
</svg>
