<svg width="12" height="16" viewBox="0 0 12 16" fill="none" xmlns="http://www.w3.org/2000/svg">
<path d="M11.5312 3.0625L8.9375 0.4375C8.65625 0.15625 8.25 0 7.875 0H1.5C0.65625 0 0 0.6875 0 1.5V14.5C0 15.3438 0.65625 16 1.5 16H10.5C11.3125 16 12 15.3438 12 14.5V4.125C12 3.75 11.8125 3.34375 11.5312 3.0625ZM10.8438 3.78125C10.9062 3.84375 10.9375 3.9375 10.9688 4H8V1.03125C8.0625 1.0625 8.15625 1.09375 8.21875 1.15625L10.8438 3.78125ZM10.5 15H1.5C1.21875 15 1 14.7812 1 14.5V1.5C1 1.25 1.21875 1 1.5 1H7V4.25C7 4.6875 7.3125 5 7.75 5H11V14.5C11 14.7812 10.75 15 10.5 15ZM9.8125 9.65625C9.375 9.25 8.09375 9.375 7.5 9.46875C6.84375 9.0625 6.40625 8.5 6.09375 7.6875C6.21875 7.125 6.46875 6.21875 6.28125 5.65625C6.15625 4.78125 5.03125 4.875 4.90625 5.4375C4.75 6.03125 4.875 6.84375 5.15625 7.875C4.78125 8.75 4.21875 9.96875 3.84375 10.6562C3.1875 10.9688 2.15625 11.5625 2 12.2812C1.90625 12.8125 2.71875 13.5 3.65625 12.4688C3.9375 12.1875 4.25 11.7188 4.625 11.0625C5.46875 10.7812 6.40625 10.4375 7.1875 10.3125C7.875 10.6875 8.6875 10.9375 9.21875 10.9375C10.0938 10.9375 10.125 10 9.8125 9.65625ZM2.625 12.4375C2.8125 11.9375 3.53125 11.375 3.75 11.1562C3.0625 12.2812 2.625 12.4688 2.625 12.4375ZM5.625 5.5C5.875 5.5 5.84375 6.65625 5.6875 7C5.5 6.46875 5.53125 5.5 5.625 5.5ZM4.71875 10.4688C5.0625 9.84375 5.375 9.125 5.625 8.5C5.9375 9.03125 6.3125 9.46875 6.71875 9.78125C5.96875 9.9375 5.3125 10.25 4.71875 10.4688ZM9.53125 10.2812C9.53125 10.2812 9.34375 10.5 8.15625 10C9.4375 9.90625 9.65625 10.2188 9.53125 10.2812Z" fill="#313131"/>
</svg>
