<svg width="66" height="66" viewBox="0 0 66 66" fill="none" xmlns="http://www.w3.org/2000/svg">
<path d="M3.5 66C1.6 66 0 64.4 0 62.5V24.6C0 22.7 1.6 21.1 3.5 21.1H7.7C8.5 21.1 9.1 21.7 9.1 22.5C9.1 23.3 8.5 23.9 7.7 23.9H3.5C3.1 23.9 2.8 24.2 2.8 24.6V62.5C2.8 62.9 3.1 63.2 3.5 63.2H62.5C62.9 63.2 63.2 62.9 63.2 62.5V24.6C63.2 24.2 62.9 23.9 62.5 23.9H39.3C38.5 23.9 37.9 23.3 37.9 22.5C37.9 21.7 38.5 21.1 39.3 21.1H62.5C64.4 21.1 66 22.7 66 24.6V62.5C66 64.4 64.4 66 62.5 66H3.5ZM21.8 56.2V52C21.8 51.6 22.1 51.3 22.5 51.3C23.3 51.3 23.9 50.7 23.9 49.9V45.7C23.9 45.3 24.2 45 24.6 45C25.4 45 26 44.4 26 43.6V13C26 12.1 26.8 11.3 27.7 11.3C28.6 11.3 29.4 12.1 29.4 13V30.9C29.4 31.7 30 32.3 30.8 32.3C31.6 32.3 32.2 31.7 32.2 30.9V13C32.2 10.5 30.1 8.4 27.6 8.4C27.3 8.4 27 8.4 26.7 8.5H26.6C26.4 8.5 26.3 8.4 26.2 8.3C26.1 8.2 26 8 26 7.8V5.6C26 4.8 25.4 4.2 24.6 4.2C24.2 4.2 23.9 3.9 23.9 3.5V1.4C23.9 0.6 23.3 0 22.5 0H18.3C17.5 0 16.9 0.6 16.9 1.4V3.5C16.9 3.9 16.6 4.2 16.2 4.2C15.4 4.2 14.8 4.8 14.8 5.6V43.5C14.8 44.3 15.4 44.9 16.2 44.9C16.6 44.9 16.9 45.2 16.9 45.6V49.8C16.9 50.6 17.5 51.2 18.3 51.2C18.7 51.2 19 51.5 19 51.9V56.1C19 56.9 19.6 57.5 20.4 57.5C21.1 57.6 21.8 56.9 21.8 56.2ZM22.5 7C22.9 7 23.2 7.3 23.2 7.7V41.4C23.2 41.8 22.9 42.1 22.5 42.1H18.3C17.9 42.1 17.6 41.8 17.6 41.4V7.7C17.6 7.3 17.9 7 18.3 7H22.5ZM56.2 57.6C57 57.6 57.6 57 57.6 56.2C57.6 55.4 57 54.8 56.2 54.8H33C32.2 54.8 31.6 55.4 31.6 56.2C31.6 57 32.2 57.6 33 57.6H56.2ZM37.2 49.2C38 49.2 38.6 48.6 38.6 47.8C38.6 47 38 46.4 37.2 46.4H33C32.2 46.4 31.6 47 31.6 47.8C31.6 48.6 32.2 49.2 33 49.2H37.2ZM37.2 40.7C38 40.7 38.6 40.1 38.6 39.3C38.6 38.5 38 37.9 37.2 37.9H33C32.2 37.9 31.6 38.5 31.6 39.3C31.6 40.1 32.2 40.7 33 40.7H37.2ZM55.8 35V34.2C55.8 31.5 53.7 29.4 51 29.4H49.8C47.1 29.4 45 31.4 45 34.2V36.1H42.5V38.6H45V40H42.5V42.5H45V44.4C45 47.1 47.1 49.2 49.8 49.2H51C53.7 49.2 55.8 47.2 55.8 44.4V43.6L52.8 43.3V44.4C52.8 45.5 52 46.3 50.9 46.3H49.8C48.7 46.3 47.9 45.5 47.9 44.4V42.5H51.8V40H48V38.5H51.9V36H48V34.1C48 33 48.8 32.2 49.9 32.2H51C52.1 32.2 52.9 33 52.9 34.1V35.2L55.8 35Z" fill="url(#paint0_linear)"/>
<defs>
<linearGradient id="paint0_linear" x1="-5.28" y1="66" x2="73.5501" y2="60.2021" gradientUnits="userSpaceOnUse">
<stop stop-color="#4E89E2"/>
<stop offset="1" stop-color="#FCD60D"/>
</linearGradient>
</defs>
</svg>
