<svg width="53" height="55" viewBox="0 0 53 55" fill="none" xmlns="http://www.w3.org/2000/svg">
<path d="M50.4355 28.2148C50.209 27.7633 50.209 27.2474 50.4355 26.7852L52.4957 22.5826C53.6391 20.2394 52.733 17.4555 50.4247 16.241L46.2826 14.0483C45.8404 13.8118 45.5276 13.3926 45.4413 12.8982L44.6323 8.29783C44.1793 5.73969 41.8062 4.00918 39.2174 4.37463L34.5684 5.04104C34.0722 5.11628 33.576 4.95505 33.2093 4.60035L29.8331 1.35431C27.9562 -0.451436 25.0114 -0.451436 23.1346 1.35431L19.7584 4.60035C19.3916 4.95505 18.8954 5.11628 18.3993 5.04104L13.7502 4.38538C11.1614 4.01993 8.78839 5.73969 8.33535 8.30858L7.54792 12.9089C7.46163 13.4034 7.14882 13.8226 6.70657 14.059L2.56451 16.2517C0.256176 17.4663 -0.649899 20.2609 0.493482 22.5933L2.55372 26.796C2.78024 27.2474 2.78024 27.7633 2.55372 28.2255L0.493482 32.4174C-0.649899 34.7606 0.256176 37.5445 2.56451 38.759L6.70657 40.9517C7.14882 41.1882 7.46163 41.6074 7.54792 42.1018L8.35692 46.7022C8.76681 49.0346 10.7731 50.6684 13.0815 50.6684C13.308 50.6684 13.5345 50.6576 13.7718 50.6146L18.4208 49.959C18.917 49.8837 19.4132 50.0449 19.7799 50.3996L23.1562 53.6457C24.0946 54.5486 25.3027 55 26.5 55C27.7081 55 28.9054 54.5486 29.8439 53.6457L33.2201 50.3996C33.5868 50.0449 34.083 49.8837 34.5792 49.959L39.2282 50.6146C41.817 50.9801 44.19 49.2603 44.6431 46.6914L45.4521 42.0911C45.5384 41.5966 45.8512 41.1774 46.2934 40.941L50.4355 38.7483C52.7438 37.5337 53.6499 34.7391 52.5065 32.4067L50.4355 28.2148ZM48.9362 35.9537L44.7941 38.1464C43.4781 38.845 42.572 40.0919 42.3132 41.5536L41.5042 46.154C41.3532 47.0246 40.5442 47.605 39.6705 47.4761L35.0214 46.8204C33.5437 46.6162 32.0767 47.0891 30.998 48.121L27.6218 51.367C26.9854 51.9797 25.993 51.9797 25.3566 51.367L21.9804 48.121C21.0743 47.2503 19.8878 46.7667 18.6473 46.7667C18.4208 46.7667 18.1943 46.7774 17.957 46.8097L13.308 47.4653C12.4343 47.5835 11.6253 47.0031 11.4743 46.1432L10.6653 41.5429C10.4064 40.0704 9.5003 38.8343 8.18433 38.1356L4.04228 35.9429C3.26564 35.5345 2.95283 34.5886 3.34115 33.7932L5.40139 29.5906C6.05937 28.247 6.05937 26.7207 5.40139 25.3772L3.34115 21.1745C2.95283 20.3791 3.26564 19.444 4.04228 19.0248L8.19512 16.8644C9.51109 16.1657 10.4172 14.9189 10.676 13.4571L11.485 8.85675C11.6361 7.98612 12.445 7.40571 13.3188 7.53469L17.9678 8.19035C19.4456 8.39457 20.9125 7.92163 21.9912 6.88978L25.3674 3.64374C26.0038 3.03107 26.9962 3.03107 27.6326 3.64374L31.0088 6.88978C32.0875 7.92163 33.5544 8.40532 35.0322 8.19035L39.6812 7.53469C40.555 7.41645 41.3639 7.99687 41.515 8.85675L42.324 13.4571C42.5828 14.9296 43.4889 16.1657 44.8049 16.8644L48.9469 19.0571C49.7236 19.4655 50.0364 20.4114 49.6481 21.2068L47.5878 25.4094C46.9298 26.753 46.9298 28.2793 47.5878 29.6228L49.6481 33.8255C50.0256 34.5994 49.7128 35.5452 48.9362 35.9537ZM38.128 15.9078C37.5023 15.2843 36.4992 15.2843 35.8736 15.9078L14.8612 36.8566C14.2356 37.48 14.2356 38.4796 14.8612 39.103C15.1741 39.4147 15.584 39.5652 15.9831 39.5652C16.3822 39.5652 16.8028 39.4147 17.1049 39.103L38.128 18.1542C38.7536 17.5308 38.7536 16.5312 38.128 15.9078ZM20.1251 13.2206C16.8999 13.2206 14.2896 15.8325 14.2896 19.0356C14.2896 22.2386 16.9107 24.8505 20.1251 24.8505C23.3395 24.8505 25.9607 22.2386 25.9607 19.0356C25.9607 15.8325 23.3395 13.2206 20.1251 13.2206ZM20.1251 21.6904C18.6581 21.6904 17.4716 20.5081 17.4716 19.0463C17.4716 17.5845 18.6581 16.4022 20.1251 16.4022C21.5921 16.4022 22.7786 17.5845 22.7786 19.0463C22.7786 20.4974 21.5921 21.6904 20.1251 21.6904ZM32.8641 30.1495C29.6389 30.1495 27.0285 32.7614 27.0285 35.9644C27.0285 39.1675 29.6497 41.7794 32.8641 41.7794C36.0893 41.7794 38.6997 39.1675 38.6997 35.9644C38.6997 32.7614 36.0893 30.1495 32.8641 30.1495ZM32.8641 38.6193C31.3971 38.6193 30.2106 37.437 30.2106 35.9752C30.2106 34.5134 31.3971 33.3311 32.8641 33.3311C34.3311 33.3311 35.5176 34.5134 35.5176 35.9752C35.5176 37.437 34.3311 38.6193 32.8641 38.6193Z" fill="url(#paint0_linear)"/>
<defs>
<linearGradient id="paint0_linear" x1="-4.24" y1="55" x2="59.0873" y2="50.5117" gradientUnits="userSpaceOnUse">
<stop stop-color="#4E89E2"/>
<stop offset="1" stop-color="#FCD60D"/>
</linearGradient>
</defs>
</svg>
