<svg width="52" height="76" viewBox="0 0 52 76" fill="none" xmlns="http://www.w3.org/2000/svg">
<path d="M50.8699 61.5719C50.2521 61.5719 49.7398 62.0766 49.7398 62.6852V73.15C49.7398 73.4914 49.4535 73.7586 49.122 73.7586H43.0496V51.8492C43.0496 51.2406 42.5372 50.7359 41.9194 50.7359C41.3017 50.7359 40.7893 51.2406 40.7893 51.8492V73.7734H28.554L32.095 69.9289C32.4868 69.5133 32.6676 68.9047 32.5772 68.3258C32.5772 68.3109 32.5772 68.2961 32.5772 68.2961L29.202 48.6281L30.1061 47.2773C30.6033 47.6336 30.9951 47.975 31.7183 47.975C32.4567 47.975 33.1498 47.5742 33.4964 46.8914L37.0524 39.8555L45.1741 42.9578C45.4604 43.0766 49.7398 44.9766 49.7398 49.9641V57.4898C49.7398 58.0984 50.2521 58.6031 50.8699 58.6031C51.4877 58.6031 52 58.0984 52 57.4898V49.9641C52 43.3883 46.2741 40.9836 46.033 40.8945C46.033 40.8945 46.018 40.8945 46.018 40.8797L32.5019 35.7289V32.6117C34.6416 30.9641 36.1333 28.5297 36.51 25.7539C37.5798 25.6797 38.5743 25.2789 39.388 24.5961C40.4428 23.7055 41.0606 22.3992 41.0606 21.0188C41.0606 19.8758 40.6387 18.7773 39.9003 17.9312V13.8047C39.9003 6.18984 33.6169 0 25.887 0C18.1571 0 11.8737 6.18984 11.8737 13.8047V18.0352C11.1203 18.8813 10.7134 19.9203 10.7134 21.0188C10.7134 22.3992 11.3161 23.7055 12.386 24.5961C13.1997 25.2789 14.1941 25.6797 15.264 25.7539C15.6407 28.5891 17.1776 31.1125 19.4981 32.775V35.7289L5.9971 40.8797C5.9971 40.8797 5.98203 40.8797 5.98203 40.8945C5.72588 40.9836 0 43.3883 0 49.9641V73.15C0 74.7234 1.29586 76 2.87801 76H13.6517C14.2695 76 14.7818 75.4953 14.7818 74.8867C14.7818 74.2781 14.2695 73.7734 13.6517 73.7734H11.2257V51.8492C11.2257 51.2406 10.7134 50.7359 10.0956 50.7359C9.47783 50.7359 8.96552 51.2406 8.96552 51.8492V73.7734H2.87801C2.53144 73.7734 2.26021 73.4914 2.26021 73.1648V49.9641C2.26021 44.9469 6.55462 43.0617 6.81078 42.9578L14.9174 39.8555L18.4886 46.8914C18.8351 47.5594 19.5283 47.975 20.2666 47.975C20.9899 47.975 21.3666 47.6484 21.8789 47.2773L22.783 48.6281L19.4077 68.2961C19.4077 68.3109 19.4077 68.3109 19.4077 68.3258C19.3324 68.9047 19.5132 69.5133 19.8899 69.9289L23.4309 73.7734H18.9105C18.2927 73.7734 17.7804 74.2781 17.7804 74.8867C17.7804 75.4953 18.2927 76 18.9105 76H49.122C50.7192 76 52 74.7234 52 73.1648V62.7C52 62.0766 51.4877 61.5719 50.8699 61.5719ZM34.9429 39.0539L31.6279 45.6148C31.5526 45.5555 29.7896 44.3234 27.6349 42.8242C28.5691 41.6813 27.4691 43.0172 31.7334 37.8367L34.9429 39.0539ZM28.2677 45.9859L27.4089 47.2625H24.5911L23.7323 45.9859L26.0075 44.3977L28.2677 45.9859ZM21.7433 36.0852V34.007C23.1145 34.5563 24.5911 34.8086 26.0226 34.8086C27.4993 34.8086 28.9609 34.4969 30.2567 33.9477V36.1148L25.9925 41.2656L21.7433 36.0852ZM38.7853 21.0039C38.7853 21.7313 38.4688 22.4289 37.9113 22.9039C37.5346 23.2156 37.0977 23.4234 36.6004 23.4977V18.525C37.9113 18.7328 38.7853 19.8016 38.7853 21.0039ZM15.1585 23.4977C13.8476 23.2898 12.9736 22.2211 12.9736 21.0188C12.9736 19.8313 13.9681 18.8664 15.1585 18.5844V23.4977ZM15.2188 16.3133C14.8571 16.3578 14.4503 16.4469 14.1339 16.5508V13.8047C14.1339 7.42188 19.4077 2.22656 25.887 2.22656C32.3663 2.22656 37.6401 7.42188 37.6401 13.8047V16.4766C37.3086 16.3727 36.9771 16.3133 36.6155 16.2836C36.6155 15.2148 36.6305 15.4227 33.0594 11.6375C32.3964 10.9398 31.3115 10.7914 30.4978 11.3258C26.5651 13.8641 21.7583 15.1258 17.3283 14.8141C16.3338 14.7547 15.4448 15.3781 15.2188 16.3133ZM17.4187 24.3734V17.4266V17.0555C22.3008 17.3375 27.4089 15.9125 31.5375 13.3C33.1799 15.0367 34.0539 15.9422 34.3402 16.2836C34.3402 17.1594 34.3402 23.3641 34.3402 24.3586C34.3402 28.8711 30.6033 32.5672 26.0075 32.5672C20.8693 32.582 17.4187 28.6336 17.4187 24.3734ZM20.3721 45.6148L17.0571 39.0539L20.2666 37.8367L24.3651 42.8242C22.2706 44.2789 20.5529 45.4812 20.3721 45.6148ZM21.6679 68.5336L24.9377 49.4891H27.0623L30.3321 68.5336L26.0075 73.2242L21.6679 68.5336Z" fill="url(#paint0_linear)"/>
<defs>
<linearGradient id="paint0_linear" x1="-4.16" y1="76" x2="58.1268" y2="72.8655" gradientUnits="userSpaceOnUse">
<stop stop-color="#4E89E2"/>
<stop offset="1" stop-color="#FCD60D"/>
</linearGradient>
</defs>
</svg>
