<svg width="19" height="19" viewBox="0 0 19 19" fill="none" xmlns="http://www.w3.org/2000/svg">
<path d="M18.1211 1.12891L14.6055 0.285156C14.0781 0.179688 13.5508 0.425781 13.3398 0.917969L11.6875 4.75C11.5117 5.20703 11.6172 5.73438 12.0039 6.01562L13.9023 7.5625C12.707 10.0234 10.7383 11.9922 8.27734 13.1875L6.73047 11.2891C6.44922 10.9023 5.92188 10.7969 5.46484 10.9727L1.63281 12.625C1.17578 12.8359 0.894531 13.3633 1 13.8555L1.84375 17.4062C1.94922 17.8984 2.37109 18.25 2.89844 18.25C11.7578 18.25 19 11.0781 19 2.18359C19 1.65625 18.6484 1.23438 18.1211 1.12891ZM2.93359 17.125L2.125 13.6445L5.88672 12.0273L7.99609 14.5938C11.6172 12.8711 13.5859 10.9023 15.3086 7.28125L12.7422 5.17188L14.3594 1.41016L17.8398 2.21875C17.8398 10.4453 11.1602 17.125 2.93359 17.125Z" fill="url(#paint0_linear)"/>
<defs>
<linearGradient id="paint0_linear" x1="-0.44" y1="18" x2="21.0591" y2="16.4187" gradientUnits="userSpaceOnUse">
<stop stop-color="#4E89E2"/>
<stop offset="1" stop-color="#FCD60D"/>
</linearGradient>
</defs>
</svg>
