<svg width="85" height="50" viewBox="0 0 85 50" fill="none" xmlns="http://www.w3.org/2000/svg">
<path d="M46.1328 46.9766C47.0443 43.3958 48.1185 39.6523 49.3555 35.7461C50.6576 31.7747 52.0573 27.7708 53.5547 23.7344C55.1172 19.6328 56.7122 15.5964 58.3398 11.625C60.0326 7.65365 61.6927 3.84505 63.3203 0.199219H84.707C83.7956 4.10547 82.8516 8.20703 81.875 12.5039C80.9635 16.8008 80.0521 21.0977 79.1406 25.3945C78.2943 29.6914 77.513 33.8581 76.7969 37.8945C76.0807 41.931 75.4622 45.6745 74.9414 49.125H47.5977L46.1328 46.9766ZM0.527344 46.9766C1.4388 43.3958 2.51302 39.6523 3.75 35.7461C5.05208 31.7747 6.45182 27.7708 7.94922 23.7344C9.51172 19.6328 11.1068 15.5964 12.7344 11.625C14.4271 7.65365 16.0872 3.84505 17.7148 0.199219H39.1992C38.2227 4.10547 37.2461 8.20703 36.2695 12.5039C35.3581 16.8008 34.4466 21.0977 33.5352 25.3945C32.6888 29.6914 31.9076 33.8581 31.1914 37.8945C30.4753 41.931 29.8568 45.6745 29.3359 49.125H1.99219L0.527344 46.9766Z" fill="#E3E3E3"/>
</svg>
