<svg width="68" height="69" viewBox="0 0 68 69" fill="none" xmlns="http://www.w3.org/2000/svg">
<path d="M40.8628 12.4575H37.435V8.99655C37.435 8.36205 36.9208 7.84292 36.2924 7.84292H31.7219C31.0935 7.84292 30.5793 8.36205 30.5793 8.99655V12.4575H27.1514C26.523 12.4575 26.0088 12.9766 26.0088 13.6111V18.2256C26.0088 18.8601 26.523 19.3793 27.1514 19.3793H30.5793V22.8402C30.5793 23.4747 31.0935 23.9938 31.7219 23.9938H36.2924C36.9208 23.9938 37.435 23.4747 37.435 22.8402V19.3793H40.8628C41.4913 19.3793 42.0055 18.8601 42.0055 18.2256V13.6111C42.0055 12.9766 41.4913 12.4575 40.8628 12.4575ZM39.7202 17.072H36.2924C35.6639 17.072 35.1498 17.5911 35.1498 18.2256V21.6865H32.8645V18.2256C32.8645 17.5911 32.3503 17.072 31.7219 17.072H28.2941V14.7647H31.7219C32.3503 14.7647 32.8645 14.2456 32.8645 13.6111V10.1502H35.1498V13.6111C35.1498 14.2456 35.6639 14.7647 36.2924 14.7647H39.7202V17.072ZM65.6862 18.6438C65.7148 18.4419 65.7148 18.2401 65.7148 18.0382C65.7005 15.8607 64.1865 13.986 62.087 13.5246C59.6875 13.0631 57.3308 14.5628 56.7167 16.9566L51.6891 31.5645C51.6177 31.5934 51.5463 31.6222 51.4749 31.6655L41.377 37.6355C38.2348 39.4958 36.2924 42.899 36.2924 46.5906V57.4636C35.6639 57.4636 35.1498 57.9828 35.1498 58.6173V67.8464C35.1498 68.4809 35.6639 69 36.2924 69H52.289C52.9175 69 53.4316 68.4809 53.4316 67.8464V58.6173C53.4316 57.9828 52.9175 57.4636 52.289 57.4636V54.9257C52.289 53.9451 52.7032 53.0077 53.4316 52.3444L61.1586 45.4082C62.0013 44.6583 62.6011 43.6777 62.9011 42.5818L67.8429 23.8496C67.9429 23.4603 68 23.0565 68 22.6527C68 20.9944 67.1145 19.4658 65.6862 18.6438ZM58.9019 17.6344C59.1876 16.3942 60.373 15.5867 61.6156 15.7886C62.6725 16.0049 63.4295 16.9566 63.4295 18.0382V18.067C61.33 18.1103 59.5161 19.5523 58.9876 21.6L55.8026 31.5357C55.317 31.305 54.8028 31.1608 54.2743 31.1031L58.9019 17.6344ZM51.1464 66.6783H37.435V59.7565H51.1464V66.6783ZM65.6434 23.2439L60.673 41.9761C60.5016 42.625 60.1445 43.2163 59.6446 43.6633L51.9034 50.5995C50.6894 51.6955 50.0038 53.2673 49.9895 54.9112V57.4492H38.5633V46.5762C38.5776 43.7066 40.0773 41.0676 42.5196 39.6111L52.6032 33.6411C53.6887 33.0066 55.0884 33.3671 55.7312 34.4775C55.7312 34.4775 55.7312 34.4775 55.7312 34.4919C56.0311 35.0254 56.1168 35.6599 55.9597 36.2512C55.8026 36.8424 55.4169 37.3471 54.8885 37.65L48.347 41.4714C47.8185 41.8175 47.6614 42.5241 47.9899 43.0576C48.3041 43.5623 48.9611 43.7354 49.4896 43.4614L56.0311 39.64C57.088 39.0343 57.8593 38.0249 58.1735 36.8424C58.4877 35.6599 58.3163 34.4054 57.7164 33.3527L57.645 33.2517L61.1729 22.2634C61.4585 21.0232 62.644 20.2157 63.8866 20.4175C64.9435 20.6339 65.7005 21.5856 65.7005 22.6671C65.729 22.8546 65.7005 23.0565 65.6434 23.2439ZM31.7219 57.4492V46.5762C31.7219 42.899 29.7795 39.4958 26.6373 37.6211L16.5394 31.6366C16.468 31.6078 16.3966 31.579 16.3251 31.5501L11.3262 17.0287C10.7263 14.6061 8.35539 13.0631 5.92733 13.5246C3.81348 13.986 2.29952 15.8607 2.29952 18.0382C2.29952 18.2401 2.3138 18.4419 2.32808 18.6438C0.899811 19.4658 0.0142827 20.9944 0 22.6527C0 23.0565 0.0571309 23.4603 0.142827 23.8496L5.11321 42.5673C5.39887 43.6633 5.99874 44.6583 6.8557 45.4082L14.5684 52.3444C15.2968 53.0077 15.7253 53.9451 15.7253 54.9257V57.4636C15.0968 57.4636 14.5827 57.9828 14.5827 58.6173V67.8464C14.5827 68.4809 15.0968 69 15.7253 69H31.7219C32.3503 69 32.8645 68.4809 32.8645 67.8464V58.6173C32.8645 57.9684 32.3503 57.4492 31.7219 57.4492ZM4.57047 18.0382C4.57047 16.9566 5.32745 16.0193 6.37009 15.7886C7.65553 15.6011 8.85528 16.4375 9.14094 17.7209L13.74 31.0887C13.2115 31.1463 12.6973 31.2906 12.2117 31.5213L9.04096 21.6433C8.5125 19.5812 6.68431 18.1103 4.57047 18.0526V18.0382ZM16.0823 50.5995L8.35539 43.6633C7.85549 43.2163 7.49842 42.625 7.32703 41.9617L2.35665 23.2439C2.3138 23.0421 2.28523 22.8402 2.28523 22.6383C2.28523 21.5568 3.04222 20.6194 4.08486 20.3887C5.35602 20.2012 6.55577 21.0232 6.84142 22.2922L10.355 33.2229L10.2836 33.3238C9.68368 34.3765 9.51229 35.6455 9.82651 36.8136C10.1407 37.9961 10.912 39.0055 11.9689 39.6111L18.5104 43.4326C19.0674 43.721 19.753 43.5047 20.0529 42.9423C20.3243 42.4087 20.1529 41.7598 19.653 41.4281L13.1115 37.6067C12.5831 37.3039 12.1974 36.7992 12.0403 36.2079C11.8832 35.6167 11.9689 34.9822 12.2689 34.4486C12.8973 33.3383 14.297 32.9633 15.3825 33.5978L25.4804 39.5679C27.9227 41.0243 29.4224 43.6777 29.4367 46.533V57.406H18.0105V54.868C18.0105 53.2673 17.3106 51.6955 16.0823 50.5995ZM30.5793 66.6783H16.8679V59.7565H30.5793V66.6783ZM50.1752 3.387C45.719 -1.12659 38.4919 -1.12659 34.0214 3.37258L34.0071 3.387C29.5509 -1.12659 22.3239 -1.12659 17.8677 3.37258L17.8534 3.387C13.3972 7.88618 13.3972 15.1829 17.8534 19.6965L33.2073 35.1985C33.6501 35.6455 34.3785 35.6455 34.8213 35.1985L50.1752 19.6965C54.6171 15.1829 54.6171 7.88618 50.1752 3.387ZM34.0071 32.747L19.4531 18.0526C15.8824 14.4475 15.8967 8.6072 19.4673 5.00209C21.1813 3.27164 23.5093 2.30547 25.9231 2.30547C28.3512 2.29105 30.6793 3.27164 32.3789 5.01651L33.193 5.83848C33.6358 6.28551 34.3642 6.28551 34.807 5.83848L35.6211 5.01651C39.1775 1.4114 44.962 1.4114 48.5327 5.00209L48.5469 5.01651C52.1176 8.62162 52.1176 14.4619 48.5469 18.0526L34.0071 32.747Z" fill="url(#paint0_linear)"/>
<defs>
<linearGradient id="paint0_linear" x1="-5.44" y1="69" x2="75.7914" y2="63.112" gradientUnits="userSpaceOnUse">
<stop stop-color="#4E89E2"/>
<stop offset="1" stop-color="#FCD60D"/>
</linearGradient>
</defs>
</svg>
