<svg width="32" height="34" viewBox="0 0 32 34" fill="none" xmlns="http://www.w3.org/2000/svg">
<path d="M30.4516 17.4419C30.3149 17.1628 30.3149 16.8439 30.4516 16.5581L31.6955 13.9601C32.3859 12.5116 31.8388 10.7907 30.4451 10.0399L27.9442 8.68439C27.6772 8.53821 27.4884 8.27907 27.4363 7.97342L26.9478 5.12957C26.6743 3.54817 25.2415 2.47841 23.6784 2.70432L20.8715 3.11628C20.5719 3.16279 20.2723 3.06312 20.0509 2.84385L18.0124 0.837209C16.8792 -0.27907 15.1013 -0.27907 13.968 0.837209L11.9296 2.84385C11.7082 3.06312 11.4086 3.16279 11.109 3.11628L8.30202 2.71096C6.73898 2.48505 5.3062 3.54817 5.03266 5.13621L4.55724 7.98007C4.50514 8.28572 4.31627 8.54485 4.04925 8.69103L1.54838 10.0465C0.154672 10.7973 -0.392392 12.5249 0.297951 13.9668L1.54187 16.5648C1.67864 16.8439 1.67864 17.1628 1.54187 17.4485L0.297951 20.0399C-0.392392 21.4884 0.154672 23.2093 1.54838 23.9601L4.04925 25.3156C4.31627 25.4618 4.50514 25.7209 4.55724 26.0266L5.04569 28.8704C5.29317 30.3123 6.50453 31.3223 7.89824 31.3223C8.035 31.3223 8.17177 31.3156 8.31505 31.289L11.122 30.8837C11.4216 30.8372 11.7212 30.9369 11.9426 31.1561L13.9811 33.1628C14.5477 33.7209 15.2771 34 16 34C16.7294 34 17.4523 33.7209 18.0189 33.1628L20.0574 31.1561C20.2788 30.9369 20.5784 30.8372 20.878 30.8837L23.685 31.289C25.248 31.515 26.6808 30.4518 26.9543 28.8638L27.4428 26.0199C27.4949 25.7143 27.6837 25.4552 27.9508 25.309L30.4516 23.9535C31.8453 23.2027 32.3924 21.4751 31.702 20.0332L30.4516 17.4419ZM29.5464 22.2259L27.0455 23.5814C26.2509 24.0133 25.7039 24.7841 25.5476 25.6877L25.0591 28.5316C24.9679 29.0698 24.4795 29.4286 23.952 29.3488L21.145 28.9435C20.2528 28.8173 19.3671 29.1096 18.7158 29.7475L16.6773 31.7542C16.2931 32.1329 15.6939 32.1329 15.3097 31.7542L13.2712 29.7475C12.7241 29.2093 12.0077 28.9103 11.2588 28.9103C11.122 28.9103 10.9852 28.9169 10.842 28.9369L8.035 29.3422C7.50748 29.4153 7.01903 29.0565 6.92785 28.5249L6.4394 25.6811C6.2831 24.7708 5.73603 24.0066 4.94149 23.5748L2.44062 22.2193C1.97171 21.9668 1.78284 21.3821 2.0173 20.8904L3.26122 18.2924C3.65849 17.4618 3.65849 16.5183 3.26122 15.6877L2.0173 13.0897C1.78284 12.598 1.97171 12.0199 2.44062 11.7608L4.948 10.4252C5.74254 9.99336 6.28961 9.22259 6.44591 8.31894L6.93436 5.47508C7.02554 4.93688 7.51399 4.57807 8.04152 4.65781L10.8485 5.06312C11.7407 5.18937 12.6264 4.89701 13.2777 4.25914L15.3162 2.25249C15.7004 1.87375 16.2996 1.87375 16.6838 2.25249L18.7223 4.25914C19.3736 4.89701 20.2593 5.19601 21.1515 5.06312L23.9585 4.65781C24.486 4.58472 24.9745 4.94352 25.0656 5.47508L25.5541 8.31894C25.7104 9.22924 26.2575 9.99336 27.052 10.4252L29.5529 11.7807C30.0218 12.0332 30.2106 12.6179 29.9762 13.1096L28.7323 15.7076C28.335 16.5382 28.335 17.4817 28.7323 18.3123L29.9762 20.9103C30.2041 21.3887 30.0153 21.9734 29.5464 22.2259ZM23.0207 9.83389C22.6429 9.44851 22.0372 9.44851 21.6595 9.83389L8.97283 22.7841C8.59509 23.1694 8.59509 23.7874 8.97283 24.1728C9.1617 24.3654 9.40918 24.4585 9.65015 24.4585C9.89112 24.4585 10.1451 24.3654 10.3275 24.1728L23.0207 11.2226C23.3984 10.8372 23.3984 10.2193 23.0207 9.83389ZM12.151 8.17276C10.2037 8.17276 8.62766 9.78738 8.62766 11.7674C8.62766 13.7475 10.2102 15.3621 12.151 15.3621C14.0918 15.3621 15.6744 13.7475 15.6744 11.7674C15.6744 9.78738 14.0918 8.17276 12.151 8.17276ZM12.151 13.4086C11.2653 13.4086 10.5489 12.6777 10.5489 11.7741C10.5489 10.8704 11.2653 10.1395 12.151 10.1395C13.0367 10.1395 13.7531 10.8704 13.7531 11.7741C13.7531 12.6711 13.0367 13.4086 12.151 13.4086ZM19.8425 18.6379C17.8952 18.6379 16.3191 20.2525 16.3191 22.2326C16.3191 24.2126 17.9017 25.8272 19.8425 25.8272C21.7898 25.8272 23.3658 24.2126 23.3658 22.2326C23.3658 20.2525 21.7898 18.6379 19.8425 18.6379ZM19.8425 23.8738C18.9568 23.8738 18.2404 23.1429 18.2404 22.2392C18.2404 21.3355 18.9568 20.6047 19.8425 20.6047C20.7282 20.6047 21.4446 21.3355 21.4446 22.2392C21.4446 23.1429 20.7282 23.8738 19.8425 23.8738Z" fill="url(#paint0_linear)"/>
<defs>
<linearGradient id="paint0_linear" x1="-2.56" y1="34" x2="35.6841" y2="31.3526" gradientUnits="userSpaceOnUse">
<stop stop-color="#4E89E2"/>
<stop offset="1" stop-color="#FCD60D"/>
</linearGradient>
</defs>
</svg>
