<svg width="14" height="14" viewBox="0 0 14 14" fill="none" xmlns="http://www.w3.org/2000/svg">
<path d="M13.5312 3.0625L10.9375 0.46875C10.6562 0.1875 10.2812 0 9.875 0H1.5C0.65625 0 0 0.6875 0 1.5V12.5C0 13.3438 0.65625 14 1.5 14H12.5C13.3125 14 14 13.3438 14 12.5V4.125C14 3.71875 13.8125 3.34375 13.5312 3.0625ZM9 1V4H3V1H9ZM13 12.5C13 12.7812 12.75 13 12.5 13H1.5C1.21875 13 1 12.7812 1 12.5V1.5C1 1.25 1.21875 1 1.5 1H2V4.25C2 4.6875 2.3125 5 2.75 5H9.25C9.65625 5 10 4.6875 10 4.25V1.03125C10.0625 1.0625 10.1562 1.09375 10.2188 1.15625L12.8438 3.78125C12.9375 3.875 13 4 13 4.125V12.5ZM7 6.25C5.46875 6.25 4.25 7.5 4.25 9C4.25 10.5312 5.46875 11.75 7 11.75C8.5 11.75 9.75 10.5312 9.75 9C9.75 7.5 8.5 6.25 7 6.25ZM7 10.75C6.03125 10.75 5.25 9.96875 5.25 9C5.25 8.0625 6.03125 7.25 7 7.25C7.9375 7.25 8.75 8.0625 8.75 9C8.75 9.96875 7.9375 10.75 7 10.75Z" fill="#313131"/>
</svg>
