<svg width="60" height="60" viewBox="0 0 60 60" fill="none" xmlns="http://www.w3.org/2000/svg">
<path d="M56.9231 0H3.07692C1.31868 0 0 1.54412 0 3.08824V46.7647C0 48.5294 1.31868 49.8529 3.07692 49.8529H20.4396L18.4615 53.8235H14.9451C13.1868 53.8235 11.8681 55.1471 11.8681 56.9118C11.8681 58.6765 13.1868 60 14.9451 60H44.8352C46.5934 60 47.9121 58.6765 47.9121 56.9118C47.9121 55.1471 46.5934 53.8235 44.8352 53.8235H41.5385L39.5604 50.0735H56.9231C58.6813 50.0735 60 48.5294 60 46.9853V3.08824C59.7802 1.54412 58.4615 0 56.9231 0ZM3.07692 1.98529H56.9231C57.5824 1.98529 58.022 2.64706 58.022 3.08824V41.9118H1.97802V3.08824C1.97802 2.64706 2.41758 1.98529 3.07692 1.98529ZM45.9341 57.1324C45.9341 57.7941 45.4945 58.2353 44.8352 58.2353H14.9451C14.2857 58.2353 13.8462 57.7941 13.8462 57.1324C13.8462 56.4706 14.2857 56.0294 14.9451 56.0294H44.8352C45.4945 56.0294 45.9341 56.4706 45.9341 57.1324ZM39.3407 54.0441H20.6593L22.6374 50.0735H37.3626L39.3407 54.0441ZM56.9231 48.0882H3.07692C2.41758 48.0882 1.97802 47.4265 1.97802 46.9853V44.1176H57.8022V46.9853C57.8022 47.4265 57.3626 47.8676 56.9231 48.0882ZM5.93407 39.9265H54.7253C55.3846 39.9265 55.8242 39.4853 55.8242 38.8235C55.8242 38.1618 55.3846 37.7206 54.7253 37.7206H5.93407V4.63235C5.93407 3.97059 5.49451 3.52941 4.83517 3.52941C4.17582 3.52941 3.95604 4.41176 3.95604 5.07353V38.1618C3.95604 39.0441 4.83517 39.9265 5.93407 39.9265ZM9.89011 31.1029V35.0735C9.89011 35.7353 10.3297 36.1765 10.989 36.1765C11.6484 36.1765 12.0879 35.7353 12.0879 35.0735V31.1029C13.1868 31.1029 14.0659 30.2206 14.0659 29.1176V27.1324C14.0659 26.0294 13.1868 25.1471 12.0879 25.1471V20.9559C12.0879 20.2941 11.6484 19.8529 10.989 19.8529C10.3297 19.8529 9.89011 20.2941 9.89011 20.9559V24.9265C8.79121 24.9265 7.91209 25.8088 7.91209 26.9118V28.8971C7.91209 30.2206 8.79121 31.1029 9.89011 31.1029ZM9.89011 26.9118H11.8681V28.8971H9.89011V26.9118ZM18.9011 31.1029C19.5604 31.1029 20 30.6618 20 30V26.0294C21.0989 26.0294 21.978 25.1471 21.978 24.0441V22.0588C21.978 20.9559 21.0989 20.0735 20 20.0735V16.1029C20 15.4412 19.5604 15 18.9011 15C18.4615 15 18.022 15.4412 18.022 16.1029V20.0735C16.9231 20.0735 16.044 20.9559 16.044 22.0588V24.0441C16.044 25.1471 16.9231 26.0294 18.022 26.0294V30C18.022 30.6618 18.4615 31.1029 18.9011 31.1029ZM18.022 22.0588H20V24.0441H18.022V22.0588ZM26.8132 33.9706C27.4725 33.9706 27.9121 33.5294 27.9121 32.8676V28.8971C29.011 28.8971 29.8901 28.0147 29.8901 26.9118V24.9265C29.8901 23.8235 29.011 22.9412 27.9121 22.9412V18.9706C27.9121 18.3088 27.4725 17.8676 26.8132 17.8676C26.1538 17.8676 25.7143 18.3088 25.7143 18.9706V22.9412C24.6154 22.9412 23.7363 23.8235 23.7363 24.9265V26.9118C23.7363 28.0147 24.6154 28.8971 25.7143 28.8971V33.0882C25.9341 33.5294 26.3736 33.9706 26.8132 33.9706ZM25.9341 24.9265H27.9121V26.9118H25.9341V24.9265ZM34.9451 29.1176C35.6044 29.1176 36.044 28.6765 36.044 28.0147V24.0441C37.1429 24.0441 38.022 23.1618 38.022 22.0588V20.0735C38.022 18.9706 37.1429 18.0882 36.044 18.0882V14.1176C36.044 13.4559 35.6044 13.0147 34.9451 13.0147C34.2857 13.0147 33.8462 13.4559 33.8462 14.1176V18.0882C32.7473 18.0882 31.8681 18.9706 31.8681 20.0735V22.0588C31.8681 23.1618 32.7473 24.0441 33.8462 24.0441V28.0147C33.8462 28.6765 34.2857 29.1176 34.9451 29.1176ZM33.8462 20.0735H35.8242V22.0588H33.8462V20.0735ZM42.8571 33.0882C43.5165 33.0882 43.956 32.6471 43.956 31.9853V28.0147C45.0549 28.0147 45.9341 27.1324 45.9341 26.0294V24.0441C45.9341 22.9412 45.0549 22.0588 43.956 22.0588V18.0882C43.956 17.4265 43.5165 16.9853 42.8571 16.9853C42.1978 16.9853 41.7582 17.4265 41.7582 18.0882V22.0588C40.6593 22.0588 39.7802 22.9412 39.7802 24.0441V26.0294C39.7802 27.1324 40.6593 28.0147 41.7582 28.0147V31.9853C41.978 32.6471 42.4176 33.0882 42.8571 33.0882ZM41.978 24.0441H43.956V26.0294H41.978V24.0441ZM50.7692 14.1176C50.1099 14.1176 49.6703 14.5588 49.6703 15.2206V19.1912C48.5714 19.1912 47.6923 20.0735 47.6923 21.1765V23.1618C47.6923 24.2647 48.5714 25.1471 49.6703 25.1471V29.1176C49.6703 29.7794 50.1099 30.2206 50.7692 30.2206C51.4286 30.2206 51.8681 29.7794 51.8681 29.1176V25.1471C52.967 25.1471 53.8462 24.2647 53.8462 23.1618V20.9559C53.8462 19.8529 52.967 18.9706 51.8681 18.9706V15C51.8681 14.5588 51.4286 14.1176 50.7692 14.1176ZM51.8681 22.9412H49.8901V20.9559H51.8681V22.9412ZM9.01099 16.1029C9.23077 16.1029 9.45055 16.1029 9.45055 15.8824L18.9011 10.1471L25.7143 15.2206C26.3736 15.8824 27.4725 15.6618 28.1319 15.2206L34.9451 9.26471L41.7582 14.3382C42.4176 14.7794 43.2967 14.7794 43.956 14.3382L51.4286 9.70588C51.6484 9.48529 51.8681 9.26471 51.8681 8.82353C51.8681 8.38235 51.6484 8.16176 51.4286 7.94118C51.2088 7.72059 50.7692 7.72059 50.3297 7.94118L42.8571 12.5735L36.044 7.5C35.3846 6.83824 34.2857 7.05882 33.6264 7.5L26.8132 13.4559L20 8.60294C19.3407 8.16177 18.4615 8.16176 17.8022 8.38235L8.35165 14.1176C8.13187 14.3382 7.91209 14.7794 7.91209 15.2206C8.13187 15.6618 8.57143 16.1029 9.01099 16.1029Z" fill="url(#paint0_linear)"/>
<defs>
<linearGradient id="paint0_linear" x1="-4.8" y1="60" x2="66.8637" y2="54.7292" gradientUnits="userSpaceOnUse">
<stop stop-color="#4E89E2"/>
<stop offset="1" stop-color="#FCD60D"/>
</linearGradient>
</defs>
</svg>
