<svg width="113" height="88" viewBox="0 0 113 88" fill="none" xmlns="http://www.w3.org/2000/svg">
<path d="M30.4408 38.168H7.26429V35.5696H30.4408V38.168ZM23.926 40.9396H7.20663V43.5381H23.926V40.9396ZM38.224 29.4488H25.4827V32.0472H38.224V29.4488ZM56.5 29.4488H43.7587V32.0472H56.5V29.4488ZM74.7184 29.4488H61.977V32.0472H74.7184V29.4488ZM60.7087 61.7848C60.7087 58.9554 61.1699 56.1837 62.0347 53.6431H5.53469C2.47908 53.6431 0 51.1601 0 48.0997V5.54331C0 2.48294 2.47908 0 5.53469 0H75.9867C79.0424 0 81.5214 2.48294 81.5214 5.54331V36.0892C83.251 35.7428 85.0383 35.5696 86.8255 35.5696C101.239 35.5696 113 47.2913 113 61.7848C113 76.2205 101.296 88 86.8255 88C72.4123 87.9423 60.7087 76.2205 60.7087 61.7848ZM2.59439 48.042C2.59439 49.6588 3.92041 50.9869 5.53469 50.9869H63.0148C66.0704 44.231 71.8357 39.0341 78.927 36.7822V22.9816H2.59439V48.042ZM2.59439 20.3832H78.927V14.8976H2.59439V20.3832ZM2.59439 12.2992H78.927V5.54331C78.927 3.92651 77.601 2.59843 75.9867 2.59843H5.53469C3.92041 2.59843 2.59439 3.92651 2.59439 5.54331V12.2992ZM65.2633 52.315C65.0903 52.7192 64.9174 53.1811 64.7444 53.5853C63.8219 56.126 63.3031 58.8976 63.3031 61.727C63.3031 74.7192 73.8536 85.3438 86.8832 85.3438C99.9128 85.3438 110.463 74.7769 110.463 61.727C110.463 48.7349 99.9128 38.1102 86.8832 38.1102C85.0383 38.1102 83.3087 38.3412 81.5791 38.7454C81.1179 38.8609 80.7143 38.9764 80.3107 39.0919C79.8495 39.2074 79.4459 39.3806 79.0424 39.4961C73.3924 41.5171 68.7225 45.6745 65.9551 50.9869C65.6668 51.4488 65.4362 51.853 65.2633 52.315ZM99.9128 78.8766H73.3923V57.3963H75.9291V53.5853V53.0079C75.9291 52.7769 75.9291 52.5459 75.9867 52.315C76.0444 51.853 76.0444 51.4488 76.1597 50.9869C76.5633 48.9081 77.5434 47.0604 78.9847 45.6168C79.3883 45.2126 79.7918 44.8084 80.2531 44.4619C80.6566 44.1732 81.1179 43.8845 81.5791 43.5958C83.0781 42.7297 84.8653 42.2677 86.7102 42.2677C92.6485 42.2677 97.4337 47.0604 97.4337 53.0079V57.3963H99.9704V78.8766H99.9128ZM78.5235 57.3963H94.7816V53.0079C94.7816 48.5039 91.1495 44.8661 86.6526 44.8661C84.6924 44.8661 82.9051 45.5591 81.5214 46.7139C81.0602 47.1181 80.599 47.5801 80.1954 48.042C79.5036 48.9659 78.927 50.063 78.6964 51.2756C78.5811 51.853 78.5235 52.3727 78.5235 53.0079V53.0656V57.3963ZM97.3184 59.9948H75.9867V76.2782H97.3184V59.9948ZM85.3842 69.7533C83.8276 69.2336 82.6745 67.7323 82.6745 66C82.6745 63.8058 84.4617 61.958 86.7102 61.958C88.901 61.958 90.7459 63.748 90.7459 66C90.7459 67.7323 89.5929 69.2336 88.0362 69.7533V73.0446H86.7679H85.4995V69.7533H85.3842ZM86.6526 64.5564C85.8454 64.5564 85.2112 65.1916 85.2112 66C85.2112 66.8084 85.8454 67.4436 86.6526 67.4436C87.4597 67.4436 88.0939 66.8084 88.0939 66C88.0939 65.1916 87.4597 64.5564 86.6526 64.5564Z" fill="url(#paint0_linear)"/>
<defs>
<linearGradient id="paint0_linear" x1="-9.04" y1="88" x2="125.457" y2="75.2975" gradientUnits="userSpaceOnUse">
<stop stop-color="#4E89E2"/>
<stop offset="1" stop-color="#FCD60D"/>
</linearGradient>
</defs>
</svg>
