<svg width="60" height="53" viewBox="0 0 60 53" fill="none" xmlns="http://www.w3.org/2000/svg">
<path d="M47.6471 41.6584C47.2059 41.2222 46.3235 41.4403 46.1029 41.8765C45.6618 42.3128 45.4412 42.9671 45 43.4033C44.7794 43.6214 44.3382 44.0576 43.8971 44.4938C43.4559 44.93 43.2353 45.5844 43.6765 46.0206C43.8971 46.2387 44.3382 46.4568 44.5588 46.4568C44.7794 46.4568 45 46.4568 45.2206 46.2387C45.6618 45.8025 46.1029 45.3663 46.5441 44.93C46.9853 44.2757 47.6471 43.8395 47.8676 43.1852C48.3088 42.749 48.0882 41.8765 47.6471 41.6584ZM42.5735 46.6749C42.3529 46.0206 41.6912 45.8025 41.0294 46.0206C40.3676 46.2387 40.1471 46.893 40.3676 47.5473C40.5882 47.9835 41.0294 48.2016 41.4706 48.2016C41.6912 48.2016 41.6912 48.2016 41.9118 48.2016C42.5735 47.9835 42.7941 47.3292 42.5735 46.6749ZM56.4706 0H3.52941C1.54412 0 0 1.52675 0 3.48971V35.9877C0 37.7325 1.54412 39.2593 3.52941 39.2593H28.2353C29.3382 43.6214 31.5441 46.6749 33.75 48.6379C36.8382 51.4733 40.1471 53 41.4706 53C42.7941 53 46.3235 51.4733 49.1912 48.6379C51.1765 46.6749 53.6029 43.6214 54.7059 39.2593H56.4706C58.4559 39.2593 60 37.7325 60 35.7696V3.48971C60 1.52675 58.2353 0 56.4706 0ZM52.9412 34.679C52.9412 40.786 50.0735 44.7119 47.6471 47.1111C44.7794 49.9465 41.9118 51.037 41.4706 51.037C41.0294 51.037 38.1618 49.9465 35.2941 47.1111C32.8676 44.7119 30 40.786 30 34.679V29.0082C33.9706 27.9177 37.7206 26.1728 41.4706 24.2099C45 26.1728 48.9706 27.9177 52.9412 29.0082V34.679ZM57.5735 35.9877C57.5735 36.642 57.1324 37.0782 56.4706 37.0782H55.1471C55.1471 36.2058 55.3676 35.5514 55.3676 34.679V28.1358C55.3676 27.6996 54.9265 27.2634 54.4853 27.0453C50.0735 25.7366 45.8824 23.9918 41.9118 21.8107C41.4706 21.5926 41.0294 21.5926 40.8088 21.8107C36.8382 23.9918 32.8676 25.7366 28.4559 27.0453C28.0147 27.2634 27.5735 27.6996 27.5735 28.1358V34.679C27.5735 35.5514 27.5735 36.4239 27.7941 37.0782H3.52941C2.86765 37.0782 2.42647 36.642 2.42647 35.9877V16.358H57.5735V35.9877ZM57.5735 13.9588H2.42647V9.16049H57.5735V13.9588ZM57.5735 6.97942H2.42647V3.48971C2.42647 2.83539 2.86765 2.39918 3.52941 2.39918H56.4706C57.1324 2.39918 57.5735 2.83539 57.5735 3.48971V6.97942ZM14.1176 24.2099C13.4559 24.2099 12.7941 24.428 12.1324 24.6461C11.4706 24.428 10.8088 24.2099 10.1471 24.2099C7.27941 24.2099 4.85294 26.6091 4.85294 29.4444C4.85294 32.2798 7.27941 34.679 10.1471 34.679C10.8088 34.679 11.4706 34.4609 12.1324 34.2428C12.7941 34.4609 13.4559 34.679 14.1176 34.679C16.9853 34.679 19.4118 32.2798 19.4118 29.4444C19.4118 26.6091 16.9853 24.2099 14.1176 24.2099ZM9.92647 32.4979C8.38235 32.4979 7.05882 31.1893 7.05882 29.6626C7.05882 28.1358 8.38235 26.8272 9.92647 26.8272C11.4706 26.8272 12.7941 28.1358 12.7941 29.6626C12.7941 31.1893 11.4706 32.4979 9.92647 32.4979ZM14.3382 32.2798C15 31.4074 15.2206 30.535 15.2206 29.4444C15.2206 28.3539 15 27.4815 14.3382 26.6091C15.8824 26.8272 16.9853 27.9177 16.9853 29.4444C16.9853 30.9712 15.8824 32.2798 14.3382 32.2798ZM11.9118 19.1934H5.95588C5.29412 19.1934 4.63235 19.6296 4.63235 20.284C4.63235 20.9383 5.07353 21.3745 5.73529 21.3745H11.6912C12.3529 21.3745 12.7941 20.9383 12.7941 20.284C13.0147 19.6296 12.5735 19.1934 11.9118 19.1934ZM15.2206 19.1934C14.5588 19.1934 14.1176 19.6296 14.1176 20.284C14.1176 20.9383 14.5588 21.3745 15.2206 21.3745C15.8824 21.3745 16.3235 20.9383 16.3235 20.284C16.5441 19.6296 15.8824 19.1934 15.2206 19.1934ZM47.8676 31.8436C47.4265 31.4074 46.7647 31.4074 46.1029 31.8436L39.9265 37.9506L36.6176 34.8971C36.1765 34.4609 35.5147 34.4609 34.8529 34.8971C34.4118 35.3333 34.4118 35.9877 34.8529 36.642L39.0441 40.786C39.2647 41.0041 39.4853 41.2222 39.9265 41.2222C40.1471 41.2222 40.5882 41.0041 40.8088 40.786L47.8676 33.8066C48.3088 33.1523 48.3088 32.2798 47.8676 31.8436Z" fill="url(#paint0_linear)"/>
<defs>
<linearGradient id="paint0_linear" x1="-4.8" y1="53" x2="66.7553" y2="47.042" gradientUnits="userSpaceOnUse">
<stop stop-color="#4E89E2"/>
<stop offset="1" stop-color="#FCD60D"/>
</linearGradient>
</defs>
</svg>
