<svg width="66" height="66" viewBox="0 0 66 66" fill="none" xmlns="http://www.w3.org/2000/svg">
<path d="M62.5895 0H31.8949C30.1896 0 28.4844 1.45588 28.4844 3.39706V19.4118C20.9325 13.1029 9.97017 14.3162 3.87997 21.8382C-2.21022 29.3603 -0.992184 40.5221 6.55966 46.5882C12.8935 51.6838 22.1506 51.6838 28.4844 46.5882V62.6029C28.4844 64.3015 29.946 66 31.8949 66H62.5895C64.2947 66 66 64.5441 66 62.6029V3.39706C66 1.45588 64.5384 0 62.5895 0ZM57.9609 2.18382L57.4737 4.36765H37.2543L36.5234 2.18382H57.9609ZM17.522 48.2868C8.99574 48.2868 2.17472 41.4926 2.17472 33C2.17472 24.5074 8.99574 17.7132 17.522 17.7132C26.0483 17.7132 32.8693 24.5074 32.8693 33C32.8693 41.25 26.0483 48.2868 17.522 48.2868ZM63.8075 62.3603C63.8075 62.8456 63.3203 63.5735 62.5895 63.5735H31.8949C31.4077 63.5735 30.6768 63.0882 30.6768 62.3603V44.4044C36.5234 37.8529 36.5234 27.9044 30.6768 21.3529V3.39706C30.6768 2.91176 31.1641 2.18382 31.8949 2.18382H34.331L35.3054 5.82353C35.3054 6.30882 35.7926 6.55147 36.2798 6.55147H58.2045C58.6918 6.55147 59.179 6.30882 59.179 5.82353L60.1534 2.18382H62.5895C63.0767 2.18382 63.8075 2.66912 63.8075 3.39706V62.3603ZM25.3175 3.39706H10.9446V1.21324C10.9446 0.485294 10.4574 0 9.97017 0C9.72656 0 9.48296 0 9.23935 0.242647L2.66193 5.82353C2.17472 6.06618 2.17472 6.79412 2.41833 7.27941C2.41833 7.27941 2.41833 7.27941 2.66193 7.52206L9.23935 13.1029C9.48296 13.1029 9.72656 13.1029 9.97017 13.1029C10.2138 13.1029 10.2138 13.1029 10.4574 13.1029C10.701 12.8603 10.9446 12.375 10.9446 12.1324V9.94853H25.3175C25.8047 9.94853 26.5355 9.46323 26.5355 8.73529V4.36765C26.2919 3.88235 25.8047 3.39706 25.3175 3.39706ZM24.0994 7.76471H9.97017C9.48296 7.76471 8.75213 8.25 8.75213 8.97794V9.70588L5.09801 6.55147L8.99574 3.39706V4.36765C8.99574 4.85294 9.48296 5.58088 10.2138 5.58088H24.5866V7.76471H24.0994ZM26.0483 58.2353L19.4709 52.8971C18.9837 52.4118 18.2528 52.6544 18.0092 53.1397C17.7656 53.3824 17.7656 53.625 17.7656 53.8676V55.8088H3.39276C2.90554 55.8088 2.17472 56.2941 2.17472 57.0221V61.3897C2.17472 61.875 2.66193 62.6029 3.39276 62.6029H17.7656V64.7868C17.7656 65.2721 18.0092 65.5147 18.4965 65.7574C18.7401 65.7574 18.7401 65.7574 18.9837 65.7574C19.2273 65.7574 19.4709 65.7574 19.7145 65.5147L26.2919 59.9338C26.5355 59.6912 26.5355 58.9632 26.0483 58.2353C26.0483 58.4779 26.0483 58.2353 26.0483 58.2353ZM19.7145 62.3603V61.3897C19.7145 60.9044 19.2273 60.1765 18.4965 60.1765H4.36719V57.9926H18.7401C19.2273 57.9926 19.9581 57.5074 19.9581 56.7794V55.8088L23.8558 58.9632L19.7145 62.3603ZM8.26492 23.5368C3.14915 28.6324 3.14915 36.8824 8.26492 42.2206L9.72657 40.5221C5.34162 36.1544 5.34162 29.3603 9.72657 24.9926L8.26492 23.5368ZM27.0227 23.5368L25.5611 24.9926C29.946 29.3603 29.946 36.1544 25.5611 40.5221L27.0227 41.9779C32.1385 37.125 32.1385 28.6324 27.0227 23.5368ZM55.5249 26.4485L47.7294 23.0515C47.4858 23.0515 47.2422 23.0515 46.755 23.0515L38.9595 26.4485C38.4723 26.6912 38.2287 26.9338 38.2287 27.4191V31.3015C38.2287 33.2426 38.9595 35.1838 40.4212 36.6397L46.2678 42.4632C46.755 42.9485 47.4858 42.9485 47.7294 42.4632L53.576 36.6397C55.0376 35.1838 55.7685 33.2426 55.7685 31.3015V27.4191C56.0121 26.9338 55.7685 26.4485 55.5249 26.4485ZM53.8196 31.3015C53.8196 32.7574 53.3324 34.2132 52.1143 35.1838L47.2422 40.0368L42.37 35.1838C41.3956 34.2132 40.6648 32.7574 40.6648 31.3015V28.1471L47.2422 25.2353L53.8196 28.1471V31.3015ZM45.7805 31.0588L44.3189 32.5147L46.5114 34.6985C46.9986 35.1838 47.7294 35.1838 47.973 34.6985L52.358 30.3309L50.8963 28.875L47.2422 32.5147L45.7805 31.0588ZM18.4965 26.6912C20.6889 26.6912 21.907 27.4191 22.6378 28.3897C22.8814 28.875 22.8814 29.1176 22.3942 29.3603L21.6634 29.6029C21.1761 29.8456 20.9325 29.8456 20.6889 29.3603C20.6889 29.1176 19.9581 28.3897 18.4965 28.3897C17.0348 28.3897 16.0604 29.1176 16.0604 30.3309V30.5735H20.2017C20.6889 30.5735 20.6889 30.5735 20.6889 31.0588L20.4453 31.5441C20.4453 31.7868 20.2017 32.0294 19.7145 32.0294H15.8168V33H19.2273C19.7145 33 19.7145 33 19.7145 33.4853L19.4709 34.2132C19.4709 34.4559 19.2273 34.6985 18.7401 34.6985H15.8168V34.9412C15.8168 36.1544 16.7912 36.8824 18.2528 36.8824C19.9581 36.8824 20.4453 36.1544 20.4453 35.9118C20.6889 35.4265 20.9325 35.4265 21.4197 35.6691L22.1506 35.9118C22.6378 36.1544 22.6378 36.3971 22.3942 36.8824C21.6634 38.0956 20.4453 38.8235 18.2528 38.8235C15.5732 38.8235 13.8679 37.6103 13.6243 35.1838V34.9412H12.4063C11.919 34.9412 11.919 34.6985 11.919 34.4559L12.1626 33.7279C12.1626 33.4853 12.4063 33.2426 12.8935 33.2426H13.8679V32.2721H13.1371C12.6499 32.2721 12.6499 32.0294 12.6499 31.7868L12.8935 31.3015C12.8935 31.0588 13.1371 30.8162 13.6243 30.8162H13.8679V30.5735C13.8679 28.1471 15.5732 26.6912 18.4965 26.6912Z" fill="url(#paint0_linear)"/>
<defs>
<linearGradient id="paint0_linear" x1="-5.28" y1="66" x2="73.5501" y2="60.2021" gradientUnits="userSpaceOnUse">
<stop stop-color="#4E89E2"/>
<stop offset="1" stop-color="#FCD60D"/>
</linearGradient>
</defs>
</svg>
