<svg width="66" height="66" viewBox="0 0 66 66" fill="none" xmlns="http://www.w3.org/2000/svg">
<path d="M62.5904 0H3.40959C1.46125 0 0 1.45588 0 3.39706V43.6765C0 45.375 1.46125 47.0735 3.40959 47.0735H14.6125C14.6125 47.3162 14.6125 47.3162 14.6125 47.5588L11.9336 52.1691C11.203 53.3824 11.4465 55.0809 12.4207 56.2941L16.3173 60.1765C17.2915 61.1471 18.9963 61.3897 20.4576 60.6618L25.0849 57.9926C25.3284 57.9926 25.572 57.9926 25.572 57.9926C25.8155 57.9926 25.8155 58.2353 26.059 58.4779L27.2768 63.5735C27.7638 65.0294 28.9816 66 30.4428 66H35.8007C37.262 66 38.7232 65.0294 38.9668 63.5735L40.1845 58.4779C40.1845 58.2353 40.428 58.2353 40.6716 57.9926C40.9151 57.9926 41.1587 57.9926 41.1587 57.9926L45.786 60.6618C47.0037 61.3897 48.7085 61.1471 49.9262 60.1765L53.8229 56.2941C54.7971 55.3235 55.0406 53.625 54.31 52.1691L51.1439 47.5588C51.1439 47.3162 51.1439 47.3162 51.1439 47.0735H62.5904C64.2952 47.0735 66 45.6176 66 43.6765V3.39706C66 1.45588 64.2952 0 62.5904 0ZM56.9889 41.9779C56.9889 42.4632 56.7454 42.9485 56.2583 42.9485L51.1439 44.4044C50.1697 44.6471 49.6827 45.375 49.1956 46.1029C48.952 46.8309 48.952 47.8015 49.4391 48.5294L52.1181 53.1397C52.3616 53.625 52.3616 54.1103 51.8745 54.5956L48.2214 58.2353C47.9779 58.4779 47.2472 58.7206 46.7601 58.4779L42.1328 55.8088C40.6716 55.0809 38.9668 55.5662 38.2362 56.7794C37.9926 57.0221 37.9926 57.2647 37.9926 57.5074L36.7749 62.6029C36.7749 63.0882 36.2878 63.3309 35.8007 63.3309H30.4428C29.9557 63.3309 29.4686 63.0882 29.4686 62.6029L28.2509 57.5074C28.0074 56.5368 27.2768 56.0515 26.5461 55.5662C26.3026 55.3235 25.8155 55.3235 25.3284 55.3235C24.8413 55.3235 24.3542 55.5662 23.8672 55.8088L19.2399 58.4779C18.7528 58.7206 18.2657 58.7206 17.7786 58.2353L13.8819 54.3529C13.6384 54.1103 13.3948 53.3824 13.6384 52.8971L16.5609 48.5294C17.2915 47.0735 16.8044 45.375 15.5867 44.6471C15.3432 44.4044 15.0996 44.4044 14.8561 44.4044L9.7417 43.1912C9.25461 43.1912 9.01107 42.7059 9.01107 42.2206V36.8824C9.01107 36.3971 9.25461 35.9118 9.7417 35.9118L14.8561 34.6985C15.8303 34.4559 16.3173 33.7279 16.8044 33C17.048 32.2721 17.048 31.3015 16.5609 30.5735L13.8819 25.9632C13.6384 25.4779 13.6384 24.9926 14.1255 24.5074L18.0221 20.625C18.2657 20.3824 18.9963 20.1397 19.4834 20.3824L24.1107 23.0515C25.572 23.7794 27.2768 23.2941 28.0074 22.0809C28.2509 21.8382 28.2509 21.5956 28.2509 21.3529L29.2251 16.2574C29.2251 15.7721 29.7122 15.5294 30.1993 15.5294H35.5572C36.0443 15.5294 36.5314 15.7721 36.5314 16.2574L37.7491 21.3529C37.9926 22.3235 38.7232 22.8088 39.4539 23.2941C40.1845 23.5368 41.1587 23.5368 41.8893 23.0515L46.5166 20.3824C47.0037 20.1397 47.4908 20.1397 47.9779 20.625L51.8745 24.5074C52.1181 24.75 52.3616 25.4779 52.1181 25.9632L49.4391 30.5735C48.7085 32.0294 49.1956 33.7279 50.4133 34.4559C50.6568 34.6985 50.9004 34.6985 51.1439 34.6985L56.2583 35.9118C56.7454 35.9118 56.9889 36.3971 56.9889 36.8824V41.9779ZM63.8081 43.6765C63.8081 44.1618 63.321 44.8897 62.5904 44.8897H57.7196C58.6937 44.4044 59.4244 43.1912 59.4244 41.9779V36.6397C59.4244 35.1838 58.4502 33.7279 56.9889 33.4853L51.8745 32.2721C51.631 32.2721 51.631 32.0294 51.3875 32.0294C51.3875 31.7868 51.3875 31.5441 51.3875 31.5441L54.0664 26.9338C54.7971 25.7206 54.5535 24.0221 53.5793 22.8088L49.6827 18.9265C48.7085 17.9559 47.0037 17.7132 45.5424 18.4412L40.9151 21.1103C40.6716 21.1103 40.428 21.1103 40.428 21.1103C40.1845 21.1103 40.1845 20.8676 39.941 20.625L38.7232 15.5294C38.2362 14.0735 37.0185 13.1029 35.5572 13.1029H30.1993C28.738 13.1029 27.2768 14.0735 27.0332 15.5294L25.8155 20.625C25.8155 20.8676 25.572 20.8676 25.3284 21.1103C25.0849 21.1103 24.8413 21.1103 24.8413 21.1103L20.214 18.4412C18.9963 17.7132 17.2915 17.9559 16.3173 18.9265L12.4207 22.8088C11.4465 23.7794 11.203 25.4779 11.9336 26.6912L14.6125 31.3015C14.6125 31.5441 14.6125 31.7868 14.6125 31.7868C14.6125 32.0294 14.369 32.0294 14.1255 32.2721L9.01107 33.4853C7.54982 33.9706 6.57565 35.1838 6.57565 36.6397V41.9779C6.57565 43.1912 7.06273 44.1618 8.28044 44.8897H3.40959C2.92251 44.8897 2.19188 44.4044 2.19188 43.6765V10.9191H63.5646V43.6765H63.8081ZM63.8081 8.73529H2.19188V3.39706C2.19188 2.91176 2.67897 2.18382 3.40959 2.18382H62.5904C63.0775 2.18382 63.8081 2.66912 63.8081 3.39706V8.73529ZM4.38376 4.36765H6.57565V6.55147H4.38376V4.36765ZM8.76753 4.36765H10.9594V6.55147H8.76753V4.36765ZM13.1513 4.36765H15.3432V6.55147H13.1513V4.36765ZM32.8782 26.2059C25.572 26.2059 19.7269 32.0294 19.7269 39.3088C19.7269 46.5882 25.572 52.4118 32.8782 52.4118C40.1845 52.4118 46.0295 46.5882 46.0295 39.3088C46.0295 32.0294 40.1845 26.2059 32.8782 26.2059ZM32.8782 50.2279C26.7897 50.2279 21.9188 45.375 21.9188 39.3088C21.9188 33.2426 26.7897 28.3897 32.8782 28.3897C38.9668 28.3897 43.8376 33.2426 43.8376 39.3088C43.8376 45.375 38.9668 50.2279 32.8782 50.2279ZM31.9041 38.3382H34.0959V40.5221H31.9041V38.3382ZM36.2878 38.3382H38.4797V40.5221H36.2878V38.3382ZM27.5203 38.3382H29.7122V40.5221H27.5203V38.3382Z" fill="url(#paint0_linear)"/>
<defs>
<linearGradient id="paint0_linear" x1="-5.28" y1="66" x2="73.5501" y2="60.2021" gradientUnits="userSpaceOnUse">
<stop stop-color="#4E89E2"/>
<stop offset="1" stop-color="#FCD60D"/>
</linearGradient>
</defs>
</svg>
