<svg width="82" height="70" viewBox="0 0 82 70" fill="none" xmlns="http://www.w3.org/2000/svg">
<path d="M48.3191 69.4378C48.5064 69.7657 48.8809 70 49.2555 70H56.8873C57.2619 70 57.5896 69.8126 57.7769 69.4846C57.9642 69.1566 57.9642 68.7818 57.8237 68.4538L52.0647 57.6774C59.3688 51.9612 64.1445 43.1995 64.4723 33.3133H65.8301L70.0439 37.7175C70.2312 37.905 70.5121 38.0455 70.7931 38.0455H79.9699C80.3913 38.0455 80.7659 37.7644 80.9532 37.3896C81.0936 37.0147 81 36.5462 80.7191 36.2182L76.6925 32.2825L80.7191 28.3467C81.0468 28.0656 81.1405 27.5971 80.9532 27.1754C80.8127 26.8005 80.3913 26.5194 79.9699 26.5194H70.7931C70.5121 26.5194 70.2312 26.6131 70.0439 26.8474L65.6428 31.2517H64.4254C63.8636 13.9157 49.6301 0 32.2127 0C14.4676 0 0 14.4779 0 32.2356C0 42.3092 4.63526 51.3052 11.8925 57.2557L5.94624 68.4538C5.75896 68.7818 5.80578 69.1566 5.99306 69.4846C6.18035 69.8126 6.50809 70 6.88266 70H14.5145C14.889 70 15.2636 69.7657 15.4509 69.4378L19.4775 61.8474C23.4104 63.5341 27.7179 64.4712 32.2127 64.4712C36.5202 64.4712 40.6405 63.6278 44.3861 62.0817L48.3191 69.4378ZM77.3948 35.8902H71.2613L68.7798 33.3133H74.7728L77.3948 35.8902ZM71.2145 28.581H77.348L74.6792 31.158H68.5925L71.2145 28.581ZM55.1081 67.8916H49.8642L46.3526 61.2383C47.7572 60.5355 49.0682 59.7858 50.3324 58.8956L55.1081 67.8916ZM13.859 67.8916H8.66185L13.6249 58.5676C14.889 59.4578 16.2 60.2544 17.6046 60.9572L13.859 67.8916ZM2.10694 32.2356C2.10694 15.6024 15.6382 2.10843 32.2127 2.10843C48.4595 2.10843 61.7567 15.087 62.3185 31.2048H55.8572C55.2954 18.6479 44.9012 8.5743 32.2127 8.5743C19.1965 8.5743 8.56821 19.2102 8.56821 32.2356C8.56821 45.3079 19.1965 55.8969 32.2127 55.8969C44.9012 55.8969 55.2954 45.8233 55.8572 33.2664H62.3185C61.7567 49.3842 48.4595 62.3628 32.2127 62.3628C15.6382 62.4096 2.10694 48.8688 2.10694 32.2356ZM32.2127 33.3133H36.4734C36.0052 35.2343 34.2728 36.6399 32.2127 36.6399C29.778 36.6399 27.8116 34.672 27.8116 32.2356C27.8116 29.7992 29.778 27.8313 32.2127 27.8313C34.2728 27.8313 36.0052 29.2369 36.4734 31.158H32.2127C31.6509 31.158 31.1827 31.6265 31.1827 32.1888C31.1827 32.8447 31.6509 33.3133 32.2127 33.3133ZM32.2127 25.7229C28.6075 25.7229 25.7046 28.6278 25.7046 32.2356C25.7046 35.8434 28.6075 38.7483 32.2127 38.7483C35.4434 38.7483 38.1121 36.3588 38.6272 33.3133H45.1353C44.5734 39.9665 39.0017 45.261 32.2127 45.261C25.0491 45.261 19.2434 39.4511 19.2434 32.2825C19.2434 25.1138 25.0491 19.3039 32.2127 19.3039C39.0017 19.3039 44.6202 24.5515 45.1353 31.2517H38.6272C38.1121 28.1124 35.4434 25.7229 32.2127 25.7229ZM32.2127 17.1486C23.8786 17.1486 17.1364 23.8956 17.1364 32.2356C17.1364 40.5756 23.8786 47.3226 32.2127 47.3226C40.1723 47.3226 46.7272 41.1379 47.2422 33.2664H53.7035C53.1416 44.6519 43.7306 53.7885 32.1659 53.7885C20.2734 53.7885 10.6283 44.1366 10.6283 32.2356C10.6283 20.3347 20.2734 10.6827 32.1659 10.6827C43.6838 10.6827 53.1416 19.7724 53.7035 31.2048H47.289C46.7272 23.3802 40.1723 17.1486 32.2127 17.1486Z" fill="url(#paint0_linear)"/>
<defs>
<linearGradient id="paint0_linear" x1="-6.48389" y1="70" x2="90.1431" y2="61.7714" gradientUnits="userSpaceOnUse">
<stop stop-color="#4E89E2"/>
<stop offset="1" stop-color="#FCD60D"/>
</linearGradient>
</defs>
</svg>
