<svg width="35" height="59" viewBox="0 0 35 59" fill="none" xmlns="http://www.w3.org/2000/svg">
<path d="M12.6645 14.9805C15.6579 13.3672 19.3421 13.3672 22.3355 14.9805C22.5658 14.9805 22.5658 14.9805 22.7961 14.9805C23.0263 14.9805 23.4868 14.75 23.4868 14.5195C23.7171 14.0586 23.4868 13.5977 23.0263 13.3672C19.5724 11.5234 15.4276 11.5234 11.7434 13.3672C11.2829 13.5977 11.2829 14.2891 11.5132 14.5195C11.7434 14.9805 12.2039 15.2109 12.6645 14.9805ZM21.4145 16.5938C18.8816 15.2109 16.1184 15.2109 13.5855 16.5938C13.125 16.8242 12.8947 17.5156 13.125 17.7461C13.3553 18.207 14.0461 18.4375 14.2763 18.207C16.1184 17.0547 18.4211 17.0547 20.4934 18.207C20.7237 18.207 20.7237 18.207 20.9539 18.207C21.1842 18.207 21.6447 17.9766 21.6447 17.7461C21.875 17.5156 21.875 16.8242 21.4145 16.5938ZM19.5724 20.0508C18.1908 19.3594 16.5789 19.3594 15.1974 20.0508C14.9671 20.0508 14.7368 20.7422 14.9671 21.2031C15.1974 21.4336 15.6579 21.6641 16.1184 21.4336C17.0395 20.9727 17.9605 20.9727 18.8816 21.4336C19.1118 21.4336 19.1118 21.4336 19.3421 21.4336C19.5724 21.4336 20.0329 21.2031 20.0329 20.9727C20.2632 20.7422 20.0329 20.0508 19.5724 20.0508ZM30.3947 0H4.60526C2.07237 0 0 2.07422 0 4.60938V54.3906C0 56.9258 2.07237 59 4.60526 59H30.3947C32.9276 59 35 56.9258 35 54.3906V4.60938C35 2.07422 32.9276 0 30.3947 0ZM16.5789 25.8125V29.7305H11.9737V25.8125H16.5789ZM23.0263 25.8125V29.7305H18.4211V25.8125H23.0263ZM29.4737 25.8125V29.7305H24.6382V25.8125H29.4737ZM10.1316 29.5H5.52632V25.582H10.3618V29.5H10.1316ZM5.52632 31.3438H29.7039V57.3867H5.52632V31.3438ZM29.4737 23.9688H5.52632V9.21875H29.7039L29.4737 23.9688ZM33.1579 54.3906C33.1579 55.543 32.2368 56.6953 31.0855 57.1562V6.45312C31.0855 5.07031 29.9342 3.6875 28.3224 3.6875H27.6316C27.1711 3.6875 26.7105 4.14844 26.7105 4.60938C26.7105 5.07031 27.1711 5.53125 27.6316 5.53125H28.5526C29.0132 5.53125 29.4737 5.99219 29.4737 6.45312V7.375H5.52632V6.45312C5.52632 5.99219 5.98684 5.53125 6.44737 5.53125H7.36842C7.82895 5.53125 8.28947 5.07031 8.28947 4.60938C8.28947 4.14844 7.82895 3.6875 7.36842 3.6875H6.44737C5.06579 3.6875 3.68421 4.83984 3.68421 6.45312V57.1562C2.53289 56.6953 1.61184 55.7734 1.61184 54.3906V4.60938C1.61184 2.99609 2.99342 1.84375 4.375 1.84375H30.1645C31.7763 1.84375 32.9276 3.22656 32.9276 4.60938L33.1579 54.3906ZM23.9474 3.6875H11.0526C10.5921 3.6875 10.1316 4.14844 10.1316 4.60938C10.1316 5.07031 10.5921 5.53125 11.0526 5.53125H23.9474C24.4079 5.53125 24.8684 5.07031 24.8684 4.60938C24.8684 4.14844 24.4079 3.6875 23.9474 3.6875ZM17.5 33.1875C16.1184 33.1875 14.7368 34.3398 14.7368 35.9531C14.7368 37.5664 15.8882 38.7188 17.5 38.7188C18.8816 38.7188 20.2632 37.5664 20.2632 35.9531C20.2632 34.3398 18.8816 33.1875 17.5 33.1875ZM17.5 36.875C17.0395 36.875 16.5789 36.4141 16.5789 35.9531C16.5789 35.4922 17.0395 35.0312 17.5 35.0312C17.9605 35.0312 18.4211 35.4922 18.4211 35.9531C18.4211 36.4141 17.9605 36.875 17.5 36.875ZM24.8684 38.7188C26.25 38.7188 27.6316 37.5664 27.6316 35.9531C27.6316 34.5703 26.4803 33.1875 24.8684 33.1875C23.2566 33.1875 22.1053 34.3398 22.1053 35.9531C22.1053 37.3359 23.2566 38.7188 24.8684 38.7188ZM24.8684 35.0312C25.3289 35.0312 25.7895 35.4922 25.7895 35.9531C25.7895 36.4141 25.3289 36.875 24.8684 36.875C24.4079 36.875 23.9474 36.4141 23.9474 35.9531C23.9474 35.4922 24.4079 35.0312 24.8684 35.0312ZM10.1316 33.1875C8.75 33.1875 7.36842 34.3398 7.36842 35.9531C7.36842 37.5664 8.51974 38.7188 10.1316 38.7188C11.7434 38.7188 12.8947 37.5664 12.8947 35.9531C12.8947 34.3398 11.5132 33.1875 10.1316 33.1875ZM10.1316 36.875C9.44079 36.875 9.21053 36.4141 9.21053 35.9531C9.21053 35.4922 9.67105 35.0312 10.1316 35.0312C10.5921 35.0312 11.0526 35.4922 11.0526 35.9531C11.0526 36.4141 10.5921 36.875 10.1316 36.875ZM17.5 40.5625C16.1184 40.5625 14.7368 41.7148 14.7368 43.3281C14.7368 44.7109 15.8882 46.0938 17.5 46.0938C18.8816 46.0938 20.2632 44.9414 20.2632 43.3281C20.2632 41.7148 18.8816 40.5625 17.5 40.5625ZM17.5 44.25C17.0395 44.25 16.5789 43.7891 16.5789 43.3281C16.5789 42.8672 17.0395 42.4062 17.5 42.4062C17.9605 42.4062 18.4211 42.8672 18.4211 43.3281C18.4211 43.7891 17.9605 44.25 17.5 44.25ZM24.8684 40.5625C23.4868 40.5625 22.1053 41.7148 22.1053 43.3281C22.1053 44.7109 23.2566 46.0938 24.8684 46.0938C26.4803 46.0938 27.6316 44.9414 27.6316 43.3281C27.6316 41.7148 26.25 40.5625 24.8684 40.5625ZM24.8684 44.25C24.4079 44.25 23.9474 43.7891 23.9474 43.3281C23.9474 42.8672 24.4079 42.4062 24.8684 42.4062C25.3289 42.4062 25.7895 42.8672 25.7895 43.3281C25.7895 43.7891 25.3289 44.25 24.8684 44.25ZM10.1316 40.5625C8.75 40.5625 7.36842 41.7148 7.36842 43.3281C7.36842 44.7109 8.51974 46.0938 10.1316 46.0938C11.7434 46.0938 12.8947 44.9414 12.8947 43.3281C12.8947 41.7148 11.5132 40.5625 10.1316 40.5625ZM10.1316 44.25C9.44079 44.25 9.21053 43.7891 9.21053 43.3281C9.21053 42.8672 9.67105 42.4062 10.1316 42.4062C10.5921 42.4062 11.0526 42.8672 11.0526 43.3281C11.0526 43.7891 10.5921 44.25 10.1316 44.25ZM17.5 47.9375C16.1184 47.9375 14.7368 49.0898 14.7368 50.7031C14.7368 52.3164 15.8882 53.4688 17.5 53.4688C18.8816 53.4688 20.2632 52.3164 20.2632 50.7031C20.2632 49.0898 18.8816 47.9375 17.5 47.9375ZM17.5 51.625C17.0395 51.625 16.5789 51.1641 16.5789 50.7031C16.5789 50.2422 17.0395 49.7812 17.5 49.7812C17.9605 49.7812 18.4211 50.2422 18.4211 50.7031C18.4211 51.1641 17.9605 51.625 17.5 51.625ZM24.8684 47.9375C23.4868 47.9375 22.1053 49.0898 22.1053 50.7031C22.1053 52.3164 23.2566 53.4688 24.8684 53.4688C26.4803 53.4688 27.6316 52.3164 27.6316 50.7031C27.6316 49.0898 26.25 47.9375 24.8684 47.9375ZM24.8684 51.625C24.4079 51.625 23.9474 51.1641 23.9474 50.7031C23.9474 50.2422 24.4079 49.7812 24.8684 49.7812C25.3289 49.7812 25.7895 50.2422 25.7895 50.7031C25.7895 51.1641 25.3289 51.625 24.8684 51.625ZM10.1316 47.9375C8.75 47.9375 7.36842 49.0898 7.36842 50.7031C7.36842 52.3164 8.51974 53.4688 10.1316 53.4688C11.7434 53.4688 12.8947 52.3164 12.8947 50.7031C12.8947 49.0898 11.5132 47.9375 10.1316 47.9375ZM10.1316 51.625C9.44079 51.625 9.21053 51.1641 9.21053 50.7031C9.21053 50.2422 9.67105 49.7812 10.1316 49.7812C10.5921 49.7812 11.0526 50.2422 11.0526 50.7031C11.0526 51.1641 10.5921 51.625 10.1316 51.625Z" fill="url(#paint0_linear)"/>
<defs>
<linearGradient id="paint0_linear" x1="0" y1="29.4781" x2="34.9259" y2="29.4781" gradientUnits="userSpaceOnUse">
<stop stop-color="#FBD60C"/>
<stop offset="0.9998" stop-color="#5985C4"/>
<stop offset="1" stop-color="#5F87C0"/>
</linearGradient>
</defs>
</svg>
