<svg width="75" height="75" viewBox="0 0 75 75" fill="none" xmlns="http://www.w3.org/2000/svg">
<path d="M51.8848 65.2002L46.7578 62.0947L46.7285 62.0801L43.916 60.3809V58.5059C44.9268 57.1436 45.6299 55.5762 46.0107 53.9209C46.0693 53.6133 46.2158 53.3203 46.4355 53.1006C46.4502 53.0859 46.4648 53.0713 46.4795 53.0566C47.2119 52.2949 47.6221 51.2842 47.6221 50.2295V47.5781C47.6221 46.9482 47.4756 46.333 47.1973 45.7764L47.0508 45.4688C46.9482 45.249 46.8896 45.0146 46.8896 44.7656V40.957C46.9043 36.9873 43.6963 33.7646 39.7266 33.75H35.3027C31.333 33.7646 28.1396 37.002 28.1396 40.957V44.7656C28.1396 45 28.0811 45.249 27.9785 45.4688L27.832 45.7764C27.5537 46.333 27.4072 46.9629 27.4072 47.5928V50.2441C27.4072 51.2988 27.8174 52.3096 28.5498 53.0713C28.5645 53.0859 28.5791 53.1006 28.5938 53.1152C28.8135 53.335 28.96 53.6279 29.0186 53.9355C29.3848 55.5908 30.1025 57.1582 31.1133 58.5205V60.3955L28.2275 62.1387C28.2129 62.1533 28.1982 62.1533 28.1836 62.168L23.1445 65.2148C21.2109 66.4014 20.0391 68.4961 20.0391 70.752V73.7549C20.0391 74.0918 20.1709 74.3994 20.4053 74.6338C20.6396 74.8682 20.9619 75 21.2842 75H53.7891C54.126 75 54.4336 74.8682 54.668 74.6338C54.9023 74.3994 55.0342 74.0771 55.0342 73.7549V70.752C54.9902 68.4814 53.8184 66.3867 51.8848 65.2002ZM30.3809 51.3721C30.3662 51.3574 30.3516 51.3428 30.3516 51.3281C30.0586 51.0352 29.8975 50.6396 29.8975 50.2295V47.5781C29.8975 47.3438 29.9561 47.0947 30.0586 46.875L30.2197 46.5674C30.498 46.0107 30.6445 45.3809 30.6445 44.7656V40.957C30.6299 38.3643 32.7246 36.2695 35.3027 36.2402H39.7266C42.3193 36.2549 44.3994 38.3643 44.3848 40.957V44.7656C44.3848 45.3955 44.5312 46.0107 44.8096 46.5674L44.9561 46.875C45.0586 47.0947 45.1172 47.3291 45.1172 47.5781V50.2295C45.1172 50.6396 44.9561 51.0352 44.6631 51.3281L44.6338 51.3721C44.0918 51.9434 43.7256 52.6465 43.5645 53.4229C43.2422 54.7852 42.6416 56.0742 41.792 57.1875C41.5576 57.5244 41.4258 57.9346 41.4258 58.3447V60.3662L37.4414 62.168L33.5889 60.3809V58.3447C33.5889 57.9346 33.457 57.5244 33.208 57.1875C32.3584 56.0742 31.7578 54.7998 31.4502 53.4375C31.2891 52.6465 30.9229 51.9434 30.3809 51.3721ZM38.7012 66.46L38.0127 67.5H36.8555L36.167 66.46L37.4414 65.2588L38.7012 66.46ZM32.9004 72.4951H22.5V70.7373C22.5 69.3457 23.2178 68.0566 24.4043 67.3389L28.6816 64.7461L31.1426 66.6797C31.8164 67.207 32.6514 67.5 33.5156 67.5C33.6182 67.5 33.7207 67.4854 33.8086 67.4707L34.7168 68.833L32.9004 72.4951ZM34.4238 64.6582C34.292 64.7754 34.1309 64.8633 33.9697 64.9219C33.5449 65.083 33.0615 65.0098 32.6953 64.7168L30.9668 63.3691L32.3145 62.5488L35.2295 63.8965L34.4238 64.6582ZM35.6982 72.4951L36.9434 69.9902H37.8955L39.1406 72.4951H35.6982ZM42.6709 62.5488L43.9453 63.3105L42.1582 64.7168C41.7773 65.0098 41.2646 65.0684 40.8252 64.8926C40.6787 64.8486 40.5469 64.7607 40.4297 64.6582L39.6387 63.9111L42.6709 62.5488ZM52.5 72.4951H41.9531L40.1221 68.833L41.0303 67.4561C41.1328 67.4707 41.2354 67.4854 41.3379 67.4854C42.1875 67.4854 43.0225 67.207 43.6963 66.6797L46.2305 64.6875L50.5957 67.3242C51.7822 68.0566 52.5 69.3457 52.5 70.7227V72.4951ZM37.5 27.4951C45.0879 27.4951 51.2549 21.3428 51.2549 13.7402C51.2402 6.15234 45.0879 0.0146484 37.5 0C29.9121 0 23.7451 6.15234 23.7451 13.7549C23.7451 21.3574 29.9121 27.4951 37.5 27.4951ZM37.5 2.50488C43.7109 2.50488 48.75 7.54395 48.75 13.7549C48.75 19.9658 43.7109 25.0049 37.5 25.0049C31.2891 25.0049 26.25 19.9658 26.25 13.7549C26.25 7.54395 31.2891 2.50488 37.5 2.50488ZM27.4951 32.5049C27.4951 24.917 21.3428 18.75 13.7402 18.75C6.15234 18.7646 0.0146484 24.917 0 32.5049C0 40.0928 6.15234 46.2598 13.7549 46.2598C21.3428 46.2451 27.4951 40.0928 27.4951 32.5049ZM13.7549 43.7549C7.54395 43.7549 2.50488 38.7158 2.50488 32.5049C2.50488 26.2939 7.54395 21.2549 13.7549 21.2549C19.9658 21.2549 25.0049 26.2939 25.0049 32.5049C25.0049 38.7158 19.9658 43.7549 13.7549 43.7549ZM61.2451 18.75C53.6572 18.75 47.4902 24.9023 47.4902 32.5049C47.4902 40.1074 53.6426 46.2598 61.2451 46.2598C68.8477 46.2598 75 40.1074 75 32.5049C74.9854 24.917 68.8477 18.7646 61.2451 18.75ZM61.2451 43.7549C55.0342 43.7549 49.9951 38.7158 49.9951 32.5049C49.9951 26.2939 55.0342 21.2549 61.2451 21.2549C67.4561 21.2549 72.4951 26.2939 72.4951 32.5049C72.4951 38.7158 67.4561 43.7402 61.2451 43.7549ZM37.5 22.5C42.334 22.5 46.2451 18.5889 46.2451 13.7549C46.2451 8.9209 42.3193 5.00977 37.5 5.00977C32.666 5.00977 28.7549 8.9209 28.7549 13.7549C28.7549 18.5889 32.666 22.5 37.5 22.5ZM37.5 7.5C40.957 7.5 43.7549 10.2979 43.7549 13.7549C43.7549 17.2119 40.957 19.9951 37.5 20.0098C34.043 20.0098 31.2451 17.2119 31.2451 13.7549C31.2451 10.2979 34.043 7.5 37.5 7.5ZM37.5 17.5049C39.5654 17.5049 41.25 15.8203 41.25 13.7549C41.25 11.6895 39.5654 10.0049 37.5 10.0049C35.4346 10.0049 33.75 11.6895 33.75 13.7549C33.75 15.8203 35.4346 17.5049 37.5 17.5049ZM37.5 12.4951C38.1885 12.4951 38.7451 13.0518 38.7451 13.7402C38.7451 14.4287 38.1885 14.9854 37.5 14.9854C36.8115 14.9854 36.2549 14.4287 36.2549 13.7402C36.2549 13.0664 36.8115 12.4951 37.5 12.4951ZM13.7549 31.2451C13.0664 31.2451 12.5098 30.6885 12.5098 30C12.5098 29.3115 13.0664 28.7549 13.7549 28.7549H16.2598C16.9482 28.7549 17.5049 28.1982 17.5049 27.5098C17.5049 26.8213 16.9482 26.2646 16.2598 26.2646H15.0146V25.0195C15.0146 24.3311 14.458 23.7744 13.7695 23.7744C13.0811 23.7744 12.5244 24.3311 12.5244 25.0195V26.499C10.7959 27.0996 9.77051 28.8574 10.0781 30.6592C10.3857 32.4609 11.9531 33.7646 13.7695 33.7646C14.458 33.7646 15.0146 34.3213 15.0146 35.0098C15.0146 35.6982 14.458 36.2549 13.7695 36.2549H11.25C10.5615 36.2549 10.0049 36.8115 10.0049 37.5C10.0049 38.1885 10.5615 38.7451 11.25 38.7451H12.4951V39.9902C12.4951 40.6787 13.0518 41.2354 13.7402 41.2354C14.4287 41.2354 14.9854 40.6787 14.9854 39.9902V38.5254C16.7139 37.9248 17.7393 36.167 17.4316 34.3652C17.124 32.5635 15.5713 31.2451 13.7549 31.2451ZM68.6719 28.3301C68.6572 28.3008 68.6572 28.2715 68.6426 28.2422C68.6426 28.2275 68.6426 28.2275 68.6426 28.2129C68.584 28.0957 68.5107 27.9785 68.4082 27.8906C68.3789 27.8613 68.3496 27.8467 68.3203 27.8174C68.1006 27.6123 67.8076 27.5098 67.5 27.4951H64.9951C64.3359 27.4951 63.7939 28.0078 63.75 28.667C63.7061 29.3262 64.1895 29.8975 64.834 29.9854L61.2891 34.2334L58.4912 30.498C58.2422 30.1758 57.8613 30 57.4512 30C57.041 30.0146 56.6748 30.2197 56.4404 30.5566L53.9355 34.3066C53.6865 34.6729 53.6426 35.1562 53.8477 35.5664C54.0527 35.9766 54.4482 36.2402 54.8877 36.2695C55.3418 36.2988 55.7666 36.0791 56.0156 35.7129L57.5391 33.4277L60.2344 37.0166C60.4688 37.3242 60.8203 37.5 61.2012 37.5146H61.2305C61.5967 37.5146 61.9482 37.3535 62.1973 37.0605L66.46 31.9336C66.6797 32.2852 67.0605 32.5049 67.4854 32.5049C67.8223 32.5049 68.1299 32.373 68.3643 32.1387C68.5986 31.9043 68.7305 31.582 68.7305 31.2598V28.7549C68.7305 28.7256 68.7158 28.7109 68.7158 28.6963C68.7305 28.5645 68.7012 28.4473 68.6719 28.3301Z" fill="url(#paint0_linear)"/>
<defs>
<linearGradient id="paint0_linear" x1="-6" y1="75" x2="83.5796" y2="68.4114" gradientUnits="userSpaceOnUse">
<stop stop-color="#4E89E2"/>
<stop offset="1" stop-color="#FCD60D"/>
</linearGradient>
</defs>
</svg>
