<svg width="62" height="58" viewBox="0 0 62 58" fill="none" xmlns="http://www.w3.org/2000/svg">
<path d="M57.907 21.4693L59.7234 19.6489C60.2441 19.127 60.5348 18.4231 60.5348 17.6828C60.5348 16.9425 60.2441 16.2385 59.7234 15.7167L57.6406 13.6292C57.1199 13.1073 56.4176 12.8161 55.6789 12.8161C54.9402 12.8161 54.2379 13.1073 53.7172 13.6292L51.9008 15.4497C49.5031 13.7991 46.7785 12.5733 43.8602 11.918V9.22369H44.9621C46.4637 9.22369 47.6746 7.99791 47.6746 6.50513V2.71856C47.6746 1.21364 46.4516 0 44.9621 0H32.4652C30.9637 0 29.7527 1.22578 29.7527 2.71856V6.50513C29.7527 8.01004 30.9758 9.22369 32.4652 9.22369H33.5672V11.918C30.6488 12.5855 27.9484 13.7991 25.5629 15.4497L23.7465 13.6292C23.2258 13.1073 22.5234 12.8161 21.7848 12.8161C21.0461 12.8161 20.3438 13.1073 19.823 13.6292L17.7402 15.7167C16.6625 16.7968 16.6625 18.5687 17.7402 19.661L18.0672 19.9887H9.46953C8.80352 19.9887 8.25859 20.5348 8.25859 21.2023C8.25859 21.8698 8.80352 22.416 9.46953 22.416H18.9391C18.0309 23.8724 17.2922 25.438 16.723 27.0764H1.21094C0.544922 27.0764 0 27.6225 0 28.29C0 28.9575 0.544922 29.5037 1.21094 29.5037H16.0328C15.6937 31.0086 15.5 32.5742 15.4637 34.1641H7.75C7.08398 34.1641 6.53906 34.7102 6.53906 35.3777C6.53906 36.0452 7.08398 36.5913 7.75 36.5913H15.5242C15.6574 38.1933 15.948 39.7589 16.384 41.2517H6.05469C5.38867 41.2517 4.84375 41.7979 4.84375 42.4654C4.84375 43.1329 5.38867 43.679 6.05469 43.679H17.2559C20.7797 52.0774 29.0746 58 38.7258 58C51.5617 58 62 47.5384 62 34.6738C62 29.7707 60.4863 25.2316 57.907 21.4693ZM55.4246 15.3404C55.5094 15.2555 55.6062 15.2312 55.6789 15.2312C55.7516 15.2312 55.8484 15.2434 55.9332 15.3404L58.016 17.4279C58.1008 17.5129 58.125 17.61 58.125 17.6828C58.125 17.7556 58.1129 17.8527 58.016 17.9376L56.4297 19.5275C55.6305 18.593 54.7707 17.7313 53.8383 16.9303L55.4246 15.3404ZM32.1625 6.50513V2.71856C32.1625 2.56079 32.2957 2.42729 32.4531 2.42729H44.95C45.1074 2.42729 45.2406 2.56079 45.2406 2.71856V6.50513C45.2406 6.6629 45.1074 6.7964 44.95 6.7964H42.6371H34.7781H32.4652C32.2957 6.7964 32.1625 6.6629 32.1625 6.50513ZM35.9891 9.22369H41.4262V11.5053C40.5422 11.3961 39.634 11.3476 38.7258 11.3476C37.8055 11.3476 36.8852 11.4082 35.9891 11.5053V9.22369ZM19.4355 17.4279L21.5184 15.3404C21.6031 15.2555 21.7 15.2312 21.7727 15.2312C21.8453 15.2312 21.9422 15.2434 22.027 15.3404L23.6133 16.9303C22.6809 17.7313 21.8211 18.593 21.0219 19.5275L19.4355 17.9376C19.3023 17.792 19.3023 17.5736 19.4355 17.4279ZM38.7258 55.5727C27.2219 55.5727 17.8734 46.1913 17.8734 34.6738C17.8734 23.1563 27.234 13.7748 38.7258 13.7748C50.2176 13.7748 59.5781 23.1442 59.5781 34.6738C59.5781 46.2034 50.2176 55.5727 38.7258 55.5727ZM46.718 24.9404L40.9902 30.6809C40.3242 30.2925 39.5492 30.0741 38.7258 30.0741C36.1949 30.0741 34.1363 32.1373 34.1363 34.6738C34.1363 37.2103 36.1949 39.2735 38.7258 39.2735C41.2566 39.2735 43.3152 37.2103 43.3152 34.6738C43.3152 33.8485 43.0973 33.0718 42.7098 32.4043L48.4375 26.6637C48.9098 26.1904 48.9098 25.4258 48.4375 24.9525C47.9531 24.467 47.1902 24.467 46.718 24.9404ZM38.7258 36.8341C37.5391 36.8341 36.5582 35.8632 36.5582 34.6616C36.5582 33.4601 37.527 32.4892 38.7258 32.4892C39.9246 32.4892 40.8934 33.4601 40.8934 34.6616C40.8934 35.8632 39.9125 36.8341 38.7258 36.8341ZM38.7258 18.9328C39.0406 18.9328 39.3555 18.7993 39.5855 18.5809C39.8156 18.3503 39.9367 18.0469 39.9367 17.7192C39.9367 17.3915 39.8035 17.0881 39.5855 16.8575C39.3555 16.6269 39.0527 16.5055 38.7258 16.5055C38.3988 16.5055 38.0961 16.639 37.866 16.8575C37.6359 17.076 37.5148 17.3915 37.5148 17.7192C37.5148 18.0347 37.648 18.3503 37.866 18.5809C38.084 18.8115 38.4109 18.9328 38.7258 18.9328ZM38.7258 50.4026C38.4109 50.4026 38.0961 50.5361 37.866 50.7546C37.6359 50.9851 37.5148 51.2886 37.5148 51.6162C37.5148 51.9318 37.648 52.2473 37.866 52.4779C38.0961 52.7085 38.3988 52.8299 38.7258 52.8299C39.0527 52.8299 39.3555 52.6964 39.5855 52.4779C39.8156 52.2473 39.9367 51.9439 39.9367 51.6162C39.9367 51.2886 39.8035 50.9851 39.5855 50.7546C39.3555 50.5361 39.0406 50.4026 38.7258 50.4026ZM26.7617 21.4693C26.4469 21.4693 26.132 21.6028 25.902 21.8213C25.6719 22.0519 25.5508 22.3553 25.5508 22.683C25.5508 22.9985 25.684 23.3141 25.902 23.5447C26.132 23.7753 26.4348 23.8966 26.7617 23.8966C27.0887 23.8966 27.3914 23.7631 27.6215 23.5447C27.8516 23.3141 27.9727 23.0107 27.9727 22.683C27.9727 22.3674 27.8395 22.0519 27.6215 21.8213C27.3914 21.6028 27.0887 21.4693 26.7617 21.4693ZM50.6777 45.4388C50.3629 45.4388 50.048 45.5723 49.818 45.7907C49.5879 46.0213 49.4668 46.3248 49.4668 46.6524C49.4668 46.9801 49.6 47.2835 49.818 47.5141C50.048 47.7447 50.3508 47.8661 50.6777 47.8661C50.9926 47.8661 51.3074 47.7326 51.5375 47.5141C51.7676 47.2835 51.8887 46.9801 51.8887 46.6524C51.8887 46.3248 51.7555 46.0213 51.5375 45.7907C51.3195 45.5723 51.0047 45.4388 50.6777 45.4388ZM26.7617 45.4388C26.4469 45.4388 26.132 45.5723 25.902 45.7907C25.6719 46.0092 25.5508 46.3248 25.5508 46.6524C25.5508 46.9801 25.684 47.2835 25.902 47.5141C26.1199 47.7447 26.4348 47.8661 26.7617 47.8661C27.0887 47.8661 27.3914 47.7326 27.6215 47.5141C27.8516 47.2835 27.9727 46.9801 27.9727 46.6524C27.9727 46.3248 27.8395 46.0213 27.6215 45.7907C27.3914 45.5723 27.0887 45.4388 26.7617 45.4388ZM21.809 33.4601C21.4941 33.4601 21.1793 33.5936 20.9492 33.8121C20.7191 34.0427 20.598 34.3461 20.598 34.6738C20.598 35.0015 20.7313 35.3049 20.9492 35.5355C21.1793 35.7661 21.482 35.8874 21.809 35.8874C22.1238 35.8874 22.4387 35.7539 22.6687 35.5355C22.8988 35.3049 23.0199 35.0015 23.0199 34.6738C23.0199 34.3461 22.8867 34.0427 22.6687 33.8121C22.4508 33.5815 22.1359 33.4601 21.809 33.4601ZM56.4902 33.8121C56.2602 33.5815 55.9574 33.4601 55.6305 33.4601C55.3156 33.4601 55.0008 33.5936 54.7707 33.8121C54.5406 34.0427 54.4195 34.3461 54.4195 34.6738C54.4195 34.9893 54.5527 35.3049 54.7707 35.5355C55.0008 35.7661 55.3035 35.8874 55.6305 35.8874C55.9574 35.8874 56.2602 35.7539 56.4902 35.5355C56.7203 35.317 56.8414 35.0015 56.8414 34.6738C56.8414 34.3461 56.7203 34.0427 56.4902 33.8121ZM1.21094 41.2517C0.896094 41.2517 0.58125 41.3852 0.351172 41.6037C0.121094 41.8343 0 42.1377 0 42.4654C0 42.7809 0.133203 43.0965 0.351172 43.3271C0.58125 43.5576 0.883984 43.679 1.21094 43.679C1.53789 43.679 1.84063 43.5455 2.0707 43.3271C2.30078 43.0965 2.42188 42.7931 2.42188 42.4654C2.42188 42.1498 2.28867 41.8343 2.0707 41.6037C1.84063 41.3852 1.52578 41.2517 1.21094 41.2517ZM55.2793 30.9843C55.9211 30.7901 56.2844 30.1226 56.0906 29.4794C55.2309 26.6031 53.6566 23.9452 51.5254 21.8213C49.3941 19.6853 46.7422 18.1076 43.8723 17.258C43.2305 17.0638 42.5523 17.4401 42.3707 18.0833C42.1891 18.7265 42.5523 19.4062 43.1941 19.5882C48.3043 21.1053 52.2641 25.0617 53.7898 30.1833C53.9473 30.7052 54.4316 31.045 54.9523 31.045C55.0492 31.0329 55.1582 31.0207 55.2793 30.9843Z" fill="url(#paint0_linear)"/>
<defs>
<linearGradient id="paint0_linear" x1="-4.96" y1="58" x2="69.0357" y2="52.1823" gradientUnits="userSpaceOnUse">
<stop stop-color="#4E89E2"/>
<stop offset="1" stop-color="#FCD60D"/>
</linearGradient>
</defs>
</svg>
