<svg width="53" height="53" viewBox="0 0 53 53" fill="none" xmlns="http://www.w3.org/2000/svg">
<path d="M50.1306 0H25.63C24.0849 0 22.9813 1.10417 22.9813 2.65V15.4583C17.0217 10.6 7.97192 11.4833 3.11595 17.6667C-1.74002 23.85 -0.857119 32.6833 5.32321 37.5417C10.3999 41.7375 17.9046 41.7375 22.9813 37.5417V50.35C22.9813 51.8958 24.0849 53 25.63 53H50.3513C51.8964 53 53 51.8958 53 50.35V2.65C52.7793 1.10417 51.6756 0 50.1306 0ZM46.3782 1.76667L45.9368 3.53333H29.6031L29.1616 1.76667H46.3782ZM14.1522 38.6458C7.30974 38.6458 1.79159 33.125 1.79159 26.2792C1.79159 19.4333 7.30974 13.9125 14.1522 13.9125C20.9947 13.9125 26.5129 19.6542 26.5129 26.5C26.5129 33.125 20.9947 38.6458 14.1522 38.6458ZM51.0135 50.1292C51.0135 50.5708 50.572 51.0125 50.1306 51.0125H25.63C25.1885 51.0125 24.7471 50.5708 24.7471 50.1292V35.5542C29.3823 30.2542 29.3823 22.3042 24.7471 17.0042V2.65C24.7471 2.20833 25.1885 1.76667 25.63 1.76667H27.6165L28.2787 4.6375C28.2787 5.07917 28.7201 5.3 29.1616 5.3H46.8197C47.2611 5.3 47.4819 5.07917 47.7026 4.6375L48.3648 1.76667H50.3513C50.7927 1.76667 51.2342 2.20833 51.2342 2.65V50.1292H51.0135ZM20.3326 2.65H8.85482V0.883333C8.85482 0.441667 8.41337 0 7.97192 0C7.75119 0 7.53046 0 7.30974 0.220833L2.23304 4.6375C1.79159 4.85833 1.79159 5.52083 2.01232 5.74167C2.01232 5.74167 2.01232 5.74167 2.23304 5.9625L7.53046 10.3792C7.75119 10.6 7.97192 10.6 8.19264 10.6C8.41337 10.6 8.41337 10.6 8.63409 10.6C8.63409 10.3792 8.85482 9.9375 8.85482 9.71667V7.95H20.3326C20.774 7.95 21.2155 7.50833 21.2155 7.06667V3.53333C21.2155 3.09167 20.774 2.65 20.3326 2.65ZM19.4497 6.18333H7.97192C7.53046 6.18333 7.08901 6.625 7.08901 7.06667V7.72917L3.99885 5.3L7.08901 2.87083V3.53333C7.08901 3.975 7.53046 4.41667 7.97192 4.41667H19.4497V6.18333ZM20.774 46.8167L15.4766 42.4C15.0351 42.1792 14.5937 42.1792 14.1522 42.6208C13.9315 42.8417 13.9315 43.0625 13.9315 43.2833V45.05H2.6745C2.23304 45.05 1.79159 45.4917 1.79159 45.9333V49.4667C1.79159 49.9083 2.23304 50.35 2.6745 50.35H14.1522V52.1167C14.1522 52.5583 14.373 52.7792 14.5937 53C14.8144 53 14.8144 53 15.0351 53C15.2559 53 15.4766 53 15.6973 52.7792L20.9947 48.3625C21.2155 47.9208 21.2155 47.2583 20.774 46.8167C20.9947 47.0375 20.9947 46.8167 20.774 46.8167ZM15.918 50.1292V49.4667C15.918 49.025 15.4766 48.5833 15.0351 48.5833H3.5574V46.8167H15.0351C15.4766 46.8167 15.918 46.375 15.918 45.9333V45.2708L19.0082 47.7L15.918 50.1292ZM6.64756 18.9917C2.45377 23.1875 2.45377 29.8125 6.64756 34.0083L7.97192 32.6833C4.4403 29.15 4.4403 23.6292 7.97192 20.0958L6.64756 18.9917ZM21.6569 18.9917L20.3326 20.0958C23.8642 23.6292 23.8642 29.15 20.3326 32.4625L21.6569 33.7875C25.63 29.8125 25.63 22.9667 21.6569 18.9917ZM44.3917 21.2L38.2114 18.55C37.9906 18.55 37.7699 18.55 37.5492 18.55L31.3689 21.2C31.1481 21.4208 30.9274 21.6417 30.9274 22.0833V25.175C30.9274 26.7208 31.5896 28.4875 32.6932 29.5917L37.3285 34.2292C37.7699 34.6708 38.2114 34.6708 38.6528 34.2292L43.2881 29.5917C44.3917 28.4875 45.0539 26.9417 45.0539 25.175V22.0833C44.8331 21.6417 44.6124 21.4208 44.3917 21.2ZM43.0673 25.175C43.0673 26.2792 42.6259 27.3833 41.743 28.2667L37.7699 32.2417L33.7968 28.2667C32.9139 27.3833 32.4725 26.2792 32.4725 25.175V22.7458L37.7699 20.5375L43.0673 22.7458V25.175ZM36.6663 24.9542L35.3419 26.2792L37.1077 28.0458C37.5492 28.4875 37.9906 28.4875 38.4321 28.0458L41.9637 24.2917L40.6394 22.9667L37.7699 25.8375L36.6663 24.9542ZM14.8144 21.4208C16.5802 21.4208 17.4631 21.8625 18.1253 22.9667C18.346 23.4083 18.346 23.6292 17.9046 23.6292L17.4631 23.85C17.0217 24.0708 17.0217 24.0708 16.801 23.6292C16.801 23.4083 16.3595 22.7458 15.0351 22.7458C13.7108 22.7458 13.0486 23.4083 13.0486 24.2917V24.5125H16.3595C16.5802 24.5125 16.801 24.5125 16.5802 24.9542L16.3595 25.3958C16.3595 25.6167 16.1388 25.8375 15.918 25.8375H12.6072V26.7208H15.4766C15.6973 26.7208 15.918 26.7208 15.6973 27.1625L15.4766 27.6042C15.4766 27.825 15.2559 28.0458 15.0351 28.0458H12.8279V28.2667C12.8279 29.3708 13.7108 29.8125 14.8144 29.8125C16.1388 29.8125 16.5802 29.15 16.5802 28.9292C16.801 28.7083 17.0217 28.4875 17.2424 28.7083L17.6839 28.9292C18.1253 29.15 18.1253 29.3708 17.9046 29.8125C17.4631 30.6958 16.3595 31.3583 14.5937 31.3583C12.3864 31.3583 11.0621 30.2542 10.8414 28.2667V28.0458H9.95845C9.73772 28.0458 9.517 28.0458 9.73772 27.6042L9.95845 27.1625C9.95845 26.9417 10.1792 26.7208 10.3999 26.7208H11.0621V25.8375H10.3999C10.1792 25.8375 9.95845 25.8375 10.1792 25.3958L10.3999 24.9542C10.3999 24.7333 10.6206 24.5125 10.8414 24.5125H11.0621V24.2917C11.0621 22.7458 12.6072 21.4208 14.8144 21.4208Z" fill="url(#paint0_linear)"/>
<defs>
<linearGradient id="paint0_linear" x1="0.0257845" y1="26.4156" x2="52.8523" y2="26.4156" gradientUnits="userSpaceOnUse">
<stop stop-color="#FBD60C"/>
<stop offset="0.9998" stop-color="#5985C4"/>
<stop offset="1" stop-color="#5F87C0"/>
</linearGradient>
</defs>
</svg>
