<svg width="16" height="17" viewBox="0 0 16 17" fill="none" xmlns="http://www.w3.org/2000/svg">
<path d="M5.09375 7.21875C4.9375 7.0625 4.6875 7.0625 4.5625 7.21875L3.84375 7.90625C3.6875 8.0625 3.6875 8.3125 3.84375 8.4375L6.6875 11.3125C6.8125 11.4688 7.0625 11.4688 7.21875 11.3125L12.5938 5.96875C12.75 5.8125 12.75 5.5625 12.5938 5.4375L11.9062 4.71875C11.75 4.5625 11.5312 4.5625 11.375 4.71875L6.96875 9.09375L5.09375 7.21875ZM14.5625 2.625L8.5625 0.125C8.375 0.0625 8.1875 0.03125 8 0.03125C7.78125 0.03125 7.59375 0.0625 7.40625 0.125L1.40625 2.625C0.84375 2.875 0.5 3.40625 0.5 4C0.5 10.2188 4.0625 14.5 7.40625 15.9062C7.78125 16.0625 8.1875 16.0625 8.5625 15.9062C11.25 14.7812 15.5 10.9375 15.5 4C15.5 3.40625 15.125 2.875 14.5625 2.625ZM8 14.5C4.9375 13.25 2 9.3125 2 4L8 1.5L14 4C14 9.4375 10.9062 13.2812 8 14.5Z" fill="url(#paint0_linear)"/>
<defs>
<linearGradient id="paint0_linear" x1="-1.28" y1="16" x2="17.8303" y2="14.5944" gradientUnits="userSpaceOnUse">
<stop stop-color="#4E89E2"/>
<stop offset="1" stop-color="#FCD60D"/>
</linearGradient>
</defs>
</svg>
