<svg width="66" height="54" viewBox="0 0 66 54" fill="none" xmlns="http://www.w3.org/2000/svg">
<path d="M5.8 53.4C2.6 53.4 0 50.8 0 47.6V5.8C0 2.6 2.6 0 5.8 0H53.9C57.1 0 59.7 2.6 59.7 5.8V11.9C59.7 12.7 59.1 13.3 58.3 13.3C57.5 13.3 56.9 12.7 56.9 11.9V5.8C56.9 4.2 55.6 2.8 53.9 2.8H5.8C4.2 2.8 2.8 4.1 2.8 5.8V47.6C2.8 49.2 4.1 50.6 5.8 50.6H53.9C55.5 50.6 56.9 49.3 56.9 47.6V41.5C56.9 40.7 57.5 40.1 58.3 40.1C59.1 40.1 59.7 40.7 59.7 41.5V47.6C59.7 50.8 57.1 53.4 53.9 53.4H5.8ZM64.6 36.5C65.4 36.5 66 35.9 66 35.1V18.3C66 17.5 65.4 16.9 64.6 16.9H47.7C42.3 16.9 37.9 21.3 37.9 26.7C37.9 32.1 42.3 36.5 47.7 36.5H64.6ZM62.5 19.7C62.9 19.7 63.2 20 63.2 20.4V33C63.2 33.4 62.9 33.7 62.5 33.7H47.7C43.8 33.7 40.7 30.6 40.7 26.7C40.7 22.8 43.8 19.7 47.7 19.7H62.5ZM49.2 28.1V25.3H46.4V28.1H49.2ZM11.3 41.4V11.9C11.3 11.1 10.7 10.5 9.9 10.5C9.1 10.5 8.5 11.1 8.5 11.9V41.4C8.5 42.2 9.1 42.8 9.9 42.8C10.6 42.8 11.3 42.2 11.3 41.4Z" fill="url(#paint0_linear)"/>
<defs>
<linearGradient id="paint0_linear" x1="-5.28" y1="53.4" x2="73.3269" y2="46.2543" gradientUnits="userSpaceOnUse">
<stop stop-color="#4E89E2"/>
<stop offset="1" stop-color="#FCD60D"/>
</linearGradient>
</defs>
</svg>
