<svg width="66" height="66" viewBox="0 0 66 66" fill="none" xmlns="http://www.w3.org/2000/svg">
<path d="M65.0112 28.6742H61.7977V15.3258C61.7977 14.8315 61.3034 14.3371 60.809 14.3371H57.5955V0.988764C57.3483 0.494382 56.8539 0 56.1124 0H0.988764C0.494382 0 0 0.494382 0 0.988764V27.4382V31.8876C0 34.6067 1.97753 36.8315 4.44944 37.3258V41.7753V46.2247C4.44944 48.9438 6.42697 51.1685 8.89888 51.6629V56.1124V60.5618C8.89888 63.5281 11.3708 66 14.3371 66H60.5618C63.5281 66 66 63.5281 66 60.5618V56.1124V29.6629C66 29.1685 65.5056 28.6742 65.0112 28.6742ZM4.44944 35.1011C3.21348 34.6067 2.22472 33.3708 2.22472 31.8876V28.6742H4.44944V35.1011ZM5.4382 14.3371C4.94382 14.3371 4.44944 14.8315 4.44944 15.3258V26.4494H2.22472V2.22472H55.1236V14.3371H5.4382ZM8.89888 49.4382C7.66292 48.9438 6.67416 47.7079 6.67416 46.2247V43.0112H8.89888V49.4382ZM9.88764 28.6742C9.39326 28.6742 8.89888 29.1685 8.89888 29.6629V40.7865H6.67416V36.3371V27.4382V16.5618H56.1124H59.3258V28.6742H9.88764ZM63.7753 60.5618C63.7753 62.2921 62.2921 63.7753 60.5618 63.7753H14.3371C12.6067 63.7753 11.1236 62.2921 11.1236 60.5618V57.3483H43.5056C43.7528 57.5955 44 58.0899 44.2472 58.3371C44.4944 58.5843 44.7416 58.8315 44.9888 59.0786C44.9888 59.0786 44.9888 59.0786 45.236 59.3258C45.4831 59.573 45.7303 59.8202 45.9775 60.0674C46.7191 60.5618 47.2135 60.809 47.9551 61.3034C48.2022 61.3034 48.6966 61.5506 48.9438 61.5506H49.191C49.4382 61.5506 49.6854 61.7977 50.1798 61.7977H50.427C50.9213 61.7977 51.1685 61.7977 51.6629 61.7977C52.1573 61.7977 52.4045 61.7977 52.8989 61.7977H53.1461C53.3933 61.7977 53.6404 61.7977 54.1348 61.5506H54.382C54.6292 61.5506 55.1236 61.3034 55.3708 61.3034C56.1124 61.0562 56.8539 60.5618 57.3483 60.0674C57.5955 59.8202 57.8427 59.573 58.0899 59.3258C58.0899 59.3258 58.0899 59.3258 58.3371 59.0786C58.5843 58.8315 58.8315 58.5843 59.0786 58.3371C59.3258 58.0899 59.573 57.8427 59.8202 57.3483H63.7753V60.5618ZM44 51.6629C44 47.4607 47.4607 44 51.6629 44C55.8652 44 59.3258 47.4607 59.3258 51.6629C59.3258 51.9101 59.3258 52.4045 59.3258 52.6517V52.8989C59.3258 53.1461 59.3258 53.3933 59.0786 53.6404C59.0786 53.6404 59.0786 53.6404 59.0786 53.8876C58.8315 54.382 58.5843 55.1236 58.3371 55.618C58.0899 55.8652 58.0899 56.1124 57.8427 56.3595C57.3483 56.8539 56.8539 57.3483 56.3595 57.8427C56.1124 58.0899 55.8652 58.3371 55.618 58.3371C55.1236 58.5843 54.382 58.8315 53.8876 59.0786C53.8876 59.0786 53.8876 59.0786 53.6404 59.0786C53.3933 59.0786 53.1461 59.0786 52.8989 59.3258H52.6517C52.4045 59.3258 51.9101 59.3258 51.6629 59.3258C51.4157 59.3258 50.9213 59.3258 50.6742 59.3258H50.427C50.1798 59.3258 49.9326 59.3258 49.6854 59.0786C49.6854 59.0786 49.6854 59.0786 49.4382 59.0786C48.6966 58.8315 48.2022 58.5843 47.7079 58.3371C47.4607 58.0899 47.2135 58.0899 46.9663 57.8427C46.4719 57.3483 45.9775 57.1011 45.4831 56.3595C45.236 56.1124 45.236 55.8652 44.9888 55.618C44.7416 55.1236 44.4944 54.382 44.2472 53.8876C44.2472 53.8876 44.2472 53.8876 44.2472 53.6404C44.2472 53.3933 44.2472 53.1461 44 52.8989V52.6517C44 52.4045 44 52.1573 44 51.6629ZM63.7753 55.1236H61.0562C61.0562 54.8764 61.0562 54.8764 61.3034 54.6292V54.382C61.3034 54.1348 61.3034 54.1348 61.3034 53.8876C61.3034 53.6404 61.3034 53.6404 61.3034 53.3933C61.3034 53.1461 61.3034 53.1461 61.3034 52.8989C61.3034 52.6517 61.3034 52.4045 61.3034 51.9101C61.3034 46.4719 56.8539 42.0225 51.4157 42.0225C45.9775 42.0225 41.5281 46.4719 41.5281 51.9101C41.5281 52.1573 41.5281 52.4045 41.5281 52.8989C41.5281 53.1461 41.5281 53.1461 41.5281 53.3933C41.5281 53.6404 41.5281 53.6404 41.5281 53.8876C41.5281 54.1348 41.5281 54.1348 41.5281 54.382V54.6292C41.5281 54.8764 41.5281 54.8764 41.7753 55.1236H11.1236V50.6742V41.7753V30.6517H60.5618H63.7753V55.1236ZM51.9101 46.4719C53.8876 46.4719 54.8764 46.9663 55.3708 47.9551C55.618 48.2022 55.618 48.6966 55.1236 48.6966L54.6292 48.9438C54.382 49.4382 54.1348 49.4382 53.8876 48.9438C53.8876 48.6966 53.3933 48.2022 51.9101 48.2022C50.6742 48.2022 49.6854 48.6966 49.6854 49.9326V50.1798H53.1461C53.3933 50.1798 53.6404 50.1798 53.3933 50.6742L53.1461 51.1685C53.1461 51.4157 52.8989 51.6629 52.6517 51.6629H49.4382V52.4045H52.4045C52.6517 52.4045 52.8989 52.4045 52.6517 52.8989L52.4045 53.3933C52.4045 53.6404 52.1573 53.8876 51.9101 53.8876H49.4382V54.1348C49.4382 55.1236 50.427 55.8652 51.6629 55.8652C53.1461 55.8652 53.6404 55.1236 53.6404 54.8764C53.8876 54.6292 54.1348 54.382 54.382 54.6292L54.8764 54.8764C55.3708 55.1236 55.3708 55.3708 55.1236 55.618C54.6292 56.6067 53.3933 57.1011 51.6629 57.1011C49.191 57.1011 47.7079 56.1124 47.7079 53.8876V53.6404H46.4719C46.2247 53.6404 45.9775 53.6404 46.2247 53.1461L46.4719 52.6517C46.4719 52.4045 46.7191 52.1573 46.9663 52.1573H47.9551V51.4157H47.2135C46.9663 51.4157 46.7191 51.4157 46.9663 50.9213L47.2135 50.427C47.2135 50.1798 47.4607 49.9326 47.7079 49.9326H47.9551V49.6854C47.9551 47.7079 49.4382 46.4719 51.9101 46.4719Z" fill="url(#paint0_linear)"/>
<defs>
<linearGradient id="paint0_linear" x1="-5.28" y1="66" x2="73.5501" y2="60.2021" gradientUnits="userSpaceOnUse">
<stop stop-color="#4E89E2"/>
<stop offset="1" stop-color="#FCD60D"/>
</linearGradient>
</defs>
</svg>
